<svg width="14" height="16" viewBox="0 0 14 16" fill="none" xmlns="http://www.w3.org/2000/svg">
<path opacity="0.45" d="M7 0.3125C7.6226 0.312459 8.22162 0.550666 8.67417 0.978254C9.12673 1.40584 9.3985 1.9904 9.43375 2.612L9.4375 2.75H13.375C13.5175 2.75004 13.6547 2.80418 13.7588 2.90148C13.863 2.99878 13.9263 3.13197 13.936 3.27416C13.9457 3.41635 13.9011 3.55692 13.8112 3.66747C13.7212 3.77803 13.5927 3.85032 13.4515 3.86975L13.375 3.875H12.778L11.818 13.64C11.7699 14.1268 11.5503 14.5807 11.1985 14.9206C10.8466 15.2605 10.3855 15.4643 9.89725 15.4955L9.76525 15.5H4.23475C3.74535 15.5 3.27189 15.3259 2.899 15.009C2.52612 14.692 2.27809 14.2528 2.19925 13.7698L2.182 13.6393L1.22125 3.875H0.625C0.489072 3.87499 0.357744 3.82577 0.255302 3.73643C0.152861 3.64708 0.0862362 3.52367 0.06775 3.389L0.0625 3.3125C0.0625057 3.17657 0.111732 3.04524 0.201075 2.9428C0.290419 2.84036 0.413835 2.77374 0.5485 2.75525L0.625 2.75H4.5625C4.5625 2.10354 4.81931 1.48355 5.27643 1.02643C5.73355 0.569307 6.35354 0.3125 7 0.3125V0.3125ZM11.6478 3.875H2.3515L3.30175 13.529C3.32279 13.7444 3.41772 13.9459 3.57042 14.0993C3.72312 14.2527 3.92419 14.3485 4.1395 14.3705L4.23475 14.375H9.76525C10.2153 14.375 10.597 14.0563 10.684 13.6235L10.699 13.529L11.647 3.875H11.6478ZM8.3125 5.9375C8.44843 5.93751 8.57976 5.98673 8.6822 6.07608C8.78464 6.16542 8.85127 6.28884 8.86975 6.4235L8.875 6.5V11.75C8.87496 11.8925 8.82082 12.0297 8.72352 12.1338C8.62623 12.238 8.49303 12.3013 8.35084 12.311C8.20865 12.3207 8.06808 12.2761 7.95753 12.1862C7.84697 12.0962 7.77468 11.9677 7.75525 11.8265L7.75 11.75V6.5C7.75 6.35082 7.80926 6.20774 7.91475 6.10225C8.02024 5.99676 8.16332 5.9375 8.3125 5.9375ZM5.6875 5.9375C5.82343 5.93751 5.95476 5.98673 6.0572 6.07608C6.15964 6.16542 6.22626 6.28884 6.24475 6.4235L6.25 6.5V11.75C6.24996 11.8925 6.19582 12.0297 6.09852 12.1338C6.00123 12.238 5.86803 12.3013 5.72584 12.311C5.58365 12.3207 5.44308 12.2761 5.33253 12.1862C5.22197 12.0962 5.14968 11.9677 5.13025 11.8265L5.125 11.75V6.5C5.125 6.35082 5.18426 6.20774 5.28975 6.10225C5.39524 5.99676 5.53832 5.9375 5.6875 5.9375ZM7 1.4375C6.67061 1.43751 6.35326 1.56138 6.11096 1.78451C5.86865 2.00764 5.7191 2.31372 5.692 2.642L5.6875 2.75H8.3125C8.3125 2.4019 8.17422 2.06806 7.92808 1.82192C7.68194 1.57578 7.3481 1.4375 7 1.4375Z" fill="#244034"/>
</svg>
