<svg width="16" height="13" viewBox="0 0 16 13" fill="none" xmlns="http://www.w3.org/2000/svg">
<path opacity="0.45" d="M6.7499 3.03888V0.75034C6.7499 0.551337 6.67085 0.360485 6.53013 0.219769C6.38942 0.0790534 6.19857 0 5.99956 0C5.80272 0.000828842 5.61409 0.0789776 5.47433 0.217599L0.221949 5.46998C0.151621 5.53973 0.0958001 5.62272 0.0577063 5.71416C0.0196126 5.80559 0 5.90366 0 6.00272C0 6.10177 0.0196126 6.19985 0.0577063 6.29128C0.0958001 6.38272 0.151621 6.46571 0.221949 6.53546L5.47433 11.7878C5.57966 11.8911 5.71309 11.961 5.85794 11.9888C6.00279 12.0167 6.15263 12.0012 6.28874 11.9444C6.42485 11.8875 6.54118 11.7918 6.6232 11.6692C6.70522 11.5466 6.74929 11.4026 6.7499 11.2551V8.92904H7.38769C8.57317 8.91136 9.74829 9.15187 10.8315 9.63387C11.9147 10.1159 12.8801 10.8278 13.6605 11.7203C13.7546 11.8455 13.8855 11.9382 14.0348 11.9853C14.1842 12.0324 14.3445 12.0315 14.4934 11.9829C14.6449 11.9318 14.7761 11.8336 14.8679 11.7027C14.9597 11.5718 15.0072 11.4149 15.0036 11.2551C15.0036 4.412 8.9409 3.24147 6.7499 3.03888V3.03888ZM7.38769 7.41336C6.88583 7.41179 6.38445 7.44438 5.88701 7.5109C5.70938 7.53785 5.54731 7.62765 5.43027 7.76396C5.31323 7.90028 5.24899 8.07407 5.24922 8.25374V9.44678L1.81267 6.00272L5.24922 2.55866V3.7517C5.24922 3.9507 5.32828 4.14155 5.46899 4.28227C5.60971 4.42299 5.80056 4.50204 5.99956 4.50204C6.68237 4.50204 12.0848 4.65211 13.2553 9.32672C11.5564 8.07407 9.49853 7.40304 7.38769 7.41336V7.41336Z" fill="#244034"/>
</svg>
