<svg width="18" height="18" viewBox="0 0 18 18" fill="none" xmlns="http://www.w3.org/2000/svg">
<circle cx="9" cy="9" r="8.25" stroke="#244034" stroke-width="1.5"/>
<path d="M5.2333 10.2714C4.99345 10.4099 4.9093 10.7184 5.07103 10.9432C5.4695 11.4971 5.97792 11.9654 6.56642 12.3176C7.29875 12.756 8.13084 13.0002 8.9839 13.0271C9.83697 13.0539 10.6828 12.8627 11.4413 12.4713C12.0508 12.1569 12.5877 11.7216 13.0203 11.1938C13.1959 10.9797 13.1313 10.6665 12.9007 10.5132C12.67 10.3599 12.3609 10.4251 12.1801 10.6348C11.8457 11.0225 11.4392 11.3439 10.9814 11.58C10.3746 11.8931 9.69797 12.0461 9.01551 12.0246C8.33306 12.0031 7.66739 11.8077 7.08152 11.4571C6.63957 11.1925 6.25407 10.8462 5.9448 10.4382C5.77749 10.2175 5.47316 10.1329 5.2333 10.2714Z" fill="#A7B3AE"/>
<circle cx="6" cy="7" r="1" fill="#A7B3AE"/>
<circle cx="12" cy="7" r="1" fill="#A7B3AE"/>
</svg>
