<svg width="21" height="26" viewBox="0 0 21 26" fill="none" xmlns="http://www.w3.org/2000/svg">
<path fill-rule="evenodd" clip-rule="evenodd" d="M20.7263 21.1887C20.7263 25.5015 14.812 26 10.3645 26L10.0462 25.9997C7.2126 25.9928 0 25.8139 0 21.1626C0 16.9378 5.67664 16.3732 10.0903 16.3519L10.6827 16.3516C13.5161 16.3584 20.7263 16.5373 20.7263 21.1887ZM10.3645 18.314C4.78903 18.314 1.96272 19.2718 1.96272 21.1626C1.96272 23.0703 4.78903 24.0373 10.3645 24.0373C15.9386 24.0373 18.7636 23.0795 18.7636 21.1887C18.7636 19.281 15.9386 18.314 10.3645 18.314ZM10.3645 0C14.1957 0 17.3112 3.1168 17.3112 6.94802C17.3112 10.7792 14.1957 13.8947 10.3645 13.8947H10.3226C6.49921 13.883 3.40205 10.7649 3.41509 6.9441C3.41509 3.1168 6.53193 0 10.3645 0ZM10.3645 1.86851C7.56301 1.86851 5.28361 4.14657 5.28361 6.94802C5.27448 9.74032 7.53684 12.0171 10.3265 12.0275L10.3645 12.9618V12.0275C13.1646 12.0275 15.4427 9.74817 15.4427 6.94802C15.4427 4.14657 13.1646 1.86851 10.3645 1.86851Z" fill="#242A40"/>
</svg>
