<svg width="36" height="36" viewBox="0 0 36 36" fill="none" xmlns="http://www.w3.org/2000/svg">
<circle cx="18" cy="18" r="18" fill="#D6E7DD"/>
<path fill-rule="evenodd" clip-rule="evenodd" d="M20.7396 9C21.062 9 21.3236 9.26161 21.3236 9.58395L21.3239 10.2441C22.4608 10.322 23.405 10.7114 24.0732 11.381C24.8028 12.1137 25.1866 13.1672 25.1827 14.4308V21.534C25.1827 24.1283 23.5352 25.74 20.8841 25.74H14.2987C11.6475 25.74 10 24.1057 10 21.4748V14.4293C10 11.9823 11.4693 10.4116 13.8655 10.2443L13.866 9.58395C13.866 9.26161 14.1276 9 14.4499 9C14.7723 9 15.0339 9.26161 15.0339 9.58395L15.0337 10.2294H20.1553L20.1557 9.58395C20.1557 9.26161 20.4173 9 20.7396 9ZM24.0148 15.9327H11.1679V21.4748C11.1679 23.4727 12.2797 24.5721 14.2987 24.5721H20.8841C22.903 24.5721 24.0148 23.493 24.0148 21.534L24.0148 15.9327ZM21.0571 20.8319C21.3794 20.8319 21.641 21.0935 21.641 21.4158C21.641 21.7381 21.3794 21.9998 21.0571 21.9998C20.7347 21.9998 20.47 21.7381 20.47 21.4158C20.47 21.0935 20.7277 20.8319 21.0501 20.8319H21.0571ZM17.602 20.8319C17.9244 20.8319 18.186 21.0935 18.186 21.4158C18.186 21.7381 17.9244 21.9998 17.602 21.9998C17.2797 21.9998 17.015 21.7381 17.015 21.4158C17.015 21.0935 17.2727 20.8319 17.595 20.8319H17.602ZM14.1397 20.8319C14.4621 20.8319 14.7237 21.0935 14.7237 21.4158C14.7237 21.7381 14.4621 21.9998 14.1397 21.9998C13.8174 21.9998 13.5519 21.7381 13.5519 21.4158C13.5519 21.0935 13.8104 20.8319 14.1327 20.8319H14.1397ZM21.0571 17.8057C21.3794 17.8057 21.641 18.0673 21.641 18.3896C21.641 18.712 21.3794 18.9736 21.0571 18.9736C20.7347 18.9736 20.47 18.712 20.47 18.3896C20.47 18.0673 20.7277 17.8057 21.0501 17.8057H21.0571ZM17.602 17.8057C17.9244 17.8057 18.186 18.0673 18.186 18.3896C18.186 18.712 17.9244 18.9736 17.602 18.9736C17.2797 18.9736 17.015 18.712 17.015 18.3896C17.015 18.0673 17.2727 17.8057 17.595 17.8057H17.602ZM14.1397 17.8057C14.4621 17.8057 14.7237 18.0673 14.7237 18.3896C14.7237 18.712 14.4621 18.9736 14.1397 18.9736C13.8174 18.9736 13.5519 18.712 13.5519 18.3896C13.5519 18.0673 13.8104 17.8057 14.1327 17.8057H14.1397ZM20.1553 11.3973H15.0337L15.0339 12.1463C15.0339 12.4687 14.7723 12.7303 14.4499 12.7303C14.1276 12.7303 13.866 12.4687 13.866 12.1463L13.8656 11.415C12.1213 11.5615 11.1679 12.6188 11.1679 14.4293V14.7648H24.0148L24.0148 14.4293C24.0179 13.4677 23.7594 12.7202 23.2463 12.2064C22.7959 11.7546 22.1375 11.4848 21.3242 11.4154L21.3236 12.1463C21.3236 12.4687 21.062 12.7303 20.7396 12.7303C20.4173 12.7303 20.1557 12.4687 20.1557 12.1463L20.1553 11.3973Z" fill="#3F634D"/>
</svg>
