<svg width="19" height="20" viewBox="0 0 19 20" fill="none" xmlns="http://www.w3.org/2000/svg">
<path opacity="0.5" d="M16.1547 7.53625C16.1547 7.53625 15.6263 14.0895 15.3198 16.8499C15.1739 18.1684 14.3595 18.9409 13.0255 18.9653C10.4869 19.011 7.94539 19.0139 5.40778 18.9604C4.12437 18.9341 3.32358 18.1518 3.18055 16.8567C2.87211 14.072 2.34668 7.53625 2.34668 7.53625" stroke="#3F634D" stroke-width="1.5" stroke-linecap="round" stroke-linejoin="round"/>
<path d="M17.5003 4.39484H1" stroke="#3F634D" stroke-width="1.5" stroke-linecap="round" stroke-linejoin="round"/>
<path d="M14.3204 4.39484C13.5566 4.39484 12.8988 3.85482 12.749 3.10657L12.5126 1.92339C12.3666 1.37753 11.8723 1 11.3089 1H7.19018C6.62681 1 6.13252 1.37753 5.98657 1.92339L5.75013 3.10657C5.60028 3.85482 4.94253 4.39484 4.17871 4.39484" stroke="#3F634D" stroke-width="1.5" stroke-linecap="round" stroke-linejoin="round"/>
</svg>
