<svg width="25" height="24" viewBox="0 0 25 24" fill="none" xmlns="http://www.w3.org/2000/svg">
<path fill-rule="evenodd" clip-rule="evenodd" d="M23.7603 22.0991C24.2849 22.0991 24.7107 22.5249 24.7107 23.0495C24.7107 23.5741 24.2849 23.9999 23.7603 23.9999H14.5694C14.0448 23.9999 13.619 23.5741 13.619 23.0495C13.619 22.5249 14.0448 22.0991 14.5694 22.0991H23.7603ZM17.8879 0.828285C17.9513 0.877705 20.0713 2.52504 20.0713 2.52504C20.8417 2.98376 21.4436 3.80363 21.6717 4.77429C21.8985 5.73482 21.7338 6.72576 21.2054 7.56336C21.2019 7.56895 21.1984 7.57447 21.1861 7.59089L21.1766 7.60358C21.0908 7.71662 20.718 8.18808 18.8361 10.5458C18.8187 10.5767 18.7988 10.6056 18.7772 10.6337C18.7455 10.6752 18.711 10.7133 18.6741 10.748C18.5457 10.9096 18.4102 11.0794 18.2676 11.258L17.9788 11.6197C17.3828 12.366 16.676 13.251 15.8373 14.3008L15.4069 14.8394C13.7879 16.8659 11.7144 19.4604 9.05818 22.7835C8.47654 23.5083 7.60472 23.9303 6.66827 23.9417L2.05699 24H2.04431C1.6046 24 1.22191 23.6984 1.11927 23.2688L0.0814473 18.8704C-0.132707 17.9593 0.0801801 17.0191 0.664352 16.2892L12.6012 1.35924C12.6063 1.35417 12.6101 1.34783 12.6152 1.34276C13.9242 -0.22221 16.2913 -0.452837 17.8879 0.828285ZM11.2703 6.06601L2.14822 17.4765C1.93154 17.7477 1.8517 18.0975 1.93154 18.4333L2.79449 22.0891L6.64546 22.0409C7.01167 22.0371 7.35001 21.8737 7.5743 21.5949C8.72932 20.1498 10.181 18.3335 11.6735 16.4658L12.2015 15.805L12.7304 15.1431C14.1301 13.3915 15.5129 11.6607 16.67 10.2121L11.2703 6.06601ZM14.0788 2.55546L12.4577 4.58087L17.8569 8.72574C18.8961 7.42405 19.5798 6.56672 19.643 6.48499C19.8508 6.14792 19.9319 5.67146 19.8229 5.21274C19.7114 4.74261 19.4187 4.34345 18.9967 4.08875C18.9067 4.02666 16.7715 2.36918 16.7056 2.31723C15.9022 1.6735 14.7301 1.78501 14.0788 2.55546Z" fill="#244034"/>
</svg>
