<svg width="24" height="18" viewBox="0 0 24 18" fill="none" xmlns="http://www.w3.org/2000/svg">
<path d="M9.54665 1.77274C9.58531 1.75572 9.62762 1.7487 9.66971 1.7523C9.71179 1.75591 9.75229 1.77004 9.78749 1.79339C9.82268 1.81673 9.85145 1.84855 9.87113 1.88592C9.89082 1.92329 9.9008 1.96501 9.90015 2.00724V4.02499C9.90015 4.25705 9.99234 4.47961 10.1564 4.64371C10.3205 4.8078 10.5431 4.89999 10.7752 4.89999C11.9424 4.89999 14.2979 4.90874 16.5502 6.33849C18.2722 7.43049 20.0327 9.41849 21.0914 13.1215C19.3064 11.4012 17.2677 10.4685 15.4827 9.97324C14.3855 9.67021 13.2579 9.49059 12.1209 9.43774C11.6555 9.4173 11.1893 9.42197 10.7244 9.45174H10.7017L10.6929 9.45349H10.6912L10.7752 10.325L10.6877 9.45349C10.4717 9.4752 10.2715 9.57641 10.1259 9.73746C9.9804 9.89852 9.89993 10.1079 9.90015 10.325V12.3427C9.90015 12.5317 9.70765 12.6507 9.54665 12.5772L2.57465 7.44449C2.55099 7.42694 2.52646 7.41058 2.50115 7.39549C2.4631 7.37262 2.43161 7.3403 2.40975 7.30166C2.38789 7.26302 2.37641 7.21938 2.37641 7.17499C2.37641 7.1306 2.38789 7.08696 2.40975 7.04832C2.43161 7.00968 2.4631 6.97736 2.50115 6.95449C2.52646 6.93941 2.55099 6.92305 2.57465 6.90549L9.54665 1.77274ZM11.6502 11.1755C11.7692 11.1755 11.9004 11.1807 12.0404 11.186C12.7999 11.221 13.8499 11.3365 15.0154 11.6602C17.3359 12.3042 20.0834 13.7637 21.9104 17.0502C22.0092 17.2276 22.1666 17.3652 22.3557 17.4392C22.5448 17.5133 22.7537 17.5193 22.9467 17.4562C23.1397 17.3931 23.3048 17.2648 23.4136 17.0934C23.5224 16.9219 23.5682 16.718 23.5432 16.5165C22.7312 10.024 20.2427 6.60799 17.4882 4.86149C15.3094 3.47899 13.0659 3.21299 11.6502 3.16224V2.00724C11.6503 1.64686 11.5532 1.29312 11.369 0.983339C11.1849 0.673561 10.9205 0.419233 10.6039 0.247192C10.2872 0.0751504 9.92999 -0.0082246 9.56989 0.0058643C9.20978 0.0199532 8.86016 0.130983 8.5579 0.327239L1.5684 5.47224C1.27944 5.65261 1.04114 5.90355 0.875924 6.20144C0.710711 6.49932 0.624023 6.83436 0.624023 7.17499C0.624023 7.51562 0.710711 7.85065 0.875924 8.14854C1.04114 8.44643 1.27944 8.69737 1.5684 8.87774L8.5579 14.0227C8.86016 14.219 9.20978 14.33 9.56989 14.3441C9.92999 14.3582 10.2872 14.2748 10.6039 14.1028C10.9205 13.9307 11.1849 13.6764 11.369 13.3666C11.5532 13.0569 11.6503 12.7031 11.6502 12.3427V11.1755Z" fill="#3F634D" fill-opacity="0.5"/>
</svg>
