<svg width="24" height="16" viewBox="0 0 24 16" fill="none" xmlns="http://www.w3.org/2000/svg">
<path fill-rule="evenodd" clip-rule="evenodd" d="M11.9999 0C18.5245 0 23.6331 6.94763 23.8475 7.24346C24.0508 7.52382 24.0508 7.90475 23.8475 8.18535C23.6331 8.48089 18.5245 15.4286 11.9999 15.4286C5.4753 15.4286 0.36647 8.48094 0.152297 8.18512C-0.0507658 7.90447 -0.0507658 7.52382 0.152297 7.24317C0.36647 6.94763 5.4753 0 11.9999 0ZM1.79907 7.71374C3.03127 9.22124 7.19383 13.8325 11.9999 13.8325C16.8163 13.8325 20.9701 9.2236 22.2007 7.71483C20.968 6.20653 16.8057 1.59605 11.9999 1.59605C7.18352 1.59605 3.02968 6.20492 1.79907 7.71374Z" fill="#254035"/>
<path fill-rule="evenodd" clip-rule="evenodd" d="M8 7.215C8 4.89089 9.89089 3 12.215 3C14.5391 3 16.43 4.89089 16.43 7.215C16.43 9.53911 14.5391 11.43 12.215 11.43C9.89089 11.43 8 9.53911 8 7.215ZM9.40504 7.21501C9.40504 8.76446 10.6655 10.025 12.215 10.025C13.7645 10.025 15.025 8.76446 15.025 7.21501C15.025 5.66556 13.7645 4.40504 12.215 4.40504C10.6656 4.40504 9.40504 5.66556 9.40504 7.21501Z" fill="#254035"/>
</svg>
