<svg width="23" height="25" viewBox="0 0 23 25" fill="none" xmlns="http://www.w3.org/2000/svg">
<path fill-rule="evenodd" clip-rule="evenodd" d="M21.4625 7.2404L20.7359 5.97948C20.1212 4.91256 18.7589 4.54449 17.6905 5.15668C17.1819 5.45627 16.5751 5.54127 16.0038 5.39293C15.4325 5.24459 14.9436 4.8751 14.6451 4.36594C14.453 4.04231 14.3498 3.67369 14.3459 3.29737C14.3632 2.69403 14.1356 2.10936 13.7148 1.67656C13.2941 1.24377 12.7161 0.999691 12.1125 0.999939H10.6486C10.0573 0.999939 9.49031 1.23557 9.07318 1.65471C8.65605 2.07384 8.42313 2.64193 8.42597 3.23325C8.40845 4.45414 7.41367 5.43464 6.19266 5.43451C5.81634 5.4306 5.44772 5.32739 5.12409 5.13531C4.0557 4.52312 2.69339 4.89119 2.07866 5.95811L1.2986 7.2404C0.684618 8.30599 1.04767 9.66744 2.11072 10.2858C2.80171 10.6848 3.22739 11.422 3.22739 12.2199C3.22739 13.0178 2.80171 13.7551 2.11072 14.1541C1.04902 14.7683 0.685572 16.1264 1.2986 17.1888L2.03592 18.4604C2.32394 18.9801 2.8072 19.3636 3.37876 19.5261C3.95031 19.6885 4.56304 19.6165 5.08135 19.3259C5.59087 19.0286 6.19806 18.9472 6.76793 19.0997C7.33781 19.2522 7.82315 19.626 8.11609 20.1381C8.30817 20.4617 8.41138 20.8303 8.41529 21.2066C8.41529 22.44 9.41518 23.4399 10.6486 23.4399H12.1125C13.3418 23.4399 14.34 22.4466 14.3459 21.2173C14.343 20.6241 14.5774 20.0544 14.9968 19.635C15.4163 19.2155 15.986 18.9811 16.5792 18.984C16.9546 18.994 17.3217 19.0968 17.6477 19.2832C18.7133 19.8972 20.0748 19.5341 20.6932 18.4711L21.4625 17.1888C21.7603 16.6776 21.8421 16.0688 21.6897 15.4972C21.5372 14.9256 21.1632 14.4384 20.6504 14.1434C20.1377 13.8484 19.7636 13.3611 19.6112 12.7895C19.4588 12.2179 19.5405 11.6091 19.8383 11.0979C20.032 10.7598 20.3123 10.4795 20.6504 10.2858C21.7071 9.66778 22.0693 8.31428 21.4625 7.25108V7.2404Z" stroke="#244034" stroke-width="1.5" stroke-linecap="round" stroke-linejoin="round"/>
<path opacity="0.4" d="M11.3861 15.2975C13.0857 15.2975 14.4636 13.9197 14.4636 12.22C14.4636 10.5204 13.0857 9.14252 11.3861 9.14252C9.68643 9.14252 8.30859 10.5204 8.30859 12.22C8.30859 13.9197 9.68643 15.2975 11.3861 15.2975Z" stroke="#244034" stroke-width="1.5" stroke-linecap="round" stroke-linejoin="round"/>
</svg>
