<svg width="20" height="21" viewBox="0 0 20 21" fill="none" xmlns="http://www.w3.org/2000/svg">
<g opacity="0.5">
<path d="M16.9965 7.89935C16.9965 7.89935 16.4388 14.8167 16.1153 17.7305C15.9612 19.1221 15.1016 19.9376 13.6935 19.9633C11.0138 20.0116 8.33114 20.0147 5.65254 19.9582C4.29784 19.9304 3.45256 19.1047 3.30158 17.7376C2.976 14.7982 2.42139 7.89935 2.42139 7.89935" stroke="#3F634D" stroke-width="1.5" stroke-linecap="round" stroke-linejoin="round"/>
<path d="M18.417 4.58344H1" stroke="#3F634D" stroke-width="1.5" stroke-linecap="round" stroke-linejoin="round"/>
<path d="M15.0606 4.58344C14.2544 4.58344 13.5601 4.01342 13.4019 3.2236L13.1523 1.97469C12.9982 1.3985 12.4765 1 11.8818 1H7.53425C6.93957 1 6.41782 1.3985 6.26376 1.97469L6.01418 3.2236C5.85602 4.01342 5.16172 4.58344 4.35547 4.58344" stroke="#3F634D" stroke-width="1.5" stroke-linecap="round" stroke-linejoin="round"/>
</g>
</svg>
