<svg width="36" height="36" viewBox="0 0 36 36" fill="none" xmlns="http://www.w3.org/2000/svg">
<circle cx="18" cy="18" r="18" fill="#D6E7DD"/>
<path fill-rule="evenodd" clip-rule="evenodd" d="M20.6598 9C23.256 9 25 10.7779 25 13.4236V21.0173C25 23.6862 23.3097 25.422 20.6936 25.4385L14.341 25.441C11.7448 25.441 10 23.6631 10 21.0173V13.4236C10 10.7539 11.6903 9.01899 14.3064 9.0033L20.659 9H20.6598ZM20.6598 10.2386L14.3105 10.2419C12.3881 10.2535 11.2386 11.4426 11.2386 13.4236V21.0173C11.2386 23.0116 12.3988 24.2023 14.3402 24.2023L20.6895 24.1998C22.6119 24.1883 23.7614 22.9975 23.7614 21.0173V13.4236C23.7614 11.4294 22.602 10.2386 20.6598 10.2386ZM20.5005 20.1261C20.8424 20.1261 21.1198 20.4036 21.1198 20.7454C21.1198 21.0873 20.8424 21.3647 20.5005 21.3647H14.5385C14.1966 21.3647 13.9192 21.0873 13.9192 20.7454C13.9192 20.4036 14.1966 20.1261 14.5385 20.1261H20.5005ZM20.5005 16.669C20.8424 16.669 21.1198 16.9465 21.1198 17.2884C21.1198 17.6302 20.8424 17.9077 20.5005 17.9077H14.5385C14.1966 17.9077 13.9192 17.6302 13.9192 17.2884C13.9192 16.9465 14.1966 16.669 14.5385 16.669H20.5005ZM16.8132 13.22C17.1551 13.22 17.4325 13.4974 17.4325 13.8393C17.4325 14.1812 17.1551 14.4586 16.8132 14.4586H14.5382C14.1964 14.4586 13.9189 14.1812 13.9189 13.8393C13.9189 13.4974 14.1964 13.22 14.5382 13.22H16.8132Z" fill="#3F634D"/>
</svg>
