<svg width="21" height="22" viewBox="0 0 21 22" fill="none" xmlns="http://www.w3.org/2000/svg">
<path fill-rule="evenodd" clip-rule="evenodd" d="M19.2376 6.56191L18.5899 5.4381C18.0421 4.48718 16.8279 4.15914 15.8757 4.70476C15.4224 4.97178 14.8815 5.04753 14.3723 4.91532C13.8632 4.78311 13.4275 4.4538 13.1614 4C12.9902 3.71156 12.8982 3.38302 12.8947 3.04762C12.9101 2.50988 12.7073 1.98879 12.3323 1.60305C11.9573 1.21731 11.4422 0.999779 10.9042 1H9.59947C9.07243 1 8.56712 1.21001 8.19534 1.58357C7.82357 1.95713 7.61598 2.46345 7.61851 2.99048C7.60289 4.07861 6.71629 4.95249 5.62804 4.95238C5.29264 4.9489 4.9641 4.85691 4.67566 4.68571C3.72344 4.14009 2.50926 4.46813 1.96137 5.41905L1.26614 6.56191C0.718911 7.51163 1.04249 8.72505 1.98994 9.27619C2.60581 9.63175 2.98519 10.2889 2.98519 11C2.98519 11.7111 2.60581 12.3682 1.98994 12.7238C1.04369 13.2712 0.719761 14.4817 1.26614 15.4286L1.92328 16.5619C2.17999 17.0251 2.6107 17.3669 3.1201 17.5117C3.62951 17.6565 4.17561 17.5923 4.63756 17.3333C5.09169 17.0684 5.63285 16.9957 6.14076 17.1317C6.64867 17.2676 7.08124 17.6008 7.34232 18.0571C7.51352 18.3456 7.60551 18.6741 7.60899 19.0095C7.60899 20.1088 8.50016 21 9.59947 21H10.9042C11.9998 21 12.8895 20.1146 12.8947 19.019C12.8922 18.4904 13.101 17.9826 13.4749 17.6088C13.8487 17.2349 14.3565 17.026 14.8852 17.0286C15.2198 17.0375 15.547 17.1291 15.8376 17.2952C16.7873 17.8425 18.0007 17.5189 18.5518 16.5714L19.2376 15.4286C19.503 14.973 19.5758 14.4304 19.44 13.9209C19.3041 13.4115 18.9708 12.9772 18.5138 12.7143C18.0567 12.4514 17.7234 12.0171 17.5875 11.5076C17.4517 10.9982 17.5245 10.4556 17.7899 10C17.9625 9.69865 18.2124 9.44879 18.5138 9.27619C19.4555 8.72535 19.7783 7.51902 19.2376 6.57143V6.56191Z" stroke="#244034" stroke-width="1.5" stroke-linecap="round" stroke-linejoin="round"/>
<path opacity="0.4" d="M10.2565 13.743C11.7714 13.743 12.9994 12.515 12.9994 11.0002C12.9994 9.48534 11.7714 8.25732 10.2565 8.25732C8.74169 8.25732 7.51367 9.48534 7.51367 11.0002C7.51367 12.515 8.74169 13.743 10.2565 13.743Z" stroke="#244034" stroke-width="1.5" stroke-linecap="round" stroke-linejoin="round"/>
</svg>
