<svg width="80" height="80" viewBox="0 0 80 80" fill="none" xmlns="http://www.w3.org/2000/svg">
<path d="M39.9999 80C62.0907 80 80 62.1261 80 40.0001C80 17.8741 62.0116 0 39.9999 0C17.9092 0 0 17.8741 0 40.0001C0 62.1261 17.9092 80 39.9999 80Z" fill="#D2F34C"/>
<path d="M26.7106 33.0947V51.4281C26.7106 55.4781 29.9939 58.7614 34.0439 58.7614H45.0439C49.094 58.7614 52.3773 55.4781 52.3773 51.4281V33.0947M43.2106 38.5947V49.5947M35.8773 38.5947L35.8773 49.5947M46.8773 27.5947L44.2991 23.7275C43.6191 22.7074 42.4742 22.0947 41.2483 22.0947H37.8396C36.6137 22.0947 35.4688 22.7074 34.7888 23.7275L32.2106 27.5947M46.8773 27.5947H32.2106M46.8773 27.5947H56.0439M32.2106 27.5947H23.0439" stroke="#3F634D" stroke-width="3" stroke-linecap="round" stroke-linejoin="round"/>
</svg>
