<svg width="19" height="20" viewBox="0 0 19 20" fill="none" xmlns="http://www.w3.org/2000/svg">
<path d="M17.8651 9.71836L10.2068 17.3767C9.26858 18.3149 7.9961 18.842 6.66928 18.842C5.34246 18.842 4.06999 18.3149 3.13178 17.3767C2.19358 16.4385 1.6665 15.166 1.6665 13.8392C1.6665 12.5124 2.19358 11.2399 3.13178 10.3017L10.7901 2.64336C11.4156 2.01789 12.2639 1.6665 13.1485 1.6665C14.033 1.6665 14.8813 2.01789 15.5068 2.64336C16.1323 3.26883 16.4836 4.11714 16.4836 5.00169C16.4836 5.88624 16.1323 6.73455 15.5068 7.36002L7.84012 15.0184C7.68527 15.1732 7.50143 15.296 7.29911 15.3798C7.09679 15.4636 6.87994 15.5068 6.66095 15.5068C6.44196 15.5068 6.22511 15.4636 6.02279 15.3798C5.82047 15.296 5.63663 15.1732 5.48178 15.0184C5.32693 14.8635 5.2041 14.6797 5.1203 14.4773C5.03649 14.275 4.99336 14.0582 4.99336 13.8392C4.99336 13.6202 5.03649 13.4034 5.1203 13.201C5.2041 12.9987 5.32693 12.8149 5.48178 12.66L12.5568 5.59336" stroke="#244034" stroke-width="1.5" stroke-linecap="round" stroke-linejoin="round"/>
</svg>
