<svg width="20" height="20" viewBox="0 0 20 20" fill="none" xmlns="http://www.w3.org/2000/svg">
<path fill-rule="evenodd" clip-rule="evenodd" d="M19.0098 6.02342V13.9756C19.0098 16.922 17.1659 19 14.2195 19H5.78049C2.83415 19 1 16.922 1 13.9756V6.02342C1 3.07707 2.8439 1 5.78049 1H14.2195C17.1659 1 19.0098 3.07707 19.0098 6.02342Z" stroke="#244034" stroke-width="1.5" stroke-linecap="round" stroke-linejoin="round"/>
<path opacity="0.4" d="M3.46973 14.347L4.96046 12.7733C5.47851 12.2241 6.34192 12.1977 6.89217 12.7148C6.90875 12.7314 7.80631 13.6436 7.80631 13.6436C8.34777 14.1948 9.23265 14.2036 9.78387 13.6631C9.81997 13.628 12.0609 10.9099 12.0609 10.9099C12.6385 10.2085 13.6756 10.108 14.378 10.6865C14.4248 10.7255 16.5419 12.8982 16.5419 12.8982" stroke="#244034" stroke-width="1.5" stroke-linecap="round" stroke-linejoin="round"/>
<path opacity="0.4" fill-rule="evenodd" clip-rule="evenodd" d="M8.37849 7.22715C8.37849 8.17252 7.61264 8.93837 6.66727 8.93837C5.72191 8.93837 4.95605 8.17252 4.95605 7.22715C4.95605 6.28178 5.72191 5.51593 6.66727 5.51593C7.61264 5.51691 8.37849 6.28178 8.37849 7.22715Z" stroke="#244034" stroke-width="1.5" stroke-linecap="round" stroke-linejoin="round"/>
</svg>
