<svg width="36" height="36" viewBox="0 0 36 36" fill="none" xmlns="http://www.w3.org/2000/svg">
<circle cx="18" cy="18" r="18" fill="#D6E6DD"/>
<path fill-rule="evenodd" clip-rule="evenodd" d="M22.0454 11C24.6069 11 26.5385 13.09 26.5385 15.8615V21.1446C26.5385 22.5631 26.0369 23.8446 25.1254 24.7538C24.3077 25.5685 23.2469 26 22.0577 26H14.4785C13.2915 26 12.2315 25.5692 11.4131 24.7538C10.5015 23.8446 10 22.5631 10 21.1446V15.8615C10 13.09 11.9315 11 14.4931 11H22.0454ZM22.0454 12.1538H14.4931C12.5585 12.1538 11.1538 13.7131 11.1538 15.8615V21.1446C11.1538 22.2546 11.5354 23.2462 12.2277 23.9362C12.8246 24.5323 13.6038 24.8462 14.4808 24.8462H22.0454C22.0469 24.8446 22.0531 24.8462 22.0577 24.8462C22.9354 24.8462 23.7138 24.5323 24.3108 23.9362C25.0038 23.2462 25.3846 22.2546 25.3846 21.1446V15.8615C25.3846 13.7131 23.98 12.1538 22.0454 12.1538ZM23.2577 15.7145C23.4585 15.9614 23.4208 16.3245 23.1738 16.526L19.7554 19.3045C19.3231 19.6475 18.8062 19.8191 18.29 19.8191C17.7754 19.8191 17.2623 19.6491 16.8331 19.3091L13.3831 16.5275C13.1346 16.3275 13.0962 15.9637 13.2954 15.716C13.4962 15.4691 13.8592 15.4298 14.1069 15.6291L17.5538 18.4075C17.9869 18.7506 18.5969 18.7506 19.0331 18.4045L22.4454 15.6306C22.6931 15.4283 23.0562 15.4668 23.2577 15.7145Z" fill="#3F634D"/>
</svg>
