<svg width="26" height="26" viewBox="0 0 26 26" fill="none" xmlns="http://www.w3.org/2000/svg">
<path d="M11.1233 6.01893L7.11979 1.39764C6.65825 0.865097 5.8121 0.867464 5.276 1.40474L1.9837 4.70296C1.00383 5.68402 0.723352 7.14082 1.29021 8.30887C4.67674 15.3206 10.3317 20.9835 17.3387 24.3798C18.5056 24.9467 19.9612 24.6662 20.9411 23.6852L24.2641 20.3562C24.8026 19.8177 24.8038 18.9668 24.2665 18.5053L19.6274 14.5231C19.1422 14.1065 18.3884 14.1609 17.902 14.6485L16.2878 16.2651C16.2052 16.3517 16.0964 16.4088 15.9782 16.4276C15.8599 16.4464 15.7388 16.4259 15.6334 16.3692C12.9949 14.8498 10.8062 12.6582 9.2902 10.0177C9.23342 9.91212 9.21287 9.79079 9.23168 9.67236C9.25049 9.55393 9.30763 9.44495 9.39434 9.36212L11.0038 7.75147C11.4914 7.26153 11.5446 6.50414 11.1233 6.01775V6.01893Z" stroke="#009A42" stroke-width="2" stroke-linecap="round" stroke-linejoin="round"/>
</svg>
