<svg width="24" height="24" viewBox="0 0 24 24" fill="none" xmlns="http://www.w3.org/2000/svg">
<path d="M3.29618 20.602L9.66018 14.238M17.6742 11.408L15.7692 17.123C15.7388 17.2146 15.6867 17.2975 15.6174 17.3647C15.5482 17.4319 15.4637 17.4814 15.3712 17.509L3.69318 20.98C3.58798 21.0113 3.47621 21.013 3.37005 20.9852C3.2639 20.9573 3.16742 20.9009 3.09111 20.822C3.01481 20.7431 2.9616 20.6448 2.93728 20.5378C2.91296 20.4308 2.91846 20.3191 2.95318 20.215L6.74518 8.84101C6.77236 8.75934 6.81679 8.68448 6.87546 8.6215C6.93412 8.55852 7.00565 8.5089 7.08518 8.47601L12.4722 6.25801C12.5817 6.21277 12.7022 6.20098 12.8184 6.22412C12.9346 6.24725 13.0413 6.30428 13.1252 6.38801L17.5292 10.793C17.6082 10.8719 17.6636 10.9712 17.6892 11.0799C17.7148 11.1885 17.7096 11.3022 17.6742 11.408V11.408Z" stroke="black" stroke-width="1.5" stroke-linecap="round" stroke-linejoin="round"/>
<path d="M17.7923 11.056L20.6203 8.22701C20.9953 7.85195 21.2059 7.34333 21.2059 6.81301C21.2059 6.28268 20.9953 5.77406 20.6203 5.39901L18.5003 3.27701C18.3146 3.0912 18.0941 2.94381 17.8514 2.84325C17.6087 2.74269 17.3485 2.69093 17.0858 2.69093C16.8231 2.69093 16.563 2.74269 16.3203 2.84325C16.0776 2.94381 15.8571 3.0912 15.6713 3.27701L12.8433 6.10601M11.7813 12.116C11.642 11.9767 11.4766 11.8663 11.2946 11.7909C11.1126 11.7156 10.9175 11.6768 10.7205 11.6769C10.5235 11.6769 10.3284 11.7158 10.1464 11.7912C9.96444 11.8666 9.7991 11.9772 9.65983 12.1165C9.52056 12.2558 9.4101 12.4212 9.33476 12.6033C9.25941 12.7853 9.22066 12.9804 9.2207 13.1774C9.22075 13.3744 9.2596 13.5694 9.33503 13.7514C9.41046 13.9334 9.521 14.0987 9.66033 14.238C9.94172 14.5193 10.3233 14.6772 10.7212 14.6771C11.119 14.677 11.5006 14.5189 11.7818 14.2375C12.0631 13.9561 12.2211 13.5745 12.221 13.1767C12.2209 12.7788 12.0627 12.3973 11.7813 12.116Z" stroke="black" stroke-width="1.5" stroke-linecap="round" stroke-linejoin="round"/>
</svg>
