<svg width="20" height="21" viewBox="0 0 20 21" fill="none" xmlns="http://www.w3.org/2000/svg">
<path d="M8.69835 4.9822L5.65383 1.46792C5.30285 1.06294 4.65939 1.06474 4.25171 1.47331L1.74806 3.98146C1.00291 4.72752 0.789622 5.83535 1.2207 6.7236C3.796 12.0558 8.09633 16.3621 13.4249 18.9449C14.3122 19.3759 15.4191 19.1627 16.1643 18.4166L18.6914 15.8851C19.1008 15.4756 19.1017 14.8285 18.6931 14.4775L15.1654 11.4492C14.7964 11.1324 14.2231 11.1738 13.8532 11.5446L12.6257 12.7739C12.5629 12.8398 12.4801 12.8832 12.3902 12.8975C12.3003 12.9118 12.2082 12.8962 12.128 12.8531C10.1216 11.6977 8.45715 10.0311 7.30433 8.02312C7.26116 7.9428 7.24553 7.85054 7.25983 7.76048C7.27414 7.67042 7.31759 7.58754 7.38353 7.52455L8.60745 6.29973C8.97823 5.92715 9.01873 5.35118 8.69835 4.9813V4.9822Z" stroke="#09321C" stroke-width="2" stroke-linecap="round" stroke-linejoin="round"/>
</svg>
