<svg width="20" height="24" viewBox="0 0 20 24" fill="none" xmlns="http://www.w3.org/2000/svg">
<path d="M9.78344 12.2293C10.4561 12.2293 11.0321 11.9896 11.5114 11.5102C11.99 11.0316 12.2293 10.4561 12.2293 9.78344C12.2293 9.11083 11.99 8.53483 11.5114 8.05544C11.0321 7.57687 10.4561 7.33758 9.78344 7.33758C9.11083 7.33758 8.53524 7.57687 8.05666 8.05544C7.57727 8.53483 7.33758 9.11083 7.33758 9.78344C7.33758 10.4561 7.57727 11.0316 8.05666 11.5102C8.53524 11.9896 9.11083 12.2293 9.78344 12.2293ZM9.78344 21.2178C12.2701 18.935 14.1146 16.8609 15.3172 14.9956C16.5197 13.131 17.121 11.4752 17.121 10.028C17.121 7.80637 16.4125 5.98706 14.9956 4.57009C13.5794 3.15394 11.842 2.44586 9.78344 2.44586C7.72484 2.44586 5.98706 3.15394 4.57009 4.57009C3.15394 5.98706 2.44586 7.80637 2.44586 10.028C2.44586 11.4752 3.04713 13.131 4.24968 14.9956C5.45223 16.8609 7.29682 18.935 9.78344 21.2178ZM9.78344 24C9.62038 24 9.45732 23.9694 9.29427 23.9083C9.13121 23.8471 8.98853 23.7656 8.86624 23.6637C5.89045 21.0344 3.66879 18.5938 2.20127 16.342C0.733758 14.0894 0 11.9847 0 10.028C0 6.9707 0.983643 4.53503 2.95093 2.72102C4.9174 0.907006 7.1949 0 9.78344 0C12.372 0 14.6495 0.907006 16.6159 2.72102C18.5832 4.53503 19.5669 6.9707 19.5669 10.028C19.5669 11.9847 18.8331 14.0894 17.3656 16.342C15.8981 18.5938 13.6764 21.0344 10.7006 23.6637C10.5783 23.7656 10.4357 23.8471 10.2726 23.9083C10.1096 23.9694 9.9465 24 9.78344 24Z" fill="#168656"/>
</svg>
