<svg width="21" height="20" viewBox="0 0 21 20" fill="none" xmlns="http://www.w3.org/2000/svg">
<path fill-rule="evenodd" clip-rule="evenodd" d="M19.8002 18.4159C20.2374 18.4159 20.5922 18.7707 20.5922 19.2079C20.5922 19.6451 20.2374 19.9999 19.8002 19.9999H12.1412C11.704 19.9999 11.3492 19.6451 11.3492 19.2079C11.3492 18.7707 11.704 18.4159 12.1412 18.4159H19.8002ZM14.9066 0.690238C14.9594 0.731421 16.7261 2.1042 16.7261 2.1042C17.3681 2.48647 17.8697 3.16969 18.0598 3.97858C18.2488 4.77902 18.1115 5.6048 17.6712 6.3028C17.6682 6.30746 17.6653 6.31206 17.6551 6.32574L17.6472 6.33632C17.5757 6.43052 17.265 6.8234 15.6968 8.78816C15.6822 8.81391 15.6657 8.83803 15.6477 8.86146C15.6212 8.896 15.5925 8.92775 15.5617 8.95667C15.4548 9.09134 15.3418 9.23285 15.223 9.38163L14.9823 9.68308C14.4857 10.305 13.8966 11.0425 13.1978 11.9173L12.8391 12.3662C11.4899 14.0549 9.76199 16.217 7.54848 18.9863C7.06378 19.5903 6.33726 19.9419 5.55689 19.9514L1.71416 20H1.7036C1.33717 20 1.01826 19.7487 0.932725 19.3907L0.0678728 15.7254C-0.110589 14.9661 0.0668168 14.1826 0.553626 13.5743L10.501 1.1327C10.5052 1.12847 10.5084 1.12319 10.5126 1.11897C11.6035 -0.185175 13.576 -0.377364 14.9066 0.690238ZM9.39194 5.05501L1.79019 14.5638C1.60961 14.7898 1.54309 15.0812 1.60961 15.3611L2.32874 18.4076L5.53788 18.3674C5.84306 18.3643 6.12501 18.2281 6.31192 17.9957C7.27443 16.7915 8.48414 15.2779 9.72788 13.7215L10.1679 13.1709L10.6087 12.6193C11.7751 11.1595 12.9274 9.71725 13.8916 8.51005L9.39194 5.05501ZM11.7323 2.12955L10.3814 3.81739L14.8807 7.27145C15.7467 6.1867 16.3165 5.47227 16.3691 5.40416C16.5423 5.12327 16.6099 4.72622 16.5191 4.34395C16.4262 3.95218 16.1822 3.61954 15.8306 3.40729C15.7556 3.35555 13.9763 1.97432 13.9214 1.93102C13.2519 1.39458 12.2751 1.48751 11.7323 2.12955Z" fill="#09321C"/>
</svg>
