<svg width="26" height="18" viewBox="0 0 26 18" fill="none" xmlns="http://www.w3.org/2000/svg">
<path d="M7.33126 15.0831C7.01777 15.0836 6.71506 14.9687 6.48081 14.7604L0 8.99936L6.84071 2.91816C7.09569 2.70003 7.42609 2.59068 7.76086 2.61362C8.09562 2.63655 8.40802 2.78995 8.63086 3.04082C8.85371 3.29169 8.9692 3.61999 8.95251 3.95512C8.93582 4.29026 8.78827 4.60546 8.5416 4.83294L3.85519 8.99936L8.1817 12.8443C8.37608 13.0168 8.51339 13.2443 8.57542 13.4966C8.63744 13.749 8.62124 14.0142 8.52896 14.2571C8.43668 14.5001 8.2727 14.7092 8.05877 14.8567C7.84485 15.0042 7.59112 15.0832 7.33126 15.0831ZM18.7879 15.0806L25.6287 8.99936L19.1478 3.23836C18.8939 3.0128 18.5608 2.89736 18.2218 2.91741C17.8827 2.93747 17.5656 3.09139 17.34 3.3453C17.1145 3.59922 16.999 3.93233 17.0191 4.27137C17.0391 4.61041 17.193 4.92759 17.447 5.15314L21.7735 8.99936L17.0871 13.1645C16.833 13.39 16.6789 13.7073 16.6587 14.0465C16.6385 14.3856 16.7539 14.7189 16.9795 14.973C17.205 15.2271 17.5223 15.3811 17.8614 15.4013C18.2006 15.4215 18.5339 15.3061 18.7879 15.0806ZM12.7964 16.8954L15.358 1.52594C15.3907 1.35796 15.3895 1.18513 15.3543 1.01765C15.3192 0.850161 15.2508 0.691421 15.1533 0.550802C15.0557 0.410183 14.931 0.290538 14.7864 0.198934C14.6419 0.10733 14.4804 0.0456236 14.3116 0.0174613C14.1428 -0.0107011 13.9701 -0.00474883 13.8036 0.0349666C13.6372 0.074682 13.4804 0.147355 13.3425 0.248693C13.2045 0.350031 13.0883 0.477978 13.0007 0.624978C12.9131 0.771977 12.8558 0.935047 12.8323 1.10456L10.2707 16.4741C10.2379 16.642 10.2392 16.8149 10.2743 16.9824C10.3095 17.1498 10.3778 17.3086 10.4754 17.4492C10.5729 17.5898 10.6977 17.7095 10.8422 17.8011C10.9868 17.8927 11.1482 17.9544 11.317 17.9825C11.4858 18.0107 11.6586 18.0047 11.825 17.965C11.9915 17.9253 12.1483 17.8526 12.2862 17.7513C12.4241 17.65 12.5403 17.522 12.6279 17.375C12.7156 17.228 12.7728 17.065 12.7964 16.8954Z" fill="#009A42"/>
</svg>
