<svg width="21" height="20" viewBox="0 0 21 20" fill="none" xmlns="http://www.w3.org/2000/svg">
<path d="M1.37871 9.19123C0.632279 9.19123 0.320659 8.23221 0.926988 7.79015L10.1524 1.07947C10.2841 0.982946 10.4432 0.930908 10.6065 0.930908C10.7698 0.930908 10.9289 0.982946 11.0606 1.07947L20.286 7.79015C20.8923 8.2298 20.5807 9.19123 19.8319 9.19123H18.3366V18.2258H20.0759C20.1821 18.2258 20.2691 18.3127 20.2691 18.419V19.6752C20.2691 19.7814 20.1821 19.8684 20.0759 19.8684H1.13715C1.03086 19.8684 0.943898 19.7814 0.943898 19.6752V18.419C0.943898 18.3127 1.03086 18.2258 1.13715 18.2258H2.87642V9.19123H1.37871ZM10.6065 2.7825L4.05767 7.54617H17.1553L10.6065 2.7825ZM16.5973 9.19123H13.771V18.2258H16.5973V9.19123ZM12.0317 9.19123H9.20543V18.2258H12.0317V9.19123ZM4.61569 18.2258H7.46616V9.19123H4.61569V18.2258Z" fill="black"/>
</svg>
