<svg width="24" height="24" viewBox="0 0 24 24" fill="none" xmlns="http://www.w3.org/2000/svg">
<path d="M10.5542 6.24L7.17123 2.335C6.78123 1.885 6.06623 1.887 5.61323 2.341L2.83123 5.128C2.00323 5.957 1.76623 7.188 2.24523 8.175C5.10685 14.1 9.88528 18.8851 15.8062 21.755C16.7922 22.234 18.0222 21.997 18.8502 21.168L21.6582 18.355C22.1132 17.9 22.1142 17.181 21.6602 16.791L17.7402 13.426C17.3302 13.074 16.6932 13.12 16.2822 13.532L14.9182 14.898C14.8484 14.9712 14.7565 15.0194 14.6566 15.0353C14.5567 15.0512 14.4543 15.0339 14.3652 14.986C12.1357 13.7021 10.2862 11.8502 9.00523 9.619C8.95726 9.52975 8.93989 9.42723 8.95578 9.32716C8.97168 9.22708 9.01996 9.13499 9.09323 9.065L10.4532 7.704C10.8652 7.29 10.9102 6.65 10.5542 6.239V6.24Z" stroke="black" stroke-width="2" stroke-linecap="round" stroke-linejoin="round"/>
</svg>
