<svg width="25" height="25" viewBox="0 0 25 25" fill="none" xmlns="http://www.w3.org/2000/svg">
<path d="M3.17372 11.2793C2.41932 11.2793 2.10438 10.3101 2.71717 9.86328L12.0409 3.08105C12.1741 2.9835 12.3348 2.93091 12.4999 2.93091C12.665 2.93091 12.8257 2.9835 12.9589 3.08105L22.2826 9.86328C22.8954 10.3076 22.5805 11.2793 21.8236 11.2793H20.3124V20.4102H22.0702C22.1776 20.4102 22.2655 20.498 22.2655 20.6055V21.875C22.2655 21.9824 22.1776 22.0703 22.0702 22.0703H2.92958C2.82215 22.0703 2.73426 21.9824 2.73426 21.875V20.6055C2.73426 20.498 2.82215 20.4102 2.92958 20.4102H4.68739V11.2793H3.17372ZM12.4999 4.80225L5.88124 9.6167H19.1185L12.4999 4.80225ZM18.5546 11.2793H15.6981V20.4102H18.5546V11.2793ZM13.9403 11.2793H11.0839V20.4102H13.9403V11.2793ZM6.4452 20.4102H9.32606V11.2793H6.4452V20.4102Z" fill="#09321C"/>
</svg>
