<svg width="22" height="23" viewBox="0 0 22 23" fill="none" xmlns="http://www.w3.org/2000/svg">
<g clip-path="url(#clip0_519_3477)">
<path d="M6.29103 16.3932C6.02179 16.3936 5.76182 16.2949 5.56063 16.116L-0.00537109 11.1682L5.86973 5.94542C6.08872 5.75808 6.37248 5.66416 6.65999 5.68386C6.9475 5.70356 7.2158 5.83531 7.40719 6.05076C7.59857 6.26622 7.69777 6.54818 7.68343 6.83601C7.6691 7.12384 7.54238 7.39455 7.33053 7.58992L3.30563 11.1682L7.02143 14.4704C7.18837 14.6185 7.3063 14.8139 7.35957 15.0307C7.41284 15.2474 7.39892 15.4752 7.31967 15.6838C7.24042 15.8925 7.09958 16.0721 6.91585 16.1988C6.73213 16.3255 6.51421 16.3933 6.29103 16.3932ZM16.1305 16.391L22.0056 11.1682L16.4396 6.22042C16.2216 6.0267 15.9355 5.92755 15.6443 5.94478C15.3531 5.962 15.0807 6.09419 14.887 6.31227C14.6933 6.53034 14.5941 6.81644 14.6113 7.10762C14.6286 7.39879 14.7608 7.6712 14.9788 7.86492L18.6946 11.1682L14.6697 14.7454C14.4515 14.9391 14.3192 15.2116 14.3019 15.5029C14.2845 15.7942 14.3836 16.0804 14.5773 16.2986C14.771 16.5168 15.0435 16.6492 15.3348 16.6665C15.6261 16.6838 15.9123 16.5847 16.1305 16.391ZM10.9847 17.9497L13.1847 4.74972C13.2129 4.60546 13.2118 4.45702 13.1816 4.31318C13.1514 4.16933 13.0927 4.033 13.0089 3.91223C12.9251 3.79146 12.818 3.68871 12.6939 3.61003C12.5697 3.53136 12.4311 3.47836 12.2861 3.45417C12.1411 3.42999 11.9928 3.4351 11.8498 3.46921C11.7068 3.50332 11.5721 3.56573 11.4537 3.65277C11.3353 3.7398 11.2355 3.84969 11.1602 3.97594C11.0849 4.10219 11.0358 4.24224 11.0155 4.38782L8.81553 17.5878C8.7874 17.7321 8.78846 17.8805 8.81866 18.0244C8.84886 18.1682 8.90758 18.3045 8.99135 18.4253C9.07512 18.5461 9.18224 18.6488 9.30639 18.7275C9.43054 18.8062 9.5692 18.8592 9.71418 18.8834C9.85915 18.9075 10.0075 18.9024 10.1505 18.8683C10.2934 18.8342 10.4281 18.7718 10.5466 18.6848C10.665 18.5977 10.7648 18.4879 10.8401 18.3616C10.9153 18.2354 10.9645 18.0953 10.9847 17.9497Z" fill="#35764B"/>
</g>
<defs>
<clipPath id="clip0_519_3477">
<rect width="22" height="22" fill="white" transform="translate(0 0.168213)"/>
</clipPath>
</defs>
</svg>
