<svg width="73" height="52" viewBox="0 0 73 52" fill="none" xmlns="http://www.w3.org/2000/svg">
<path d="M14.5972 45.5537C22.1641 47.5812 29.9189 43.2641 31.8841 35.9301C32.8238 32.4231 32.3144 28.7398 30.4499 25.5588C28.5895 22.3849 25.5898 20.0665 22.0028 19.0306L21.8987 19C20.6445 18.6243 19.3353 19.3147 18.9744 20.5297C18.6136 21.7448 19.3379 23.0299 20.5921 23.4001L20.7178 23.4372C25.6375 24.8547 28.5946 29.9095 27.3098 34.7044C25.9997 39.5937 20.8298 42.4718 15.7852 41.1201C10.7406 39.7684 7.7024 34.691 9.01249 29.8017C10.6488 23.6947 13.6574 18.461 17.9548 14.2459C21.1667 11.0954 23.9428 9.72048 23.9946 9.69515C25.1538 9.13702 25.6168 7.76329 25.0282 6.62349C24.7091 6.00592 24.1467 5.58327 23.5132 5.41355C22.9756 5.26961 22.3868 5.30761 21.8524 5.56297C21.7164 5.628 18.4799 7.1955 14.7353 10.8235C11.3215 14.1308 6.76408 19.8956 4.43817 28.576C2.47301 35.9101 7.0304 43.5261 14.5972 45.5537Z" fill="#00BF58"/>
<path d="M48.3081 45.5773C55.8749 47.6049 63.6297 43.2878 65.5949 35.9538C66.5346 32.4467 66.0252 28.7634 64.1608 25.5821C62.3004 22.4082 59.3006 20.09 55.7137 19.054L55.6096 19.0233C54.3581 18.6484 53.0461 19.338 52.6853 20.5531C52.3245 21.7682 53.0488 23.0533 54.303 23.4235L54.4287 23.4606C59.3483 24.8783 62.3054 29.9331 61.0206 34.7281C59.7105 39.6174 54.5406 42.4955 49.496 41.1438C44.4515 39.7921 41.4132 34.7146 42.7233 29.8253C44.3597 23.7183 47.3682 18.4846 51.6656 14.2696C54.8775 11.119 57.6536 9.74418 57.7054 9.71885C58.8648 9.16063 59.3276 7.78697 58.739 6.64717C58.42 6.02948 57.8575 5.60695 57.2241 5.43723C56.6865 5.29318 56.0976 5.33118 55.5631 5.58651C55.4273 5.65157 52.1906 7.21905 48.446 10.8471C45.0323 14.1544 40.4749 19.9191 38.149 28.5996C36.1838 35.9337 40.7412 43.5498 48.3081 45.5773Z" fill="#00BF58"/>
</svg>
