<svg width="22" height="15" viewBox="0 0 22 15" fill="none" xmlns="http://www.w3.org/2000/svg">
<path d="M6.10938 12.5693C5.84814 12.5696 5.59588 12.4739 5.40067 12.3003L0 7.49947L5.70059 2.4318C5.91308 2.25002 6.18841 2.1589 6.46738 2.17801C6.74635 2.19713 7.00668 2.32496 7.19238 2.53401C7.37809 2.74307 7.47433 3.01666 7.46042 3.29593C7.44651 3.57521 7.32356 3.83788 7.118 4.02745L3.21265 7.49947L6.81808 10.7036C6.98006 10.8473 7.09449 11.0369 7.14618 11.2472C7.19787 11.4575 7.18436 11.6785 7.10747 11.881C7.03057 12.0834 6.89391 12.2576 6.71564 12.3806C6.53738 12.5035 6.32593 12.5693 6.10938 12.5693ZM15.6566 12.5671L21.3572 7.49947L15.9565 2.69863C15.7449 2.51067 15.4673 2.41446 15.1848 2.43118C14.9023 2.44789 14.638 2.57615 14.45 2.78775C14.262 2.99935 14.1658 3.27695 14.1826 3.55947C14.1993 3.842 14.3275 4.10632 14.5391 4.29428L18.1446 7.49947L14.2392 10.9704C14.0275 11.1584 13.8991 11.4227 13.8823 11.7054C13.8654 11.988 13.9616 12.2657 14.1496 12.4775C14.3375 12.6892 14.6019 12.8176 14.8845 12.8344C15.1671 12.8512 15.4449 12.7551 15.6566 12.5671ZM10.6637 14.0795L12.7983 1.27161C12.8256 1.13164 12.8246 0.987609 12.7953 0.848038C12.766 0.708468 12.709 0.576184 12.6277 0.459002C12.5464 0.341819 12.4425 0.242115 12.322 0.165778C12.2016 0.0894413 12.067 0.0380197 11.9264 0.0145511C11.7857 -0.00891756 11.6417 -0.00395736 11.503 0.0291388C11.3643 0.062235 11.2336 0.122796 11.1187 0.207244C11.0038 0.291693 10.907 0.398315 10.8339 0.520815C10.7609 0.643314 10.7132 0.779206 10.6935 0.920463L8.55889 13.7284C8.5316 13.8684 8.53263 14.0124 8.56193 14.152C8.59123 14.2915 8.64821 14.4238 8.72949 14.541C8.81077 14.6582 8.91472 14.7579 9.03518 14.8342C9.15564 14.9106 9.29018 14.962 9.43085 14.9854C9.57152 15.0089 9.71546 15.004 9.85418 14.9709C9.9929 14.9378 10.1236 14.8772 10.2385 14.7928C10.3534 14.7083 10.4503 14.6017 10.5233 14.4792C10.5963 14.3567 10.644 14.2208 10.6637 14.0795Z" fill="#09321C"/>
</svg>
