<svg width="23" height="22" viewBox="0 0 23 22" fill="none" xmlns="http://www.w3.org/2000/svg">
<path fill-rule="evenodd" clip-rule="evenodd" d="M21.7803 20.2575C22.2612 20.2575 22.6515 20.6478 22.6515 21.1287C22.6515 21.6096 22.2612 21.9999 21.7803 21.9999H13.3553C12.8744 21.9999 12.4841 21.6096 12.4841 21.1287C12.4841 20.6478 12.8744 20.2575 13.3553 20.2575H21.7803ZM16.3972 0.759261C16.4553 0.804563 18.3987 2.31462 18.3987 2.31462C19.1049 2.73512 19.6567 3.48666 19.8657 4.37644C20.0737 5.25692 19.9227 6.16528 19.4383 6.93308C19.435 6.93821 19.4318 6.94326 19.4206 6.95832L19.4119 6.96995C19.3332 7.07357 18.9915 7.50574 17.2665 9.66698C17.2504 9.6953 17.2323 9.72183 17.2124 9.7476C17.1834 9.7856 17.1517 9.82053 17.1179 9.85233C17.0002 10.0005 16.876 10.1561 16.7453 10.3198L16.4806 10.6514C15.9343 11.3355 15.2863 12.1468 14.5176 13.109L14.123 13.6028C12.6389 15.4604 10.7382 17.8387 8.30333 20.8849C7.77016 21.5493 6.97099 21.9361 6.11258 21.9466L1.88557 22H1.87395C1.47088 22 1.12009 21.7235 1.026 21.3298L0.07466 17.2979C-0.121648 16.4627 0.0734985 15.6008 0.608989 14.9318L11.5511 1.24597C11.5558 1.24132 11.5592 1.23551 11.5639 1.23086C12.7638 -0.203692 14.9337 -0.415101 16.3972 0.759261ZM10.3311 5.56051L1.9692 16.0202C1.77057 16.2687 1.69739 16.5893 1.77057 16.8972L2.56161 20.2483L6.09167 20.2042C6.42737 20.2007 6.73751 20.0509 6.94311 19.7953C8.00188 18.4706 9.33256 16.8057 10.7007 15.0937L11.1847 14.4879L11.6696 13.8812C12.9526 12.2755 14.2202 10.689 15.2808 9.36105L10.3311 5.56051ZM12.9055 2.3425L11.4195 4.19913L16.3688 7.99859C17.3214 6.80537 17.9481 6.01949 18.006 5.94458C18.1965 5.63559 18.2709 5.19884 18.171 4.77834C18.0688 4.3474 17.8004 3.9815 17.4136 3.74802C17.3312 3.6911 15.3739 2.17175 15.3135 2.12412C14.577 1.53404 13.5026 1.63626 12.9055 2.3425Z" fill="#009A42"/>
</svg>
