<svg width="23" height="20" viewBox="0 0 23 20" fill="none" xmlns="http://www.w3.org/2000/svg">
<path fill-rule="evenodd" clip-rule="evenodd" d="M11.0842 0C13.8959 0 16.1884 2.00287 16.2191 4.4739L16.4681 4.47492C19.6068 4.47492 22.159 6.71993 22.159 9.47995V14.996C22.159 17.755 19.6068 20 16.4681 20H5.69089C2.5534 20 0 17.755 0 14.996V9.47995C0 6.71993 2.5534 4.47492 5.69089 4.47492L5.92271 4.47402L5.92991 4.27954C6.00128 3.14508 6.53221 2.10434 7.44327 1.31101C8.41827 0.460002 9.72736 0.0350002 11.0842 0ZM16.4681 5.97493L16.2193 5.97403L16.2194 7.55604C16.2194 7.97004 15.8376 8.30604 15.3671 8.30604C14.8967 8.30604 14.5148 7.97004 14.5148 7.55604L14.5147 5.97403H7.62611L7.62623 7.55604C7.62623 7.97004 7.24441 8.30604 6.77396 8.30604C6.3035 8.30604 5.92169 7.97004 5.92169 7.55604L5.92157 5.97403L5.69089 5.97493C3.49317 5.97493 1.70454 7.54694 1.70454 9.47995V14.996C1.70454 16.928 3.49317 18.5 5.69089 18.5H16.4681C18.6659 18.5 20.4545 16.928 20.4545 14.996V9.47995C20.4545 7.54694 18.6659 5.97493 16.4681 5.97493ZM11.0808 1.50001C10.1592 1.52801 9.29554 1.80801 8.64327 2.37601C8.00046 2.93676 7.64018 3.68009 7.6266 4.47392L14.5125 4.47402L14.509 4.34665C14.4044 2.76182 12.9074 1.50001 11.0808 1.50001Z" fill="black"/>
</svg>
