<svg width="18" height="20" viewBox="0 0 18 20" fill="none" xmlns="http://www.w3.org/2000/svg">
<path d="M8.16678 4.55537L14.0488 9.3083C14.1907 9.42197 14.2149 9.63056 14.1042 9.77586L7.13088 18.8622C6.69253 19.4235 6.04653 19.7411 5.35439 19.7528L1.54763 19.7997C1.3446 19.802 1.16695 19.6614 1.12081 19.4598L0.255637 15.6983C0.105673 15.0069 0.255637 14.2921 0.693991 13.7413L7.7019 4.61162C7.81495 4.46514 8.02374 4.43936 8.16678 4.55537Z" fill="white"/>
<path opacity="0.4" d="M16.684 6.47668L15.55 7.89225C15.4358 8.03638 15.2305 8.05982 15.0886 7.94498C13.7101 6.8294 10.1802 3.96662 9.20078 3.17329C9.05774 3.05611 9.03813 2.84753 9.15349 2.70222L10.2471 1.34407C11.2391 0.0667767 12.9695 -0.0504061 14.3653 1.06283L15.9687 2.34012C16.6263 2.85573 17.0646 3.53539 17.2146 4.2502C17.3876 5.0365 17.2031 5.80874 16.684 6.47668Z" fill="white"/>
</svg>
