<svg width="20" height="22" viewBox="0 0 20 22" fill="none" xmlns="http://www.w3.org/2000/svg">
<path opacity="0.4" d="M14.619 0.950195H5.90279C2.74119 0.950195 0.900391 2.8014 0.900391 5.97339V16.7166C0.900391 19.9406 2.74119 21.7502 5.90279 21.7502H14.619C17.8316 21.7502 19.6204 19.9406 19.6204 16.7166V5.97339C19.6204 2.8014 17.8316 0.950195 14.619 0.950195Z" fill="white"/>
<path d="M6.18312 15.2402H14.3367C14.7517 15.2818 15.0647 15.6354 15.0647 16.0618C15.0647 16.4768 14.7517 16.8314 14.3367 16.873H6.18312C5.87112 16.9146 5.56952 16.7586 5.40312 16.4986C5.23672 16.2282 5.23672 15.885 5.40312 15.625C5.56952 15.3546 5.87112 15.209 6.18312 15.2402ZM14.3367 10.4968C14.7839 10.4968 15.1479 10.8618 15.1479 11.309C15.1479 11.7562 14.7839 12.1202 14.3367 12.1202H6.18312C5.73488 12.1202 5.37192 11.7562 5.37192 11.309C5.37192 10.8618 5.73488 10.4968 6.18312 10.4968H14.3367ZM9.29168 5.78662C9.73992 5.78662 10.1039 6.15062 10.1039 6.59678C10.1039 7.05542 9.73992 7.41942 9.29168 7.41942H6.18312C5.73488 7.41942 5.37192 7.05542 5.37192 6.60822C5.37192 6.16102 5.73488 5.79702 6.18312 5.79702V5.78662H9.29168Z" fill="white"/>
</svg>
