<svg width="22" height="22" viewBox="0 0 22 22" fill="none" xmlns="http://www.w3.org/2000/svg">
<g clip-path="url(#clip0_519_2053)">
<path d="M6.29103 16.225C6.02179 16.2254 5.76182 16.1267 5.56063 15.9478L-0.00537109 11L5.86973 5.77721C6.08872 5.58987 6.37248 5.49595 6.65999 5.51565C6.9475 5.53535 7.2158 5.6671 7.40719 5.88255C7.59857 6.09801 7.69777 6.37997 7.68343 6.6678C7.6691 6.95562 7.54238 7.22633 7.33053 7.42171L3.30563 11L7.02143 14.3022C7.18837 14.4503 7.3063 14.6457 7.35957 14.8625C7.41284 15.0792 7.39892 15.307 7.31967 15.5156C7.24042 15.7243 7.09958 15.9038 6.91585 16.0305C6.73213 16.1573 6.51421 16.2251 6.29103 16.225ZM16.1305 16.2228L22.0056 11L16.4396 6.05221C16.2216 5.85849 15.9355 5.75934 15.6443 5.77657C15.3531 5.79379 15.0807 5.92598 14.887 6.14406C14.6933 6.36213 14.5941 6.64822 14.6113 6.9394C14.6286 7.23058 14.7608 7.50299 14.9788 7.69671L18.6946 11L14.6697 14.5772C14.4515 14.7709 14.3192 15.0434 14.3019 15.3347C14.2845 15.626 14.3836 15.9122 14.5773 16.1304C14.771 16.3486 15.0435 16.481 15.3348 16.4983C15.6261 16.5156 15.9123 16.4165 16.1305 16.2228ZM10.9847 17.7815L13.1847 4.58151C13.2129 4.43724 13.2118 4.28881 13.1816 4.14496C13.1514 4.00112 13.0927 3.86479 13.0089 3.74402C12.9251 3.62325 12.818 3.52049 12.6939 3.44182C12.5697 3.36314 12.4311 3.31015 12.2861 3.28596C12.1411 3.26178 11.9928 3.26689 11.8498 3.301C11.7068 3.33511 11.5721 3.39752 11.4537 3.48455C11.3353 3.57159 11.2355 3.68147 11.1602 3.80772C11.0849 3.93397 11.0358 4.07402 11.0155 4.21961L8.81553 17.4196C8.7874 17.5639 8.78846 17.7123 8.81866 17.8561C8.84886 18 8.90758 18.1363 8.99135 18.2571C9.07512 18.3779 9.18224 18.4806 9.30639 18.5593C9.43054 18.638 9.5692 18.691 9.71418 18.7151C9.85915 18.7393 10.0075 18.7342 10.1505 18.7001C10.2934 18.666 10.4281 18.6036 10.5466 18.5166C10.665 18.4295 10.7648 18.3196 10.8401 18.1934C10.9153 18.0671 10.9645 17.9271 10.9847 17.7815Z" fill="black"/>
</g>
<defs>
<clipPath id="clip0_519_2053">
<rect width="22" height="22" fill="white"/>
</clipPath>
</defs>
</svg>
