<svg width="27" height="30" viewBox="0 0 27 30" fill="none" xmlns="http://www.w3.org/2000/svg">
<path d="M12.2578 6.54715L21.3071 13.8594C21.5254 14.0342 21.5626 14.3551 21.3923 14.5787L10.6641 28.5577C9.98971 29.4212 8.99587 29.9098 7.93104 29.9278L2.07448 30C1.76213 30.0035 1.48882 29.7872 1.41783 29.4771L0.0867967 23.6901C-0.143916 22.6264 0.0867966 21.5267 0.761188 20.6794L11.5426 6.63369C11.7165 6.40834 12.0377 6.36867 12.2578 6.54715Z" fill="#244034"/>
<path opacity="0.4" d="M25.3575 9.50138L23.613 11.6792C23.4373 11.9009 23.1214 11.937 22.9031 11.7603C20.7823 10.044 15.3517 5.63975 13.8449 4.41925C13.6249 4.23897 13.5947 3.91807 13.7722 3.69452L15.4546 1.60506C16.9809 -0.360007 19.6429 -0.540288 21.7903 1.17238L24.2572 3.13745C25.2688 3.93069 25.9432 4.97632 26.1739 6.07603C26.4401 7.28572 26.1561 8.47377 25.3575 9.50138Z" fill="#244034"/>
</svg>
