<svg width="24" height="25" viewBox="0 0 24 25" fill="none" xmlns="http://www.w3.org/2000/svg">
<path d="M3.29618 20.7702L9.66018 14.4062M17.6742 11.5762L15.7692 17.2912C15.7388 17.3828 15.6867 17.4657 15.6174 17.5329C15.5482 17.6001 15.4637 17.6496 15.3712 17.6772L3.69318 21.1482C3.58798 21.1794 3.47621 21.1812 3.37005 21.1534C3.2639 21.1255 3.16742 21.0691 3.09111 20.9902C3.01481 20.9113 2.9616 20.813 2.93728 20.706C2.91296 20.599 2.91846 20.4873 2.95318 20.3832L6.74518 9.0092C6.77236 8.92754 6.81679 8.85267 6.87546 8.7897C6.93412 8.72672 7.00565 8.6771 7.08518 8.6442L12.4722 6.4262C12.5817 6.38097 12.7022 6.36918 12.8184 6.39232C12.9346 6.41545 13.0413 6.47248 13.1252 6.5562L17.5292 10.9612C17.6082 11.0401 17.6636 11.1394 17.6892 11.2481C17.7148 11.3567 17.7096 11.4704 17.6742 11.5762V11.5762Z" stroke="#35764B" stroke-width="1.5" stroke-linecap="round" stroke-linejoin="round"/>
<path d="M17.7923 11.2242L20.6203 8.3952C20.9953 8.02015 21.2059 7.51153 21.2059 6.9812C21.2059 6.45088 20.9953 5.94226 20.6203 5.5672L18.5003 3.4452C18.3146 3.2594 18.0941 3.11201 17.8514 3.01145C17.6087 2.91089 17.3485 2.85913 17.0858 2.85913C16.8231 2.85913 16.563 2.91089 16.3203 3.01145C16.0776 3.11201 15.8571 3.2594 15.6713 3.4452L12.8433 6.2742M11.7813 12.2842C11.642 12.1449 11.4766 12.0345 11.2946 11.9591C11.1126 11.8838 10.9175 11.845 10.7205 11.8451C10.5235 11.8451 10.3284 11.884 10.1464 11.9594C9.96444 12.0348 9.7991 12.1454 9.65983 12.2847C9.52056 12.424 9.4101 12.5894 9.33476 12.7715C9.25941 12.9535 9.22066 13.1486 9.2207 13.3456C9.22075 13.5426 9.2596 13.7376 9.33503 13.9196C9.41046 14.1016 9.521 14.2669 9.66033 14.4062C9.94172 14.6875 10.3233 14.8454 10.7212 14.8453C11.119 14.8452 11.5006 14.6871 11.7818 14.4057C12.0631 14.1243 12.2211 13.7427 12.221 13.3449C12.2209 12.947 12.0627 12.5655 11.7813 12.2842Z" stroke="#35764B" stroke-width="1.5" stroke-linecap="round" stroke-linejoin="round"/>
</svg>
