<svg width="24" height="22" viewBox="0 0 24 22" fill="none" xmlns="http://www.w3.org/2000/svg">
<path d="M1.55468 9.63281C0.709759 9.63281 0.357023 8.54726 1.04335 8.04687L11.4859 0.450779C11.6351 0.341519 11.8151 0.282616 12 0.282616C12.1849 0.282616 12.3649 0.341519 12.5141 0.450779L22.9566 8.04687C23.643 8.54453 23.2902 9.63281 22.4426 9.63281H20.75V19.8594H22.7187C22.8391 19.8594 22.9375 19.9578 22.9375 20.0781V21.5C22.9375 21.6203 22.8391 21.7187 22.7187 21.7187H1.28124C1.16093 21.7187 1.06249 21.6203 1.06249 21.5V20.0781C1.06249 19.9578 1.16093 19.8594 1.28124 19.8594H3.24999V9.63281H1.55468ZM12 2.37851L4.5871 7.7707H19.4129L12 2.37851ZM18.7812 9.63281H15.582V19.8594H18.7812V9.63281ZM13.6133 9.63281H10.4141V19.8594H13.6133V9.63281ZM5.21874 19.8594H8.44531V9.63281H5.21874V19.8594Z" fill="#254135"/>
</svg>
