<svg width="24" height="23" viewBox="0 0 24 23" fill="none" xmlns="http://www.w3.org/2000/svg">
<path fill-rule="evenodd" clip-rule="evenodd" d="M17.5596 16.4929C17.0628 16.4929 16.6596 16.0897 16.6596 15.5929C16.6596 15.0961 17.0628 14.6929 17.5596 14.6929L18.6888 14.6929C20.6256 14.6929 22.2 13.1197 22.2 11.1841L22.2 5.32208C22.2 3.37928 20.6208 1.80007 18.678 1.80007L5.31 1.80007C3.3756 1.80007 1.8 3.37567 1.8 5.31007L1.8 11.1709C1.8 13.1137 3.3804 14.6929 5.3208 14.6929L6.4392 14.6929C6.936 14.6929 7.3392 15.0961 7.3392 15.5929C7.3392 16.0897 6.936 16.4929 6.4392 16.4929L5.3208 16.4929C2.3868 16.4929 2.61259e-06 14.1049 2.86909e-06 11.1709L3.38145e-06 5.31007C3.63743e-06 2.38207 2.3832 7.24968e-05 5.31 7.27527e-05L18.678 7.39213e-05C21.612 7.41778e-05 24 2.38688 24 5.32208L24 11.1841C24 14.1121 21.618 16.4929 18.6888 16.4929L17.5596 16.4929ZM11.999 22.1719C11.5022 22.1719 11.099 21.7687 11.099 21.2719L11.1 9.00068L9.13704 10.9711C8.78664 11.3239 8.21784 11.3239 7.86504 10.9735C7.51344 10.6231 7.51224 10.0531 7.86264 9.70027L11.3538 6.19549C11.3878 6.16043 11.4248 6.12813 11.4641 6.09897L11.3618 6.18788C11.4005 6.14868 11.4424 6.11349 11.487 6.08253C11.5142 6.06374 11.5419 6.04671 11.5705 6.03119C11.5842 6.02368 11.5987 6.01633 11.6134 6.00938C11.6395 5.99693 11.6664 5.98571 11.6939 5.97579C11.7077 5.97093 11.7214 5.96635 11.7353 5.96211C11.7691 5.95163 11.8039 5.94318 11.8393 5.93682C11.8473 5.9355 11.8546 5.93429 11.8619 5.93316C11.8905 5.92866 11.9204 5.92556 11.9506 5.92396C11.967 5.9231 11.983 5.92268 11.999 5.92268L12.0468 5.92627L12.1211 5.9309C12.1264 5.93161 12.1317 5.93238 12.137 5.93319L11.999 5.92268C12.0527 5.92268 12.1059 5.92745 12.158 5.9368C12.1941 5.94317 12.2288 5.95158 12.2626 5.96194C12.2762 5.9662 12.2894 5.9706 12.3026 5.97531C12.3302 5.98509 12.3574 5.99641 12.3839 6.00898C12.4 6.01662 12.4161 6.02479 12.4318 6.03345C12.454 6.04568 12.4754 6.05864 12.4961 6.07243C12.5103 6.08182 12.5246 6.09188 12.5385 6.10237C12.5728 6.1281 12.6051 6.15617 12.6353 6.18637L12.6362 6.18788L16.1354 9.70028C16.4858 10.0531 16.4846 10.6231 16.133 10.9735C15.7802 11.3239 15.2114 11.3239 14.861 10.9711L12.9 9.00068L12.899 21.2719C12.899 21.7687 12.4958 22.1719 11.999 22.1719Z" fill="white"/>
</svg>
