<svg width="29" height="32" viewBox="0 0 29 32" fill="none" xmlns="http://www.w3.org/2000/svg">
<path opacity="0.4" d="M21.1056 0H7.696C2.832 0 0 2.848 0 7.728V24.256C0 29.216 2.832 32 7.696 32H21.1056C26.048 32 28.8 29.216 28.8 24.256V7.728C28.8 2.848 26.048 0 21.1056 0Z" fill="white"/>
<path d="M8.12833 21.9846H20.6723C21.3107 22.0486 21.7923 22.5925 21.7923 23.2485C21.7923 23.8869 21.3107 24.4326 20.6723 24.4965H8.12833C7.64833 24.5606 7.18433 24.3205 6.92833 23.9205C6.67233 23.5045 6.67233 22.9765 6.92833 22.5765C7.18433 22.1605 7.64833 21.9366 8.12833 21.9846ZM20.6723 14.687C21.3603 14.687 21.9203 15.2486 21.9203 15.9366C21.9203 16.6246 21.3603 17.1846 20.6723 17.1846H8.12833C7.43873 17.1846 6.88033 16.6246 6.88033 15.9366C6.88033 15.2486 7.43873 14.687 8.12833 14.687H20.6723ZM12.9107 7.44055C13.6003 7.44055 14.1603 8.00055 14.1603 8.68695C14.1603 9.39255 13.6003 9.95255 12.9107 9.95255H8.12833C7.43873 9.95255 6.88033 9.39255 6.88033 8.70455C6.88033 8.01655 7.43873 7.45655 8.12833 7.45655V7.44055H12.9107Z" fill="white"/>
</svg>
