<svg width="91" height="56" viewBox="0 0 91 56" fill="none" xmlns="http://www.w3.org/2000/svg">
<g opacity="0.3">
<mask id="mask0_519_8803" style="mask-type:alpha" maskUnits="userSpaceOnUse" x="0" y="0" width="91" height="56">
<rect width="91" height="56" fill="#C4C4C4"/>
</mask>
<g mask="url(#mask0_519_8803)">
<rect width="0.830634" height="1035.64" transform="matrix(0.707107 0.707107 -0.474641 0.88018 7.29773 -97.2367)" fill="#244035"/>
<rect width="0.830634" height="1035.64" transform="matrix(0.707107 0.707107 -0.474641 0.88018 10.6531 -93.8807)" fill="#244035"/>
<rect width="0.830634" height="1035.64" transform="matrix(0.707107 0.707107 -0.474641 0.88018 14.0085 -90.5244)" fill="#244035"/>
<rect width="0.830634" height="1035.64" transform="matrix(0.707107 0.707107 -0.474641 0.88018 17.365 -87.1685)" fill="#244035"/>
<rect width="0.830634" height="1035.64" transform="matrix(0.707107 0.707107 -0.474641 0.88018 0.583618 -103.949)" fill="#244035"/>
<rect width="0.830634" height="1035.64" transform="matrix(0.707107 0.707107 -0.474641 0.88018 20.7224 -83.8115)" fill="#244035"/>
<rect width="0.830634" height="1035.64" transform="matrix(0.707107 0.707107 -0.474641 0.88018 3.93933 -100.593)" fill="#244035"/>
<rect width="0.830634" height="1035.64" transform="matrix(0.707107 0.707107 -0.474641 0.88018 24.0789 -80.4553)" fill="#244035"/>
<rect width="0.830634" height="1035.64" transform="matrix(0.707107 0.707107 -0.474641 0.88018 27.4343 -77.0992)" fill="#244035"/>
<rect width="0.830634" height="1035.64" transform="matrix(0.707107 0.707107 -0.474641 0.88018 47.571 -56.9619)" fill="#244035"/>
<rect width="0.830634" height="1035.64" transform="matrix(0.707107 0.707107 -0.474641 0.88018 30.79 -73.743)" fill="#244035"/>
<rect width="0.830634" height="1035.64" transform="matrix(0.707107 0.707107 -0.474641 0.88018 50.9265 -53.6056)" fill="#244035"/>
<rect width="0.830634" height="1035.64" transform="matrix(0.707107 0.707107 -0.474641 0.88018 34.1462 -70.3868)" fill="#244035"/>
<rect width="0.830634" height="1035.64" transform="matrix(0.707107 0.707107 -0.474641 0.88018 54.285 -50.2488)" fill="#244035"/>
<rect width="0.830634" height="1035.64" transform="matrix(0.707107 0.707107 -0.474641 0.88018 37.5038 -67.0303)" fill="#244035"/>
<rect width="0.830634" height="1035.64" transform="matrix(0.707107 0.707107 -0.474641 0.88018 57.6404 -46.8927)" fill="#244035"/>
<rect width="0.830634" height="1035.64" transform="matrix(0.707107 0.707107 -0.474641 0.88018 40.8594 -63.6741)" fill="#244035"/>
<rect width="0.830634" height="1035.64" transform="matrix(0.707107 0.707107 -0.474641 0.88018 60.9968 -43.5366)" fill="#244035"/>
<rect width="0.830634" height="1035.64" transform="matrix(0.707107 0.707107 -0.474641 0.88018 44.2157 -60.3181)" fill="#244035"/>
<rect width="0.830634" height="1035.64" transform="matrix(0.707107 0.707107 -0.474641 0.88018 64.3523 -40.1803)" fill="#244035"/>
<rect width="0.830634" height="1035.64" transform="matrix(0.707107 0.707107 -0.474641 0.88018 67.7097 -36.8237)" fill="#244035"/>
<rect width="0.830634" height="1035.64" transform="matrix(0.707107 0.707107 -0.474641 0.88018 87.8474 -16.6865)" fill="#244035"/>
<rect width="0.830634" height="1035.64" transform="matrix(0.707107 0.707107 -0.474641 0.88018 71.066 -33.4676)" fill="#244035"/>
<rect width="0.830634" height="1035.64" transform="matrix(0.707107 0.707107 -0.474641 0.88018 91.2031 -13.3304)" fill="#244035"/>
<rect width="0.830634" height="1035.64" transform="matrix(0.707107 0.707107 -0.474641 0.88018 74.4218 -30.1115)" fill="#244035"/>
<rect width="0.830634" height="1035.64" transform="matrix(0.707107 0.707107 -0.474641 0.88018 94.5594 -9.97417)" fill="#244035"/>
<rect width="0.830634" height="1035.64" transform="matrix(0.707107 0.707107 -0.474641 0.88018 77.7781 -26.7553)" fill="#244035"/>
<rect width="0.830634" height="1035.64" transform="matrix(0.707107 0.707107 -0.474641 0.88018 97.9167 -6.61729)" fill="#244035"/>
<rect width="0.830634" height="1035.64" transform="matrix(0.707107 0.707107 -0.474641 0.88018 81.1333 -23.3992)" fill="#244035"/>
<rect width="0.830634" height="1035.64" transform="matrix(0.707107 0.707107 -0.474641 0.88018 101.272 -3.26111)" fill="#244035"/>
<rect width="0.830634" height="1035.64" transform="matrix(0.707107 0.707107 -0.474641 0.88018 84.4918 -20.0428)" fill="#244035"/>
<rect width="0.830634" height="1035.64" transform="matrix(0.707107 0.707107 -0.474641 0.88018 104.628 0.0948334)" fill="#244035"/>
<rect width="0.830634" height="1035.64" transform="matrix(0.707107 0.707107 -0.474641 0.88018 107.984 3.45119)" fill="#244035"/>
<rect width="0.830634" height="1035.64" transform="matrix(0.707107 0.707107 -0.474641 0.88018 128.121 23.5886)" fill="#244035"/>
<rect width="0.830634" height="1035.64" transform="matrix(0.707107 0.707107 -0.474641 0.88018 111.34 6.80719)" fill="#244035"/>
<rect width="0.830634" height="1035.64" transform="matrix(0.707107 0.707107 -0.474641 0.88018 131.479 26.9453)" fill="#244035"/>
<rect width="0.830634" height="1035.64" transform="matrix(0.707107 0.707107 -0.474641 0.88018 114.698 10.164)" fill="#244035"/>
<rect width="0.830634" height="1035.64" transform="matrix(0.707107 0.707107 -0.474641 0.88018 134.835 30.3016)" fill="#244035"/>
<rect width="0.830634" height="1035.64" transform="matrix(0.707107 0.707107 -0.474641 0.88018 118.054 13.52)" fill="#244035"/>
<rect width="0.830634" height="1035.64" transform="matrix(0.707107 0.707107 -0.474641 0.88018 138.19 33.6577)" fill="#244035"/>
<rect width="0.830634" height="1035.64" transform="matrix(0.707107 0.707107 -0.474641 0.88018 121.41 16.8761)" fill="#244035"/>
<rect width="0.830634" height="1035.64" transform="matrix(0.707107 0.707107 -0.474641 0.88018 141.547 37.0138)" fill="#244035"/>
<rect width="0.830634" height="1035.64" transform="matrix(0.707107 0.707107 -0.474641 0.88018 124.764 20.2323)" fill="#244035"/>
<rect width="0.830634" height="1035.64" transform="matrix(0.707107 0.707107 -0.474641 0.88018 144.905 40.3703)" fill="#244035"/>
</g>
</g>
</svg>
