<svg width="91" height="56" viewBox="0 0 91 56" fill="none" xmlns="http://www.w3.org/2000/svg">
<g opacity="0.3">
<mask id="mask0_519_8117" style="mask-type:alpha" maskUnits="userSpaceOnUse" x="0" y="0" width="91" height="56">
<rect width="91" height="56" fill="#C4C4C4"/>
</mask>
<g mask="url(#mask0_519_8117)">
<rect width="0.830634" height="1035.64" transform="matrix(0.707107 0.707107 -0.474641 0.88018 7.29761 -97.2367)" fill="white"/>
<rect width="0.830634" height="1035.64" transform="matrix(0.707107 0.707107 -0.474641 0.88018 10.6536 -93.8806)" fill="white"/>
<rect width="0.830634" height="1035.64" transform="matrix(0.707107 0.707107 -0.474641 0.88018 14.0081 -90.5244)" fill="white"/>
<rect width="0.830634" height="1035.64" transform="matrix(0.707107 0.707107 -0.474641 0.88018 17.3645 -87.1685)" fill="white"/>
<rect width="0.830634" height="1035.64" transform="matrix(0.707107 0.707107 -0.474641 0.88018 0.58374 -103.949)" fill="white"/>
<rect width="0.830634" height="1035.64" transform="matrix(0.707107 0.707107 -0.474641 0.88018 20.7227 -83.8115)" fill="white"/>
<rect width="0.830634" height="1035.64" transform="matrix(0.707107 0.707107 -0.474641 0.88018 3.93921 -100.593)" fill="white"/>
<rect width="0.830634" height="1035.64" transform="matrix(0.707107 0.707107 -0.474641 0.88018 24.0784 -80.4553)" fill="white"/>
<rect width="0.830634" height="1035.64" transform="matrix(0.707107 0.707107 -0.474641 0.88018 27.4341 -77.0992)" fill="white"/>
<rect width="0.830634" height="1035.64" transform="matrix(0.707107 0.707107 -0.474641 0.88018 47.5706 -56.9619)" fill="white"/>
<rect width="0.830634" height="1035.64" transform="matrix(0.707107 0.707107 -0.474641 0.88018 30.7898 -73.7432)" fill="white"/>
<rect width="0.830634" height="1035.64" transform="matrix(0.707107 0.707107 -0.474641 0.88018 50.927 -53.6056)" fill="white"/>
<rect width="0.830634" height="1035.64" transform="matrix(0.707107 0.707107 -0.474641 0.88018 34.146 -70.3868)" fill="white"/>
<rect width="0.830634" height="1035.64" transform="matrix(0.707107 0.707107 -0.474641 0.88018 54.2852 -50.2488)" fill="white"/>
<rect width="0.830634" height="1035.64" transform="matrix(0.707107 0.707107 -0.474641 0.88018 37.5037 -67.0303)" fill="white"/>
<rect width="0.830634" height="1035.64" transform="matrix(0.707107 0.707107 -0.474641 0.88018 57.6406 -46.8927)" fill="white"/>
<rect width="0.830634" height="1035.64" transform="matrix(0.707107 0.707107 -0.474641 0.88018 40.8594 -63.6741)" fill="white"/>
<rect width="0.830634" height="1035.64" transform="matrix(0.707107 0.707107 -0.474641 0.88018 60.9963 -43.5366)" fill="white"/>
<rect width="0.830634" height="1035.64" transform="matrix(0.707107 0.707107 -0.474641 0.88018 44.2158 -60.3181)" fill="white"/>
<rect width="0.830634" height="1035.64" transform="matrix(0.707107 0.707107 -0.474641 0.88018 64.3521 -40.1803)" fill="white"/>
<rect width="0.830634" height="1035.64" transform="matrix(0.707107 0.707107 -0.474641 0.88018 67.7097 -36.8237)" fill="white"/>
<rect width="0.830634" height="1035.64" transform="matrix(0.707107 0.707107 -0.474641 0.88018 87.8474 -16.6865)" fill="white"/>
<rect width="0.830634" height="1035.64" transform="matrix(0.707107 0.707107 -0.474641 0.88018 71.0662 -33.4677)" fill="white"/>
<rect width="0.830634" height="1035.64" transform="matrix(0.707107 0.707107 -0.474641 0.88018 91.2031 -13.3303)" fill="white"/>
<rect width="0.830634" height="1035.64" transform="matrix(0.707107 0.707107 -0.474641 0.88018 74.4216 -30.1115)" fill="white"/>
<rect width="0.830634" height="1035.64" transform="matrix(0.707107 0.707107 -0.474641 0.88018 94.5593 -9.97412)" fill="white"/>
<rect width="0.830634" height="1035.64" transform="matrix(0.707107 0.707107 -0.474641 0.88018 77.7781 -26.7552)" fill="white"/>
<rect width="0.830634" height="1035.64" transform="matrix(0.707107 0.707107 -0.474641 0.88018 97.9165 -6.61731)" fill="white"/>
<rect width="0.830634" height="1035.64" transform="matrix(0.707107 0.707107 -0.474641 0.88018 81.1333 -23.3992)" fill="white"/>
<rect width="0.830634" height="1035.64" transform="matrix(0.707107 0.707107 -0.474641 0.88018 101.272 -3.26111)" fill="white"/>
<rect width="0.830634" height="1035.64" transform="matrix(0.707107 0.707107 -0.474641 0.88018 84.4917 -20.0428)" fill="white"/>
<rect width="0.830634" height="1035.64" transform="matrix(0.707107 0.707107 -0.474641 0.88018 104.628 0.0948486)" fill="white"/>
<rect width="0.830634" height="1035.64" transform="matrix(0.707107 0.707107 -0.474641 0.88018 107.984 3.45117)" fill="white"/>
<rect width="0.830634" height="1035.64" transform="matrix(0.707107 0.707107 -0.474641 0.88018 128.121 23.5886)" fill="white"/>
<rect width="0.830634" height="1035.64" transform="matrix(0.707107 0.707107 -0.474641 0.88018 111.34 6.80725)" fill="white"/>
<rect width="0.830634" height="1035.64" transform="matrix(0.707107 0.707107 -0.474641 0.88018 131.479 26.9453)" fill="white"/>
<rect width="0.830634" height="1035.64" transform="matrix(0.707107 0.707107 -0.474641 0.88018 114.698 10.1639)" fill="white"/>
<rect width="0.830634" height="1035.64" transform="matrix(0.707107 0.707107 -0.474641 0.88018 134.835 30.3016)" fill="white"/>
<rect width="0.830634" height="1035.64" transform="matrix(0.707107 0.707107 -0.474641 0.88018 118.054 13.52)" fill="white"/>
<rect width="0.830634" height="1035.64" transform="matrix(0.707107 0.707107 -0.474641 0.88018 138.191 33.6577)" fill="white"/>
<rect width="0.830634" height="1035.64" transform="matrix(0.707107 0.707107 -0.474641 0.88018 121.41 16.8761)" fill="white"/>
<rect width="0.830634" height="1035.64" transform="matrix(0.707107 0.707107 -0.474641 0.88018 141.547 37.0138)" fill="white"/>
<rect width="0.830634" height="1035.64" transform="matrix(0.707107 0.707107 -0.474641 0.88018 124.765 20.2323)" fill="white"/>
<rect width="0.830634" height="1035.64" transform="matrix(0.707107 0.707107 -0.474641 0.88018 144.905 40.3702)" fill="white"/>
</g>
</g>
</svg>
