<svg width="596" height="731" viewBox="0 0 596 731" fill="none" xmlns="http://www.w3.org/2000/svg">
<g opacity="0.3">
<mask id="mask0_519_9271" style="mask-type:alpha" maskUnits="userSpaceOnUse" x="0" y="0" width="596" height="731">
<rect width="596" height="731" fill="#C4C4C4"/>
</mask>
<g mask="url(#mask0_519_9271)">
<rect width="0.975517" height="1216.28" transform="matrix(0.707107 0.707107 -0.474641 0.88018 21.1135 -715.844)" fill="white"/>
<rect width="0.975517" height="1216.28" transform="matrix(0.707107 0.707107 -0.474641 0.88018 1.40552 -735.553)" fill="white"/>
<rect width="0.975517" height="1216.28" transform="matrix(0.707107 0.707107 -0.474641 0.88018 25.0549 -711.903)" fill="white"/>
<rect width="0.975517" height="1216.28" transform="matrix(0.707107 0.707107 -0.474641 0.88018 5.34644 -731.611)" fill="white"/>
<rect width="0.975517" height="1216.28" transform="matrix(0.707107 0.707107 -0.474641 0.88018 28.9958 -707.961)" fill="white"/>
<rect width="0.975517" height="1216.28" transform="matrix(0.707107 0.707107 -0.474641 0.88018 9.28784 -727.67)" fill="white"/>
<rect width="0.975517" height="1216.28" transform="matrix(0.707107 0.707107 -0.474641 0.88018 32.937 -704.02)" fill="white"/>
<rect width="0.975517" height="1216.28" transform="matrix(0.707107 0.707107 -0.474641 0.88018 13.2288 -723.728)" fill="white"/>
<rect width="0.975517" height="1216.28" transform="matrix(0.707107 0.707107 -0.474641 0.88018 36.8806 -700.078)" fill="white"/>
<rect width="0.975517" height="1216.28" transform="matrix(0.707107 0.707107 -0.474641 0.88018 17.1724 -719.786)" fill="white"/>
<rect width="0.975517" height="1216.28" transform="matrix(0.707107 0.707107 -0.474641 0.88018 40.8218 -696.136)" fill="white"/>
<rect width="0.975517" height="1216.28" transform="matrix(0.707107 0.707107 -0.474641 0.88018 44.7629 -692.194)" fill="white"/>
<rect width="0.975517" height="1216.28" transform="matrix(0.707107 0.707107 -0.474641 0.88018 68.4124 -668.545)" fill="white"/>
<rect width="0.975517" height="1216.28" transform="matrix(0.707107 0.707107 -0.474641 0.88018 48.7041 -688.253)" fill="white"/>
<rect width="0.975517" height="1216.28" transform="matrix(0.707107 0.707107 -0.474641 0.88018 72.356 -664.602)" fill="white"/>
<rect width="0.975517" height="1216.28" transform="matrix(0.707107 0.707107 -0.474641 0.88018 52.6477 -684.311)" fill="white"/>
<rect width="0.975517" height="1216.28" transform="matrix(0.707107 0.707107 -0.474641 0.88018 76.2969 -660.661)" fill="white"/>
<rect width="0.975517" height="1216.28" transform="matrix(0.707107 0.707107 -0.474641 0.88018 56.5889 -680.369)" fill="white"/>
<rect width="0.975517" height="1216.28" transform="matrix(0.707107 0.707107 -0.474641 0.88018 80.2383 -656.719)" fill="white"/>
<rect width="0.975517" height="1216.28" transform="matrix(0.707107 0.707107 -0.474641 0.88018 60.53 -676.428)" fill="white"/>
<rect width="0.975517" height="1216.28" transform="matrix(0.707107 0.707107 -0.474641 0.88018 84.1792 -652.777)" fill="white"/>
<rect width="0.975517" height="1216.28" transform="matrix(0.707107 0.707107 -0.474641 0.88018 64.4712 -672.486)" fill="white"/>
<rect width="0.975517" height="1216.28" transform="matrix(0.707107 0.707107 -0.474641 0.88018 88.123 -648.836)" fill="white"/>
<rect width="0.975517" height="1216.28" transform="matrix(0.707107 0.707107 -0.474641 0.88018 92.0642 -644.894)" fill="white"/>
<rect width="0.975517" height="1216.28" transform="matrix(0.707107 0.707107 -0.474641 0.88018 115.714 -621.244)" fill="white"/>
<rect width="0.975517" height="1216.28" transform="matrix(0.707107 0.707107 -0.474641 0.88018 96.0051 -640.952)" fill="white"/>
<rect width="0.975517" height="1216.28" transform="matrix(0.707107 0.707107 -0.474641 0.88018 119.655 -617.303)" fill="white"/>
<rect width="0.975517" height="1216.28" transform="matrix(0.707107 0.707107 -0.474641 0.88018 99.9465 -637.011)" fill="white"/>
<rect width="0.975517" height="1216.28" transform="matrix(0.707107 0.707107 -0.474641 0.88018 123.596 -613.361)" fill="white"/>
<rect width="0.975517" height="1216.28" transform="matrix(0.707107 0.707107 -0.474641 0.88018 103.888 -633.069)" fill="white"/>
<rect width="0.975517" height="1216.28" transform="matrix(0.707107 0.707107 -0.474641 0.88018 127.54 -609.419)" fill="white"/>
<rect width="0.975517" height="1216.28" transform="matrix(0.707107 0.707107 -0.474641 0.88018 107.831 -629.127)" fill="white"/>
<rect width="0.975517" height="1216.28" transform="matrix(0.707107 0.707107 -0.474641 0.88018 131.481 -605.477)" fill="white"/>
<rect width="0.975517" height="1216.28" transform="matrix(0.707107 0.707107 -0.474641 0.88018 111.772 -625.185)" fill="white"/>
<rect width="0.975517" height="1216.28" transform="matrix(0.707107 0.707107 -0.474641 0.88018 135.422 -601.536)" fill="white"/>
<rect width="0.975517" height="1216.28" transform="matrix(0.707107 0.707107 -0.474641 0.88018 139.363 -597.594)" fill="white"/>
<rect width="0.975517" height="1216.28" transform="matrix(0.707107 0.707107 -0.474641 0.88018 163.015 -573.943)" fill="white"/>
<rect width="0.975517" height="1216.28" transform="matrix(0.707107 0.707107 -0.474641 0.88018 143.306 -593.652)" fill="white"/>
<rect width="0.975517" height="1216.28" transform="matrix(0.707107 0.707107 -0.474641 0.88018 166.956 -570.002)" fill="white"/>
<rect width="0.975517" height="1216.28" transform="matrix(0.707107 0.707107 -0.474641 0.88018 147.248 -589.71)" fill="white"/>
<rect width="0.975517" height="1216.28" transform="matrix(0.707107 0.707107 -0.474641 0.88018 170.897 -566.06)" fill="white"/>
<rect width="0.975517" height="1216.28" transform="matrix(0.707107 0.707107 -0.474641 0.88018 151.189 -585.769)" fill="white"/>
<rect width="0.975517" height="1216.28" transform="matrix(0.707107 0.707107 -0.474641 0.88018 174.838 -562.119)" fill="white"/>
<rect width="0.975517" height="1216.28" transform="matrix(0.707107 0.707107 -0.474641 0.88018 155.13 -581.828)" fill="white"/>
<rect width="0.975517" height="1216.28" transform="matrix(0.707107 0.707107 -0.474641 0.88018 178.78 -558.177)" fill="white"/>
<rect width="0.975517" height="1216.28" transform="matrix(0.707107 0.707107 -0.474641 0.88018 159.071 -577.886)" fill="white"/>
<rect width="0.975517" height="1216.28" transform="matrix(0.707107 0.707107 -0.474641 0.88018 182.723 -554.235)" fill="white"/>
<rect width="0.975517" height="1216.28" transform="matrix(0.707107 0.707107 -0.474641 0.88018 186.664 -550.294)" fill="white"/>
<rect width="0.975517" height="1216.28" transform="matrix(0.707107 0.707107 -0.474641 0.88018 210.314 -526.644)" fill="white"/>
<rect width="0.975517" height="1216.28" transform="matrix(0.707107 0.707107 -0.474641 0.88018 190.605 -546.352)" fill="white"/>
<rect width="0.975517" height="1216.28" transform="matrix(0.707107 0.707107 -0.474641 0.88018 214.255 -522.702)" fill="white"/>
<rect width="0.975517" height="1216.28" transform="matrix(0.707107 0.707107 -0.474641 0.88018 194.546 -542.411)" fill="white"/>
<rect width="0.975517" height="1216.28" transform="matrix(0.707107 0.707107 -0.474641 0.88018 218.198 -518.76)" fill="white"/>
<rect width="0.975517" height="1216.28" transform="matrix(0.707107 0.707107 -0.474641 0.88018 198.49 -538.468)" fill="white"/>
<rect width="0.975517" height="1216.28" transform="matrix(0.707107 0.707107 -0.474641 0.88018 222.139 -514.819)" fill="white"/>
<rect width="0.975517" height="1216.28" transform="matrix(0.707107 0.707107 -0.474641 0.88018 202.431 -534.526)" fill="white"/>
<rect width="0.975517" height="1216.28" transform="matrix(0.707107 0.707107 -0.474641 0.88018 226.081 -510.877)" fill="white"/>
<rect width="0.975517" height="1216.28" transform="matrix(0.707107 0.707107 -0.474641 0.88018 206.372 -530.585)" fill="white"/>
<rect width="0.975517" height="1216.28" transform="matrix(0.707107 0.707107 -0.474641 0.88018 230.022 -506.935)" fill="white"/>
<rect width="0.975517" height="1216.28" transform="matrix(0.707107 0.707107 -0.474641 0.88018 233.965 -502.993)" fill="white"/>
<rect width="0.975517" height="1216.28" transform="matrix(0.707107 0.707107 -0.474641 0.88018 257.615 -479.343)" fill="white"/>
<rect width="0.975517" height="1216.28" transform="matrix(0.707107 0.707107 -0.474641 0.88018 237.906 -499.051)" fill="white"/>
<rect width="0.975517" height="1216.28" transform="matrix(0.707107 0.707107 -0.474641 0.88018 261.556 -475.402)" fill="white"/>
<rect width="0.975517" height="1216.28" transform="matrix(0.707107 0.707107 -0.474641 0.88018 241.848 -495.11)" fill="white"/>
<rect width="0.975517" height="1216.28" transform="matrix(0.707107 0.707107 -0.474641 0.88018 265.497 -471.46)" fill="white"/>
<rect width="0.975517" height="1216.28" transform="matrix(0.707107 0.707107 -0.474641 0.88018 245.789 -491.169)" fill="white"/>
<rect width="0.975517" height="1216.28" transform="matrix(0.707107 0.707107 -0.474641 0.88018 269.438 -467.519)" fill="white"/>
<rect width="0.975517" height="1216.28" transform="matrix(0.707107 0.707107 -0.474641 0.88018 249.73 -487.227)" fill="white"/>
<rect width="0.975517" height="1216.28" transform="matrix(0.707107 0.707107 -0.474641 0.88018 273.382 -463.577)" fill="white"/>
<rect width="0.975517" height="1216.28" transform="matrix(0.707107 0.707107 -0.474641 0.88018 253.674 -483.285)" fill="white"/>
<rect width="0.975517" height="1216.28" transform="matrix(0.707107 0.707107 -0.474641 0.88018 277.323 -459.635)" fill="white"/>
<rect width="0.975517" height="1216.28" transform="matrix(0.707107 0.707107 -0.474641 0.88018 281.264 -455.693)" fill="white"/>
<rect width="0.975517" height="1216.28" transform="matrix(0.707107 0.707107 -0.474641 0.88018 304.914 -432.044)" fill="white"/>
<rect width="0.975517" height="1216.28" transform="matrix(0.707107 0.707107 -0.474641 0.88018 285.205 -451.752)" fill="white"/>
<rect width="0.975517" height="1216.28" transform="matrix(0.707107 0.707107 -0.474641 0.88018 308.857 -428.101)" fill="white"/>
<rect width="0.975517" height="1216.28" transform="matrix(0.707107 0.707107 -0.474641 0.88018 289.149 -447.809)" fill="white"/>
<rect width="0.975517" height="1216.28" transform="matrix(0.707107 0.707107 -0.474641 0.88018 312.798 -424.16)" fill="white"/>
<rect width="0.975517" height="1216.28" transform="matrix(0.707107 0.707107 -0.474641 0.88018 293.09 -443.868)" fill="white"/>
<rect width="0.975517" height="1216.28" transform="matrix(0.707107 0.707107 -0.474641 0.88018 316.74 -420.218)" fill="white"/>
<rect width="0.975517" height="1216.28" transform="matrix(0.707107 0.707107 -0.474641 0.88018 297.031 -439.927)" fill="white"/>
<rect width="0.975517" height="1216.28" transform="matrix(0.707107 0.707107 -0.474641 0.88018 320.68 -416.277)" fill="white"/>
<rect width="0.975517" height="1216.28" transform="matrix(0.707107 0.707107 -0.474641 0.88018 300.972 -435.985)" fill="white"/>
<rect width="0.975517" height="1216.28" transform="matrix(0.707107 0.707107 -0.474641 0.88018 324.622 -412.335)" fill="white"/>
<rect width="0.975517" height="1216.28" transform="matrix(0.707107 0.707107 -0.474641 0.88018 328.053 -408.905)" fill="white"/>
<rect width="0.975517" height="1216.28" transform="matrix(0.707107 0.707107 -0.474641 0.88018 351.702 -385.255)" fill="white"/>
<rect width="0.975517" height="1216.28" transform="matrix(0.707107 0.707107 -0.474641 0.88018 331.994 -404.963)" fill="white"/>
<rect width="0.975517" height="1216.28" transform="matrix(0.707107 0.707107 -0.474641 0.88018 355.646 -381.312)" fill="white"/>
<rect width="0.975517" height="1216.28" transform="matrix(0.707107 0.707107 -0.474641 0.88018 335.935 -401.022)" fill="white"/>
<rect width="0.975517" height="1216.28" transform="matrix(0.707107 0.707107 -0.474641 0.88018 359.587 -377.371)" fill="white"/>
<rect width="0.975517" height="1216.28" transform="matrix(0.707107 0.707107 -0.474641 0.88018 339.879 -397.08)" fill="white"/>
<rect width="0.975517" height="1216.28" transform="matrix(0.707107 0.707107 -0.474641 0.88018 363.528 -373.43)" fill="white"/>
<rect width="0.975517" height="1216.28" transform="matrix(0.707107 0.707107 -0.474641 0.88018 343.82 -393.138)" fill="white"/>
<rect width="0.975517" height="1216.28" transform="matrix(0.707107 0.707107 -0.474641 0.88018 367.469 -369.488)" fill="white"/>
<rect width="0.975517" height="1216.28" transform="matrix(0.707107 0.707107 -0.474641 0.88018 347.761 -389.196)" fill="white"/>
<rect width="0.975517" height="1216.28" transform="matrix(0.707107 0.707107 -0.474641 0.88018 371.411 -365.547)" fill="white"/>
<rect width="0.975517" height="1216.28" transform="matrix(0.707107 0.707107 -0.474641 0.88018 375.354 -361.604)" fill="white"/>
<rect width="0.975517" height="1216.28" transform="matrix(0.707107 0.707107 -0.474641 0.88018 399.003 -337.954)" fill="white"/>
<rect width="0.975517" height="1216.28" transform="matrix(0.707107 0.707107 -0.474641 0.88018 379.295 -357.663)" fill="white"/>
<rect width="0.975517" height="1216.28" transform="matrix(0.707107 0.707107 -0.474641 0.88018 402.945 -334.013)" fill="white"/>
<rect width="0.975517" height="1216.28" transform="matrix(0.707107 0.707107 -0.474641 0.88018 383.237 -353.721)" fill="white"/>
<rect width="0.975517" height="1216.28" transform="matrix(0.707107 0.707107 -0.474641 0.88018 406.886 -330.071)" fill="white"/>
<rect width="0.975517" height="1216.28" transform="matrix(0.707107 0.707107 -0.474641 0.88018 387.178 -349.78)" fill="white"/>
<rect width="0.975517" height="1216.28" transform="matrix(0.707107 0.707107 -0.474641 0.88018 410.829 -326.129)" fill="white"/>
<rect width="0.975517" height="1216.28" transform="matrix(0.707107 0.707107 -0.474641 0.88018 391.119 -345.839)" fill="white"/>
<rect width="0.975517" height="1216.28" transform="matrix(0.707107 0.707107 -0.474641 0.88018 414.771 -322.188)" fill="white"/>
<rect width="0.975517" height="1216.28" transform="matrix(0.707107 0.707107 -0.474641 0.88018 395.062 -341.896)" fill="white"/>
<rect width="0.975517" height="1216.28" transform="matrix(0.707107 0.707107 -0.474641 0.88018 418.712 -318.246)" fill="white"/>
<rect width="0.975517" height="1216.28" transform="matrix(0.707107 0.707107 -0.474641 0.88018 422.653 -314.305)" fill="white"/>
<rect width="0.975517" height="1216.28" transform="matrix(0.707107 0.707107 -0.474641 0.88018 446.302 -290.655)" fill="white"/>
<rect width="0.975517" height="1216.28" transform="matrix(0.707107 0.707107 -0.474641 0.88018 426.594 -310.363)" fill="white"/>
<rect width="0.975517" height="1216.28" transform="matrix(0.707107 0.707107 -0.474641 0.88018 450.246 -286.713)" fill="white"/>
<rect width="0.975517" height="1216.28" transform="matrix(0.707107 0.707107 -0.474641 0.88018 430.538 -306.421)" fill="white"/>
<rect width="0.975517" height="1216.28" transform="matrix(0.707107 0.707107 -0.474641 0.88018 454.187 -282.771)" fill="white"/>
<rect width="0.975517" height="1216.28" transform="matrix(0.707107 0.707107 -0.474641 0.88018 434.479 -302.479)" fill="white"/>
<rect width="0.975517" height="1216.28" transform="matrix(0.707107 0.707107 -0.474641 0.88018 458.128 -278.829)" fill="white"/>
<rect width="0.975517" height="1216.28" transform="matrix(0.707107 0.707107 -0.474641 0.88018 438.42 -298.538)" fill="white"/>
<rect width="0.975517" height="1216.28" transform="matrix(0.707107 0.707107 -0.474641 0.88018 462.069 -274.888)" fill="white"/>
<rect width="0.975517" height="1216.28" transform="matrix(0.707107 0.707107 -0.474641 0.88018 442.361 -294.596)" fill="white"/>
<rect width="0.975517" height="1216.28" transform="matrix(0.707107 0.707107 -0.474641 0.88018 466.013 -270.945)" fill="white"/>
<rect width="0.975517" height="1216.28" transform="matrix(0.707107 0.707107 -0.474641 0.88018 469.954 -267.004)" fill="white"/>
<rect width="0.975517" height="1216.28" transform="matrix(0.707107 0.707107 -0.474641 0.88018 493.604 -243.354)" fill="white"/>
<rect width="0.975517" height="1216.28" transform="matrix(0.707107 0.707107 -0.474641 0.88018 473.895 -263.062)" fill="white"/>
<rect width="0.975517" height="1216.28" transform="matrix(0.707107 0.707107 -0.474641 0.88018 497.545 -239.413)" fill="white"/>
<rect width="0.975517" height="1216.28" transform="matrix(0.707107 0.707107 -0.474641 0.88018 477.836 -259.121)" fill="white"/>
<rect width="0.975517" height="1216.28" transform="matrix(0.707107 0.707107 -0.474641 0.88018 501.488 -235.47)" fill="white"/>
<rect width="0.975517" height="1216.28" transform="matrix(0.707107 0.707107 -0.474641 0.88018 481.778 -255.179)" fill="white"/>
<rect width="0.975517" height="1216.28" transform="matrix(0.707107 0.707107 -0.474641 0.88018 505.429 -231.529)" fill="white"/>
<rect width="0.975517" height="1216.28" transform="matrix(0.707107 0.707107 -0.474641 0.88018 485.721 -251.237)" fill="white"/>
<rect width="0.975517" height="1216.28" transform="matrix(0.707107 0.707107 -0.474641 0.88018 509.371 -227.588)" fill="white"/>
<rect width="0.975517" height="1216.28" transform="matrix(0.707107 0.707107 -0.474641 0.88018 489.662 -247.296)" fill="white"/>
<rect width="0.975517" height="1216.28" transform="matrix(0.707107 0.707107 -0.474641 0.88018 513.312 -223.646)" fill="white"/>
<rect width="0.975517" height="1216.28" transform="matrix(0.707107 0.707107 -0.474641 0.88018 517.253 -219.704)" fill="white"/>
<rect width="0.975517" height="1216.28" transform="matrix(0.707107 0.707107 -0.474641 0.88018 540.905 -196.054)" fill="white"/>
<rect width="0.975517" height="1216.28" transform="matrix(0.707107 0.707107 -0.474641 0.88018 521.197 -215.762)" fill="white"/>
<rect width="0.975517" height="1216.28" transform="matrix(0.707107 0.707107 -0.474641 0.88018 544.846 -192.112)" fill="white"/>
<rect width="0.975517" height="1216.28" transform="matrix(0.707107 0.707107 -0.474641 0.88018 525.138 -211.82)" fill="white"/>
<rect width="0.975517" height="1216.28" transform="matrix(0.707107 0.707107 -0.474641 0.88018 548.787 -188.171)" fill="white"/>
<rect width="0.975517" height="1216.28" transform="matrix(0.707107 0.707107 -0.474641 0.88018 529.079 -207.879)" fill="white"/>
<rect width="0.975517" height="1216.28" transform="matrix(0.707107 0.707107 -0.474641 0.88018 552.728 -184.229)" fill="white"/>
<rect width="0.975517" height="1216.28" transform="matrix(0.707107 0.707107 -0.474641 0.88018 533.02 -203.937)" fill="white"/>
<rect width="0.975517" height="1216.28" transform="matrix(0.707107 0.707107 -0.474641 0.88018 556.672 -180.287)" fill="white"/>
<rect width="0.975517" height="1216.28" transform="matrix(0.707107 0.707107 -0.474641 0.88018 536.961 -199.996)" fill="white"/>
<rect width="0.975517" height="1216.28" transform="matrix(0.707107 0.707107 -0.474641 0.88018 560.613 -176.345)" fill="white"/>
<rect width="0.975517" height="1216.28" transform="matrix(0.707107 0.707107 -0.474641 0.88018 564.554 -172.404)" fill="white"/>
<rect width="0.975517" height="1216.28" transform="matrix(0.707107 0.707107 -0.474641 0.88018 588.204 -148.754)" fill="white"/>
<rect width="0.975517" height="1216.28" transform="matrix(0.707107 0.707107 -0.474641 0.88018 568.495 -168.462)" fill="white"/>
<rect width="0.975517" height="1216.28" transform="matrix(0.707107 0.707107 -0.474641 0.88018 592.145 -144.812)" fill="white"/>
<rect width="0.975517" height="1216.28" transform="matrix(0.707107 0.707107 -0.474641 0.88018 572.436 -164.521)" fill="white"/>
<rect width="0.975517" height="1216.28" transform="matrix(0.707107 0.707107 -0.474641 0.88018 596.088 -140.87)" fill="white"/>
<rect width="0.975517" height="1216.28" transform="matrix(0.707107 0.707107 -0.474641 0.88018 576.38 -160.579)" fill="white"/>
<rect width="0.975517" height="1216.28" transform="matrix(0.707107 0.707107 -0.474641 0.88018 600.029 -136.929)" fill="white"/>
<rect width="0.975517" height="1216.28" transform="matrix(0.707107 0.707107 -0.474641 0.88018 580.321 -156.637)" fill="white"/>
<rect width="0.975517" height="1216.28" transform="matrix(0.707107 0.707107 -0.474641 0.88018 603.97 -132.987)" fill="white"/>
<rect width="0.975517" height="1216.28" transform="matrix(0.707107 0.707107 -0.474641 0.88018 584.262 -152.696)" fill="white"/>
<rect width="0.975517" height="1216.28" transform="matrix(0.707107 0.707107 -0.474641 0.88018 607.911 -129.045)" fill="white"/>
<rect width="0.975517" height="1216.28" transform="matrix(0.707107 0.707107 -0.474641 0.88018 611.855 -125.103)" fill="white"/>
<rect width="0.975517" height="1216.28" transform="matrix(0.707107 0.707107 -0.474641 0.88018 635.505 -101.453)" fill="white"/>
<rect width="0.975517" height="1216.28" transform="matrix(0.707107 0.707107 -0.474641 0.88018 615.797 -121.162)" fill="white"/>
<rect width="0.975517" height="1216.28" transform="matrix(0.707107 0.707107 -0.474641 0.88018 639.446 -97.5121)" fill="white"/>
<rect width="0.975517" height="1216.28" transform="matrix(0.707107 0.707107 -0.474641 0.88018 619.738 -117.22)" fill="white"/>
<rect width="0.975517" height="1216.28" transform="matrix(0.707107 0.707107 -0.474641 0.88018 643.387 -93.5704)" fill="white"/>
<rect width="0.975517" height="1216.28" transform="matrix(0.707107 0.707107 -0.474641 0.88018 623.679 -113.279)" fill="white"/>
<rect width="0.975517" height="1216.28" transform="matrix(0.707107 0.707107 -0.474641 0.88018 647.331 -89.6279)" fill="white"/>
<rect width="0.975517" height="1216.28" transform="matrix(0.707107 0.707107 -0.474641 0.88018 627.62 -109.337)" fill="white"/>
<rect width="0.975517" height="1216.28" transform="matrix(0.707107 0.707107 -0.474641 0.88018 651.272 -85.6864)" fill="white"/>
<rect width="0.975517" height="1216.28" transform="matrix(0.707107 0.707107 -0.474641 0.88018 631.564 -105.395)" fill="white"/>
<rect width="0.975517" height="1216.28" transform="matrix(0.707107 0.707107 -0.474641 0.88018 655.213 -81.7451)" fill="white"/>
<rect width="0.975517" height="1216.28" transform="matrix(0.707107 0.707107 -0.474641 0.88018 659.154 -77.8033)" fill="white"/>
<rect width="0.975517" height="1216.28" transform="matrix(0.707107 0.707107 -0.474641 0.88018 682.804 -54.1534)" fill="white"/>
<rect width="0.975517" height="1216.28" transform="matrix(0.707107 0.707107 -0.474641 0.88018 663.095 -73.8619)" fill="white"/>
<rect width="0.975517" height="1216.28" transform="matrix(0.707107 0.707107 -0.474641 0.88018 686.747 -50.2113)" fill="white"/>
<rect width="0.975517" height="1216.28" transform="matrix(0.707107 0.707107 -0.474641 0.88018 667.039 -69.9197)" fill="white"/>
<rect width="0.975517" height="1216.28" transform="matrix(0.707107 0.707107 -0.474641 0.88018 690.688 -46.2695)" fill="white"/>
<rect width="0.975517" height="1216.28" transform="matrix(0.707107 0.707107 -0.474641 0.88018 670.98 -65.9783)" fill="white"/>
<rect width="0.975517" height="1216.28" transform="matrix(0.707107 0.707107 -0.474641 0.88018 694.629 -42.3281)" fill="white"/>
<rect width="0.975517" height="1216.28" transform="matrix(0.707107 0.707107 -0.474641 0.88018 674.921 -62.0369)" fill="white"/>
<rect width="0.975517" height="1216.28" transform="matrix(0.707107 0.707107 -0.474641 0.88018 698.571 -38.3866)" fill="white"/>
<rect width="0.975517" height="1216.28" transform="matrix(0.707107 0.707107 -0.474641 0.88018 678.862 -58.0952)" fill="white"/>
<rect width="0.975517" height="1216.28" transform="matrix(0.707107 0.707107 -0.474641 0.88018 702.514 -34.4447)" fill="white"/>
</g>
</g>
</svg>
