<svg width="83" height="94" viewBox="0 0 83 94" fill="none" xmlns="http://www.w3.org/2000/svg">
<path d="M1 77.7899C21.2222 52.1715 43.6755 30.1122 69.7049 10.2945C73.5485 7.3681 84.2182 -2.04834 81.5878 1.99178C78.3371 6.98473 74.5511 11.6627 71.2893 16.6647C56.7409 38.9745 44.1597 62.8007 31.6795 86.3074C31.2257 87.1623 27.1391 94.1664 31.5355 90.6019C36.6892 86.4233 41.3061 81.515 46.1551 77.0026C51.4625 72.0636 56.8605 67.2275 62.071 62.1865C62.6818 61.5956 64.5328 60.034 64.2315 60.8266C61.3576 68.3874 57.8248 75.7504 54.5812 83.1581C53.2233 86.259 51.5488 89.5934 50.6922 92.8923C50.2977 94.4116 52.917 90.6641 54.077 89.5998C58.4069 85.6276 62.8588 81.6818 67.7604 78.4341" stroke="#598C76" stroke-linecap="round"/>
</svg>
