<svg width="53" height="53" viewBox="0 0 53 53" fill="none" xmlns="http://www.w3.org/2000/svg">
<g opacity="0.3">
<mask id="mask0_519_5511" style="mask-type:alpha" maskUnits="userSpaceOnUse" x="0" y="0" width="53" height="53">
<rect width="53" height="53" fill="#EBEBEB"/>
</mask>
<g mask="url(#mask0_519_5511)">
<rect width="0.429138" height="522.307" transform="matrix(0.736768 0.676146 -0.506615 0.862172 1.08191 -203.565)" fill="black"/>
<rect width="0.429138" height="522.307" transform="matrix(0.736768 0.676146 -0.506615 0.862172 2.88953 -201.906)" fill="black"/>
<rect width="0.429138" height="522.307" transform="matrix(0.736768 0.676146 -0.506615 0.862172 4.69592 -200.248)" fill="black"/>
<rect width="0.429138" height="522.307" transform="matrix(0.736768 0.676146 -0.506615 0.862172 6.50244 -198.59)" fill="black"/>
<rect width="0.429138" height="522.307" transform="matrix(0.736768 0.676146 -0.506615 0.862172 8.30896 -196.933)" fill="black"/>
<rect width="0.429138" height="522.307" transform="matrix(0.736768 0.676146 -0.506615 0.862172 10.1166 -195.274)" fill="black"/>
<rect width="0.429138" height="522.307" transform="matrix(0.736768 0.676146 -0.506615 0.862172 20.9564 -185.326)" fill="black"/>
<rect width="0.429138" height="522.307" transform="matrix(0.736768 0.676146 -0.506615 0.862172 11.923 -193.616)" fill="black"/>
<rect width="0.429138" height="522.307" transform="matrix(0.736768 0.676146 -0.506615 0.862172 22.7629 -183.668)" fill="black"/>
<rect width="0.429138" height="522.307" transform="matrix(0.736768 0.676146 -0.506615 0.862172 13.7294 -191.958)" fill="black"/>
<rect width="0.429138" height="522.307" transform="matrix(0.736768 0.676146 -0.506615 0.862172 24.5693 -182.01)" fill="black"/>
<rect width="0.429138" height="522.307" transform="matrix(0.736768 0.676146 -0.506615 0.862172 15.536 -190.3)" fill="black"/>
<rect width="0.429138" height="522.307" transform="matrix(0.736768 0.676146 -0.506615 0.862172 26.376 -180.352)" fill="black"/>
<rect width="0.429138" height="522.307" transform="matrix(0.736768 0.676146 -0.506615 0.862172 17.3424 -188.642)" fill="black"/>
<rect width="0.429138" height="522.307" transform="matrix(0.736768 0.676146 -0.506615 0.862172 28.1835 -178.694)" fill="black"/>
<rect width="0.429138" height="522.307" transform="matrix(0.736768 0.676146 -0.506615 0.862172 19.1499 -186.984)" fill="black"/>
<rect width="0.429138" height="522.307" transform="matrix(0.736768 0.676146 -0.506615 0.862172 29.99 -177.036)" fill="black"/>
<rect width="0.429138" height="522.307" transform="matrix(0.736768 0.676146 -0.506615 0.862172 31.7964 -175.377)" fill="black"/>
<rect width="0.429138" height="522.307" transform="matrix(0.736768 0.676146 -0.506615 0.862172 42.6365 -165.43)" fill="black"/>
<rect width="0.429138" height="522.307" transform="matrix(0.736768 0.676146 -0.506615 0.862172 33.6028 -173.72)" fill="black"/>
<rect width="0.429138" height="522.307" transform="matrix(0.736768 0.676146 -0.506615 0.862172 44.444 -163.771)" fill="black"/>
<rect width="0.429138" height="522.307" transform="matrix(0.736768 0.676146 -0.506615 0.862172 35.4105 -172.062)" fill="black"/>
<rect width="0.429138" height="522.307" transform="matrix(0.736768 0.676146 -0.506615 0.862172 46.2504 -162.113)" fill="black"/>
<rect width="0.429138" height="522.307" transform="matrix(0.736768 0.676146 -0.506615 0.862172 37.217 -170.403)" fill="black"/>
<rect width="0.429138" height="522.307" transform="matrix(0.736768 0.676146 -0.506615 0.862172 48.0569 -160.455)" fill="black"/>
<rect width="0.429138" height="522.307" transform="matrix(0.736768 0.676146 -0.506615 0.862172 39.0234 -168.745)" fill="black"/>
<rect width="0.429138" height="522.307" transform="matrix(0.736768 0.676146 -0.506615 0.862172 49.8633 -158.797)" fill="black"/>
<rect width="0.429138" height="522.307" transform="matrix(0.736768 0.676146 -0.506615 0.862172 40.8298 -167.087)" fill="black"/>
<rect width="0.429138" height="522.307" transform="matrix(0.736768 0.676146 -0.506615 0.862172 51.6709 -157.139)" fill="black"/>
<rect width="0.429138" height="522.307" transform="matrix(0.736768 0.676146 -0.506615 0.862172 53.4774 -155.481)" fill="black"/>
<rect width="0.429138" height="522.307" transform="matrix(0.736768 0.676146 -0.506615 0.862172 64.3174 -145.532)" fill="black"/>
<rect width="0.429138" height="522.307" transform="matrix(0.736768 0.676146 -0.506615 0.862172 55.2838 -153.823)" fill="black"/>
<rect width="0.429138" height="522.307" transform="matrix(0.736768 0.676146 -0.506615 0.862172 66.1238 -143.875)" fill="black"/>
<rect width="0.429138" height="522.307" transform="matrix(0.736768 0.676146 -0.506615 0.862172 57.0903 -152.165)" fill="black"/>
<rect width="0.429138" height="522.307" transform="matrix(0.736768 0.676146 -0.506615 0.862172 67.9303 -142.217)" fill="black"/>
<rect width="0.429138" height="522.307" transform="matrix(0.736768 0.676146 -0.506615 0.862172 58.8969 -150.507)" fill="black"/>
<rect width="0.429138" height="522.307" transform="matrix(0.736768 0.676146 -0.506615 0.862172 69.7379 -140.558)" fill="black"/>
<rect width="0.429138" height="522.307" transform="matrix(0.736768 0.676146 -0.506615 0.862172 60.7043 -148.849)" fill="black"/>
<rect width="0.429138" height="522.307" transform="matrix(0.736768 0.676146 -0.506615 0.862172 71.5443 -138.9)" fill="black"/>
<rect width="0.429138" height="522.307" transform="matrix(0.736768 0.676146 -0.506615 0.862172 62.511 -147.19)" fill="black"/>
<rect width="0.429138" height="522.307" transform="matrix(0.736768 0.676146 -0.506615 0.862172 73.3508 -137.242)" fill="black"/>
<rect width="0.429138" height="522.307" transform="matrix(0.736768 0.676146 -0.506615 0.862172 75.1573 -135.584)" fill="black"/>
<rect width="0.429138" height="522.307" transform="matrix(0.736768 0.676146 -0.506615 0.862172 85.9983 -125.636)" fill="black"/>
<rect width="0.429138" height="522.307" transform="matrix(0.736768 0.676146 -0.506615 0.862172 76.9648 -133.926)" fill="black"/>
<rect width="0.429138" height="522.307" transform="matrix(0.736768 0.676146 -0.506615 0.862172 87.8049 -123.978)" fill="black"/>
<rect width="0.429138" height="522.307" transform="matrix(0.736768 0.676146 -0.506615 0.862172 78.7714 -132.268)" fill="black"/>
<rect width="0.429138" height="522.307" transform="matrix(0.736768 0.676146 -0.506615 0.862172 89.6113 -122.32)" fill="black"/>
<rect width="0.429138" height="522.307" transform="matrix(0.736768 0.676146 -0.506615 0.862172 80.5779 -130.61)" fill="black"/>
<rect width="0.429138" height="522.307" transform="matrix(0.736768 0.676146 -0.506615 0.862172 91.4178 -120.662)" fill="black"/>
<rect width="0.429138" height="522.307" transform="matrix(0.736768 0.676146 -0.506615 0.862172 82.3844 -128.952)" fill="black"/>
<rect width="0.429138" height="522.307" transform="matrix(0.736768 0.676146 -0.506615 0.862172 93.2244 -119.004)" fill="black"/>
<rect width="0.429138" height="522.307" transform="matrix(0.736768 0.676146 -0.506615 0.862172 84.1908 -127.294)" fill="black"/>
<rect width="0.429138" height="522.307" transform="matrix(0.736768 0.676146 -0.506615 0.862172 95.0319 -117.346)" fill="black"/>
<rect width="0.429138" height="522.307" transform="matrix(0.736768 0.676146 -0.506615 0.862172 96.8384 -115.688)" fill="black"/>
<rect width="0.429138" height="522.307" transform="matrix(0.736768 0.676146 -0.506615 0.862172 107.678 -105.739)" fill="black"/>
<rect width="0.429138" height="522.307" transform="matrix(0.736768 0.676146 -0.506615 0.862172 98.6449 -114.029)" fill="black"/>
<rect width="0.429138" height="522.307" transform="matrix(0.736768 0.676146 -0.506615 0.862172 109.485 -104.082)" fill="black"/>
<rect width="0.429138" height="522.307" transform="matrix(0.736768 0.676146 -0.506615 0.862172 100.451 -112.372)" fill="black"/>
<rect width="0.429138" height="522.307" transform="matrix(0.736768 0.676146 -0.506615 0.862172 111.292 -102.423)" fill="black"/>
<rect width="0.429138" height="522.307" transform="matrix(0.736768 0.676146 -0.506615 0.862172 102.259 -110.713)" fill="black"/>
<rect width="0.429138" height="522.307" transform="matrix(0.736768 0.676146 -0.506615 0.862172 113.099 -100.765)" fill="black"/>
<rect width="0.429138" height="522.307" transform="matrix(0.736768 0.676146 -0.506615 0.862172 104.065 -109.055)" fill="black"/>
<rect width="0.429138" height="522.307" transform="matrix(0.736768 0.676146 -0.506615 0.862172 114.905 -99.1069)" fill="black"/>
<rect width="0.429138" height="522.307" transform="matrix(0.736768 0.676146 -0.506615 0.862172 105.872 -107.397)" fill="black"/>
<rect width="0.429138" height="522.307" transform="matrix(0.736768 0.676146 -0.506615 0.862172 116.712 -97.4492)" fill="black"/>
<rect width="0.429138" height="522.307" transform="matrix(0.736768 0.676146 -0.506615 0.862172 118.519 -95.7905)" fill="black"/>
<rect width="0.429138" height="522.307" transform="matrix(0.736768 0.676146 -0.506615 0.862172 129.359 -85.8423)" fill="black"/>
<rect width="0.429138" height="522.307" transform="matrix(0.736768 0.676146 -0.506615 0.862172 120.326 -94.1328)" fill="black"/>
<rect width="0.429138" height="522.307" transform="matrix(0.736768 0.676146 -0.506615 0.862172 131.166 -84.1846)" fill="black"/>
<rect width="0.429138" height="522.307" transform="matrix(0.736768 0.676146 -0.506615 0.862172 122.132 -92.4751)" fill="black"/>
<rect width="0.429138" height="522.307" transform="matrix(0.736768 0.676146 -0.506615 0.862172 132.972 -82.5264)" fill="black"/>
<rect width="0.429138" height="522.307" transform="matrix(0.736768 0.676146 -0.506615 0.862172 123.939 -90.8169)" fill="black"/>
<rect width="0.429138" height="522.307" transform="matrix(0.736768 0.676146 -0.506615 0.862172 134.779 -80.8687)" fill="black"/>
<rect width="0.429138" height="522.307" transform="matrix(0.736768 0.676146 -0.506615 0.862172 125.745 -89.1587)" fill="black"/>
<rect width="0.429138" height="522.307" transform="matrix(0.736768 0.676146 -0.506615 0.862172 136.586 -79.2104)" fill="black"/>
<rect width="0.429138" height="522.307" transform="matrix(0.736768 0.676146 -0.506615 0.862172 127.553 -87.5005)" fill="black"/>
<rect width="0.429138" height="522.307" transform="matrix(0.736768 0.676146 -0.506615 0.862172 138.393 -77.5522)" fill="black"/>
<rect width="0.429138" height="522.307" transform="matrix(0.736768 0.676146 -0.506615 0.862172 140.199 -75.894)" fill="black"/>
<rect width="0.429138" height="522.307" transform="matrix(0.736768 0.676146 -0.506615 0.862172 151.039 -65.9463)" fill="black"/>
<rect width="0.429138" height="522.307" transform="matrix(0.736768 0.676146 -0.506615 0.862172 142.006 -74.2363)" fill="black"/>
<rect width="0.429138" height="522.307" transform="matrix(0.736768 0.676146 -0.506615 0.862172 152.847 -64.2881)" fill="black"/>
<rect width="0.429138" height="522.307" transform="matrix(0.736768 0.676146 -0.506615 0.862172 143.813 -72.5776)" fill="black"/>
<rect width="0.429138" height="522.307" transform="matrix(0.736768 0.676146 -0.506615 0.862172 154.653 -62.6299)" fill="black"/>
<rect width="0.429138" height="522.307" transform="matrix(0.736768 0.676146 -0.506615 0.862172 145.62 -70.9199)" fill="black"/>
<rect width="0.429138" height="522.307" transform="matrix(0.736768 0.676146 -0.506615 0.862172 156.46 -60.9717)" fill="black"/>
<rect width="0.429138" height="522.307" transform="matrix(0.736768 0.676146 -0.506615 0.862172 147.426 -69.2617)" fill="black"/>
<rect width="0.429138" height="522.307" transform="matrix(0.736768 0.676146 -0.506615 0.862172 158.266 -59.314)" fill="black"/>
<rect width="0.429138" height="522.307" transform="matrix(0.736768 0.676146 -0.506615 0.862172 149.233 -67.604)" fill="black"/>
<rect width="0.429138" height="522.307" transform="matrix(0.736768 0.676146 -0.506615 0.862172 160.073 -57.6558)" fill="black"/>
<rect width="0.429138" height="522.307" transform="matrix(0.736768 0.676146 -0.506615 0.862172 161.646 -56.2134)" fill="black"/>
<rect width="0.429138" height="522.307" transform="matrix(0.736768 0.676146 -0.506615 0.862172 172.485 -46.2646)" fill="black"/>
<rect width="0.429138" height="522.307" transform="matrix(0.736768 0.676146 -0.506615 0.862172 163.452 -54.5552)" fill="black"/>
<rect width="0.429138" height="522.307" transform="matrix(0.736768 0.676146 -0.506615 0.862172 174.293 -44.6064)" fill="black"/>
<rect width="0.429138" height="522.307" transform="matrix(0.736768 0.676146 -0.506615 0.862172 165.258 -52.897)" fill="black"/>
<rect width="0.429138" height="522.307" transform="matrix(0.736768 0.676146 -0.506615 0.862172 176.099 -42.9482)" fill="black"/>
<rect width="0.429138" height="522.307" transform="matrix(0.736768 0.676146 -0.506615 0.862172 167.066 -51.2388)" fill="black"/>
<rect width="0.429138" height="522.307" transform="matrix(0.736768 0.676146 -0.506615 0.862172 177.906 -41.29)" fill="black"/>
<rect width="0.429138" height="522.307" transform="matrix(0.736768 0.676146 -0.506615 0.862172 168.872 -49.5806)" fill="black"/>
<rect width="0.429138" height="522.307" transform="matrix(0.736768 0.676146 -0.506615 0.862172 179.712 -39.6323)" fill="black"/>
<rect width="0.429138" height="522.307" transform="matrix(0.736768 0.676146 -0.506615 0.862172 170.679 -47.9229)" fill="black"/>
<rect width="0.429138" height="522.307" transform="matrix(0.736768 0.676146 -0.506615 0.862172 181.519 -37.9746)" fill="black"/>
<rect width="0.429138" height="522.307" transform="matrix(0.736768 0.676146 -0.506615 0.862172 183.326 -36.3159)" fill="black"/>
<rect width="0.429138" height="522.307" transform="matrix(0.736768 0.676146 -0.506615 0.862172 194.166 -26.3677)" fill="black"/>
<rect width="0.429138" height="522.307" transform="matrix(0.736768 0.676146 -0.506615 0.862172 185.133 -34.6577)" fill="black"/>
<rect width="0.429138" height="522.307" transform="matrix(0.736768 0.676146 -0.506615 0.862172 195.973 -24.71)" fill="black"/>
<rect width="0.429138" height="522.307" transform="matrix(0.736768 0.676146 -0.506615 0.862172 186.939 -33)" fill="black"/>
<rect width="0.429138" height="522.307" transform="matrix(0.736768 0.676146 -0.506615 0.862172 197.779 -23.0522)" fill="black"/>
<rect width="0.429138" height="522.307" transform="matrix(0.736768 0.676146 -0.506615 0.862172 188.746 -31.3423)" fill="black"/>
<rect width="0.429138" height="522.307" transform="matrix(0.736768 0.676146 -0.506615 0.862172 199.587 -21.3936)" fill="black"/>
<rect width="0.429138" height="522.307" transform="matrix(0.736768 0.676146 -0.506615 0.862172 190.552 -29.6846)" fill="black"/>
<rect width="0.429138" height="522.307" transform="matrix(0.736768 0.676146 -0.506615 0.862172 201.393 -19.7354)" fill="black"/>
<rect width="0.429138" height="522.307" transform="matrix(0.736768 0.676146 -0.506615 0.862172 192.36 -28.0259)" fill="black"/>
<rect width="0.429138" height="522.307" transform="matrix(0.736768 0.676146 -0.506615 0.862172 203.2 -18.0776)" fill="black"/>
<rect width="0.429138" height="522.307" transform="matrix(0.736768 0.676146 -0.506615 0.862172 205.006 -16.4199)" fill="black"/>
<rect width="0.429138" height="522.307" transform="matrix(0.736768 0.676146 -0.506615 0.862172 215.846 -6.47119)" fill="black"/>
<rect width="0.429138" height="522.307" transform="matrix(0.736768 0.676146 -0.506615 0.862172 206.813 -14.7617)" fill="black"/>
<rect width="0.429138" height="522.307" transform="matrix(0.736768 0.676146 -0.506615 0.862172 217.654 -4.81299)" fill="black"/>
<rect width="0.429138" height="522.307" transform="matrix(0.736768 0.676146 -0.506615 0.862172 208.62 -13.1035)" fill="black"/>
<rect width="0.429138" height="522.307" transform="matrix(0.736768 0.676146 -0.506615 0.862172 219.46 -3.15527)" fill="black"/>
<rect width="0.429138" height="522.307" transform="matrix(0.736768 0.676146 -0.506615 0.862172 210.427 -11.4453)" fill="black"/>
<rect width="0.429138" height="522.307" transform="matrix(0.736768 0.676146 -0.506615 0.862172 221.267 -1.49707)" fill="black"/>
<rect width="0.429138" height="522.307" transform="matrix(0.736768 0.676146 -0.506615 0.862172 212.233 -9.78711)" fill="black"/>
<rect width="0.429138" height="522.307" transform="matrix(0.736768 0.676146 -0.506615 0.862172 223.073 0.160645)" fill="black"/>
<rect width="0.429138" height="522.307" transform="matrix(0.736768 0.676146 -0.506615 0.862172 214.04 -8.12939)" fill="black"/>
<rect width="0.429138" height="522.307" transform="matrix(0.736768 0.676146 -0.506615 0.862172 224.881 1.81934)" fill="black"/>
<rect width="0.429138" height="522.307" transform="matrix(0.736768 0.676146 -0.506615 0.862172 226.688 3.47754)" fill="black"/>
<rect width="0.429138" height="522.307" transform="matrix(0.736768 0.676146 -0.506615 0.862172 237.527 13.4253)" fill="black"/>
<rect width="0.429138" height="522.307" transform="matrix(0.736768 0.676146 -0.506615 0.862172 228.494 5.13525)" fill="black"/>
<rect width="0.429138" height="522.307" transform="matrix(0.736768 0.676146 -0.506615 0.862172 239.334 15.0835)" fill="black"/>
<rect width="0.429138" height="522.307" transform="matrix(0.736768 0.676146 -0.506615 0.862172 230.3 6.79346)" fill="black"/>
<rect width="0.429138" height="522.307" transform="matrix(0.736768 0.676146 -0.506615 0.862172 241.141 16.7417)" fill="black"/>
<rect width="0.429138" height="522.307" transform="matrix(0.736768 0.676146 -0.506615 0.862172 232.107 8.45117)" fill="black"/>
<rect width="0.429138" height="522.307" transform="matrix(0.736768 0.676146 -0.506615 0.862172 242.948 18.3999)" fill="black"/>
<rect width="0.429138" height="522.307" transform="matrix(0.736768 0.676146 -0.506615 0.862172 233.914 10.1094)" fill="black"/>
<rect width="0.429138" height="522.307" transform="matrix(0.736768 0.676146 -0.506615 0.862172 244.754 20.0576)" fill="black"/>
<rect width="0.429138" height="522.307" transform="matrix(0.736768 0.676146 -0.506615 0.862172 235.721 11.7676)" fill="black"/>
<rect width="0.429138" height="522.307" transform="matrix(0.736768 0.676146 -0.506615 0.862172 246.561 21.7158)" fill="black"/>
<rect width="0.429138" height="522.307" transform="matrix(0.736768 0.676146 -0.506615 0.862172 248.367 23.3735)" fill="black"/>
<rect width="0.429138" height="522.307" transform="matrix(0.736768 0.676146 -0.506615 0.862172 259.208 33.3223)" fill="black"/>
<rect width="0.429138" height="522.307" transform="matrix(0.736768 0.676146 -0.506615 0.862172 250.175 25.0317)" fill="black"/>
<rect width="0.429138" height="522.307" transform="matrix(0.736768 0.676146 -0.506615 0.862172 261.015 34.98)" fill="black"/>
<rect width="0.429138" height="522.307" transform="matrix(0.736768 0.676146 -0.506615 0.862172 251.981 26.6899)" fill="black"/>
<rect width="0.429138" height="522.307" transform="matrix(0.736768 0.676146 -0.506615 0.862172 262.821 36.6382)" fill="black"/>
<rect width="0.429138" height="522.307" transform="matrix(0.736768 0.676146 -0.506615 0.862172 253.788 28.3481)" fill="black"/>
<rect width="0.429138" height="522.307" transform="matrix(0.736768 0.676146 -0.506615 0.862172 264.628 38.2959)" fill="black"/>
<rect width="0.429138" height="522.307" transform="matrix(0.736768 0.676146 -0.506615 0.862172 255.594 30.0063)" fill="black"/>
<rect width="0.429138" height="522.307" transform="matrix(0.736768 0.676146 -0.506615 0.862172 266.435 39.9546)" fill="black"/>
<rect width="0.429138" height="522.307" transform="matrix(0.736768 0.676146 -0.506615 0.862172 257.401 31.6641)" fill="black"/>
<rect width="0.429138" height="522.307" transform="matrix(0.736768 0.676146 -0.506615 0.862172 268.242 41.6128)" fill="black"/>
<rect width="0.429138" height="522.307" transform="matrix(0.736768 0.676146 -0.506615 0.862172 270.048 43.2705)" fill="black"/>
<rect width="0.429138" height="522.307" transform="matrix(0.736768 0.676146 -0.506615 0.862172 271.855 44.9282)" fill="black"/>
<rect width="0.429138" height="522.307" transform="matrix(0.736768 0.676146 -0.506615 0.862172 273.661 46.5864)" fill="black"/>
<rect width="0.429138" height="522.307" transform="matrix(0.736768 0.676146 -0.506615 0.862172 275.469 48.2446)" fill="black"/>
<rect width="0.429138" height="522.307" transform="matrix(0.736768 0.676146 -0.506615 0.862172 277.275 49.9028)" fill="black"/>
<rect width="0.429138" height="522.307" transform="matrix(0.736768 0.676146 -0.506615 0.862172 279.082 51.5605)" fill="black"/>
</g>
</g>
</svg>
