<svg width="61" height="61" viewBox="0 0 61 61" fill="none" xmlns="http://www.w3.org/2000/svg">
<g opacity="0.3">
<mask id="mask0_519_3497" style="mask-type:alpha" maskUnits="userSpaceOnUse" x="0" y="0" width="61" height="61">
<rect width="60.7053" height="60.1681" fill="#C4C4C4"/>
</mask>
<g mask="url(#mask0_519_3497)">
<rect width="0.524063" height="653.402" transform="matrix(0.707107 0.707107 -0.474641 0.88018 11.3428 -395.307)" fill="black"/>
<rect width="0.524063" height="653.402" transform="matrix(0.707107 0.707107 -0.474641 0.88018 0.755371 -405.895)" fill="black"/>
<rect width="0.524063" height="653.402" transform="matrix(0.707107 0.707107 -0.474641 0.88018 13.46 -393.19)" fill="black"/>
<rect width="0.524063" height="653.402" transform="matrix(0.707107 0.707107 -0.474641 0.88018 2.87256 -403.777)" fill="black"/>
<rect width="0.524063" height="653.402" transform="matrix(0.707107 0.707107 -0.474641 0.88018 15.5771 -391.072)" fill="black"/>
<rect width="0.524063" height="653.402" transform="matrix(0.707107 0.707107 -0.474641 0.88018 4.98975 -401.66)" fill="black"/>
<rect width="0.524063" height="653.402" transform="matrix(0.707107 0.707107 -0.474641 0.88018 17.6943 -388.955)" fill="black"/>
<rect width="0.524063" height="653.402" transform="matrix(0.707107 0.707107 -0.474641 0.88018 7.10693 -399.542)" fill="black"/>
<rect width="0.524063" height="653.402" transform="matrix(0.707107 0.707107 -0.474641 0.88018 19.813 -386.837)" fill="black"/>
<rect width="0.524063" height="653.402" transform="matrix(0.707107 0.707107 -0.474641 0.88018 9.2251 -397.424)" fill="black"/>
<rect width="0.524063" height="653.402" transform="matrix(0.707107 0.707107 -0.474641 0.88018 21.9302 -384.719)" fill="black"/>
<rect width="0.524063" height="653.402" transform="matrix(0.707107 0.707107 -0.474641 0.88018 24.0474 -382.602)" fill="black"/>
<rect width="0.524063" height="653.402" transform="matrix(0.707107 0.707107 -0.474641 0.88018 36.7524 -369.897)" fill="black"/>
<rect width="0.524063" height="653.402" transform="matrix(0.707107 0.707107 -0.474641 0.88018 26.1646 -380.484)" fill="black"/>
<rect width="0.524063" height="653.402" transform="matrix(0.707107 0.707107 -0.474641 0.88018 38.8706 -367.779)" fill="black"/>
<rect width="0.524063" height="653.402" transform="matrix(0.707107 0.707107 -0.474641 0.88018 28.2832 -378.367)" fill="black"/>
<rect width="0.524063" height="653.402" transform="matrix(0.707107 0.707107 -0.474641 0.88018 40.9878 -365.661)" fill="black"/>
<rect width="0.524063" height="653.402" transform="matrix(0.707107 0.707107 -0.474641 0.88018 30.4004 -376.249)" fill="black"/>
<rect width="0.524063" height="653.402" transform="matrix(0.707107 0.707107 -0.474641 0.88018 43.1055 -363.544)" fill="black"/>
<rect width="0.524063" height="653.402" transform="matrix(0.707107 0.707107 -0.474641 0.88018 32.5176 -374.132)" fill="black"/>
<rect width="0.524063" height="653.402" transform="matrix(0.707107 0.707107 -0.474641 0.88018 45.2227 -361.426)" fill="black"/>
<rect width="0.524063" height="653.402" transform="matrix(0.707107 0.707107 -0.474641 0.88018 34.6353 -372.014)" fill="black"/>
<rect width="0.524063" height="653.402" transform="matrix(0.707107 0.707107 -0.474641 0.88018 47.3413 -359.309)" fill="black"/>
<rect width="0.524063" height="653.402" transform="matrix(0.707107 0.707107 -0.474641 0.88018 49.4585 -357.191)" fill="black"/>
<rect width="0.524063" height="653.402" transform="matrix(0.707107 0.707107 -0.474641 0.88018 62.1631 -344.486)" fill="black"/>
<rect width="0.524063" height="653.402" transform="matrix(0.707107 0.707107 -0.474641 0.88018 51.5757 -355.074)" fill="black"/>
<rect width="0.524063" height="653.402" transform="matrix(0.707107 0.707107 -0.474641 0.88018 64.2803 -342.369)" fill="black"/>
<rect width="0.524063" height="653.402" transform="matrix(0.707107 0.707107 -0.474641 0.88018 53.6929 -352.956)" fill="black"/>
<rect width="0.524063" height="653.402" transform="matrix(0.707107 0.707107 -0.474641 0.88018 66.3979 -340.251)" fill="black"/>
<rect width="0.524063" height="653.402" transform="matrix(0.707107 0.707107 -0.474641 0.88018 55.8101 -350.839)" fill="black"/>
<rect width="0.524063" height="653.402" transform="matrix(0.707107 0.707107 -0.474641 0.88018 68.5161 -338.133)" fill="black"/>
<rect width="0.524063" height="653.402" transform="matrix(0.707107 0.707107 -0.474641 0.88018 57.9287 -348.721)" fill="black"/>
<rect width="0.524063" height="653.402" transform="matrix(0.707107 0.707107 -0.474641 0.88018 70.6333 -336.016)" fill="black"/>
<rect width="0.524063" height="653.402" transform="matrix(0.707107 0.707107 -0.474641 0.88018 60.0459 -346.604)" fill="black"/>
<rect width="0.524063" height="653.402" transform="matrix(0.707107 0.707107 -0.474641 0.88018 72.751 -333.898)" fill="black"/>
<rect width="0.524063" height="653.402" transform="matrix(0.707107 0.707107 -0.474641 0.88018 74.8682 -331.781)" fill="black"/>
<rect width="0.524063" height="653.402" transform="matrix(0.707107 0.707107 -0.474641 0.88018 87.5742 -319.076)" fill="black"/>
<rect width="0.524063" height="653.402" transform="matrix(0.707107 0.707107 -0.474641 0.88018 76.9863 -329.663)" fill="black"/>
<rect width="0.524063" height="653.402" transform="matrix(0.707107 0.707107 -0.474641 0.88018 89.6914 -316.958)" fill="black"/>
<rect width="0.524063" height="653.402" transform="matrix(0.707107 0.707107 -0.474641 0.88018 79.1035 -327.546)" fill="black"/>
<rect width="0.524063" height="653.402" transform="matrix(0.707107 0.707107 -0.474641 0.88018 91.8086 -314.841)" fill="black"/>
<rect width="0.524063" height="653.402" transform="matrix(0.707107 0.707107 -0.474641 0.88018 81.2212 -325.428)" fill="black"/>
<rect width="0.524063" height="653.402" transform="matrix(0.707107 0.707107 -0.474641 0.88018 93.9258 -312.723)" fill="black"/>
<rect width="0.524063" height="653.402" transform="matrix(0.707107 0.707107 -0.474641 0.88018 83.3384 -323.311)" fill="black"/>
<rect width="0.524063" height="653.402" transform="matrix(0.707107 0.707107 -0.474641 0.88018 96.043 -310.606)" fill="black"/>
<rect width="0.524063" height="653.402" transform="matrix(0.707107 0.707107 -0.474641 0.88018 85.4556 -321.193)" fill="black"/>
<rect width="0.524063" height="653.402" transform="matrix(0.707107 0.707107 -0.474641 0.88018 98.1616 -308.488)" fill="black"/>
<rect width="0.524063" height="653.402" transform="matrix(0.707107 0.707107 -0.474641 0.88018 100.279 -306.371)" fill="black"/>
<rect width="0.524063" height="653.402" transform="matrix(0.707107 0.707107 -0.474641 0.88018 112.984 -293.666)" fill="black"/>
<rect width="0.524063" height="653.402" transform="matrix(0.707107 0.707107 -0.474641 0.88018 102.396 -304.253)" fill="black"/>
<rect width="0.524063" height="653.402" transform="matrix(0.707107 0.707107 -0.474641 0.88018 115.101 -291.548)" fill="black"/>
<rect width="0.524063" height="653.402" transform="matrix(0.707107 0.707107 -0.474641 0.88018 104.513 -302.136)" fill="black"/>
<rect width="0.524063" height="653.402" transform="matrix(0.707107 0.707107 -0.474641 0.88018 117.219 -289.43)" fill="black"/>
<rect width="0.524063" height="653.402" transform="matrix(0.707107 0.707107 -0.474641 0.88018 106.632 -300.018)" fill="black"/>
<rect width="0.524063" height="653.402" transform="matrix(0.707107 0.707107 -0.474641 0.88018 119.337 -287.313)" fill="black"/>
<rect width="0.524063" height="653.402" transform="matrix(0.707107 0.707107 -0.474641 0.88018 108.749 -297.9)" fill="black"/>
<rect width="0.524063" height="653.402" transform="matrix(0.707107 0.707107 -0.474641 0.88018 121.454 -285.195)" fill="black"/>
<rect width="0.524063" height="653.402" transform="matrix(0.707107 0.707107 -0.474641 0.88018 110.866 -295.783)" fill="black"/>
<rect width="0.524063" height="653.402" transform="matrix(0.707107 0.707107 -0.474641 0.88018 123.571 -283.078)" fill="black"/>
<rect width="0.524063" height="653.402" transform="matrix(0.707107 0.707107 -0.474641 0.88018 125.69 -280.96)" fill="black"/>
<rect width="0.524063" height="653.402" transform="matrix(0.707107 0.707107 -0.474641 0.88018 138.395 -268.255)" fill="black"/>
<rect width="0.524063" height="653.402" transform="matrix(0.707107 0.707107 -0.474641 0.88018 127.807 -278.842)" fill="black"/>
<rect width="0.524063" height="653.402" transform="matrix(0.707107 0.707107 -0.474641 0.88018 140.512 -266.137)" fill="black"/>
<rect width="0.524063" height="653.402" transform="matrix(0.707107 0.707107 -0.474641 0.88018 129.924 -276.725)" fill="black"/>
<rect width="0.524063" height="653.402" transform="matrix(0.707107 0.707107 -0.474641 0.88018 142.629 -264.02)" fill="black"/>
<rect width="0.524063" height="653.402" transform="matrix(0.707107 0.707107 -0.474641 0.88018 132.042 -274.608)" fill="black"/>
<rect width="0.524063" height="653.402" transform="matrix(0.707107 0.707107 -0.474641 0.88018 144.747 -261.903)" fill="black"/>
<rect width="0.524063" height="653.402" transform="matrix(0.707107 0.707107 -0.474641 0.88018 134.159 -272.49)" fill="black"/>
<rect width="0.524063" height="653.402" transform="matrix(0.707107 0.707107 -0.474641 0.88018 146.865 -259.785)" fill="black"/>
<rect width="0.524063" height="653.402" transform="matrix(0.707107 0.707107 -0.474641 0.88018 136.277 -270.372)" fill="black"/>
<rect width="0.524063" height="653.402" transform="matrix(0.707107 0.707107 -0.474641 0.88018 148.982 -257.667)" fill="black"/>
<rect width="0.524063" height="653.402" transform="matrix(0.707107 0.707107 -0.474641 0.88018 151.1 -255.55)" fill="black"/>
<rect width="0.524063" height="653.402" transform="matrix(0.707107 0.707107 -0.474641 0.88018 163.804 -242.845)" fill="black"/>
<rect width="0.524063" height="653.402" transform="matrix(0.707107 0.707107 -0.474641 0.88018 153.217 -253.432)" fill="black"/>
<rect width="0.524063" height="653.402" transform="matrix(0.707107 0.707107 -0.474641 0.88018 165.923 -240.727)" fill="black"/>
<rect width="0.524063" height="653.402" transform="matrix(0.707107 0.707107 -0.474641 0.88018 155.335 -251.314)" fill="black"/>
<rect width="0.524063" height="653.402" transform="matrix(0.707107 0.707107 -0.474641 0.88018 168.04 -238.609)" fill="black"/>
<rect width="0.524063" height="653.402" transform="matrix(0.707107 0.707107 -0.474641 0.88018 157.453 -249.197)" fill="black"/>
<rect width="0.524063" height="653.402" transform="matrix(0.707107 0.707107 -0.474641 0.88018 170.158 -236.492)" fill="black"/>
<rect width="0.524063" height="653.402" transform="matrix(0.707107 0.707107 -0.474641 0.88018 159.57 -247.08)" fill="black"/>
<rect width="0.524063" height="653.402" transform="matrix(0.707107 0.707107 -0.474641 0.88018 172.275 -234.375)" fill="black"/>
<rect width="0.524063" height="653.402" transform="matrix(0.707107 0.707107 -0.474641 0.88018 161.687 -244.962)" fill="black"/>
<rect width="0.524063" height="653.402" transform="matrix(0.707107 0.707107 -0.474641 0.88018 174.392 -232.257)" fill="black"/>
<rect width="0.524063" height="653.402" transform="matrix(0.707107 0.707107 -0.474641 0.88018 176.235 -230.414)" fill="black"/>
<rect width="0.524063" height="653.402" transform="matrix(0.707107 0.707107 -0.474641 0.88018 188.94 -217.709)" fill="black"/>
<rect width="0.524063" height="653.402" transform="matrix(0.707107 0.707107 -0.474641 0.88018 178.353 -228.297)" fill="black"/>
<rect width="0.524063" height="653.402" transform="matrix(0.707107 0.707107 -0.474641 0.88018 191.059 -215.591)" fill="black"/>
<rect width="0.524063" height="653.402" transform="matrix(0.707107 0.707107 -0.474641 0.88018 180.47 -226.179)" fill="black"/>
<rect width="0.524063" height="653.402" transform="matrix(0.707107 0.707107 -0.474641 0.88018 193.176 -213.474)" fill="black"/>
<rect width="0.524063" height="653.402" transform="matrix(0.707107 0.707107 -0.474641 0.88018 182.588 -224.062)" fill="black"/>
<rect width="0.524063" height="653.402" transform="matrix(0.707107 0.707107 -0.474641 0.88018 195.293 -211.356)" fill="black"/>
<rect width="0.524063" height="653.402" transform="matrix(0.707107 0.707107 -0.474641 0.88018 184.706 -221.944)" fill="black"/>
<rect width="0.524063" height="653.402" transform="matrix(0.707107 0.707107 -0.474641 0.88018 197.41 -209.239)" fill="black"/>
<rect width="0.524063" height="653.402" transform="matrix(0.707107 0.707107 -0.474641 0.88018 186.823 -219.827)" fill="black"/>
<rect width="0.524063" height="653.402" transform="matrix(0.707107 0.707107 -0.474641 0.88018 199.528 -207.122)" fill="black"/>
<rect width="0.524063" height="653.402" transform="matrix(0.707107 0.707107 -0.474641 0.88018 201.646 -205.004)" fill="black"/>
<rect width="0.524063" height="653.402" transform="matrix(0.707107 0.707107 -0.474641 0.88018 214.351 -192.299)" fill="black"/>
<rect width="0.524063" height="653.402" transform="matrix(0.707107 0.707107 -0.474641 0.88018 203.764 -202.886)" fill="black"/>
<rect width="0.524063" height="653.402" transform="matrix(0.707107 0.707107 -0.474641 0.88018 216.468 -190.181)" fill="black"/>
<rect width="0.524063" height="653.402" transform="matrix(0.707107 0.707107 -0.474641 0.88018 205.881 -200.769)" fill="black"/>
<rect width="0.524063" height="653.402" transform="matrix(0.707107 0.707107 -0.474641 0.88018 218.585 -188.064)" fill="black"/>
<rect width="0.524063" height="653.402" transform="matrix(0.707107 0.707107 -0.474641 0.88018 207.998 -198.651)" fill="black"/>
<rect width="0.524063" height="653.402" transform="matrix(0.707107 0.707107 -0.474641 0.88018 220.704 -185.946)" fill="black"/>
<rect width="0.524063" height="653.402" transform="matrix(0.707107 0.707107 -0.474641 0.88018 210.115 -196.534)" fill="black"/>
<rect width="0.524063" height="653.402" transform="matrix(0.707107 0.707107 -0.474641 0.88018 222.821 -183.828)" fill="black"/>
<rect width="0.524063" height="653.402" transform="matrix(0.707107 0.707107 -0.474641 0.88018 212.234 -194.416)" fill="black"/>
<rect width="0.524063" height="653.402" transform="matrix(0.707107 0.707107 -0.474641 0.88018 224.938 -181.711)" fill="black"/>
<rect width="0.524063" height="653.402" transform="matrix(0.707107 0.707107 -0.474641 0.88018 227.056 -179.594)" fill="black"/>
<rect width="0.524063" height="653.402" transform="matrix(0.707107 0.707107 -0.474641 0.88018 239.761 -166.888)" fill="black"/>
<rect width="0.524063" height="653.402" transform="matrix(0.707107 0.707107 -0.474641 0.88018 229.173 -177.476)" fill="black"/>
<rect width="0.524063" height="653.402" transform="matrix(0.707107 0.707107 -0.474641 0.88018 241.879 -164.771)" fill="black"/>
<rect width="0.524063" height="653.402" transform="matrix(0.707107 0.707107 -0.474641 0.88018 231.292 -175.358)" fill="black"/>
<rect width="0.524063" height="653.402" transform="matrix(0.707107 0.707107 -0.474641 0.88018 243.997 -162.653)" fill="black"/>
<rect width="0.524063" height="653.402" transform="matrix(0.707107 0.707107 -0.474641 0.88018 233.409 -173.241)" fill="black"/>
<rect width="0.524063" height="653.402" transform="matrix(0.707107 0.707107 -0.474641 0.88018 246.114 -160.536)" fill="black"/>
<rect width="0.524063" height="653.402" transform="matrix(0.707107 0.707107 -0.474641 0.88018 235.526 -171.123)" fill="black"/>
<rect width="0.524063" height="653.402" transform="matrix(0.707107 0.707107 -0.474641 0.88018 248.231 -158.418)" fill="black"/>
<rect width="0.524063" height="653.402" transform="matrix(0.707107 0.707107 -0.474641 0.88018 237.644 -169.006)" fill="black"/>
<rect width="0.524063" height="653.402" transform="matrix(0.707107 0.707107 -0.474641 0.88018 250.349 -156.3)" fill="black"/>
<rect width="0.524063" height="653.402" transform="matrix(0.707107 0.707107 -0.474641 0.88018 252.467 -154.183)" fill="black"/>
<rect width="0.524063" height="653.402" transform="matrix(0.707107 0.707107 -0.474641 0.88018 265.172 -141.478)" fill="black"/>
<rect width="0.524063" height="653.402" transform="matrix(0.707107 0.707107 -0.474641 0.88018 254.584 -152.065)" fill="black"/>
<rect width="0.524063" height="653.402" transform="matrix(0.707107 0.707107 -0.474641 0.88018 267.289 -139.36)" fill="black"/>
<rect width="0.524063" height="653.402" transform="matrix(0.707107 0.707107 -0.474641 0.88018 256.701 -149.948)" fill="black"/>
<rect width="0.524063" height="653.402" transform="matrix(0.707107 0.707107 -0.474641 0.88018 269.407 -137.242)" fill="black"/>
<rect width="0.524063" height="653.402" transform="matrix(0.707107 0.707107 -0.474641 0.88018 258.818 -147.831)" fill="black"/>
<rect width="0.524063" height="653.402" transform="matrix(0.707107 0.707107 -0.474641 0.88018 271.524 -135.125)" fill="black"/>
<rect width="0.524063" height="653.402" transform="matrix(0.707107 0.707107 -0.474641 0.88018 260.937 -145.713)" fill="black"/>
<rect width="0.524063" height="653.402" transform="matrix(0.707107 0.707107 -0.474641 0.88018 273.642 -133.008)" fill="black"/>
<rect width="0.524063" height="653.402" transform="matrix(0.707107 0.707107 -0.474641 0.88018 263.054 -143.595)" fill="black"/>
<rect width="0.524063" height="653.402" transform="matrix(0.707107 0.707107 -0.474641 0.88018 275.759 -130.89)" fill="black"/>
<rect width="0.524063" height="653.402" transform="matrix(0.707107 0.707107 -0.474641 0.88018 277.876 -128.773)" fill="black"/>
<rect width="0.524063" height="653.402" transform="matrix(0.707107 0.707107 -0.474641 0.88018 290.583 -116.067)" fill="black"/>
<rect width="0.524063" height="653.402" transform="matrix(0.707107 0.707107 -0.474641 0.88018 279.995 -126.655)" fill="black"/>
<rect width="0.524063" height="653.402" transform="matrix(0.707107 0.707107 -0.474641 0.88018 292.7 -113.95)" fill="black"/>
<rect width="0.524063" height="653.402" transform="matrix(0.707107 0.707107 -0.474641 0.88018 282.112 -124.537)" fill="black"/>
<rect width="0.524063" height="653.402" transform="matrix(0.707107 0.707107 -0.474641 0.88018 294.817 -111.832)" fill="black"/>
<rect width="0.524063" height="653.402" transform="matrix(0.707107 0.707107 -0.474641 0.88018 284.229 -122.42)" fill="black"/>
<rect width="0.524063" height="653.402" transform="matrix(0.707107 0.707107 -0.474641 0.88018 296.934 -109.715)" fill="black"/>
<rect width="0.524063" height="653.402" transform="matrix(0.707107 0.707107 -0.474641 0.88018 286.347 -120.303)" fill="black"/>
<rect width="0.524063" height="653.402" transform="matrix(0.707107 0.707107 -0.474641 0.88018 299.053 -107.597)" fill="black"/>
<rect width="0.524063" height="653.402" transform="matrix(0.707107 0.707107 -0.474641 0.88018 288.464 -118.185)" fill="black"/>
<rect width="0.524063" height="653.402" transform="matrix(0.707107 0.707107 -0.474641 0.88018 301.17 -105.48)" fill="black"/>
<rect width="0.524063" height="653.402" transform="matrix(0.707107 0.707107 -0.474641 0.88018 303.287 -103.362)" fill="black"/>
<rect width="0.524063" height="653.402" transform="matrix(0.707107 0.707107 -0.474641 0.88018 315.992 -90.6572)" fill="black"/>
<rect width="0.524063" height="653.402" transform="matrix(0.707107 0.707107 -0.474641 0.88018 305.405 -101.245)" fill="black"/>
<rect width="0.524063" height="653.402" transform="matrix(0.707107 0.707107 -0.474641 0.88018 318.109 -88.5396)" fill="black"/>
<rect width="0.524063" height="653.402" transform="matrix(0.707107 0.707107 -0.474641 0.88018 307.521 -99.1273)" fill="black"/>
<rect width="0.524063" height="653.402" transform="matrix(0.707107 0.707107 -0.474641 0.88018 320.228 -86.4218)" fill="black"/>
<rect width="0.524063" height="653.402" transform="matrix(0.707107 0.707107 -0.474641 0.88018 309.641 -97.0095)" fill="black"/>
<rect width="0.524063" height="653.402" transform="matrix(0.707107 0.707107 -0.474641 0.88018 322.345 -84.3044)" fill="black"/>
<rect width="0.524063" height="653.402" transform="matrix(0.707107 0.707107 -0.474641 0.88018 311.758 -94.892)" fill="black"/>
<rect width="0.524063" height="653.402" transform="matrix(0.707107 0.707107 -0.474641 0.88018 324.462 -82.187)" fill="black"/>
<rect width="0.524063" height="653.402" transform="matrix(0.707107 0.707107 -0.474641 0.88018 313.875 -92.7747)" fill="black"/>
<rect width="0.524063" height="653.402" transform="matrix(0.707107 0.707107 -0.474641 0.88018 326.58 -80.0694)" fill="black"/>
<rect width="0.524063" height="653.402" transform="matrix(0.707107 0.707107 -0.474641 0.88018 328.698 -77.9517)" fill="black"/>
<rect width="0.524063" height="653.402" transform="matrix(0.707107 0.707107 -0.474641 0.88018 341.403 -65.2466)" fill="black"/>
<rect width="0.524063" height="653.402" transform="matrix(0.707107 0.707107 -0.474641 0.88018 330.815 -75.8342)" fill="black"/>
<rect width="0.524063" height="653.402" transform="matrix(0.707107 0.707107 -0.474641 0.88018 343.521 -63.1293)" fill="black"/>
<rect width="0.524063" height="653.402" transform="matrix(0.707107 0.707107 -0.474641 0.88018 332.933 -73.7168)" fill="black"/>
<rect width="0.524063" height="653.402" transform="matrix(0.707107 0.707107 -0.474641 0.88018 345.638 -61.0118)" fill="black"/>
<rect width="0.524063" height="653.402" transform="matrix(0.707107 0.707107 -0.474641 0.88018 335.05 -71.5992)" fill="black"/>
<rect width="0.524063" height="653.402" transform="matrix(0.707107 0.707107 -0.474641 0.88018 347.756 -58.8938)" fill="black"/>
<rect width="0.524063" height="653.402" transform="matrix(0.707107 0.707107 -0.474641 0.88018 337.167 -69.4818)" fill="black"/>
<rect width="0.524063" height="653.402" transform="matrix(0.707107 0.707107 -0.474641 0.88018 349.874 -56.7764)" fill="black"/>
<rect width="0.524063" height="653.402" transform="matrix(0.707107 0.707107 -0.474641 0.88018 339.286 -67.3643)" fill="black"/>
<rect width="0.524063" height="653.402" transform="matrix(0.707107 0.707107 -0.474641 0.88018 351.99 -54.6591)" fill="black"/>
<rect width="0.524063" height="653.402" transform="matrix(0.707107 0.707107 -0.474641 0.88018 354.107 -52.5414)" fill="black"/>
<rect width="0.524063" height="653.402" transform="matrix(0.707107 0.707107 -0.474641 0.88018 366.812 -39.8364)" fill="black"/>
<rect width="0.524063" height="653.402" transform="matrix(0.707107 0.707107 -0.474641 0.88018 356.225 -50.4241)" fill="black"/>
<rect width="0.524063" height="653.402" transform="matrix(0.707107 0.707107 -0.474641 0.88018 368.931 -37.7186)" fill="black"/>
<rect width="0.524063" height="653.402" transform="matrix(0.707107 0.707107 -0.474641 0.88018 358.344 -48.3062)" fill="black"/>
<rect width="0.524063" height="653.402" transform="matrix(0.707107 0.707107 -0.474641 0.88018 360.461 -46.1888)" fill="black"/>
<rect width="0.524063" height="653.402" transform="matrix(0.707107 0.707107 -0.474641 0.88018 362.578 -44.0714)" fill="black"/>
<rect width="0.524063" height="653.402" transform="matrix(0.707107 0.707107 -0.474641 0.88018 364.695 -41.9539)" fill="black"/>
</g>
</g>
</svg>
