<svg width="71" height="80" viewBox="0 0 71 80" fill="none" xmlns="http://www.w3.org/2000/svg">
<path d="M1 65.9282C18.2263 44.267 37.3532 25.6153 59.5264 8.85887C62.8006 6.38451 71.8896 -1.57735 69.6489 1.83868C66.8798 6.06037 63.6547 10.0157 60.8761 14.245C48.483 33.1086 37.7657 53.2544 27.1344 73.1299C26.7478 73.8527 23.2666 79.7749 27.0117 76.761C31.402 73.228 35.3348 69.0778 39.4655 65.2624C43.9866 61.0864 48.5849 56.9974 53.0235 52.735C53.5438 52.2354 55.1205 50.9151 54.8639 51.5852C52.4157 57.978 49.4063 64.2036 46.6432 70.4671C45.4865 73.089 44.0601 75.9084 43.3304 78.6976C42.9944 79.9822 45.2256 76.8136 46.2138 75.9138C49.9022 72.5551 53.6945 69.2188 57.87 66.4728" stroke="#598C76" stroke-linecap="round"/>
</svg>
