<svg width="53" height="53" viewBox="0 0 53 53" fill="none" xmlns="http://www.w3.org/2000/svg">
<g opacity="0.3">
<mask id="mask0_519_1119" style="mask-type:alpha" maskUnits="userSpaceOnUse" x="0" y="0" width="53" height="53">
<rect width="53" height="53" fill="#EBEBEB"/>
</mask>
<g mask="url(#mask0_519_1119)">
<rect width="0.429138" height="522.307" transform="matrix(0.736768 0.676146 -0.506615 0.862172 1.08154 -203.565)" fill="white"/>
<rect width="0.429138" height="522.307" transform="matrix(0.736768 0.676146 -0.506615 0.862172 2.88916 -201.906)" fill="white"/>
<rect width="0.429138" height="522.307" transform="matrix(0.736768 0.676146 -0.506615 0.862172 4.6958 -200.248)" fill="white"/>
<rect width="0.429138" height="522.307" transform="matrix(0.736768 0.676146 -0.506615 0.862172 6.50244 -198.59)" fill="white"/>
<rect width="0.429138" height="522.307" transform="matrix(0.736768 0.676146 -0.506615 0.862172 8.30908 -196.933)" fill="white"/>
<rect width="0.429138" height="522.307" transform="matrix(0.736768 0.676146 -0.506615 0.862172 10.1162 -195.274)" fill="white"/>
<rect width="0.429138" height="522.307" transform="matrix(0.736768 0.676146 -0.506615 0.862172 20.9561 -185.326)" fill="white"/>
<rect width="0.429138" height="522.307" transform="matrix(0.736768 0.676146 -0.506615 0.862172 11.9229 -193.616)" fill="white"/>
<rect width="0.429138" height="522.307" transform="matrix(0.736768 0.676146 -0.506615 0.862172 22.7627 -183.668)" fill="white"/>
<rect width="0.429138" height="522.307" transform="matrix(0.736768 0.676146 -0.506615 0.862172 13.7295 -191.958)" fill="white"/>
<rect width="0.429138" height="522.307" transform="matrix(0.736768 0.676146 -0.506615 0.862172 24.5693 -182.01)" fill="white"/>
<rect width="0.429138" height="522.307" transform="matrix(0.736768 0.676146 -0.506615 0.862172 15.5356 -190.3)" fill="white"/>
<rect width="0.429138" height="522.307" transform="matrix(0.736768 0.676146 -0.506615 0.862172 26.376 -180.352)" fill="white"/>
<rect width="0.429138" height="522.307" transform="matrix(0.736768 0.676146 -0.506615 0.862172 17.3423 -188.642)" fill="white"/>
<rect width="0.429138" height="522.307" transform="matrix(0.736768 0.676146 -0.506615 0.862172 28.1836 -178.694)" fill="white"/>
<rect width="0.429138" height="522.307" transform="matrix(0.736768 0.676146 -0.506615 0.862172 19.1499 -186.984)" fill="white"/>
<rect width="0.429138" height="522.307" transform="matrix(0.736768 0.676146 -0.506615 0.862172 29.9897 -177.036)" fill="white"/>
<rect width="0.429138" height="522.307" transform="matrix(0.736768 0.676146 -0.506615 0.862172 31.7964 -175.377)" fill="white"/>
<rect width="0.429138" height="522.307" transform="matrix(0.736768 0.676146 -0.506615 0.862172 42.6362 -165.43)" fill="white"/>
<rect width="0.429138" height="522.307" transform="matrix(0.736768 0.676146 -0.506615 0.862172 33.6025 -173.72)" fill="white"/>
<rect width="0.429138" height="522.307" transform="matrix(0.736768 0.676146 -0.506615 0.862172 44.4438 -163.771)" fill="white"/>
<rect width="0.429138" height="522.307" transform="matrix(0.736768 0.676146 -0.506615 0.862172 35.4102 -172.062)" fill="white"/>
<rect width="0.429138" height="522.307" transform="matrix(0.736768 0.676146 -0.506615 0.862172 46.2505 -162.113)" fill="white"/>
<rect width="0.429138" height="522.307" transform="matrix(0.736768 0.676146 -0.506615 0.862172 37.2168 -170.403)" fill="white"/>
<rect width="0.429138" height="522.307" transform="matrix(0.736768 0.676146 -0.506615 0.862172 48.0566 -160.455)" fill="white"/>
<rect width="0.429138" height="522.307" transform="matrix(0.736768 0.676146 -0.506615 0.862172 39.0234 -168.745)" fill="white"/>
<rect width="0.429138" height="522.307" transform="matrix(0.736768 0.676146 -0.506615 0.862172 49.8633 -158.797)" fill="white"/>
<rect width="0.429138" height="522.307" transform="matrix(0.736768 0.676146 -0.506615 0.862172 40.8296 -167.087)" fill="white"/>
<rect width="0.429138" height="522.307" transform="matrix(0.736768 0.676146 -0.506615 0.862172 51.6709 -157.139)" fill="white"/>
<rect width="0.429138" height="522.307" transform="matrix(0.736768 0.676146 -0.506615 0.862172 53.4771 -155.481)" fill="white"/>
<rect width="0.429138" height="522.307" transform="matrix(0.736768 0.676146 -0.506615 0.862172 64.3174 -145.532)" fill="white"/>
<rect width="0.429138" height="522.307" transform="matrix(0.736768 0.676146 -0.506615 0.862172 55.2837 -153.823)" fill="white"/>
<rect width="0.429138" height="522.307" transform="matrix(0.736768 0.676146 -0.506615 0.862172 66.1235 -143.875)" fill="white"/>
<rect width="0.429138" height="522.307" transform="matrix(0.736768 0.676146 -0.506615 0.862172 57.0903 -152.165)" fill="white"/>
<rect width="0.429138" height="522.307" transform="matrix(0.736768 0.676146 -0.506615 0.862172 67.9302 -142.217)" fill="white"/>
<rect width="0.429138" height="522.307" transform="matrix(0.736768 0.676146 -0.506615 0.862172 58.8965 -150.507)" fill="white"/>
<rect width="0.429138" height="522.307" transform="matrix(0.736768 0.676146 -0.506615 0.862172 69.7378 -140.558)" fill="white"/>
<rect width="0.429138" height="522.307" transform="matrix(0.736768 0.676146 -0.506615 0.862172 60.7041 -148.849)" fill="white"/>
<rect width="0.429138" height="522.307" transform="matrix(0.736768 0.676146 -0.506615 0.862172 71.5444 -138.9)" fill="white"/>
<rect width="0.429138" height="522.307" transform="matrix(0.736768 0.676146 -0.506615 0.862172 62.5107 -147.19)" fill="white"/>
<rect width="0.429138" height="522.307" transform="matrix(0.736768 0.676146 -0.506615 0.862172 73.3506 -137.242)" fill="white"/>
<rect width="0.429138" height="522.307" transform="matrix(0.736768 0.676146 -0.506615 0.862172 75.1572 -135.584)" fill="white"/>
<rect width="0.429138" height="522.307" transform="matrix(0.736768 0.676146 -0.506615 0.862172 85.998 -125.636)" fill="white"/>
<rect width="0.429138" height="522.307" transform="matrix(0.736768 0.676146 -0.506615 0.862172 76.9648 -133.926)" fill="white"/>
<rect width="0.429138" height="522.307" transform="matrix(0.736768 0.676146 -0.506615 0.862172 87.8047 -123.978)" fill="white"/>
<rect width="0.429138" height="522.307" transform="matrix(0.736768 0.676146 -0.506615 0.862172 78.771 -132.268)" fill="white"/>
<rect width="0.429138" height="522.307" transform="matrix(0.736768 0.676146 -0.506615 0.862172 89.6113 -122.32)" fill="white"/>
<rect width="0.429138" height="522.307" transform="matrix(0.736768 0.676146 -0.506615 0.862172 80.5776 -130.61)" fill="white"/>
<rect width="0.429138" height="522.307" transform="matrix(0.736768 0.676146 -0.506615 0.862172 91.4175 -120.662)" fill="white"/>
<rect width="0.429138" height="522.307" transform="matrix(0.736768 0.676146 -0.506615 0.862172 82.3843 -128.952)" fill="white"/>
<rect width="0.429138" height="522.307" transform="matrix(0.736768 0.676146 -0.506615 0.862172 93.2241 -119.004)" fill="white"/>
<rect width="0.429138" height="522.307" transform="matrix(0.736768 0.676146 -0.506615 0.862172 84.1904 -127.294)" fill="white"/>
<rect width="0.429138" height="522.307" transform="matrix(0.736768 0.676146 -0.506615 0.862172 95.0317 -117.346)" fill="white"/>
<rect width="0.429138" height="522.307" transform="matrix(0.736768 0.676146 -0.506615 0.862172 96.8384 -115.688)" fill="white"/>
<rect width="0.429138" height="522.307" transform="matrix(0.736768 0.676146 -0.506615 0.862172 107.678 -105.739)" fill="white"/>
<rect width="0.429138" height="522.307" transform="matrix(0.736768 0.676146 -0.506615 0.862172 98.6445 -114.029)" fill="white"/>
<rect width="0.429138" height="522.307" transform="matrix(0.736768 0.676146 -0.506615 0.862172 109.485 -104.082)" fill="white"/>
<rect width="0.429138" height="522.307" transform="matrix(0.736768 0.676146 -0.506615 0.862172 100.451 -112.372)" fill="white"/>
<rect width="0.429138" height="522.307" transform="matrix(0.736768 0.676146 -0.506615 0.862172 111.292 -102.423)" fill="white"/>
<rect width="0.429138" height="522.307" transform="matrix(0.736768 0.676146 -0.506615 0.862172 102.259 -110.713)" fill="white"/>
<rect width="0.429138" height="522.307" transform="matrix(0.736768 0.676146 -0.506615 0.862172 113.099 -100.765)" fill="white"/>
<rect width="0.429138" height="522.307" transform="matrix(0.736768 0.676146 -0.506615 0.862172 104.065 -109.055)" fill="white"/>
<rect width="0.429138" height="522.307" transform="matrix(0.736768 0.676146 -0.506615 0.862172 114.905 -99.1069)" fill="white"/>
<rect width="0.429138" height="522.307" transform="matrix(0.736768 0.676146 -0.506615 0.862172 105.872 -107.397)" fill="white"/>
<rect width="0.429138" height="522.307" transform="matrix(0.736768 0.676146 -0.506615 0.862172 116.711 -97.4492)" fill="white"/>
<rect width="0.429138" height="522.307" transform="matrix(0.736768 0.676146 -0.506615 0.862172 118.519 -95.7905)" fill="white"/>
<rect width="0.429138" height="522.307" transform="matrix(0.736768 0.676146 -0.506615 0.862172 129.359 -85.8423)" fill="white"/>
<rect width="0.429138" height="522.307" transform="matrix(0.736768 0.676146 -0.506615 0.862172 120.326 -94.1328)" fill="white"/>
<rect width="0.429138" height="522.307" transform="matrix(0.736768 0.676146 -0.506615 0.862172 131.166 -84.1846)" fill="white"/>
<rect width="0.429138" height="522.307" transform="matrix(0.736768 0.676146 -0.506615 0.862172 122.132 -92.4751)" fill="white"/>
<rect width="0.429138" height="522.307" transform="matrix(0.736768 0.676146 -0.506615 0.862172 132.972 -82.5264)" fill="white"/>
<rect width="0.429138" height="522.307" transform="matrix(0.736768 0.676146 -0.506615 0.862172 123.938 -90.8169)" fill="white"/>
<rect width="0.429138" height="522.307" transform="matrix(0.736768 0.676146 -0.506615 0.862172 134.779 -80.8687)" fill="white"/>
<rect width="0.429138" height="522.307" transform="matrix(0.736768 0.676146 -0.506615 0.862172 125.745 -89.1587)" fill="white"/>
<rect width="0.429138" height="522.307" transform="matrix(0.736768 0.676146 -0.506615 0.862172 136.586 -79.2104)" fill="white"/>
<rect width="0.429138" height="522.307" transform="matrix(0.736768 0.676146 -0.506615 0.862172 127.553 -87.5005)" fill="white"/>
<rect width="0.429138" height="522.307" transform="matrix(0.736768 0.676146 -0.506615 0.862172 138.393 -77.5522)" fill="white"/>
<rect width="0.429138" height="522.307" transform="matrix(0.736768 0.676146 -0.506615 0.862172 140.199 -75.894)" fill="white"/>
<rect width="0.429138" height="522.307" transform="matrix(0.736768 0.676146 -0.506615 0.862172 151.039 -65.9463)" fill="white"/>
<rect width="0.429138" height="522.307" transform="matrix(0.736768 0.676146 -0.506615 0.862172 142.006 -74.2363)" fill="white"/>
<rect width="0.429138" height="522.307" transform="matrix(0.736768 0.676146 -0.506615 0.862172 152.847 -64.2881)" fill="white"/>
<rect width="0.429138" height="522.307" transform="matrix(0.736768 0.676146 -0.506615 0.862172 143.813 -72.5776)" fill="white"/>
<rect width="0.429138" height="522.307" transform="matrix(0.736768 0.676146 -0.506615 0.862172 154.653 -62.6299)" fill="white"/>
<rect width="0.429138" height="522.307" transform="matrix(0.736768 0.676146 -0.506615 0.862172 145.62 -70.9199)" fill="white"/>
<rect width="0.429138" height="522.307" transform="matrix(0.736768 0.676146 -0.506615 0.862172 156.46 -60.9717)" fill="white"/>
<rect width="0.429138" height="522.307" transform="matrix(0.736768 0.676146 -0.506615 0.862172 147.426 -69.2617)" fill="white"/>
<rect width="0.429138" height="522.307" transform="matrix(0.736768 0.676146 -0.506615 0.862172 158.266 -59.314)" fill="white"/>
<rect width="0.429138" height="522.307" transform="matrix(0.736768 0.676146 -0.506615 0.862172 149.232 -67.604)" fill="white"/>
<rect width="0.429138" height="522.307" transform="matrix(0.736768 0.676146 -0.506615 0.862172 160.073 -57.6558)" fill="white"/>
<rect width="0.429138" height="522.307" transform="matrix(0.736768 0.676146 -0.506615 0.862172 161.646 -56.2134)" fill="white"/>
<rect width="0.429138" height="522.307" transform="matrix(0.736768 0.676146 -0.506615 0.862172 172.485 -46.2646)" fill="white"/>
<rect width="0.429138" height="522.307" transform="matrix(0.736768 0.676146 -0.506615 0.862172 163.452 -54.5552)" fill="white"/>
<rect width="0.429138" height="522.307" transform="matrix(0.736768 0.676146 -0.506615 0.862172 174.293 -44.6064)" fill="white"/>
<rect width="0.429138" height="522.307" transform="matrix(0.736768 0.676146 -0.506615 0.862172 165.258 -52.897)" fill="white"/>
<rect width="0.429138" height="522.307" transform="matrix(0.736768 0.676146 -0.506615 0.862172 176.1 -42.9482)" fill="white"/>
<rect width="0.429138" height="522.307" transform="matrix(0.736768 0.676146 -0.506615 0.862172 167.066 -51.2388)" fill="white"/>
<rect width="0.429138" height="522.307" transform="matrix(0.736768 0.676146 -0.506615 0.862172 177.906 -41.29)" fill="white"/>
<rect width="0.429138" height="522.307" transform="matrix(0.736768 0.676146 -0.506615 0.862172 168.873 -49.5806)" fill="white"/>
<rect width="0.429138" height="522.307" transform="matrix(0.736768 0.676146 -0.506615 0.862172 179.712 -39.6323)" fill="white"/>
<rect width="0.429138" height="522.307" transform="matrix(0.736768 0.676146 -0.506615 0.862172 170.679 -47.9229)" fill="white"/>
<rect width="0.429138" height="522.307" transform="matrix(0.736768 0.676146 -0.506615 0.862172 181.519 -37.9746)" fill="white"/>
<rect width="0.429138" height="522.307" transform="matrix(0.736768 0.676146 -0.506615 0.862172 183.326 -36.3159)" fill="white"/>
<rect width="0.429138" height="522.307" transform="matrix(0.736768 0.676146 -0.506615 0.862172 194.166 -26.3677)" fill="white"/>
<rect width="0.429138" height="522.307" transform="matrix(0.736768 0.676146 -0.506615 0.862172 185.133 -34.6577)" fill="white"/>
<rect width="0.429138" height="522.307" transform="matrix(0.736768 0.676146 -0.506615 0.862172 195.973 -24.71)" fill="white"/>
<rect width="0.429138" height="522.307" transform="matrix(0.736768 0.676146 -0.506615 0.862172 186.939 -33)" fill="white"/>
<rect width="0.429138" height="522.307" transform="matrix(0.736768 0.676146 -0.506615 0.862172 197.779 -23.0522)" fill="white"/>
<rect width="0.429138" height="522.307" transform="matrix(0.736768 0.676146 -0.506615 0.862172 188.746 -31.3423)" fill="white"/>
<rect width="0.429138" height="522.307" transform="matrix(0.736768 0.676146 -0.506615 0.862172 199.587 -21.3936)" fill="white"/>
<rect width="0.429138" height="522.307" transform="matrix(0.736768 0.676146 -0.506615 0.862172 190.552 -29.6846)" fill="white"/>
<rect width="0.429138" height="522.307" transform="matrix(0.736768 0.676146 -0.506615 0.862172 201.393 -19.7354)" fill="white"/>
<rect width="0.429138" height="522.307" transform="matrix(0.736768 0.676146 -0.506615 0.862172 192.36 -28.0259)" fill="white"/>
<rect width="0.429138" height="522.307" transform="matrix(0.736768 0.676146 -0.506615 0.862172 203.2 -18.0776)" fill="white"/>
<rect width="0.429138" height="522.307" transform="matrix(0.736768 0.676146 -0.506615 0.862172 205.006 -16.4199)" fill="white"/>
<rect width="0.429138" height="522.307" transform="matrix(0.736768 0.676146 -0.506615 0.862172 215.846 -6.47119)" fill="white"/>
<rect width="0.429138" height="522.307" transform="matrix(0.736768 0.676146 -0.506615 0.862172 206.813 -14.7617)" fill="white"/>
<rect width="0.429138" height="522.307" transform="matrix(0.736768 0.676146 -0.506615 0.862172 217.654 -4.81299)" fill="white"/>
<rect width="0.429138" height="522.307" transform="matrix(0.736768 0.676146 -0.506615 0.862172 208.621 -13.1035)" fill="white"/>
<rect width="0.429138" height="522.307" transform="matrix(0.736768 0.676146 -0.506615 0.862172 219.46 -3.15527)" fill="white"/>
<rect width="0.429138" height="522.307" transform="matrix(0.736768 0.676146 -0.506615 0.862172 210.427 -11.4453)" fill="white"/>
<rect width="0.429138" height="522.307" transform="matrix(0.736768 0.676146 -0.506615 0.862172 221.267 -1.49707)" fill="white"/>
<rect width="0.429138" height="522.307" transform="matrix(0.736768 0.676146 -0.506615 0.862172 212.233 -9.78711)" fill="white"/>
<rect width="0.429138" height="522.307" transform="matrix(0.736768 0.676146 -0.506615 0.862172 223.073 0.160645)" fill="white"/>
<rect width="0.429138" height="522.307" transform="matrix(0.736768 0.676146 -0.506615 0.862172 214.04 -8.12939)" fill="white"/>
<rect width="0.429138" height="522.307" transform="matrix(0.736768 0.676146 -0.506615 0.862172 224.881 1.81934)" fill="white"/>
<rect width="0.429138" height="522.307" transform="matrix(0.736768 0.676146 -0.506615 0.862172 226.688 3.47754)" fill="white"/>
<rect width="0.429138" height="522.307" transform="matrix(0.736768 0.676146 -0.506615 0.862172 237.527 13.4253)" fill="white"/>
<rect width="0.429138" height="522.307" transform="matrix(0.736768 0.676146 -0.506615 0.862172 228.494 5.13525)" fill="white"/>
<rect width="0.429138" height="522.307" transform="matrix(0.736768 0.676146 -0.506615 0.862172 239.334 15.0835)" fill="white"/>
<rect width="0.429138" height="522.307" transform="matrix(0.736768 0.676146 -0.506615 0.862172 230.3 6.79346)" fill="white"/>
<rect width="0.429138" height="522.307" transform="matrix(0.736768 0.676146 -0.506615 0.862172 241.141 16.7417)" fill="white"/>
<rect width="0.429138" height="522.307" transform="matrix(0.736768 0.676146 -0.506615 0.862172 232.107 8.45117)" fill="white"/>
<rect width="0.429138" height="522.307" transform="matrix(0.736768 0.676146 -0.506615 0.862172 242.948 18.3999)" fill="white"/>
<rect width="0.429138" height="522.307" transform="matrix(0.736768 0.676146 -0.506615 0.862172 233.914 10.1094)" fill="white"/>
<rect width="0.429138" height="522.307" transform="matrix(0.736768 0.676146 -0.506615 0.862172 244.754 20.0576)" fill="white"/>
<rect width="0.429138" height="522.307" transform="matrix(0.736768 0.676146 -0.506615 0.862172 235.721 11.7676)" fill="white"/>
<rect width="0.429138" height="522.307" transform="matrix(0.736768 0.676146 -0.506615 0.862172 246.561 21.7158)" fill="white"/>
<rect width="0.429138" height="522.307" transform="matrix(0.736768 0.676146 -0.506615 0.862172 248.367 23.3735)" fill="white"/>
<rect width="0.429138" height="522.307" transform="matrix(0.736768 0.676146 -0.506615 0.862172 259.208 33.3223)" fill="white"/>
<rect width="0.429138" height="522.307" transform="matrix(0.736768 0.676146 -0.506615 0.862172 250.175 25.0317)" fill="white"/>
<rect width="0.429138" height="522.307" transform="matrix(0.736768 0.676146 -0.506615 0.862172 261.015 34.98)" fill="white"/>
<rect width="0.429138" height="522.307" transform="matrix(0.736768 0.676146 -0.506615 0.862172 251.981 26.6899)" fill="white"/>
<rect width="0.429138" height="522.307" transform="matrix(0.736768 0.676146 -0.506615 0.862172 262.821 36.6382)" fill="white"/>
<rect width="0.429138" height="522.307" transform="matrix(0.736768 0.676146 -0.506615 0.862172 253.788 28.3481)" fill="white"/>
<rect width="0.429138" height="522.307" transform="matrix(0.736768 0.676146 -0.506615 0.862172 264.627 38.2959)" fill="white"/>
<rect width="0.429138" height="522.307" transform="matrix(0.736768 0.676146 -0.506615 0.862172 255.594 30.0063)" fill="white"/>
<rect width="0.429138" height="522.307" transform="matrix(0.736768 0.676146 -0.506615 0.862172 266.436 39.9546)" fill="white"/>
<rect width="0.429138" height="522.307" transform="matrix(0.736768 0.676146 -0.506615 0.862172 257.4 31.6641)" fill="white"/>
<rect width="0.429138" height="522.307" transform="matrix(0.736768 0.676146 -0.506615 0.862172 268.242 41.6128)" fill="white"/>
<rect width="0.429138" height="522.307" transform="matrix(0.736768 0.676146 -0.506615 0.862172 270.048 43.2705)" fill="white"/>
<rect width="0.429138" height="522.307" transform="matrix(0.736768 0.676146 -0.506615 0.862172 271.854 44.9282)" fill="white"/>
<rect width="0.429138" height="522.307" transform="matrix(0.736768 0.676146 -0.506615 0.862172 273.661 46.5864)" fill="white"/>
<rect width="0.429138" height="522.307" transform="matrix(0.736768 0.676146 -0.506615 0.862172 275.469 48.2446)" fill="white"/>
<rect width="0.429138" height="522.307" transform="matrix(0.736768 0.676146 -0.506615 0.862172 277.275 49.9028)" fill="white"/>
<rect width="0.429138" height="522.307" transform="matrix(0.736768 0.676146 -0.506615 0.862172 279.082 51.5605)" fill="white"/>
</g>
</g>
</svg>
