<svg width="141" height="57" viewBox="0 0 141 57" fill="none" xmlns="http://www.w3.org/2000/svg">
<g opacity="0.3">
<mask id="mask0_519_9073" style="mask-type:alpha" maskUnits="userSpaceOnUse" x="0" y="0" width="141" height="57">
<rect y="-6.10352e-05" width="141" height="57" fill="#C4C4C4"/>
</mask>
<g mask="url(#mask0_519_9073)">
<rect width="0.830634" height="1035.64" transform="matrix(0.707107 0.707107 -0.474641 0.88018 0.78125 -372.015)" fill="white"/>
<rect width="0.830634" height="1035.64" transform="matrix(0.707107 0.707107 -0.474641 0.88018 4.13696 -368.659)" fill="white"/>
<rect width="0.830634" height="1035.64" transform="matrix(0.707107 0.707107 -0.474641 0.88018 7.49341 -365.302)" fill="white"/>
<rect width="0.830634" height="1035.64" transform="matrix(0.707107 0.707107 -0.474641 0.88018 10.8489 -361.946)" fill="white"/>
<rect width="0.830634" height="1035.64" transform="matrix(0.707107 0.707107 -0.474641 0.88018 14.2063 -358.59)" fill="white"/>
<rect width="0.830634" height="1035.64" transform="matrix(0.707107 0.707107 -0.474641 0.88018 34.3438 -338.452)" fill="white"/>
<rect width="0.830634" height="1035.64" transform="matrix(0.707107 0.707107 -0.474641 0.88018 17.5623 -355.233)" fill="white"/>
<rect width="0.830634" height="1035.64" transform="matrix(0.707107 0.707107 -0.474641 0.88018 37.6992 -335.096)" fill="white"/>
<rect width="0.830634" height="1035.64" transform="matrix(0.707107 0.707107 -0.474641 0.88018 20.9187 -351.878)" fill="white"/>
<rect width="0.830634" height="1035.64" transform="matrix(0.707107 0.707107 -0.474641 0.88018 41.0549 -331.74)" fill="white"/>
<rect width="0.830634" height="1035.64" transform="matrix(0.707107 0.707107 -0.474641 0.88018 24.2742 -348.521)" fill="white"/>
<rect width="0.830634" height="1035.64" transform="matrix(0.707107 0.707107 -0.474641 0.88018 44.4114 -328.384)" fill="white"/>
<rect width="0.830634" height="1035.64" transform="matrix(0.707107 0.707107 -0.474641 0.88018 27.6299 -345.165)" fill="white"/>
<rect width="0.830634" height="1035.64" transform="matrix(0.707107 0.707107 -0.474641 0.88018 47.7688 -325.027)" fill="white"/>
<rect width="0.830634" height="1035.64" transform="matrix(0.707107 0.707107 -0.474641 0.88018 30.988 -341.808)" fill="white"/>
<rect width="0.830634" height="1035.64" transform="matrix(0.707107 0.707107 -0.474641 0.88018 51.125 -321.671)" fill="white"/>
<rect width="0.830634" height="1035.64" transform="matrix(0.707107 0.707107 -0.474641 0.88018 54.481 -318.315)" fill="white"/>
<rect width="0.830634" height="1035.64" transform="matrix(0.707107 0.707107 -0.474641 0.88018 74.6172 -298.178)" fill="white"/>
<rect width="0.830634" height="1035.64" transform="matrix(0.707107 0.707107 -0.474641 0.88018 57.8367 -314.959)" fill="white"/>
<rect width="0.830634" height="1035.64" transform="matrix(0.707107 0.707107 -0.474641 0.88018 77.9758 -294.821)" fill="white"/>
<rect width="0.830634" height="1035.64" transform="matrix(0.707107 0.707107 -0.474641 0.88018 61.1941 -311.602)" fill="white"/>
<rect width="0.830634" height="1035.64" transform="matrix(0.707107 0.707107 -0.474641 0.88018 81.3311 -291.464)" fill="white"/>
<rect width="0.830634" height="1035.64" transform="matrix(0.707107 0.707107 -0.474641 0.88018 64.5498 -308.246)" fill="white"/>
<rect width="0.830634" height="1035.64" transform="matrix(0.707107 0.707107 -0.474641 0.88018 84.6875 -288.108)" fill="white"/>
<rect width="0.830634" height="1035.64" transform="matrix(0.707107 0.707107 -0.474641 0.88018 67.906 -304.89)" fill="white"/>
<rect width="0.830634" height="1035.64" transform="matrix(0.707107 0.707107 -0.474641 0.88018 88.043 -284.752)" fill="white"/>
<rect width="0.830634" height="1035.64" transform="matrix(0.707107 0.707107 -0.474641 0.88018 71.2617 -301.534)" fill="white"/>
<rect width="0.830634" height="1035.64" transform="matrix(0.707107 0.707107 -0.474641 0.88018 91.3994 -281.396)" fill="white"/>
<rect width="0.830634" height="1035.64" transform="matrix(0.707107 0.707107 -0.474641 0.88018 94.3201 -278.476)" fill="white"/>
<rect width="0.830634" height="1035.64" transform="matrix(0.707107 0.707107 -0.474641 0.88018 114.458 -258.338)" fill="white"/>
<rect width="0.830634" height="1035.64" transform="matrix(0.707107 0.707107 -0.474641 0.88018 97.6765 -275.119)" fill="white"/>
<rect width="0.830634" height="1035.64" transform="matrix(0.707107 0.707107 -0.474641 0.88018 117.815 -254.981)" fill="white"/>
<rect width="0.830634" height="1035.64" transform="matrix(0.707107 0.707107 -0.474641 0.88018 101.032 -271.763)" fill="white"/>
<rect width="0.830634" height="1035.64" transform="matrix(0.707107 0.707107 -0.474641 0.88018 121.171 -251.625)" fill="white"/>
<rect width="0.830634" height="1035.64" transform="matrix(0.707107 0.707107 -0.474641 0.88018 104.39 -268.406)" fill="white"/>
<rect width="0.830634" height="1035.64" transform="matrix(0.707107 0.707107 -0.474641 0.88018 124.527 -248.269)" fill="white"/>
<rect width="0.830634" height="1035.64" transform="matrix(0.707107 0.707107 -0.474641 0.88018 107.746 -265.05)" fill="white"/>
<rect width="0.830634" height="1035.64" transform="matrix(0.707107 0.707107 -0.474641 0.88018 127.883 -244.913)" fill="white"/>
<rect width="0.830634" height="1035.64" transform="matrix(0.707107 0.707107 -0.474641 0.88018 111.102 -261.694)" fill="white"/>
<rect width="0.830634" height="1035.64" transform="matrix(0.707107 0.707107 -0.474641 0.88018 131.239 -241.557)" fill="white"/>
<rect width="0.830634" height="1035.64" transform="matrix(0.707107 0.707107 -0.474641 0.88018 134.597 -238.2)" fill="white"/>
<rect width="0.830634" height="1035.64" transform="matrix(0.707107 0.707107 -0.474641 0.88018 154.734 -218.062)" fill="white"/>
<rect width="0.830634" height="1035.64" transform="matrix(0.707107 0.707107 -0.474641 0.88018 137.952 -234.844)" fill="white"/>
<rect width="0.830634" height="1035.64" transform="matrix(0.707107 0.707107 -0.474641 0.88018 158.089 -214.706)" fill="white"/>
<rect width="0.830634" height="1035.64" transform="matrix(0.707107 0.707107 -0.474641 0.88018 141.308 -231.487)" fill="white"/>
<rect width="0.830634" height="1035.64" transform="matrix(0.707107 0.707107 -0.474641 0.88018 161.445 -211.35)" fill="white"/>
<rect width="0.830634" height="1035.64" transform="matrix(0.707107 0.707107 -0.474641 0.88018 144.664 -228.132)" fill="white"/>
<rect width="0.830634" height="1035.64" transform="matrix(0.707107 0.707107 -0.474641 0.88018 164.803 -207.993)" fill="white"/>
<rect width="0.830634" height="1035.64" transform="matrix(0.707107 0.707107 -0.474641 0.88018 148.02 -224.776)" fill="white"/>
<rect width="0.830634" height="1035.64" transform="matrix(0.707107 0.707107 -0.474641 0.88018 168.159 -204.637)" fill="white"/>
<rect width="0.830634" height="1035.64" transform="matrix(0.707107 0.707107 -0.474641 0.88018 151.378 -221.418)" fill="white"/>
<rect width="0.830634" height="1035.64" transform="matrix(0.707107 0.707107 -0.474641 0.88018 171.514 -201.281)" fill="white"/>
<rect width="0.830634" height="1035.64" transform="matrix(0.707107 0.707107 -0.474641 0.88018 174.871 -197.925)" fill="white"/>
<rect width="0.830634" height="1035.64" transform="matrix(0.707107 0.707107 -0.474641 0.88018 195.008 -177.788)" fill="white"/>
<rect width="0.830634" height="1035.64" transform="matrix(0.707107 0.707107 -0.474641 0.88018 178.227 -194.569)" fill="white"/>
<rect width="0.830634" height="1035.64" transform="matrix(0.707107 0.707107 -0.474641 0.88018 198.365 -174.431)" fill="white"/>
<rect width="0.830634" height="1035.64" transform="matrix(0.707107 0.707107 -0.474641 0.88018 181.584 -191.212)" fill="white"/>
<rect width="0.830634" height="1035.64" transform="matrix(0.707107 0.707107 -0.474641 0.88018 201.722 -171.075)" fill="white"/>
<rect width="0.830634" height="1035.64" transform="matrix(0.707107 0.707107 -0.474641 0.88018 184.94 -187.856)" fill="white"/>
<rect width="0.830634" height="1035.64" transform="matrix(0.707107 0.707107 -0.474641 0.88018 205.077 -167.719)" fill="white"/>
<rect width="0.830634" height="1035.64" transform="matrix(0.707107 0.707107 -0.474641 0.88018 188.296 -184.5)" fill="white"/>
<rect width="0.830634" height="1035.64" transform="matrix(0.707107 0.707107 -0.474641 0.88018 208.433 -164.362)" fill="white"/>
<rect width="0.830634" height="1035.64" transform="matrix(0.707107 0.707107 -0.474641 0.88018 191.652 -181.144)" fill="white"/>
<rect width="0.830634" height="1035.64" transform="matrix(0.707107 0.707107 -0.474641 0.88018 211.791 -161.006)" fill="white"/>
<rect width="0.830634" height="1035.64" transform="matrix(0.707107 0.707107 -0.474641 0.88018 215.147 -157.649)" fill="white"/>
<rect width="0.830634" height="1035.64" transform="matrix(0.707107 0.707107 -0.474641 0.88018 235.283 -137.512)" fill="white"/>
<rect width="0.830634" height="1035.64" transform="matrix(0.707107 0.707107 -0.474641 0.88018 218.502 -154.293)" fill="white"/>
<rect width="0.830634" height="1035.64" transform="matrix(0.707107 0.707107 -0.474641 0.88018 238.639 -134.156)" fill="white"/>
<rect width="0.830634" height="1035.64" transform="matrix(0.707107 0.707107 -0.474641 0.88018 221.858 -150.937)" fill="white"/>
<rect width="0.830634" height="1035.64" transform="matrix(0.707107 0.707107 -0.474641 0.88018 241.997 -130.799)" fill="white"/>
<rect width="0.830634" height="1035.64" transform="matrix(0.707107 0.707107 -0.474641 0.88018 225.214 -147.581)" fill="white"/>
<rect width="0.830634" height="1035.64" transform="matrix(0.707107 0.707107 -0.474641 0.88018 245.354 -127.443)" fill="white"/>
<rect width="0.830634" height="1035.64" transform="matrix(0.707107 0.707107 -0.474641 0.88018 228.572 -144.224)" fill="white"/>
<rect width="0.830634" height="1035.64" transform="matrix(0.707107 0.707107 -0.474641 0.88018 248.709 -124.087)" fill="white"/>
<rect width="0.830634" height="1035.64" transform="matrix(0.707107 0.707107 -0.474641 0.88018 231.928 -140.868)" fill="white"/>
<rect width="0.830634" height="1035.64" transform="matrix(0.707107 0.707107 -0.474641 0.88018 252.065 -120.731)" fill="white"/>
<rect width="0.830634" height="1035.64" transform="matrix(0.707107 0.707107 -0.474641 0.88018 255.42 -117.375)" fill="white"/>
<rect width="0.830634" height="1035.64" transform="matrix(0.707107 0.707107 -0.474641 0.88018 275.56 -97.2367)" fill="white"/>
<rect width="0.830634" height="1035.64" transform="matrix(0.707107 0.707107 -0.474641 0.88018 258.778 -114.018)" fill="white"/>
<rect width="0.830634" height="1035.64" transform="matrix(0.707107 0.707107 -0.474641 0.88018 278.916 -93.8807)" fill="white"/>
<rect width="0.830634" height="1035.64" transform="matrix(0.707107 0.707107 -0.474641 0.88018 262.135 -110.662)" fill="white"/>
<rect width="0.830634" height="1035.64" transform="matrix(0.707107 0.707107 -0.474641 0.88018 282.271 -90.5244)" fill="white"/>
<rect width="0.830634" height="1035.64" transform="matrix(0.707107 0.707107 -0.474641 0.88018 265.49 -107.305)" fill="white"/>
<rect width="0.830634" height="1035.64" transform="matrix(0.707107 0.707107 -0.474641 0.88018 285.627 -87.1684)" fill="white"/>
<rect width="0.830634" height="1035.64" transform="matrix(0.707107 0.707107 -0.474641 0.88018 268.846 -103.949)" fill="white"/>
<rect width="0.830634" height="1035.64" transform="matrix(0.707107 0.707107 -0.474641 0.88018 288.985 -83.8115)" fill="white"/>
<rect width="0.830634" height="1035.64" transform="matrix(0.707107 0.707107 -0.474641 0.88018 272.202 -100.593)" fill="white"/>
<rect width="0.830634" height="1035.64" transform="matrix(0.707107 0.707107 -0.474641 0.88018 292.341 -80.4553)" fill="white"/>
<rect width="0.830634" height="1035.64" transform="matrix(0.707107 0.707107 -0.474641 0.88018 295.697 -77.0992)" fill="white"/>
<rect width="0.830634" height="1035.64" transform="matrix(0.707107 0.707107 -0.474641 0.88018 315.833 -56.9619)" fill="white"/>
<rect width="0.830634" height="1035.64" transform="matrix(0.707107 0.707107 -0.474641 0.88018 299.052 -73.743)" fill="white"/>
<rect width="0.830634" height="1035.64" transform="matrix(0.707107 0.707107 -0.474641 0.88018 319.189 -53.6055)" fill="white"/>
<rect width="0.830634" height="1035.64" transform="matrix(0.707107 0.707107 -0.474641 0.88018 302.408 -70.3868)" fill="white"/>
<rect width="0.830634" height="1035.64" transform="matrix(0.707107 0.707107 -0.474641 0.88018 322.548 -50.2488)" fill="white"/>
<rect width="0.830634" height="1035.64" transform="matrix(0.707107 0.707107 -0.474641 0.88018 305.766 -67.0303)" fill="white"/>
<rect width="0.830634" height="1035.64" transform="matrix(0.707107 0.707107 -0.474641 0.88018 325.903 -46.8928)" fill="white"/>
<rect width="0.830634" height="1035.64" transform="matrix(0.707107 0.707107 -0.474641 0.88018 309.122 -63.6741)" fill="white"/>
<rect width="0.830634" height="1035.64" transform="matrix(0.707107 0.707107 -0.474641 0.88018 329.259 -43.5367)" fill="white"/>
<rect width="0.830634" height="1035.64" transform="matrix(0.707107 0.707107 -0.474641 0.88018 312.478 -60.3181)" fill="white"/>
<rect width="0.830634" height="1035.64" transform="matrix(0.707107 0.707107 -0.474641 0.88018 332.615 -40.1803)" fill="white"/>
<rect width="0.830634" height="1035.64" transform="matrix(0.707107 0.707107 -0.474641 0.88018 335.972 -36.8237)" fill="white"/>
<rect width="0.830634" height="1035.64" transform="matrix(0.707107 0.707107 -0.474641 0.88018 356.11 -16.6865)" fill="white"/>
<rect width="0.830634" height="1035.64" transform="matrix(0.707107 0.707107 -0.474641 0.88018 339.329 -33.4676)" fill="white"/>
<rect width="0.830634" height="1035.64" transform="matrix(0.707107 0.707107 -0.474641 0.88018 359.466 -13.3304)" fill="white"/>
<rect width="0.830634" height="1035.64" transform="matrix(0.707107 0.707107 -0.474641 0.88018 342.684 -30.1115)" fill="white"/>
<rect width="0.830634" height="1035.64" transform="matrix(0.707107 0.707107 -0.474641 0.88018 362.822 -9.97418)" fill="white"/>
<rect width="0.830634" height="1035.64" transform="matrix(0.707107 0.707107 -0.474641 0.88018 346.041 -26.7552)" fill="white"/>
<rect width="0.830634" height="1035.64" transform="matrix(0.707107 0.707107 -0.474641 0.88018 366.179 -6.61725)" fill="white"/>
<rect width="0.830634" height="1035.64" transform="matrix(0.707107 0.707107 -0.474641 0.88018 349.396 -23.3992)" fill="white"/>
<rect width="0.830634" height="1035.64" transform="matrix(0.707107 0.707107 -0.474641 0.88018 369.535 -3.26111)" fill="white"/>
<rect width="0.830634" height="1035.64" transform="matrix(0.707107 0.707107 -0.474641 0.88018 352.754 -20.0428)" fill="white"/>
<rect width="0.830634" height="1035.64" transform="matrix(0.707107 0.707107 -0.474641 0.88018 372.891 0.0948486)" fill="white"/>
<rect width="0.830634" height="1035.64" transform="matrix(0.707107 0.707107 -0.474641 0.88018 376.247 3.45117)" fill="white"/>
<rect width="0.830634" height="1035.64" transform="matrix(0.707107 0.707107 -0.474641 0.88018 396.384 23.5886)" fill="white"/>
<rect width="0.830634" height="1035.64" transform="matrix(0.707107 0.707107 -0.474641 0.88018 379.602 6.80719)" fill="white"/>
<rect width="0.830634" height="1035.64" transform="matrix(0.707107 0.707107 -0.474641 0.88018 399.742 26.9453)" fill="white"/>
<rect width="0.830634" height="1035.64" transform="matrix(0.707107 0.707107 -0.474641 0.88018 382.96 10.164)" fill="white"/>
<rect width="0.830634" height="1035.64" transform="matrix(0.707107 0.707107 -0.474641 0.88018 403.097 30.3016)" fill="white"/>
<rect width="0.830634" height="1035.64" transform="matrix(0.707107 0.707107 -0.474641 0.88018 386.317 13.52)" fill="white"/>
<rect width="0.830634" height="1035.64" transform="matrix(0.707107 0.707107 -0.474641 0.88018 406.453 33.6577)" fill="white"/>
<rect width="0.830634" height="1035.64" transform="matrix(0.707107 0.707107 -0.474641 0.88018 389.672 16.8761)" fill="white"/>
<rect width="0.830634" height="1035.64" transform="matrix(0.707107 0.707107 -0.474641 0.88018 409.809 37.0138)" fill="white"/>
<rect width="0.830634" height="1035.64" transform="matrix(0.707107 0.707107 -0.474641 0.88018 393.027 20.2322)" fill="white"/>
<rect width="0.830634" height="1035.64" transform="matrix(0.707107 0.707107 -0.474641 0.88018 413.167 40.3703)" fill="white"/>
</g>
</g>
</svg>
