<svg width="81" height="81" viewBox="0 0 81 81" fill="none" xmlns="http://www.w3.org/2000/svg">
<g opacity="0.3">
<mask id="mask0_519_6104" style="mask-type:alpha" maskUnits="userSpaceOnUse" x="0" y="0" width="81" height="81">
<rect width="81" height="81" fill="#EBEBEB"/>
</mask>
<g mask="url(#mask0_519_6104)">
<rect width="0.655852" height="798.244" transform="matrix(0.736768 0.676146 -0.506615 0.862172 1.65356 -311.108)" fill="black"/>
<rect width="0.655852" height="798.244" transform="matrix(0.736768 0.676146 -0.506615 0.862172 4.41614 -308.574)" fill="black"/>
<rect width="0.655852" height="798.244" transform="matrix(0.736768 0.676146 -0.506615 0.862172 7.17688 -306.04)" fill="black"/>
<rect width="0.655852" height="798.244" transform="matrix(0.736768 0.676146 -0.506615 0.862172 9.93774 -303.506)" fill="black"/>
<rect width="0.655852" height="798.244" transform="matrix(0.736768 0.676146 -0.506615 0.862172 12.6987 -300.972)" fill="black"/>
<rect width="0.655852" height="798.244" transform="matrix(0.736768 0.676146 -0.506615 0.862172 15.4612 -298.438)" fill="black"/>
<rect width="0.655852" height="798.244" transform="matrix(0.736768 0.676146 -0.506615 0.862172 32.0277 -283.234)" fill="black"/>
<rect width="0.655852" height="798.244" transform="matrix(0.736768 0.676146 -0.506615 0.862172 18.222 -295.904)" fill="black"/>
<rect width="0.655852" height="798.244" transform="matrix(0.736768 0.676146 -0.506615 0.862172 34.7887 -280.7)" fill="black"/>
<rect width="0.655852" height="798.244" transform="matrix(0.736768 0.676146 -0.506615 0.862172 20.9828 -293.37)" fill="black"/>
<rect width="0.655852" height="798.244" transform="matrix(0.736768 0.676146 -0.506615 0.862172 37.5496 -278.166)" fill="black"/>
<rect width="0.655852" height="798.244" transform="matrix(0.736768 0.676146 -0.506615 0.862172 23.7438 -290.836)" fill="black"/>
<rect width="0.655852" height="798.244" transform="matrix(0.736768 0.676146 -0.506615 0.862172 40.3104 -275.632)" fill="black"/>
<rect width="0.655852" height="798.244" transform="matrix(0.736768 0.676146 -0.506615 0.862172 26.5045 -288.302)" fill="black"/>
<rect width="0.655852" height="798.244" transform="matrix(0.736768 0.676146 -0.506615 0.862172 43.073 -273.098)" fill="black"/>
<rect width="0.655852" height="798.244" transform="matrix(0.736768 0.676146 -0.506615 0.862172 29.267 -285.768)" fill="black"/>
<rect width="0.655852" height="798.244" transform="matrix(0.736768 0.676146 -0.506615 0.862172 45.8337 -270.564)" fill="black"/>
<rect width="0.655852" height="798.244" transform="matrix(0.736768 0.676146 -0.506615 0.862172 48.5946 -268.03)" fill="black"/>
<rect width="0.655852" height="798.244" transform="matrix(0.736768 0.676146 -0.506615 0.862172 65.1614 -252.826)" fill="black"/>
<rect width="0.655852" height="798.244" transform="matrix(0.736768 0.676146 -0.506615 0.862172 51.3553 -265.496)" fill="black"/>
<rect width="0.655852" height="798.244" transform="matrix(0.736768 0.676146 -0.506615 0.862172 67.9238 -250.292)" fill="black"/>
<rect width="0.655852" height="798.244" transform="matrix(0.736768 0.676146 -0.506615 0.862172 54.118 -262.962)" fill="black"/>
<rect width="0.655852" height="798.244" transform="matrix(0.736768 0.676146 -0.506615 0.862172 70.6846 -247.758)" fill="black"/>
<rect width="0.655852" height="798.244" transform="matrix(0.736768 0.676146 -0.506615 0.862172 56.8789 -260.428)" fill="black"/>
<rect width="0.655852" height="798.244" transform="matrix(0.736768 0.676146 -0.506615 0.862172 73.4454 -245.224)" fill="black"/>
<rect width="0.655852" height="798.244" transform="matrix(0.736768 0.676146 -0.506615 0.862172 59.6396 -257.894)" fill="black"/>
<rect width="0.655852" height="798.244" transform="matrix(0.736768 0.676146 -0.506615 0.862172 76.2063 -242.69)" fill="black"/>
<rect width="0.655852" height="798.244" transform="matrix(0.736768 0.676146 -0.506615 0.862172 62.4004 -255.36)" fill="black"/>
<rect width="0.655852" height="798.244" transform="matrix(0.736768 0.676146 -0.506615 0.862172 78.9689 -240.156)" fill="black"/>
<rect width="0.655852" height="798.244" transform="matrix(0.736768 0.676146 -0.506615 0.862172 81.7296 -237.622)" fill="black"/>
<rect width="0.655852" height="798.244" transform="matrix(0.736768 0.676146 -0.506615 0.862172 98.2965 -222.417)" fill="black"/>
<rect width="0.655852" height="798.244" transform="matrix(0.736768 0.676146 -0.506615 0.862172 84.4904 -235.088)" fill="black"/>
<rect width="0.655852" height="798.244" transform="matrix(0.736768 0.676146 -0.506615 0.862172 101.057 -219.884)" fill="black"/>
<rect width="0.655852" height="798.244" transform="matrix(0.736768 0.676146 -0.506615 0.862172 87.2513 -232.554)" fill="black"/>
<rect width="0.655852" height="798.244" transform="matrix(0.736768 0.676146 -0.506615 0.862172 103.818 -217.35)" fill="black"/>
<rect width="0.655852" height="798.244" transform="matrix(0.736768 0.676146 -0.506615 0.862172 90.0122 -230.02)" fill="black"/>
<rect width="0.655852" height="798.244" transform="matrix(0.736768 0.676146 -0.506615 0.862172 106.581 -214.815)" fill="black"/>
<rect width="0.655852" height="798.244" transform="matrix(0.736768 0.676146 -0.506615 0.862172 92.7747 -227.485)" fill="black"/>
<rect width="0.655852" height="798.244" transform="matrix(0.736768 0.676146 -0.506615 0.862172 109.341 -212.281)" fill="black"/>
<rect width="0.655852" height="798.244" transform="matrix(0.736768 0.676146 -0.506615 0.862172 95.5356 -224.952)" fill="black"/>
<rect width="0.655852" height="798.244" transform="matrix(0.736768 0.676146 -0.506615 0.862172 112.102 -209.748)" fill="black"/>
<rect width="0.655852" height="798.244" transform="matrix(0.736768 0.676146 -0.506615 0.862172 114.863 -207.214)" fill="black"/>
<rect width="0.655852" height="798.244" transform="matrix(0.736768 0.676146 -0.506615 0.862172 131.432 -192.009)" fill="black"/>
<rect width="0.655852" height="798.244" transform="matrix(0.736768 0.676146 -0.506615 0.862172 117.626 -204.679)" fill="black"/>
<rect width="0.655852" height="798.244" transform="matrix(0.736768 0.676146 -0.506615 0.862172 134.193 -189.476)" fill="black"/>
<rect width="0.655852" height="798.244" transform="matrix(0.736768 0.676146 -0.506615 0.862172 120.386 -202.146)" fill="black"/>
<rect width="0.655852" height="798.244" transform="matrix(0.736768 0.676146 -0.506615 0.862172 136.953 -186.941)" fill="black"/>
<rect width="0.655852" height="798.244" transform="matrix(0.736768 0.676146 -0.506615 0.862172 123.147 -199.612)" fill="black"/>
<rect width="0.655852" height="798.244" transform="matrix(0.736768 0.676146 -0.506615 0.862172 139.714 -184.407)" fill="black"/>
<rect width="0.655852" height="798.244" transform="matrix(0.736768 0.676146 -0.506615 0.862172 125.908 -197.078)" fill="black"/>
<rect width="0.655852" height="798.244" transform="matrix(0.736768 0.676146 -0.506615 0.862172 142.475 -181.874)" fill="black"/>
<rect width="0.655852" height="798.244" transform="matrix(0.736768 0.676146 -0.506615 0.862172 128.669 -194.544)" fill="black"/>
<rect width="0.655852" height="798.244" transform="matrix(0.736768 0.676146 -0.506615 0.862172 145.237 -179.339)" fill="black"/>
<rect width="0.655852" height="798.244" transform="matrix(0.736768 0.676146 -0.506615 0.862172 147.998 -176.805)" fill="black"/>
<rect width="0.655852" height="798.244" transform="matrix(0.736768 0.676146 -0.506615 0.862172 164.565 -161.602)" fill="black"/>
<rect width="0.655852" height="798.244" transform="matrix(0.736768 0.676146 -0.506615 0.862172 150.759 -174.271)" fill="black"/>
<rect width="0.655852" height="798.244" transform="matrix(0.736768 0.676146 -0.506615 0.862172 167.326 -159.068)" fill="black"/>
<rect width="0.655852" height="798.244" transform="matrix(0.736768 0.676146 -0.506615 0.862172 153.52 -171.738)" fill="black"/>
<rect width="0.655852" height="798.244" transform="matrix(0.736768 0.676146 -0.506615 0.862172 170.088 -156.533)" fill="black"/>
<rect width="0.655852" height="798.244" transform="matrix(0.736768 0.676146 -0.506615 0.862172 156.283 -169.203)" fill="black"/>
<rect width="0.655852" height="798.244" transform="matrix(0.736768 0.676146 -0.506615 0.862172 172.849 -154)" fill="black"/>
<rect width="0.655852" height="798.244" transform="matrix(0.736768 0.676146 -0.506615 0.862172 159.043 -166.669)" fill="black"/>
<rect width="0.655852" height="798.244" transform="matrix(0.736768 0.676146 -0.506615 0.862172 175.61 -151.466)" fill="black"/>
<rect width="0.655852" height="798.244" transform="matrix(0.736768 0.676146 -0.506615 0.862172 161.804 -164.135)" fill="black"/>
<rect width="0.655852" height="798.244" transform="matrix(0.736768 0.676146 -0.506615 0.862172 178.371 -148.932)" fill="black"/>
<rect width="0.655852" height="798.244" transform="matrix(0.736768 0.676146 -0.506615 0.862172 181.133 -146.397)" fill="black"/>
<rect width="0.655852" height="798.244" transform="matrix(0.736768 0.676146 -0.506615 0.862172 197.7 -131.193)" fill="black"/>
<rect width="0.655852" height="798.244" transform="matrix(0.736768 0.676146 -0.506615 0.862172 183.894 -143.863)" fill="black"/>
<rect width="0.655852" height="798.244" transform="matrix(0.736768 0.676146 -0.506615 0.862172 200.461 -128.659)" fill="black"/>
<rect width="0.655852" height="798.244" transform="matrix(0.736768 0.676146 -0.506615 0.862172 186.655 -141.33)" fill="black"/>
<rect width="0.655852" height="798.244" transform="matrix(0.736768 0.676146 -0.506615 0.862172 203.222 -126.125)" fill="black"/>
<rect width="0.655852" height="798.244" transform="matrix(0.736768 0.676146 -0.506615 0.862172 189.416 -138.795)" fill="black"/>
<rect width="0.655852" height="798.244" transform="matrix(0.736768 0.676146 -0.506615 0.862172 205.983 -123.592)" fill="black"/>
<rect width="0.655852" height="798.244" transform="matrix(0.736768 0.676146 -0.506615 0.862172 192.177 -136.261)" fill="black"/>
<rect width="0.655852" height="798.244" transform="matrix(0.736768 0.676146 -0.506615 0.862172 208.745 -121.057)" fill="black"/>
<rect width="0.655852" height="798.244" transform="matrix(0.736768 0.676146 -0.506615 0.862172 194.939 -133.727)" fill="black"/>
<rect width="0.655852" height="798.244" transform="matrix(0.736768 0.676146 -0.506615 0.862172 211.506 -118.523)" fill="black"/>
<rect width="0.655852" height="798.244" transform="matrix(0.736768 0.676146 -0.506615 0.862172 214.267 -115.99)" fill="black"/>
<rect width="0.655852" height="798.244" transform="matrix(0.736768 0.676146 -0.506615 0.862172 230.833 -100.786)" fill="black"/>
<rect width="0.655852" height="798.244" transform="matrix(0.736768 0.676146 -0.506615 0.862172 217.028 -113.456)" fill="black"/>
<rect width="0.655852" height="798.244" transform="matrix(0.736768 0.676146 -0.506615 0.862172 233.596 -98.2512)" fill="black"/>
<rect width="0.655852" height="798.244" transform="matrix(0.736768 0.676146 -0.506615 0.862172 219.79 -110.921)" fill="black"/>
<rect width="0.655852" height="798.244" transform="matrix(0.736768 0.676146 -0.506615 0.862172 236.357 -95.717)" fill="black"/>
<rect width="0.655852" height="798.244" transform="matrix(0.736768 0.676146 -0.506615 0.862172 222.551 -108.387)" fill="black"/>
<rect width="0.655852" height="798.244" transform="matrix(0.736768 0.676146 -0.506615 0.862172 239.118 -93.1831)" fill="black"/>
<rect width="0.655852" height="798.244" transform="matrix(0.736768 0.676146 -0.506615 0.862172 225.312 -105.853)" fill="black"/>
<rect width="0.655852" height="798.244" transform="matrix(0.736768 0.676146 -0.506615 0.862172 241.879 -90.6494)" fill="black"/>
<rect width="0.655852" height="798.244" transform="matrix(0.736768 0.676146 -0.506615 0.862172 228.073 -103.32)" fill="black"/>
<rect width="0.655852" height="798.244" transform="matrix(0.736768 0.676146 -0.506615 0.862172 244.639 -88.1155)" fill="black"/>
<rect width="0.655852" height="798.244" transform="matrix(0.736768 0.676146 -0.506615 0.862172 247.043 -85.9104)" fill="black"/>
<rect width="0.655852" height="798.244" transform="matrix(0.736768 0.676146 -0.506615 0.862172 263.61 -70.7065)" fill="black"/>
<rect width="0.655852" height="798.244" transform="matrix(0.736768 0.676146 -0.506615 0.862172 249.804 -83.3765)" fill="black"/>
<rect width="0.655852" height="798.244" transform="matrix(0.736768 0.676146 -0.506615 0.862172 266.372 -68.1716)" fill="black"/>
<rect width="0.655852" height="798.244" transform="matrix(0.736768 0.676146 -0.506615 0.862172 252.565 -80.8425)" fill="black"/>
<rect width="0.655852" height="798.244" transform="matrix(0.736768 0.676146 -0.506615 0.862172 269.133 -65.6382)" fill="black"/>
<rect width="0.655852" height="798.244" transform="matrix(0.736768 0.676146 -0.506615 0.862172 255.327 -78.3079)" fill="black"/>
<rect width="0.655852" height="798.244" transform="matrix(0.736768 0.676146 -0.506615 0.862172 271.894 -63.104)" fill="black"/>
<rect width="0.655852" height="798.244" transform="matrix(0.736768 0.676146 -0.506615 0.862172 258.088 -75.7742)" fill="black"/>
<rect width="0.655852" height="798.244" transform="matrix(0.736768 0.676146 -0.506615 0.862172 274.655 -60.5703)" fill="black"/>
<rect width="0.655852" height="798.244" transform="matrix(0.736768 0.676146 -0.506615 0.862172 260.849 -73.2402)" fill="black"/>
<rect width="0.655852" height="798.244" transform="matrix(0.736768 0.676146 -0.506615 0.862172 277.416 -58.0364)" fill="black"/>
<rect width="0.655852" height="798.244" transform="matrix(0.736768 0.676146 -0.506615 0.862172 280.178 -55.5017)" fill="black"/>
<rect width="0.655852" height="798.244" transform="matrix(0.736768 0.676146 -0.506615 0.862172 296.745 -40.2979)" fill="black"/>
<rect width="0.655852" height="798.244" transform="matrix(0.736768 0.676146 -0.506615 0.862172 282.939 -52.968)" fill="black"/>
<rect width="0.655852" height="798.244" transform="matrix(0.736768 0.676146 -0.506615 0.862172 299.506 -37.7642)" fill="black"/>
<rect width="0.655852" height="798.244" transform="matrix(0.736768 0.676146 -0.506615 0.862172 285.7 -50.4341)" fill="black"/>
<rect width="0.655852" height="798.244" transform="matrix(0.736768 0.676146 -0.506615 0.862172 302.267 -35.2305)" fill="black"/>
<rect width="0.655852" height="798.244" transform="matrix(0.736768 0.676146 -0.506615 0.862172 288.461 -47.9004)" fill="black"/>
<rect width="0.655852" height="798.244" transform="matrix(0.736768 0.676146 -0.506615 0.862172 305.029 -32.6958)" fill="black"/>
<rect width="0.655852" height="798.244" transform="matrix(0.736768 0.676146 -0.506615 0.862172 291.222 -45.3665)" fill="black"/>
<rect width="0.655852" height="798.244" transform="matrix(0.736768 0.676146 -0.506615 0.862172 307.79 -30.1619)" fill="black"/>
<rect width="0.655852" height="798.244" transform="matrix(0.736768 0.676146 -0.506615 0.862172 293.984 -42.832)" fill="black"/>
<rect width="0.655852" height="798.244" transform="matrix(0.736768 0.676146 -0.506615 0.862172 310.551 -27.6282)" fill="black"/>
<rect width="0.655852" height="798.244" transform="matrix(0.736768 0.676146 -0.506615 0.862172 313.312 -25.0945)" fill="black"/>
<rect width="0.655852" height="798.244" transform="matrix(0.736768 0.676146 -0.506615 0.862172 329.878 -9.89014)" fill="black"/>
<rect width="0.655852" height="798.244" transform="matrix(0.736768 0.676146 -0.506615 0.862172 316.073 -22.5601)" fill="black"/>
<rect width="0.655852" height="798.244" transform="matrix(0.736768 0.676146 -0.506615 0.862172 332.641 -7.35596)" fill="black"/>
<rect width="0.655852" height="798.244" transform="matrix(0.736768 0.676146 -0.506615 0.862172 318.835 -20.0256)" fill="black"/>
<rect width="0.655852" height="798.244" transform="matrix(0.736768 0.676146 -0.506615 0.862172 335.402 -4.82202)" fill="black"/>
<rect width="0.655852" height="798.244" transform="matrix(0.736768 0.676146 -0.506615 0.862172 321.596 -17.4922)" fill="black"/>
<rect width="0.655852" height="798.244" transform="matrix(0.736768 0.676146 -0.506615 0.862172 338.163 -2.28809)" fill="black"/>
<rect width="0.655852" height="798.244" transform="matrix(0.736768 0.676146 -0.506615 0.862172 324.357 -14.9578)" fill="black"/>
<rect width="0.655852" height="798.244" transform="matrix(0.736768 0.676146 -0.506615 0.862172 340.923 0.24585)" fill="black"/>
<rect width="0.655852" height="798.244" transform="matrix(0.736768 0.676146 -0.506615 0.862172 327.118 -12.4238)" fill="black"/>
<rect width="0.655852" height="798.244" transform="matrix(0.736768 0.676146 -0.506615 0.862172 343.686 2.78052)" fill="black"/>
<rect width="0.655852" height="798.244" transform="matrix(0.736768 0.676146 -0.506615 0.862172 346.447 5.31421)" fill="black"/>
<rect width="0.655852" height="798.244" transform="matrix(0.736768 0.676146 -0.506615 0.862172 363.014 20.5181)" fill="black"/>
<rect width="0.655852" height="798.244" transform="matrix(0.736768 0.676146 -0.506615 0.862172 349.208 7.84814)" fill="black"/>
<rect width="0.655852" height="798.244" transform="matrix(0.736768 0.676146 -0.506615 0.862172 365.775 23.0522)" fill="black"/>
<rect width="0.655852" height="798.244" transform="matrix(0.736768 0.676146 -0.506615 0.862172 351.968 10.3821)" fill="black"/>
<rect width="0.655852" height="798.244" transform="matrix(0.736768 0.676146 -0.506615 0.862172 368.537 25.5864)" fill="black"/>
<rect width="0.655852" height="798.244" transform="matrix(0.736768 0.676146 -0.506615 0.862172 354.729 12.916)" fill="black"/>
<rect width="0.655852" height="798.244" transform="matrix(0.736768 0.676146 -0.506615 0.862172 371.298 28.1204)" fill="black"/>
<rect width="0.655852" height="798.244" transform="matrix(0.736768 0.676146 -0.506615 0.862172 357.492 15.4502)" fill="black"/>
<rect width="0.655852" height="798.244" transform="matrix(0.736768 0.676146 -0.506615 0.862172 374.059 30.6541)" fill="black"/>
<rect width="0.655852" height="798.244" transform="matrix(0.736768 0.676146 -0.506615 0.862172 360.253 17.9841)" fill="black"/>
<rect width="0.655852" height="798.244" transform="matrix(0.736768 0.676146 -0.506615 0.862172 376.82 33.188)" fill="black"/>
<rect width="0.655852" height="798.244" transform="matrix(0.736768 0.676146 -0.506615 0.862172 379.58 35.7219)" fill="black"/>
<rect width="0.655852" height="798.244" transform="matrix(0.736768 0.676146 -0.506615 0.862172 396.149 50.9263)" fill="black"/>
<rect width="0.655852" height="798.244" transform="matrix(0.736768 0.676146 -0.506615 0.862172 382.343 38.2563)" fill="black"/>
<rect width="0.655852" height="798.244" transform="matrix(0.736768 0.676146 -0.506615 0.862172 398.91 53.4602)" fill="black"/>
<rect width="0.655852" height="798.244" transform="matrix(0.736768 0.676146 -0.506615 0.862172 385.104 40.7905)" fill="black"/>
<rect width="0.655852" height="798.244" transform="matrix(0.736768 0.676146 -0.506615 0.862172 401.67 55.9941)" fill="black"/>
<rect width="0.655852" height="798.244" transform="matrix(0.736768 0.676146 -0.506615 0.862172 387.865 43.3242)" fill="black"/>
<rect width="0.655852" height="798.244" transform="matrix(0.736768 0.676146 -0.506615 0.862172 404.431 58.5281)" fill="black"/>
<rect width="0.655852" height="798.244" transform="matrix(0.736768 0.676146 -0.506615 0.862172 390.625 45.8582)" fill="black"/>
<rect width="0.655852" height="798.244" transform="matrix(0.736768 0.676146 -0.506615 0.862172 407.194 61.0625)" fill="black"/>
<rect width="0.655852" height="798.244" transform="matrix(0.736768 0.676146 -0.506615 0.862172 393.386 48.3918)" fill="black"/>
<rect width="0.655852" height="798.244" transform="matrix(0.736768 0.676146 -0.506615 0.862172 409.954 63.5967)" fill="black"/>
<rect width="0.655852" height="798.244" transform="matrix(0.736768 0.676146 -0.506615 0.862172 412.715 66.1304)" fill="black"/>
<rect width="0.655852" height="798.244" transform="matrix(0.736768 0.676146 -0.506615 0.862172 415.476 68.6643)" fill="black"/>
<rect width="0.655852" height="798.244" transform="matrix(0.736768 0.676146 -0.506615 0.862172 418.237 71.198)" fill="black"/>
<rect width="0.655852" height="798.244" transform="matrix(0.736768 0.676146 -0.506615 0.862172 421 73.7324)" fill="black"/>
<rect width="0.655852" height="798.244" transform="matrix(0.736768 0.676146 -0.506615 0.862172 423.76 76.2666)" fill="black"/>
<rect width="0.655852" height="798.244" transform="matrix(0.736768 0.676146 -0.506615 0.862172 426.521 78.8003)" fill="black"/>
</g>
</g>
</svg>
