<svg width="113" height="154" viewBox="0 0 113 154" fill="none" xmlns="http://www.w3.org/2000/svg">
<g opacity="0.3">
<mask id="mask0_519_7161" style="mask-type:alpha" maskUnits="userSpaceOnUse" x="0" y="0" width="113" height="154">
<rect width="113" height="154" fill="#C4C4C4"/>
</mask>
<g mask="url(#mask0_519_7161)">
<rect width="0.975517" height="1216.28" transform="matrix(0.707107 0.707107 -0.474641 0.88018 21.1135 -735.844)" fill="black"/>
<rect width="0.975517" height="1216.28" transform="matrix(0.707107 0.707107 -0.474641 0.88018 1.40552 -755.553)" fill="black"/>
<rect width="0.975517" height="1216.28" transform="matrix(0.707107 0.707107 -0.474641 0.88018 25.0549 -731.903)" fill="black"/>
<rect width="0.975517" height="1216.28" transform="matrix(0.707107 0.707107 -0.474641 0.88018 5.3465 -751.611)" fill="black"/>
<rect width="0.975517" height="1216.28" transform="matrix(0.707107 0.707107 -0.474641 0.88018 28.996 -727.961)" fill="black"/>
<rect width="0.975517" height="1216.28" transform="matrix(0.707107 0.707107 -0.474641 0.88018 9.28784 -747.669)" fill="black"/>
<rect width="0.975517" height="1216.28" transform="matrix(0.707107 0.707107 -0.474641 0.88018 32.9372 -724.02)" fill="black"/>
<rect width="0.975517" height="1216.28" transform="matrix(0.707107 0.707107 -0.474641 0.88018 13.2289 -743.728)" fill="black"/>
<rect width="0.975517" height="1216.28" transform="matrix(0.707107 0.707107 -0.474641 0.88018 36.8807 -720.077)" fill="black"/>
<rect width="0.975517" height="1216.28" transform="matrix(0.707107 0.707107 -0.474641 0.88018 17.1724 -739.786)" fill="black"/>
<rect width="0.975517" height="1216.28" transform="matrix(0.707107 0.707107 -0.474641 0.88018 40.8218 -716.136)" fill="black"/>
<rect width="0.975517" height="1216.28" transform="matrix(0.707107 0.707107 -0.474641 0.88018 44.7631 -712.194)" fill="black"/>
<rect width="0.975517" height="1216.28" transform="matrix(0.707107 0.707107 -0.474641 0.88018 68.4125 -688.545)" fill="black"/>
<rect width="0.975517" height="1216.28" transform="matrix(0.707107 0.707107 -0.474641 0.88018 48.7041 -708.253)" fill="black"/>
<rect width="0.975517" height="1216.28" transform="matrix(0.707107 0.707107 -0.474641 0.88018 72.356 -684.602)" fill="black"/>
<rect width="0.975517" height="1216.28" transform="matrix(0.707107 0.707107 -0.474641 0.88018 52.6478 -704.311)" fill="black"/>
<rect width="0.975517" height="1216.28" transform="matrix(0.707107 0.707107 -0.474641 0.88018 76.2971 -680.661)" fill="black"/>
<rect width="0.975517" height="1216.28" transform="matrix(0.707107 0.707107 -0.474641 0.88018 56.5891 -700.369)" fill="black"/>
<rect width="0.975517" height="1216.28" transform="matrix(0.707107 0.707107 -0.474641 0.88018 80.2383 -676.719)" fill="black"/>
<rect width="0.975517" height="1216.28" transform="matrix(0.707107 0.707107 -0.474641 0.88018 60.5302 -696.427)" fill="black"/>
<rect width="0.975517" height="1216.28" transform="matrix(0.707107 0.707107 -0.474641 0.88018 84.1793 -672.777)" fill="black"/>
<rect width="0.975517" height="1216.28" transform="matrix(0.707107 0.707107 -0.474641 0.88018 64.4712 -692.486)" fill="black"/>
<rect width="0.975517" height="1216.28" transform="matrix(0.707107 0.707107 -0.474641 0.88018 88.123 -668.835)" fill="black"/>
<rect width="0.975517" height="1216.28" transform="matrix(0.707107 0.707107 -0.474641 0.88018 92.0641 -664.894)" fill="black"/>
<rect width="0.975517" height="1216.28" transform="matrix(0.707107 0.707107 -0.474641 0.88018 115.714 -641.244)" fill="black"/>
<rect width="0.975517" height="1216.28" transform="matrix(0.707107 0.707107 -0.474641 0.88018 96.0052 -660.952)" fill="black"/>
<rect width="0.975517" height="1216.28" transform="matrix(0.707107 0.707107 -0.474641 0.88018 119.655 -637.303)" fill="black"/>
<rect width="0.975517" height="1216.28" transform="matrix(0.707107 0.707107 -0.474641 0.88018 99.9465 -657.011)" fill="black"/>
<rect width="0.975517" height="1216.28" transform="matrix(0.707107 0.707107 -0.474641 0.88018 123.596 -633.361)" fill="black"/>
<rect width="0.975517" height="1216.28" transform="matrix(0.707107 0.707107 -0.474641 0.88018 103.888 -653.069)" fill="black"/>
<rect width="0.975517" height="1216.28" transform="matrix(0.707107 0.707107 -0.474641 0.88018 127.54 -629.418)" fill="black"/>
<rect width="0.975517" height="1216.28" transform="matrix(0.707107 0.707107 -0.474641 0.88018 107.831 -649.127)" fill="black"/>
<rect width="0.975517" height="1216.28" transform="matrix(0.707107 0.707107 -0.474641 0.88018 131.481 -625.477)" fill="black"/>
<rect width="0.975517" height="1216.28" transform="matrix(0.707107 0.707107 -0.474641 0.88018 111.772 -645.185)" fill="black"/>
<rect width="0.975517" height="1216.28" transform="matrix(0.707107 0.707107 -0.474641 0.88018 135.422 -621.536)" fill="black"/>
<rect width="0.975517" height="1216.28" transform="matrix(0.707107 0.707107 -0.474641 0.88018 139.363 -617.594)" fill="black"/>
<rect width="0.975517" height="1216.28" transform="matrix(0.707107 0.707107 -0.474641 0.88018 163.015 -593.943)" fill="black"/>
<rect width="0.975517" height="1216.28" transform="matrix(0.707107 0.707107 -0.474641 0.88018 143.307 -613.651)" fill="black"/>
<rect width="0.975517" height="1216.28" transform="matrix(0.707107 0.707107 -0.474641 0.88018 166.956 -590.002)" fill="black"/>
<rect width="0.975517" height="1216.28" transform="matrix(0.707107 0.707107 -0.474641 0.88018 147.248 -609.71)" fill="black"/>
<rect width="0.975517" height="1216.28" transform="matrix(0.707107 0.707107 -0.474641 0.88018 170.897 -586.06)" fill="black"/>
<rect width="0.975517" height="1216.28" transform="matrix(0.707107 0.707107 -0.474641 0.88018 151.189 -605.769)" fill="black"/>
<rect width="0.975517" height="1216.28" transform="matrix(0.707107 0.707107 -0.474641 0.88018 174.838 -582.119)" fill="black"/>
<rect width="0.975517" height="1216.28" transform="matrix(0.707107 0.707107 -0.474641 0.88018 155.13 -601.827)" fill="black"/>
<rect width="0.975517" height="1216.28" transform="matrix(0.707107 0.707107 -0.474641 0.88018 178.779 -578.177)" fill="black"/>
<rect width="0.975517" height="1216.28" transform="matrix(0.707107 0.707107 -0.474641 0.88018 159.071 -597.886)" fill="black"/>
<rect width="0.975517" height="1216.28" transform="matrix(0.707107 0.707107 -0.474641 0.88018 182.723 -574.235)" fill="black"/>
<rect width="0.975517" height="1216.28" transform="matrix(0.707107 0.707107 -0.474641 0.88018 186.664 -570.294)" fill="black"/>
<rect width="0.975517" height="1216.28" transform="matrix(0.707107 0.707107 -0.474641 0.88018 210.314 -546.644)" fill="black"/>
<rect width="0.975517" height="1216.28" transform="matrix(0.707107 0.707107 -0.474641 0.88018 190.605 -566.352)" fill="black"/>
<rect width="0.975517" height="1216.28" transform="matrix(0.707107 0.707107 -0.474641 0.88018 214.255 -542.702)" fill="black"/>
<rect width="0.975517" height="1216.28" transform="matrix(0.707107 0.707107 -0.474641 0.88018 194.547 -562.41)" fill="black"/>
<rect width="0.975517" height="1216.28" transform="matrix(0.707107 0.707107 -0.474641 0.88018 218.198 -538.76)" fill="black"/>
<rect width="0.975517" height="1216.28" transform="matrix(0.707107 0.707107 -0.474641 0.88018 198.49 -558.468)" fill="black"/>
<rect width="0.975517" height="1216.28" transform="matrix(0.707107 0.707107 -0.474641 0.88018 222.139 -534.818)" fill="black"/>
<rect width="0.975517" height="1216.28" transform="matrix(0.707107 0.707107 -0.474641 0.88018 202.431 -554.526)" fill="black"/>
<rect width="0.975517" height="1216.28" transform="matrix(0.707107 0.707107 -0.474641 0.88018 226.081 -530.877)" fill="black"/>
<rect width="0.975517" height="1216.28" transform="matrix(0.707107 0.707107 -0.474641 0.88018 206.372 -550.585)" fill="black"/>
<rect width="0.975517" height="1216.28" transform="matrix(0.707107 0.707107 -0.474641 0.88018 230.022 -526.935)" fill="black"/>
<rect width="0.975517" height="1216.28" transform="matrix(0.707107 0.707107 -0.474641 0.88018 233.965 -522.993)" fill="black"/>
<rect width="0.975517" height="1216.28" transform="matrix(0.707107 0.707107 -0.474641 0.88018 257.615 -499.343)" fill="black"/>
<rect width="0.975517" height="1216.28" transform="matrix(0.707107 0.707107 -0.474641 0.88018 237.906 -519.051)" fill="black"/>
<rect width="0.975517" height="1216.28" transform="matrix(0.707107 0.707107 -0.474641 0.88018 261.556 -495.401)" fill="black"/>
<rect width="0.975517" height="1216.28" transform="matrix(0.707107 0.707107 -0.474641 0.88018 241.848 -515.11)" fill="black"/>
<rect width="0.975517" height="1216.28" transform="matrix(0.707107 0.707107 -0.474641 0.88018 265.497 -491.46)" fill="black"/>
<rect width="0.975517" height="1216.28" transform="matrix(0.707107 0.707107 -0.474641 0.88018 245.789 -511.169)" fill="black"/>
<rect width="0.975517" height="1216.28" transform="matrix(0.707107 0.707107 -0.474641 0.88018 269.438 -487.519)" fill="black"/>
<rect width="0.975517" height="1216.28" transform="matrix(0.707107 0.707107 -0.474641 0.88018 249.73 -507.227)" fill="black"/>
<rect width="0.975517" height="1216.28" transform="matrix(0.707107 0.707107 -0.474641 0.88018 273.382 -483.576)" fill="black"/>
<rect width="0.975517" height="1216.28" transform="matrix(0.707107 0.707107 -0.474641 0.88018 253.674 -503.285)" fill="black"/>
<rect width="0.975517" height="1216.28" transform="matrix(0.707107 0.707107 -0.474641 0.88018 277.323 -479.635)" fill="black"/>
<rect width="0.975517" height="1216.28" transform="matrix(0.707107 0.707107 -0.474641 0.88018 281.264 -475.693)" fill="black"/>
<rect width="0.975517" height="1216.28" transform="matrix(0.707107 0.707107 -0.474641 0.88018 304.914 -452.044)" fill="black"/>
<rect width="0.975517" height="1216.28" transform="matrix(0.707107 0.707107 -0.474641 0.88018 285.205 -471.752)" fill="black"/>
<rect width="0.975517" height="1216.28" transform="matrix(0.707107 0.707107 -0.474641 0.88018 308.857 -448.101)" fill="black"/>
<rect width="0.975517" height="1216.28" transform="matrix(0.707107 0.707107 -0.474641 0.88018 289.149 -467.809)" fill="black"/>
<rect width="0.975517" height="1216.28" transform="matrix(0.707107 0.707107 -0.474641 0.88018 312.798 -444.16)" fill="black"/>
<rect width="0.975517" height="1216.28" transform="matrix(0.707107 0.707107 -0.474641 0.88018 293.09 -463.868)" fill="black"/>
<rect width="0.975517" height="1216.28" transform="matrix(0.707107 0.707107 -0.474641 0.88018 316.74 -440.218)" fill="black"/>
<rect width="0.975517" height="1216.28" transform="matrix(0.707107 0.707107 -0.474641 0.88018 297.031 -459.926)" fill="black"/>
<rect width="0.975517" height="1216.28" transform="matrix(0.707107 0.707107 -0.474641 0.88018 320.681 -436.277)" fill="black"/>
<rect width="0.975517" height="1216.28" transform="matrix(0.707107 0.707107 -0.474641 0.88018 300.972 -455.985)" fill="black"/>
<rect width="0.975517" height="1216.28" transform="matrix(0.707107 0.707107 -0.474641 0.88018 324.622 -432.335)" fill="black"/>
<rect width="0.975517" height="1216.28" transform="matrix(0.707107 0.707107 -0.474641 0.88018 328.053 -428.905)" fill="black"/>
<rect width="0.975517" height="1216.28" transform="matrix(0.707107 0.707107 -0.474641 0.88018 351.703 -405.255)" fill="black"/>
<rect width="0.975517" height="1216.28" transform="matrix(0.707107 0.707107 -0.474641 0.88018 331.994 -424.963)" fill="black"/>
<rect width="0.975517" height="1216.28" transform="matrix(0.707107 0.707107 -0.474641 0.88018 355.646 -401.312)" fill="black"/>
<rect width="0.975517" height="1216.28" transform="matrix(0.707107 0.707107 -0.474641 0.88018 335.935 -421.022)" fill="black"/>
<rect width="0.975517" height="1216.28" transform="matrix(0.707107 0.707107 -0.474641 0.88018 359.587 -397.371)" fill="black"/>
<rect width="0.975517" height="1216.28" transform="matrix(0.707107 0.707107 -0.474641 0.88018 339.879 -417.079)" fill="black"/>
<rect width="0.975517" height="1216.28" transform="matrix(0.707107 0.707107 -0.474641 0.88018 363.528 -393.43)" fill="black"/>
<rect width="0.975517" height="1216.28" transform="matrix(0.707107 0.707107 -0.474641 0.88018 343.82 -413.138)" fill="black"/>
<rect width="0.975517" height="1216.28" transform="matrix(0.707107 0.707107 -0.474641 0.88018 367.469 -389.488)" fill="black"/>
<rect width="0.975517" height="1216.28" transform="matrix(0.707107 0.707107 -0.474641 0.88018 347.761 -409.196)" fill="black"/>
<rect width="0.975517" height="1216.28" transform="matrix(0.707107 0.707107 -0.474641 0.88018 371.411 -385.547)" fill="black"/>
<rect width="0.975517" height="1216.28" transform="matrix(0.707107 0.707107 -0.474641 0.88018 375.354 -381.604)" fill="black"/>
<rect width="0.975517" height="1216.28" transform="matrix(0.707107 0.707107 -0.474641 0.88018 399.004 -357.954)" fill="black"/>
<rect width="0.975517" height="1216.28" transform="matrix(0.707107 0.707107 -0.474641 0.88018 379.295 -377.663)" fill="black"/>
<rect width="0.975517" height="1216.28" transform="matrix(0.707107 0.707107 -0.474641 0.88018 402.945 -354.013)" fill="black"/>
<rect width="0.975517" height="1216.28" transform="matrix(0.707107 0.707107 -0.474641 0.88018 383.237 -373.721)" fill="black"/>
<rect width="0.975517" height="1216.28" transform="matrix(0.707107 0.707107 -0.474641 0.88018 406.886 -350.071)" fill="black"/>
<rect width="0.975517" height="1216.28" transform="matrix(0.707107 0.707107 -0.474641 0.88018 387.178 -369.78)" fill="black"/>
<rect width="0.975517" height="1216.28" transform="matrix(0.707107 0.707107 -0.474641 0.88018 410.829 -346.129)" fill="black"/>
<rect width="0.975517" height="1216.28" transform="matrix(0.707107 0.707107 -0.474641 0.88018 391.119 -365.838)" fill="black"/>
<rect width="0.975517" height="1216.28" transform="matrix(0.707107 0.707107 -0.474641 0.88018 414.771 -342.187)" fill="black"/>
<rect width="0.975517" height="1216.28" transform="matrix(0.707107 0.707107 -0.474641 0.88018 395.063 -361.896)" fill="black"/>
<rect width="0.975517" height="1216.28" transform="matrix(0.707107 0.707107 -0.474641 0.88018 418.712 -338.246)" fill="black"/>
<rect width="0.975517" height="1216.28" transform="matrix(0.707107 0.707107 -0.474641 0.88018 422.653 -334.305)" fill="black"/>
<rect width="0.975517" height="1216.28" transform="matrix(0.707107 0.707107 -0.474641 0.88018 446.302 -310.654)" fill="black"/>
<rect width="0.975517" height="1216.28" transform="matrix(0.707107 0.707107 -0.474641 0.88018 426.594 -330.363)" fill="black"/>
<rect width="0.975517" height="1216.28" transform="matrix(0.707107 0.707107 -0.474641 0.88018 450.246 -306.712)" fill="black"/>
<rect width="0.975517" height="1216.28" transform="matrix(0.707107 0.707107 -0.474641 0.88018 430.538 -326.421)" fill="black"/>
<rect width="0.975517" height="1216.28" transform="matrix(0.707107 0.707107 -0.474641 0.88018 454.187 -302.771)" fill="black"/>
<rect width="0.975517" height="1216.28" transform="matrix(0.707107 0.707107 -0.474641 0.88018 434.479 -322.479)" fill="black"/>
<rect width="0.975517" height="1216.28" transform="matrix(0.707107 0.707107 -0.474641 0.88018 458.128 -298.829)" fill="black"/>
<rect width="0.975517" height="1216.28" transform="matrix(0.707107 0.707107 -0.474641 0.88018 438.42 -318.537)" fill="black"/>
<rect width="0.975517" height="1216.28" transform="matrix(0.707107 0.707107 -0.474641 0.88018 462.069 -294.888)" fill="black"/>
<rect width="0.975517" height="1216.28" transform="matrix(0.707107 0.707107 -0.474641 0.88018 442.361 -314.596)" fill="black"/>
<rect width="0.975517" height="1216.28" transform="matrix(0.707107 0.707107 -0.474641 0.88018 466.013 -290.945)" fill="black"/>
<rect width="0.975517" height="1216.28" transform="matrix(0.707107 0.707107 -0.474641 0.88018 469.954 -287.004)" fill="black"/>
<rect width="0.975517" height="1216.28" transform="matrix(0.707107 0.707107 -0.474641 0.88018 493.604 -263.354)" fill="black"/>
<rect width="0.975517" height="1216.28" transform="matrix(0.707107 0.707107 -0.474641 0.88018 473.895 -283.062)" fill="black"/>
<rect width="0.975517" height="1216.28" transform="matrix(0.707107 0.707107 -0.474641 0.88018 497.545 -259.412)" fill="black"/>
<rect width="0.975517" height="1216.28" transform="matrix(0.707107 0.707107 -0.474641 0.88018 477.836 -279.121)" fill="black"/>
<rect width="0.975517" height="1216.28" transform="matrix(0.707107 0.707107 -0.474641 0.88018 501.488 -255.47)" fill="black"/>
<rect width="0.975517" height="1216.28" transform="matrix(0.707107 0.707107 -0.474641 0.88018 481.778 -275.179)" fill="black"/>
<rect width="0.975517" height="1216.28" transform="matrix(0.707107 0.707107 -0.474641 0.88018 505.429 -251.529)" fill="black"/>
<rect width="0.975517" height="1216.28" transform="matrix(0.707107 0.707107 -0.474641 0.88018 485.721 -271.237)" fill="black"/>
<rect width="0.975517" height="1216.28" transform="matrix(0.707107 0.707107 -0.474641 0.88018 509.371 -247.587)" fill="black"/>
<rect width="0.975517" height="1216.28" transform="matrix(0.707107 0.707107 -0.474641 0.88018 489.662 -267.296)" fill="black"/>
<rect width="0.975517" height="1216.28" transform="matrix(0.707107 0.707107 -0.474641 0.88018 513.312 -243.646)" fill="black"/>
<rect width="0.975517" height="1216.28" transform="matrix(0.707107 0.707107 -0.474641 0.88018 517.253 -239.704)" fill="black"/>
<rect width="0.975517" height="1216.28" transform="matrix(0.707107 0.707107 -0.474641 0.88018 540.905 -216.054)" fill="black"/>
<rect width="0.975517" height="1216.28" transform="matrix(0.707107 0.707107 -0.474641 0.88018 521.197 -235.762)" fill="black"/>
<rect width="0.975517" height="1216.28" transform="matrix(0.707107 0.707107 -0.474641 0.88018 544.846 -212.112)" fill="black"/>
<rect width="0.975517" height="1216.28" transform="matrix(0.707107 0.707107 -0.474641 0.88018 525.138 -231.82)" fill="black"/>
<rect width="0.975517" height="1216.28" transform="matrix(0.707107 0.707107 -0.474641 0.88018 548.787 -208.171)" fill="black"/>
<rect width="0.975517" height="1216.28" transform="matrix(0.707107 0.707107 -0.474641 0.88018 529.079 -227.879)" fill="black"/>
<rect width="0.975517" height="1216.28" transform="matrix(0.707107 0.707107 -0.474641 0.88018 552.728 -204.229)" fill="black"/>
<rect width="0.975517" height="1216.28" transform="matrix(0.707107 0.707107 -0.474641 0.88018 533.02 -223.937)" fill="black"/>
<rect width="0.975517" height="1216.28" transform="matrix(0.707107 0.707107 -0.474641 0.88018 556.672 -200.287)" fill="black"/>
<rect width="0.975517" height="1216.28" transform="matrix(0.707107 0.707107 -0.474641 0.88018 536.961 -219.996)" fill="black"/>
<rect width="0.975517" height="1216.28" transform="matrix(0.707107 0.707107 -0.474641 0.88018 560.613 -196.345)" fill="black"/>
<rect width="0.975517" height="1216.28" transform="matrix(0.707107 0.707107 -0.474641 0.88018 564.554 -192.404)" fill="black"/>
<rect width="0.975517" height="1216.28" transform="matrix(0.707107 0.707107 -0.474641 0.88018 588.204 -168.754)" fill="black"/>
<rect width="0.975517" height="1216.28" transform="matrix(0.707107 0.707107 -0.474641 0.88018 568.495 -188.462)" fill="black"/>
<rect width="0.975517" height="1216.28" transform="matrix(0.707107 0.707107 -0.474641 0.88018 592.145 -164.812)" fill="black"/>
<rect width="0.975517" height="1216.28" transform="matrix(0.707107 0.707107 -0.474641 0.88018 572.436 -184.52)" fill="black"/>
<rect width="0.975517" height="1216.28" transform="matrix(0.707107 0.707107 -0.474641 0.88018 596.088 -160.87)" fill="black"/>
<rect width="0.975517" height="1216.28" transform="matrix(0.707107 0.707107 -0.474641 0.88018 576.38 -180.578)" fill="black"/>
<rect width="0.975517" height="1216.28" transform="matrix(0.707107 0.707107 -0.474641 0.88018 600.029 -156.928)" fill="black"/>
<rect width="0.975517" height="1216.28" transform="matrix(0.707107 0.707107 -0.474641 0.88018 580.321 -176.637)" fill="black"/>
<rect width="0.975517" height="1216.28" transform="matrix(0.707107 0.707107 -0.474641 0.88018 603.971 -152.987)" fill="black"/>
<rect width="0.975517" height="1216.28" transform="matrix(0.707107 0.707107 -0.474641 0.88018 584.262 -172.695)" fill="black"/>
<rect width="0.975517" height="1216.28" transform="matrix(0.707107 0.707107 -0.474641 0.88018 607.912 -149.045)" fill="black"/>
<rect width="0.975517" height="1216.28" transform="matrix(0.707107 0.707107 -0.474641 0.88018 611.855 -145.103)" fill="black"/>
<rect width="0.975517" height="1216.28" transform="matrix(0.707107 0.707107 -0.474641 0.88018 635.505 -121.453)" fill="black"/>
<rect width="0.975517" height="1216.28" transform="matrix(0.707107 0.707107 -0.474641 0.88018 615.797 -141.162)" fill="black"/>
<rect width="0.975517" height="1216.28" transform="matrix(0.707107 0.707107 -0.474641 0.88018 639.446 -117.512)" fill="black"/>
<rect width="0.975517" height="1216.28" transform="matrix(0.707107 0.707107 -0.474641 0.88018 619.738 -137.22)" fill="black"/>
<rect width="0.975517" height="1216.28" transform="matrix(0.707107 0.707107 -0.474641 0.88018 643.387 -113.57)" fill="black"/>
<rect width="0.975517" height="1216.28" transform="matrix(0.707107 0.707107 -0.474641 0.88018 623.679 -133.278)" fill="black"/>
<rect width="0.975517" height="1216.28" transform="matrix(0.707107 0.707107 -0.474641 0.88018 647.331 -109.628)" fill="black"/>
<rect width="0.975517" height="1216.28" transform="matrix(0.707107 0.707107 -0.474641 0.88018 627.62 -129.337)" fill="black"/>
<rect width="0.975517" height="1216.28" transform="matrix(0.707107 0.707107 -0.474641 0.88018 651.272 -105.686)" fill="black"/>
<rect width="0.975517" height="1216.28" transform="matrix(0.707107 0.707107 -0.474641 0.88018 631.564 -125.395)" fill="black"/>
<rect width="0.975517" height="1216.28" transform="matrix(0.707107 0.707107 -0.474641 0.88018 655.213 -101.745)" fill="black"/>
<rect width="0.975517" height="1216.28" transform="matrix(0.707107 0.707107 -0.474641 0.88018 659.154 -97.8032)" fill="black"/>
<rect width="0.975517" height="1216.28" transform="matrix(0.707107 0.707107 -0.474641 0.88018 682.804 -74.1534)" fill="black"/>
<rect width="0.975517" height="1216.28" transform="matrix(0.707107 0.707107 -0.474641 0.88018 663.095 -93.8618)" fill="black"/>
<rect width="0.975517" height="1216.28" transform="matrix(0.707107 0.707107 -0.474641 0.88018 686.747 -70.2112)" fill="black"/>
<rect width="0.975517" height="1216.28" transform="matrix(0.707107 0.707107 -0.474641 0.88018 667.039 -89.9196)" fill="black"/>
<rect width="0.975517" height="1216.28" transform="matrix(0.707107 0.707107 -0.474641 0.88018 670.98 -85.9781)" fill="black"/>
<rect width="0.975517" height="1216.28" transform="matrix(0.707107 0.707107 -0.474641 0.88018 674.921 -82.0367)" fill="black"/>
<rect width="0.975517" height="1216.28" transform="matrix(0.707107 0.707107 -0.474641 0.88018 678.862 -78.0951)" fill="black"/>
</g>
</g>
</svg>
