<svg width="74" height="61" viewBox="0 0 74 61" fill="none" xmlns="http://www.w3.org/2000/svg">
<path d="M1 55.8217C7.92387 43.6872 21.59 33.2596 31.8267 24.0952C38.218 18.3734 44.7163 12.7666 51.3467 7.32396C53.7174 5.37785 60.0111 -1.063 58.6 1.66233C50.7609 16.8029 38.6273 29.8603 33.64 46.4213C32.9434 48.7345 29.3408 56.3783 33.1067 52.5102C39.3705 46.0763 45.9288 39.9936 53 34.4571C53.3808 34.1589 59.56 28.7757 59.56 29.8637C59.56 38.2345 53.2993 46.624 51.1333 54.433C50.6381 56.2186 58.8036 49.7909 60.1467 48.8782C60.3287 48.7545 63.9001 46.1222 63.9333 46.4213C64.2709 49.4638 60.5584 57.6567 62.6533 59.9878C62.9989 60.3723 73 51.5177 73 52.9375" stroke="#B8E6CD" stroke-width="2" stroke-linecap="round"/>
</svg>
