<svg width="47" height="48" viewBox="0 0 47 48" fill="none" xmlns="http://www.w3.org/2000/svg">
<g opacity="0.3">
<mask id="mask0_519_8322" style="mask-type:alpha" maskUnits="userSpaceOnUse" x="0" y="-1" width="47" height="49">
<rect y="-0.00012207" width="47" height="48" fill="#C4C4C4"/>
</mask>
<g mask="url(#mask0_519_8322)">
<rect width="0.514073" height="640.946" transform="matrix(0.707107 0.707107 -0.474641 0.88018 10.1116 -94.4222)" fill="black"/>
<rect width="0.514073" height="640.946" transform="matrix(0.707107 0.707107 -0.474641 0.88018 -0.273682 -104.808)" fill="black"/>
<rect width="0.514073" height="640.946" transform="matrix(0.707107 0.707107 -0.474641 0.88018 12.1895 -92.3448)" fill="black"/>
<rect width="0.514073" height="640.946" transform="matrix(0.707107 0.707107 -0.474641 0.88018 1.8042 -102.731)" fill="black"/>
<rect width="0.514073" height="640.946" transform="matrix(0.707107 0.707107 -0.474641 0.88018 14.2668 -90.2678)" fill="black"/>
<rect width="0.514073" height="640.946" transform="matrix(0.707107 0.707107 -0.474641 0.88018 3.88086 -100.654)" fill="black"/>
<rect width="0.514073" height="640.946" transform="matrix(0.707107 0.707107 -0.474641 0.88018 16.3433 -88.1907)" fill="black"/>
<rect width="0.514073" height="640.946" transform="matrix(0.707107 0.707107 -0.474641 0.88018 5.95776 -98.5764)" fill="black"/>
<rect width="0.514073" height="640.946" transform="matrix(0.707107 0.707107 -0.474641 0.88018 18.4204 -86.1135)" fill="black"/>
<rect width="0.514073" height="640.946" transform="matrix(0.707107 0.707107 -0.474641 0.88018 8.03467 -96.4993)" fill="black"/>
<rect width="0.514073" height="640.946" transform="matrix(0.707107 0.707107 -0.474641 0.88018 20.4988 -84.0359)" fill="black"/>
<rect width="0.514073" height="640.946" transform="matrix(0.707107 0.707107 -0.474641 0.88018 22.5757 -81.959)" fill="black"/>
<rect width="0.514073" height="640.946" transform="matrix(0.707107 0.707107 -0.474641 0.88018 35.0378 -69.496)" fill="black"/>
<rect width="0.514073" height="640.946" transform="matrix(0.707107 0.707107 -0.474641 0.88018 24.6523 -79.8818)" fill="black"/>
<rect width="0.514073" height="640.946" transform="matrix(0.707107 0.707107 -0.474641 0.88018 37.1147 -67.419)" fill="black"/>
<rect width="0.514073" height="640.946" transform="matrix(0.707107 0.707107 -0.474641 0.88018 26.729 -77.8047)" fill="black"/>
<rect width="0.514073" height="640.946" transform="matrix(0.707107 0.707107 -0.474641 0.88018 39.1929 -65.3416)" fill="black"/>
<rect width="0.514073" height="640.946" transform="matrix(0.707107 0.707107 -0.474641 0.88018 28.8064 -75.7277)" fill="black"/>
<rect width="0.514073" height="640.946" transform="matrix(0.707107 0.707107 -0.474641 0.88018 41.27 -63.2644)" fill="black"/>
<rect width="0.514073" height="640.946" transform="matrix(0.707107 0.707107 -0.474641 0.88018 30.8845 -73.6503)" fill="black"/>
<rect width="0.514073" height="640.946" transform="matrix(0.707107 0.707107 -0.474641 0.88018 43.3469 -61.1875)" fill="black"/>
<rect width="0.514073" height="640.946" transform="matrix(0.707107 0.707107 -0.474641 0.88018 32.9612 -71.5732)" fill="black"/>
<rect width="0.514073" height="640.946" transform="matrix(0.707107 0.707107 -0.474641 0.88018 45.4238 -59.1103)" fill="black"/>
<rect width="0.514073" height="640.946" transform="matrix(0.707107 0.707107 -0.474641 0.88018 47.5005 -57.0333)" fill="black"/>
<rect width="0.514073" height="640.946" transform="matrix(0.707107 0.707107 -0.474641 0.88018 59.9648 -44.57)" fill="black"/>
<rect width="0.514073" height="640.946" transform="matrix(0.707107 0.707107 -0.474641 0.88018 49.5789 -54.9557)" fill="black"/>
<rect width="0.514073" height="640.946" transform="matrix(0.707107 0.707107 -0.474641 0.88018 62.0417 -42.493)" fill="black"/>
<rect width="0.514073" height="640.946" transform="matrix(0.707107 0.707107 -0.474641 0.88018 51.6558 -52.8785)" fill="black"/>
<rect width="0.514073" height="640.946" transform="matrix(0.707107 0.707107 -0.474641 0.88018 64.1179 -40.4158)" fill="black"/>
<rect width="0.514073" height="640.946" transform="matrix(0.707107 0.707107 -0.474641 0.88018 53.7327 -50.8015)" fill="black"/>
<rect width="0.514073" height="640.946" transform="matrix(0.707107 0.707107 -0.474641 0.88018 66.1951 -38.3389)" fill="black"/>
<rect width="0.514073" height="640.946" transform="matrix(0.707107 0.707107 -0.474641 0.88018 55.8096 -48.7245)" fill="black"/>
<rect width="0.514073" height="640.946" transform="matrix(0.707107 0.707107 -0.474641 0.88018 68.2737 -36.2612)" fill="black"/>
<rect width="0.514073" height="640.946" transform="matrix(0.707107 0.707107 -0.474641 0.88018 57.8862 -46.6474)" fill="black"/>
<rect width="0.514073" height="640.946" transform="matrix(0.707107 0.707107 -0.474641 0.88018 70.3503 -34.1841)" fill="black"/>
<rect width="0.514073" height="640.946" transform="matrix(0.707107 0.707107 -0.474641 0.88018 72.427 -32.1071)" fill="black"/>
<rect width="0.514073" height="640.946" transform="matrix(0.707107 0.707107 -0.474641 0.88018 84.8894 -19.6442)" fill="black"/>
<rect width="0.514073" height="640.946" transform="matrix(0.707107 0.707107 -0.474641 0.88018 74.5039 -30.03)" fill="black"/>
<rect width="0.514073" height="640.946" transform="matrix(0.707107 0.707107 -0.474641 0.88018 86.9668 -17.5671)" fill="black"/>
<rect width="0.514073" height="640.946" transform="matrix(0.707107 0.707107 -0.474641 0.88018 76.5808 -27.9528)" fill="black"/>
<rect width="0.514073" height="640.946" transform="matrix(0.707107 0.707107 -0.474641 0.88018 89.0449 -15.4896)" fill="black"/>
<rect width="0.514073" height="640.946" transform="matrix(0.707107 0.707107 -0.474641 0.88018 78.6592 -25.8755)" fill="black"/>
<rect width="0.514073" height="640.946" transform="matrix(0.707107 0.707107 -0.474641 0.88018 91.1218 -13.4125)" fill="black"/>
<rect width="0.514073" height="640.946" transform="matrix(0.707107 0.707107 -0.474641 0.88018 80.7358 -23.7983)" fill="black"/>
<rect width="0.514073" height="640.946" transform="matrix(0.707107 0.707107 -0.474641 0.88018 93.1985 -11.3354)" fill="black"/>
<rect width="0.514073" height="640.946" transform="matrix(0.707107 0.707107 -0.474641 0.88018 82.813 -21.7214)" fill="black"/>
<rect width="0.514073" height="640.946" transform="matrix(0.707107 0.707107 -0.474641 0.88018 95.2751 -9.25824)" fill="black"/>
<rect width="0.514073" height="640.946" transform="matrix(0.707107 0.707107 -0.474641 0.88018 97.3533 -7.18091)" fill="black"/>
<rect width="0.514073" height="640.946" transform="matrix(0.707107 0.707107 -0.474641 0.88018 109.816 5.28186)" fill="black"/>
<rect width="0.514073" height="640.946" transform="matrix(0.707107 0.707107 -0.474641 0.88018 99.4307 -5.10382)" fill="black"/>
<rect width="0.514073" height="640.946" transform="matrix(0.707107 0.707107 -0.474641 0.88018 111.893 7.35901)" fill="black"/>
<rect width="0.514073" height="640.946" transform="matrix(0.707107 0.707107 -0.474641 0.88018 101.507 -3.02673)" fill="black"/>
<rect width="0.514073" height="640.946" transform="matrix(0.707107 0.707107 -0.474641 0.88018 113.97 9.43616)" fill="black"/>
<rect width="0.514073" height="640.946" transform="matrix(0.707107 0.707107 -0.474641 0.88018 103.585 -0.949585)" fill="black"/>
<rect width="0.514073" height="640.946" transform="matrix(0.707107 0.707107 -0.474641 0.88018 116.048 11.5135)" fill="black"/>
<rect width="0.514073" height="640.946" transform="matrix(0.707107 0.707107 -0.474641 0.88018 105.661 1.12744)" fill="black"/>
<rect width="0.514073" height="640.946" transform="matrix(0.707107 0.707107 -0.474641 0.88018 118.125 13.5907)" fill="black"/>
<rect width="0.514073" height="640.946" transform="matrix(0.707107 0.707107 -0.474641 0.88018 107.74 3.20465)" fill="black"/>
<rect width="0.514073" height="640.946" transform="matrix(0.707107 0.707107 -0.474641 0.88018 120.202 15.6677)" fill="black"/>
<rect width="0.514073" height="640.946" transform="matrix(0.707107 0.707107 -0.474641 0.88018 122.279 17.7449)" fill="black"/>
<rect width="0.514073" height="640.946" transform="matrix(0.707107 0.707107 -0.474641 0.88018 134.741 30.2079)" fill="black"/>
<rect width="0.514073" height="640.946" transform="matrix(0.707107 0.707107 -0.474641 0.88018 124.355 19.822)" fill="black"/>
<rect width="0.514073" height="640.946" transform="matrix(0.707107 0.707107 -0.474641 0.88018 136.82 32.2853)" fill="black"/>
<rect width="0.514073" height="640.946" transform="matrix(0.707107 0.707107 -0.474641 0.88018 126.434 21.8994)" fill="black"/>
<rect width="0.514073" height="640.946" transform="matrix(0.707107 0.707107 -0.474641 0.88018 138.896 34.3624)" fill="black"/>
<rect width="0.514073" height="640.946" transform="matrix(0.707107 0.707107 -0.474641 0.88018 128.511 23.9764)" fill="black"/>
<rect width="0.514073" height="640.946" transform="matrix(0.707107 0.707107 -0.474641 0.88018 140.973 36.4395)" fill="black"/>
<rect width="0.514073" height="640.946" transform="matrix(0.707107 0.707107 -0.474641 0.88018 130.588 26.0535)" fill="black"/>
<rect width="0.514073" height="640.946" transform="matrix(0.707107 0.707107 -0.474641 0.88018 143.051 38.5166)" fill="black"/>
<rect width="0.514073" height="640.946" transform="matrix(0.707107 0.707107 -0.474641 0.88018 132.664 28.1306)" fill="black"/>
<rect width="0.514073" height="640.946" transform="matrix(0.707107 0.707107 -0.474641 0.88018 145.129 40.5939)" fill="black"/>
</g>
</g>
</svg>
