<svg width="44" height="49" viewBox="0 0 44 49" fill="none" xmlns="http://www.w3.org/2000/svg">
<path d="M1 33.9485C6.53212 28.1252 11.9098 22.163 17.8889 16.7818C22.3178 12.7958 27.0674 9.27958 32 5.94847C33.3694 5.02369 38.2661 0.852404 40.3889 1.00403C40.7657 1.03095 34.4001 12.7401 33.9444 13.504C30.8151 18.7502 27.0187 23.6149 24.0556 28.9485C22.1698 32.3428 18.3365 43.3428 20.2222 39.9485C21.855 37.0094 24.6596 34.7897 27.2222 32.7263C30.061 30.4405 33.278 26.1677 36.5556 24.6151C37.4718 24.1812 36.4908 28.3385 36.4444 28.504C35.613 31.4734 35.1036 34.3751 34.5 37.3929C33.0385 44.7004 34.5754 43.0915 38.9444 38.504C46.8673 30.185 37.6813 49.6078 43 46.9485" stroke="#B8E6CD" stroke-width="2" stroke-linecap="round"/>
</svg>
