<svg width="77" height="77" viewBox="0 0 77 77" fill="none" xmlns="http://www.w3.org/2000/svg">
<g opacity="0.3">
<mask id="mask0_519_5748" style="mask-type:alpha" maskUnits="userSpaceOnUse" x="0" y="0" width="77" height="77">
<rect width="77" height="77" fill="#EBEBEB"/>
</mask>
<g mask="url(#mask0_519_5748)">
<rect width="0.623464" height="758.824" transform="matrix(0.736768 0.676146 -0.506615 0.862172 1.57178 -295.745)" fill="black"/>
<rect width="0.623464" height="758.824" transform="matrix(0.736768 0.676146 -0.506615 0.862172 4.19788 -293.335)" fill="black"/>
<rect width="0.623464" height="758.824" transform="matrix(0.736768 0.676146 -0.506615 0.862172 6.82227 -290.927)" fill="black"/>
<rect width="0.623464" height="758.824" transform="matrix(0.736768 0.676146 -0.506615 0.862172 9.44678 -288.518)" fill="black"/>
<rect width="0.623464" height="758.824" transform="matrix(0.736768 0.676146 -0.506615 0.862172 12.0714 -286.109)" fill="black"/>
<rect width="0.623464" height="758.824" transform="matrix(0.736768 0.676146 -0.506615 0.862172 14.6975 -283.7)" fill="black"/>
<rect width="0.623464" height="758.824" transform="matrix(0.736768 0.676146 -0.506615 0.862172 30.4459 -269.247)" fill="black"/>
<rect width="0.623464" height="758.824" transform="matrix(0.736768 0.676146 -0.506615 0.862172 17.322 -281.291)" fill="black"/>
<rect width="0.623464" height="758.824" transform="matrix(0.736768 0.676146 -0.506615 0.862172 33.0707 -266.838)" fill="black"/>
<rect width="0.623464" height="758.824" transform="matrix(0.736768 0.676146 -0.506615 0.862172 19.9464 -278.882)" fill="black"/>
<rect width="0.623464" height="758.824" transform="matrix(0.736768 0.676146 -0.506615 0.862172 35.6951 -264.429)" fill="black"/>
<rect width="0.623464" height="758.824" transform="matrix(0.736768 0.676146 -0.506615 0.862172 22.571 -276.474)" fill="black"/>
<rect width="0.623464" height="758.824" transform="matrix(0.736768 0.676146 -0.506615 0.862172 38.3197 -262.021)" fill="black"/>
<rect width="0.623464" height="758.824" transform="matrix(0.736768 0.676146 -0.506615 0.862172 25.1956 -274.065)" fill="black"/>
<rect width="0.623464" height="758.824" transform="matrix(0.736768 0.676146 -0.506615 0.862172 40.9458 -259.612)" fill="black"/>
<rect width="0.623464" height="758.824" transform="matrix(0.736768 0.676146 -0.506615 0.862172 27.8215 -271.656)" fill="black"/>
<rect width="0.623464" height="758.824" transform="matrix(0.736768 0.676146 -0.506615 0.862172 43.5702 -257.203)" fill="black"/>
<rect width="0.623464" height="758.824" transform="matrix(0.736768 0.676146 -0.506615 0.862172 46.1947 -254.794)" fill="black"/>
<rect width="0.623464" height="758.824" transform="matrix(0.736768 0.676146 -0.506615 0.862172 61.9434 -240.341)" fill="black"/>
<rect width="0.623464" height="758.824" transform="matrix(0.736768 0.676146 -0.506615 0.862172 48.8192 -252.385)" fill="black"/>
<rect width="0.623464" height="758.824" transform="matrix(0.736768 0.676146 -0.506615 0.862172 64.5695 -237.932)" fill="black"/>
<rect width="0.623464" height="758.824" transform="matrix(0.736768 0.676146 -0.506615 0.862172 51.4453 -249.976)" fill="black"/>
<rect width="0.623464" height="758.824" transform="matrix(0.736768 0.676146 -0.506615 0.862172 67.194 -235.522)" fill="black"/>
<rect width="0.623464" height="758.824" transform="matrix(0.736768 0.676146 -0.506615 0.862172 54.0699 -247.567)" fill="black"/>
<rect width="0.623464" height="758.824" transform="matrix(0.736768 0.676146 -0.506615 0.862172 69.8185 -233.114)" fill="black"/>
<rect width="0.623464" height="758.824" transform="matrix(0.736768 0.676146 -0.506615 0.862172 56.6943 -245.158)" fill="black"/>
<rect width="0.623464" height="758.824" transform="matrix(0.736768 0.676146 -0.506615 0.862172 72.4429 -230.705)" fill="black"/>
<rect width="0.623464" height="758.824" transform="matrix(0.736768 0.676146 -0.506615 0.862172 59.3187 -242.75)" fill="black"/>
<rect width="0.623464" height="758.824" transform="matrix(0.736768 0.676146 -0.506615 0.862172 75.069 -228.296)" fill="black"/>
<rect width="0.623464" height="758.824" transform="matrix(0.736768 0.676146 -0.506615 0.862172 77.6935 -225.887)" fill="black"/>
<rect width="0.623464" height="758.824" transform="matrix(0.736768 0.676146 -0.506615 0.862172 93.4421 -211.434)" fill="black"/>
<rect width="0.623464" height="758.824" transform="matrix(0.736768 0.676146 -0.506615 0.862172 80.3179 -223.479)" fill="black"/>
<rect width="0.623464" height="758.824" transform="matrix(0.736768 0.676146 -0.506615 0.862172 96.0667 -209.025)" fill="black"/>
<rect width="0.623464" height="758.824" transform="matrix(0.736768 0.676146 -0.506615 0.862172 82.9425 -221.07)" fill="black"/>
<rect width="0.623464" height="758.824" transform="matrix(0.736768 0.676146 -0.506615 0.862172 98.6912 -206.617)" fill="black"/>
<rect width="0.623464" height="758.824" transform="matrix(0.736768 0.676146 -0.506615 0.862172 85.567 -218.661)" fill="black"/>
<rect width="0.623464" height="758.824" transform="matrix(0.736768 0.676146 -0.506615 0.862172 101.317 -204.207)" fill="black"/>
<rect width="0.623464" height="758.824" transform="matrix(0.736768 0.676146 -0.506615 0.862172 88.193 -216.251)" fill="black"/>
<rect width="0.623464" height="758.824" transform="matrix(0.736768 0.676146 -0.506615 0.862172 103.942 -201.799)" fill="black"/>
<rect width="0.623464" height="758.824" transform="matrix(0.736768 0.676146 -0.506615 0.862172 90.8177 -213.843)" fill="black"/>
<rect width="0.623464" height="758.824" transform="matrix(0.736768 0.676146 -0.506615 0.862172 106.566 -199.39)" fill="black"/>
<rect width="0.623464" height="758.824" transform="matrix(0.736768 0.676146 -0.506615 0.862172 109.191 -196.981)" fill="black"/>
<rect width="0.623464" height="758.824" transform="matrix(0.736768 0.676146 -0.506615 0.862172 124.941 -182.527)" fill="black"/>
<rect width="0.623464" height="758.824" transform="matrix(0.736768 0.676146 -0.506615 0.862172 111.817 -194.572)" fill="black"/>
<rect width="0.623464" height="758.824" transform="matrix(0.736768 0.676146 -0.506615 0.862172 127.566 -180.119)" fill="black"/>
<rect width="0.623464" height="758.824" transform="matrix(0.736768 0.676146 -0.506615 0.862172 114.441 -192.163)" fill="black"/>
<rect width="0.623464" height="758.824" transform="matrix(0.736768 0.676146 -0.506615 0.862172 130.19 -177.71)" fill="black"/>
<rect width="0.623464" height="758.824" transform="matrix(0.736768 0.676146 -0.506615 0.862172 117.066 -189.754)" fill="black"/>
<rect width="0.623464" height="758.824" transform="matrix(0.736768 0.676146 -0.506615 0.862172 132.814 -175.301)" fill="black"/>
<rect width="0.623464" height="758.824" transform="matrix(0.736768 0.676146 -0.506615 0.862172 119.691 -187.345)" fill="black"/>
<rect width="0.623464" height="758.824" transform="matrix(0.736768 0.676146 -0.506615 0.862172 135.439 -172.892)" fill="black"/>
<rect width="0.623464" height="758.824" transform="matrix(0.736768 0.676146 -0.506615 0.862172 122.315 -184.937)" fill="black"/>
<rect width="0.623464" height="758.824" transform="matrix(0.736768 0.676146 -0.506615 0.862172 138.065 -170.483)" fill="black"/>
<rect width="0.623464" height="758.824" transform="matrix(0.736768 0.676146 -0.506615 0.862172 140.69 -168.075)" fill="black"/>
<rect width="0.623464" height="758.824" transform="matrix(0.736768 0.676146 -0.506615 0.862172 156.438 -153.621)" fill="black"/>
<rect width="0.623464" height="758.824" transform="matrix(0.736768 0.676146 -0.506615 0.862172 143.314 -165.666)" fill="black"/>
<rect width="0.623464" height="758.824" transform="matrix(0.736768 0.676146 -0.506615 0.862172 159.063 -151.213)" fill="black"/>
<rect width="0.623464" height="758.824" transform="matrix(0.736768 0.676146 -0.506615 0.862172 145.939 -163.257)" fill="black"/>
<rect width="0.623464" height="758.824" transform="matrix(0.736768 0.676146 -0.506615 0.862172 161.689 -148.804)" fill="black"/>
<rect width="0.623464" height="758.824" transform="matrix(0.736768 0.676146 -0.506615 0.862172 148.565 -160.847)" fill="black"/>
<rect width="0.623464" height="758.824" transform="matrix(0.736768 0.676146 -0.506615 0.862172 164.313 -146.395)" fill="black"/>
<rect width="0.623464" height="758.824" transform="matrix(0.736768 0.676146 -0.506615 0.862172 151.189 -158.438)" fill="black"/>
<rect width="0.623464" height="758.824" transform="matrix(0.736768 0.676146 -0.506615 0.862172 166.938 -143.985)" fill="black"/>
<rect width="0.623464" height="758.824" transform="matrix(0.736768 0.676146 -0.506615 0.862172 153.814 -156.03)" fill="black"/>
<rect width="0.623464" height="758.824" transform="matrix(0.736768 0.676146 -0.506615 0.862172 169.562 -141.577)" fill="black"/>
<rect width="0.623464" height="758.824" transform="matrix(0.736768 0.676146 -0.506615 0.862172 172.188 -139.167)" fill="black"/>
<rect width="0.623464" height="758.824" transform="matrix(0.736768 0.676146 -0.506615 0.862172 187.937 -124.714)" fill="black"/>
<rect width="0.623464" height="758.824" transform="matrix(0.736768 0.676146 -0.506615 0.862172 174.813 -136.759)" fill="black"/>
<rect width="0.623464" height="758.824" transform="matrix(0.736768 0.676146 -0.506615 0.862172 190.562 -122.306)" fill="black"/>
<rect width="0.623464" height="758.824" transform="matrix(0.736768 0.676146 -0.506615 0.862172 177.438 -134.351)" fill="black"/>
<rect width="0.623464" height="758.824" transform="matrix(0.736768 0.676146 -0.506615 0.862172 193.186 -119.897)" fill="black"/>
<rect width="0.623464" height="758.824" transform="matrix(0.736768 0.676146 -0.506615 0.862172 180.062 -131.941)" fill="black"/>
<rect width="0.623464" height="758.824" transform="matrix(0.736768 0.676146 -0.506615 0.862172 195.811 -117.488)" fill="black"/>
<rect width="0.623464" height="758.824" transform="matrix(0.736768 0.676146 -0.506615 0.862172 182.686 -129.533)" fill="black"/>
<rect width="0.623464" height="758.824" transform="matrix(0.736768 0.676146 -0.506615 0.862172 198.437 -115.079)" fill="black"/>
<rect width="0.623464" height="758.824" transform="matrix(0.736768 0.676146 -0.506615 0.862172 185.312 -127.123)" fill="black"/>
<rect width="0.623464" height="758.824" transform="matrix(0.736768 0.676146 -0.506615 0.862172 201.061 -112.67)" fill="black"/>
<rect width="0.623464" height="758.824" transform="matrix(0.736768 0.676146 -0.506615 0.862172 203.686 -110.261)" fill="black"/>
<rect width="0.623464" height="758.824" transform="matrix(0.736768 0.676146 -0.506615 0.862172 219.434 -95.8086)" fill="black"/>
<rect width="0.623464" height="758.824" transform="matrix(0.736768 0.676146 -0.506615 0.862172 206.31 -107.853)" fill="black"/>
<rect width="0.623464" height="758.824" transform="matrix(0.736768 0.676146 -0.506615 0.862172 222.06 -93.3994)" fill="black"/>
<rect width="0.623464" height="758.824" transform="matrix(0.736768 0.676146 -0.506615 0.862172 208.936 -105.443)" fill="black"/>
<rect width="0.623464" height="758.824" transform="matrix(0.736768 0.676146 -0.506615 0.862172 224.685 -90.9907)" fill="black"/>
<rect width="0.623464" height="758.824" transform="matrix(0.736768 0.676146 -0.506615 0.862172 211.561 -103.035)" fill="black"/>
<rect width="0.623464" height="758.824" transform="matrix(0.736768 0.676146 -0.506615 0.862172 227.31 -88.5815)" fill="black"/>
<rect width="0.623464" height="758.824" transform="matrix(0.736768 0.676146 -0.506615 0.862172 214.185 -100.625)" fill="black"/>
<rect width="0.623464" height="758.824" transform="matrix(0.736768 0.676146 -0.506615 0.862172 229.934 -86.1729)" fill="black"/>
<rect width="0.623464" height="758.824" transform="matrix(0.736768 0.676146 -0.506615 0.862172 216.81 -98.2173)" fill="black"/>
<rect width="0.623464" height="758.824" transform="matrix(0.736768 0.676146 -0.506615 0.862172 232.558 -83.7642)" fill="black"/>
<rect width="0.623464" height="758.824" transform="matrix(0.736768 0.676146 -0.506615 0.862172 234.843 -81.668)" fill="black"/>
<rect width="0.623464" height="758.824" transform="matrix(0.736768 0.676146 -0.506615 0.862172 250.592 -67.2148)" fill="black"/>
<rect width="0.623464" height="758.824" transform="matrix(0.736768 0.676146 -0.506615 0.862172 237.468 -79.2593)" fill="black"/>
<rect width="0.623464" height="758.824" transform="matrix(0.736768 0.676146 -0.506615 0.862172 253.218 -64.8052)" fill="black"/>
<rect width="0.623464" height="758.824" transform="matrix(0.736768 0.676146 -0.506615 0.862172 240.092 -76.8506)" fill="black"/>
<rect width="0.623464" height="758.824" transform="matrix(0.736768 0.676146 -0.506615 0.862172 255.843 -62.397)" fill="black"/>
<rect width="0.623464" height="758.824" transform="matrix(0.736768 0.676146 -0.506615 0.862172 242.719 -74.4409)" fill="black"/>
<rect width="0.623464" height="758.824" transform="matrix(0.736768 0.676146 -0.506615 0.862172 258.467 -59.9878)" fill="black"/>
<rect width="0.623464" height="758.824" transform="matrix(0.736768 0.676146 -0.506615 0.862172 245.343 -72.0322)" fill="black"/>
<rect width="0.623464" height="758.824" transform="matrix(0.736768 0.676146 -0.506615 0.862172 261.092 -57.5791)" fill="black"/>
<rect width="0.623464" height="758.824" transform="matrix(0.736768 0.676146 -0.506615 0.862172 247.967 -69.6235)" fill="black"/>
<rect width="0.623464" height="758.824" transform="matrix(0.736768 0.676146 -0.506615 0.862172 263.716 -55.1704)" fill="black"/>
<rect width="0.623464" height="758.824" transform="matrix(0.736768 0.676146 -0.506615 0.862172 266.342 -52.7612)" fill="black"/>
<rect width="0.623464" height="758.824" transform="matrix(0.736768 0.676146 -0.506615 0.862172 282.091 -38.3076)" fill="black"/>
<rect width="0.623464" height="758.824" transform="matrix(0.736768 0.676146 -0.506615 0.862172 268.967 -50.3521)" fill="black"/>
<rect width="0.623464" height="758.824" transform="matrix(0.736768 0.676146 -0.506615 0.862172 284.715 -35.8994)" fill="black"/>
<rect width="0.623464" height="758.824" transform="matrix(0.736768 0.676146 -0.506615 0.862172 271.591 -47.9434)" fill="black"/>
<rect width="0.623464" height="758.824" transform="matrix(0.736768 0.676146 -0.506615 0.862172 287.34 -33.4907)" fill="black"/>
<rect width="0.623464" height="758.824" transform="matrix(0.736768 0.676146 -0.506615 0.862172 274.216 -45.5352)" fill="black"/>
<rect width="0.623464" height="758.824" transform="matrix(0.736768 0.676146 -0.506615 0.862172 289.966 -31.0811)" fill="black"/>
<rect width="0.623464" height="758.824" transform="matrix(0.736768 0.676146 -0.506615 0.862172 276.84 -43.1265)" fill="black"/>
<rect width="0.623464" height="758.824" transform="matrix(0.736768 0.676146 -0.506615 0.862172 292.59 -28.6724)" fill="black"/>
<rect width="0.623464" height="758.824" transform="matrix(0.736768 0.676146 -0.506615 0.862172 279.466 -40.7168)" fill="black"/>
<rect width="0.623464" height="758.824" transform="matrix(0.736768 0.676146 -0.506615 0.862172 295.215 -26.2642)" fill="black"/>
<rect width="0.623464" height="758.824" transform="matrix(0.736768 0.676146 -0.506615 0.862172 297.839 -23.855)" fill="black"/>
<rect width="0.623464" height="758.824" transform="matrix(0.736768 0.676146 -0.506615 0.862172 313.588 -9.40186)" fill="black"/>
<rect width="0.623464" height="758.824" transform="matrix(0.736768 0.676146 -0.506615 0.862172 300.464 -21.4458)" fill="black"/>
<rect width="0.623464" height="758.824" transform="matrix(0.736768 0.676146 -0.506615 0.862172 316.214 -6.99268)" fill="black"/>
<rect width="0.623464" height="758.824" transform="matrix(0.736768 0.676146 -0.506615 0.862172 303.09 -19.0371)" fill="black"/>
<rect width="0.623464" height="758.824" transform="matrix(0.736768 0.676146 -0.506615 0.862172 318.839 -4.58398)" fill="black"/>
<rect width="0.623464" height="758.824" transform="matrix(0.736768 0.676146 -0.506615 0.862172 305.714 -16.6284)" fill="black"/>
<rect width="0.623464" height="758.824" transform="matrix(0.736768 0.676146 -0.506615 0.862172 321.463 -2.17529)" fill="black"/>
<rect width="0.623464" height="758.824" transform="matrix(0.736768 0.676146 -0.506615 0.862172 308.339 -14.2188)" fill="black"/>
<rect width="0.623464" height="758.824" transform="matrix(0.736768 0.676146 -0.506615 0.862172 324.088 0.233398)" fill="black"/>
<rect width="0.623464" height="758.824" transform="matrix(0.736768 0.676146 -0.506615 0.862172 310.964 -11.8105)" fill="black"/>
<rect width="0.623464" height="758.824" transform="matrix(0.736768 0.676146 -0.506615 0.862172 326.714 2.64307)" fill="black"/>
<rect width="0.623464" height="758.824" transform="matrix(0.736768 0.676146 -0.506615 0.862172 329.338 5.05225)" fill="black"/>
<rect width="0.623464" height="758.824" transform="matrix(0.736768 0.676146 -0.506615 0.862172 345.087 19.5049)" fill="black"/>
<rect width="0.623464" height="758.824" transform="matrix(0.736768 0.676146 -0.506615 0.862172 331.963 7.46045)" fill="black"/>
<rect width="0.623464" height="758.824" transform="matrix(0.736768 0.676146 -0.506615 0.862172 347.711 21.9141)" fill="black"/>
<rect width="0.623464" height="758.824" transform="matrix(0.736768 0.676146 -0.506615 0.862172 334.587 9.86963)" fill="black"/>
<rect width="0.623464" height="758.824" transform="matrix(0.736768 0.676146 -0.506615 0.862172 350.337 24.3228)" fill="black"/>
<rect width="0.623464" height="758.824" transform="matrix(0.736768 0.676146 -0.506615 0.862172 337.212 12.2783)" fill="black"/>
<rect width="0.623464" height="758.824" transform="matrix(0.736768 0.676146 -0.506615 0.862172 352.962 26.7319)" fill="black"/>
<rect width="0.623464" height="758.824" transform="matrix(0.736768 0.676146 -0.506615 0.862172 339.838 14.687)" fill="black"/>
<rect width="0.623464" height="758.824" transform="matrix(0.736768 0.676146 -0.506615 0.862172 355.586 29.1401)" fill="black"/>
<rect width="0.623464" height="758.824" transform="matrix(0.736768 0.676146 -0.506615 0.862172 342.462 17.0962)" fill="black"/>
<rect width="0.623464" height="758.824" transform="matrix(0.736768 0.676146 -0.506615 0.862172 358.211 31.5493)" fill="black"/>
<rect width="0.623464" height="758.824" transform="matrix(0.736768 0.676146 -0.506615 0.862172 360.835 33.9575)" fill="black"/>
<rect width="0.623464" height="758.824" transform="matrix(0.736768 0.676146 -0.506615 0.862172 376.586 48.4111)" fill="black"/>
<rect width="0.623464" height="758.824" transform="matrix(0.736768 0.676146 -0.506615 0.862172 363.462 36.3672)" fill="black"/>
<rect width="0.623464" height="758.824" transform="matrix(0.736768 0.676146 -0.506615 0.862172 379.21 50.8198)" fill="black"/>
<rect width="0.623464" height="758.824" transform="matrix(0.736768 0.676146 -0.506615 0.862172 366.086 38.7764)" fill="black"/>
<rect width="0.623464" height="758.824" transform="matrix(0.736768 0.676146 -0.506615 0.862172 381.835 53.229)" fill="black"/>
<rect width="0.623464" height="758.824" transform="matrix(0.736768 0.676146 -0.506615 0.862172 368.711 41.1846)" fill="black"/>
<rect width="0.623464" height="758.824" transform="matrix(0.736768 0.676146 -0.506615 0.862172 384.459 55.6377)" fill="black"/>
<rect width="0.623464" height="758.824" transform="matrix(0.736768 0.676146 -0.506615 0.862172 371.335 43.5938)" fill="black"/>
<rect width="0.623464" height="758.824" transform="matrix(0.736768 0.676146 -0.506615 0.862172 387.085 58.0469)" fill="black"/>
<rect width="0.623464" height="758.824" transform="matrix(0.736768 0.676146 -0.506615 0.862172 373.959 46.0024)" fill="black"/>
<rect width="0.623464" height="758.824" transform="matrix(0.736768 0.676146 -0.506615 0.862172 389.71 60.4561)" fill="black"/>
<rect width="0.623464" height="758.824" transform="matrix(0.736768 0.676146 -0.506615 0.862172 392.334 62.8647)" fill="black"/>
<rect width="0.623464" height="758.824" transform="matrix(0.736768 0.676146 -0.506615 0.862172 394.959 65.2734)" fill="black"/>
<rect width="0.623464" height="758.824" transform="matrix(0.736768 0.676146 -0.506615 0.862172 397.583 67.6821)" fill="black"/>
<rect width="0.623464" height="758.824" transform="matrix(0.736768 0.676146 -0.506615 0.862172 400.209 70.0913)" fill="black"/>
<rect width="0.623464" height="758.824" transform="matrix(0.736768 0.676146 -0.506615 0.862172 402.834 72.5005)" fill="black"/>
<rect width="0.623464" height="758.824" transform="matrix(0.736768 0.676146 -0.506615 0.862172 405.458 74.9092)" fill="black"/>
</g>
</g>
</svg>
