<svg width="30" height="30" viewBox="0 0 30 30" fill="none" xmlns="http://www.w3.org/2000/svg">
<path d="M4.11999 25.7525L12.075 17.7975M22.0925 14.26L19.7112 21.4038C19.6732 21.5183 19.6082 21.622 19.5216 21.706C19.435 21.79 19.3294 21.8518 19.2137 21.8863L4.61624 26.225C4.48472 26.2641 4.34502 26.2663 4.21232 26.2315C4.07963 26.1967 3.95903 26.1261 3.86364 26.0275C3.76826 25.9289 3.70175 25.806 3.67135 25.6723C3.64096 25.5385 3.64783 25.3989 3.69124 25.2688L8.43124 11.0513C8.46521 10.9492 8.52074 10.8556 8.59407 10.7769C8.66741 10.6982 8.75682 10.6362 8.85624 10.595L15.59 7.82254C15.7269 7.766 15.8775 7.75126 16.0227 7.78018C16.168 7.8091 16.3014 7.88038 16.4062 7.98504L21.9112 13.4913C22.01 13.5899 22.0792 13.7141 22.1113 13.8499C22.1433 13.9857 22.1368 14.1277 22.0925 14.26V14.26Z" stroke="#009A42" stroke-width="2" stroke-linecap="round" stroke-linejoin="round"/>
<path d="M22.24 13.82L25.775 10.2837C26.2437 9.81492 26.507 9.17915 26.507 8.51624C26.507 7.85333 26.2437 7.21756 25.775 6.74874L23.125 4.09624C22.8929 3.86398 22.6172 3.67975 22.3139 3.55405C22.0105 3.42835 21.6853 3.36365 21.3569 3.36365C21.0285 3.36365 20.7034 3.42835 20.4 3.55405C20.0966 3.67975 19.821 3.86398 19.5888 4.09624L16.0538 7.63249M14.7263 15.145C14.5521 14.9709 14.3454 14.8328 14.1179 14.7386C13.8903 14.6445 13.6465 14.596 13.4002 14.5961C13.154 14.5961 12.9102 14.6447 12.6827 14.739C12.4552 14.8333 12.2485 14.9714 12.0744 15.1456C11.9003 15.3198 11.7623 15.5265 11.6681 15.7541C11.5739 15.9816 11.5255 16.2254 11.5255 16.4717C11.5256 16.7179 11.5741 16.9618 11.6684 17.1892C11.7627 17.4167 11.9009 17.6234 12.075 17.7975C12.4268 18.1491 12.9038 18.3465 13.4011 18.3464C13.8984 18.3463 14.3753 18.1486 14.7269 17.7969C15.0785 17.4451 15.2759 16.9681 15.2758 16.4708C15.2757 15.9735 15.078 15.4966 14.7263 15.145Z" stroke="#009A42" stroke-width="2" stroke-linecap="round" stroke-linejoin="round"/>
</svg>
