<svg width="25" height="25" viewBox="0 0 25 25" fill="none" xmlns="http://www.w3.org/2000/svg">
<path fill-rule="evenodd" clip-rule="evenodd" d="M17.9175 0C22.1537 0 25 2.9725 25 7.395V17.605C25 22.0275 22.1537 25 17.9163 25H7.08125C2.845 25 0 22.0275 0 17.605V7.395C0 2.9725 2.845 0 7.08125 0H17.9175ZM17.9175 1.875H7.08125C3.91875 1.875 1.875 4.04125 1.875 7.395V17.605C1.875 20.9587 3.91875 23.125 7.08125 23.125H17.9163C21.08 23.125 23.125 20.9587 23.125 17.605V7.395C23.125 4.04125 21.08 1.875 17.9175 1.875ZM17.6119 8.87125C17.9781 9.2375 17.9781 9.83 17.6119 10.1962L11.6794 16.1287C11.4969 16.3125 11.2569 16.4037 11.0169 16.4037C10.7781 16.4037 10.5369 16.3125 10.3544 16.1287L7.38688 13.1625C7.02063 12.7962 7.02063 12.2038 7.38688 11.8375C7.75313 11.4713 8.34562 11.4713 8.71187 11.8375L11.0169 14.14L16.2869 8.87125C16.6531 8.505 17.2456 8.505 17.6119 8.87125Z" fill="#168656"/>
</svg>
