<svg width="24" height="25" viewBox="0 0 24 25" fill="none" xmlns="http://www.w3.org/2000/svg">
<path d="M10.5542 6.40821L7.17123 2.50321C6.78123 2.05321 6.06623 2.05521 5.61323 2.50921L2.83123 5.29621C2.00323 6.12521 1.76623 7.35621 2.24523 8.34321C5.10685 14.2682 9.88528 19.0533 15.8062 21.9232C16.7922 22.4022 18.0222 22.1652 18.8502 21.3362L21.6582 18.5232C22.1132 18.0682 22.1142 17.3492 21.6602 16.9592L17.7402 13.5942C17.3302 13.2422 16.6932 13.2882 16.2822 13.7002L14.9182 15.0662C14.8484 15.1394 14.7565 15.1876 14.6566 15.2035C14.5567 15.2194 14.4543 15.2025 14.3652 15.1542C12.1357 13.8703 10.2862 12.0184 9.00523 9.78721C8.95726 9.69796 8.93989 9.59544 8.95578 9.49537C8.97168 9.3953 9.01996 9.3032 9.09323 9.23321L10.4532 7.87221C10.8652 7.45821 10.9102 6.81821 10.5542 6.40721V6.40821Z" stroke="#35764B" stroke-width="2" stroke-linecap="round" stroke-linejoin="round"/>
</svg>
