<svg width="23" height="21" viewBox="0 0 23 21" fill="none" xmlns="http://www.w3.org/2000/svg">
<path fill-rule="evenodd" clip-rule="evenodd" d="M11.0842 0.168213C13.8959 0.168213 16.1884 2.17108 16.2191 4.64212L16.4681 4.64314C19.6068 4.64314 22.159 6.88815 22.159 9.64816V15.1642C22.159 17.9232 19.6068 20.1682 16.4681 20.1682H5.69089C2.5534 20.1682 0 17.9232 0 15.1642V9.64816C0 6.88815 2.5534 4.64314 5.69089 4.64314L5.92271 4.64224L5.92991 4.44776C6.00128 3.31329 6.53221 2.27256 7.44327 1.47922C8.41827 0.628215 9.72736 0.203213 11.0842 0.168213ZM16.4681 6.14314L16.2193 6.14224L16.2194 7.72425C16.2194 8.13825 15.8376 8.47426 15.3671 8.47426C14.8967 8.47426 14.5148 8.13825 14.5148 7.72425L14.5147 6.14224H7.62611L7.62623 7.72425C7.62623 8.13825 7.24441 8.47426 6.77396 8.47426C6.3035 8.47426 5.92169 8.13825 5.92169 7.72425L5.92157 6.14224L5.69089 6.14314C3.49317 6.14314 1.70454 7.71515 1.70454 9.64816V15.1642C1.70454 17.0962 3.49317 18.6682 5.69089 18.6682H16.4681C18.6659 18.6682 20.4545 17.0962 20.4545 15.1642V9.64816C20.4545 7.71515 18.6659 6.14314 16.4681 6.14314ZM11.0808 1.66822C10.1592 1.69622 9.29554 1.97622 8.64327 2.54422C8.00046 3.10497 7.64018 3.8483 7.6266 4.64214L14.5125 4.64224L14.509 4.51486C14.4044 2.93003 12.9074 1.66822 11.0808 1.66822Z" fill="#35764B"/>
</svg>
