<svg width="20" height="19" viewBox="0 0 20 19" fill="none" xmlns="http://www.w3.org/2000/svg">
<path fill-rule="evenodd" clip-rule="evenodd" d="M10.0042 0C12.5419 0 14.6112 1.80772 14.6388 4.038L14.8636 4.03892C17.6964 4.03892 20 6.06519 20 8.55629V13.5349C20 16.0251 17.6964 18.0513 14.8636 18.0513H5.13641C2.30462 18.0513 0 16.0251 0 13.5349V8.55629C0 6.06519 2.30462 4.03892 5.13641 4.03892L5.34564 4.0381L5.35214 3.86257C5.41655 2.83864 5.89576 1.89931 6.71805 1.18327C7.59805 0.415183 8.77959 0.03159 10.0042 0ZM14.8636 5.39277L14.639 5.39196L14.6391 6.81983C14.6391 7.19349 14.2945 7.49676 13.8698 7.49676C13.4452 7.49676 13.1006 7.19349 13.1006 6.81983L13.1005 5.39196H6.88308L6.88318 6.81983C6.88318 7.19349 6.53856 7.49676 6.11395 7.49676C5.68933 7.49676 5.34472 7.19349 5.34472 6.81983L5.34462 5.39196L5.13641 5.39277C3.15282 5.39277 1.53846 6.81162 1.53846 8.55629V13.5349C1.53846 15.2786 3.15282 16.6975 5.13641 16.6975H14.8636C16.8472 16.6975 18.4615 15.2786 18.4615 13.5349V8.55629C18.4615 6.81162 16.8472 5.39277 14.8636 5.39277ZM10.0011 1.35386C9.16933 1.37913 8.38985 1.63185 7.80113 2.14451C7.22095 2.65062 6.89578 3.32153 6.88352 4.03801L13.0985 4.0381L13.0953 3.92314C13.0009 2.49272 11.6498 1.35386 10.0011 1.35386Z" fill="#3E5748"/>
</svg>
