<svg width="27" height="30" viewBox="0 0 27 30" fill="none" xmlns="http://www.w3.org/2000/svg">
<path d="M12.2578 6.54709L21.3071 13.8593C21.5254 14.0342 21.5626 14.3551 21.3923 14.5786L10.6641 28.5576C9.98971 29.4212 8.99587 29.9097 7.93104 29.9278L2.07448 29.9999C1.76213 30.0035 1.48882 29.7871 1.41783 29.4771L0.0867967 23.69C-0.143916 22.6264 0.0867966 21.5267 0.761188 20.6793L11.5426 6.63363C11.7165 6.40828 12.0377 6.36861 12.2578 6.54709Z" fill="white"/>
<path opacity="0.4" d="M25.3578 9.50138L23.6132 11.6792C23.4375 11.9009 23.1216 11.937 22.9033 11.7603C20.7825 10.044 15.3519 5.63975 13.8452 4.41925C13.6251 4.23897 13.5949 3.91807 13.7724 3.69452L15.4548 1.60506C16.9811 -0.360007 19.6432 -0.540288 21.7906 1.17238L24.2574 3.13745C25.269 3.93069 25.9434 4.97632 26.1741 6.07603C26.4403 7.28572 26.1564 8.47377 25.3578 9.50138Z" fill="white"/>
</svg>
