<svg width="21" height="20" viewBox="0 0 21 20" fill="none" xmlns="http://www.w3.org/2000/svg">
<path d="M1.17372 8.44751C0.419323 8.44751 0.104382 7.47827 0.717175 7.03149L10.0409 0.249267C10.1741 0.151713 10.3348 0.0991211 10.4999 0.0991211C10.665 0.0991211 10.8257 0.151713 10.9589 0.249267L20.2826 7.03149C20.8954 7.47583 20.5805 8.44751 19.8236 8.44751H18.3124V17.5784H20.0702C20.1776 17.5784 20.2655 17.6663 20.2655 17.7737V19.0432C20.2655 19.1506 20.1776 19.2385 20.0702 19.2385H0.929577C0.822155 19.2385 0.734264 19.1506 0.734264 19.0432V17.7737C0.734264 17.6663 0.822155 17.5784 0.929577 17.5784H2.68739V8.44751H1.17372ZM10.4999 1.97046L3.88124 6.78491H17.1185L10.4999 1.97046ZM16.5546 8.44751H13.6981V17.5784H16.5546V8.44751ZM11.9403 8.44751H9.08387V17.5784H11.9403V8.44751ZM4.4452 17.5784H7.32606V8.44751H4.4452V17.5784Z" fill="#35764B"/>
</svg>
