<svg width="24" height="24" viewBox="0 0 24 24" fill="none" xmlns="http://www.w3.org/2000/svg">
<path d="M11.988 0C5.364 0 0 5.376 0 12C0 18.624 5.364 24 11.988 24C18.624 24 24 18.624 24 12C24 5.376 18.624 0 11.988 0ZM12 21.6C6.696 21.6 2.4 17.304 2.4 12C2.4 6.696 6.696 2.4 12 2.4C17.304 2.4 21.6 6.696 21.6 12C21.6 17.304 17.304 21.6 12 21.6ZM11.736 6H11.664C11.184 6 10.8 6.384 10.8 6.864V12.528C10.8 12.948 11.016 13.344 11.388 13.56L16.368 16.548C16.776 16.788 17.304 16.668 17.544 16.26C17.6043 16.1628 17.6443 16.0545 17.6619 15.9416C17.6794 15.8286 17.674 15.7132 17.646 15.6024C17.618 15.4915 17.568 15.3874 17.4989 15.2963C17.4299 15.2052 17.3432 15.1289 17.244 15.072L12.6 12.312V6.864C12.6 6.384 12.216 6 11.736 6Z" fill="#168656"/>
</svg>
