<svg width="56" height="48" viewBox="0 0 56 48" fill="none" xmlns="http://www.w3.org/2000/svg">
<g opacity="0.3">
<mask id="mask0_519_6904" style="mask-type:alpha" maskUnits="userSpaceOnUse" x="-1" y="0" width="57" height="48">
<rect x="55.291" width="48" height="55.2911" transform="rotate(90 55.291 0)" fill="#C4C4C4"/>
</mask>
<g mask="url(#mask0_519_6904)">
<rect width="0.49546" height="617.74" transform="matrix(-0.707107 0.707107 -0.88018 -0.474641 530.118 5.75476)" fill="black"/>
<rect width="0.49546" height="617.74" transform="matrix(-0.707107 0.707107 -0.88018 -0.474641 528.116 7.75656)" fill="black"/>
<rect width="0.49546" height="617.74" transform="matrix(-0.707107 0.707107 -0.88018 -0.474641 526.115 9.75824)" fill="black"/>
<rect width="0.49546" height="617.74" transform="matrix(-0.707107 0.707107 -0.88018 -0.474641 536.124 -0.251465)" fill="black"/>
<rect width="0.49546" height="617.74" transform="matrix(-0.707107 0.707107 -0.88018 -0.474641 524.113 11.7599)" fill="black"/>
<rect width="0.49546" height="617.74" transform="matrix(-0.707107 0.707107 -0.88018 -0.474641 534.122 1.75021)" fill="black"/>
<rect width="0.49546" height="617.74" transform="matrix(-0.707107 0.707107 -0.88018 -0.474641 522.11 13.7628)" fill="black"/>
<rect width="0.49546" height="617.74" transform="matrix(-0.707107 0.707107 -0.88018 -0.474641 532.12 3.75308)" fill="black"/>
<rect width="0.49546" height="617.74" transform="matrix(-0.707107 0.707107 -0.88018 -0.474641 520.108 15.7645)" fill="black"/>
<rect width="0.49546" height="617.74" transform="matrix(-0.707107 0.707107 -0.88018 -0.474641 518.107 17.7662)" fill="black"/>
<rect width="0.49546" height="617.74" transform="matrix(-0.707107 0.707107 -0.88018 -0.474641 506.095 29.7777)" fill="black"/>
<rect width="0.49546" height="617.74" transform="matrix(-0.707107 0.707107 -0.88018 -0.474641 516.105 19.7679)" fill="black"/>
<rect width="0.49546" height="617.74" transform="matrix(-0.707107 0.707107 -0.88018 -0.474641 504.093 31.7805)" fill="black"/>
<rect width="0.49546" height="617.74" transform="matrix(-0.707107 0.707107 -0.88018 -0.474641 514.103 21.7709)" fill="black"/>
<rect width="0.49546" height="617.74" transform="matrix(-0.707107 0.707107 -0.88018 -0.474641 502.091 33.7822)" fill="black"/>
<rect width="0.49546" height="617.74" transform="matrix(-0.707107 0.707107 -0.88018 -0.474641 512.101 23.7726)" fill="black"/>
<rect width="0.49546" height="617.74" transform="matrix(-0.707107 0.707107 -0.88018 -0.474641 500.089 35.784)" fill="black"/>
<rect width="0.49546" height="617.74" transform="matrix(-0.707107 0.707107 -0.88018 -0.474641 510.099 25.7742)" fill="black"/>
<rect width="0.49546" height="617.74" transform="matrix(-0.707107 0.707107 -0.88018 -0.474641 498.087 37.7856)" fill="black"/>
<rect width="0.49546" height="617.74" transform="matrix(-0.707107 0.707107 -0.88018 -0.474641 508.097 27.7759)" fill="black"/>
<rect width="0.49546" height="617.74" transform="matrix(-0.707107 0.707107 -0.88018 -0.474641 496.085 39.7886)" fill="black"/>
<rect width="0.49546" height="617.74" transform="matrix(-0.707107 0.707107 -0.88018 -0.474641 494.083 41.7903)" fill="black"/>
<rect width="0.49546" height="617.74" transform="matrix(-0.707107 0.707107 -0.88018 -0.474641 482.071 53.8017)" fill="black"/>
<rect width="0.49546" height="617.74" transform="matrix(-0.707107 0.707107 -0.88018 -0.474641 492.081 43.7919)" fill="black"/>
<rect width="0.49546" height="617.74" transform="matrix(-0.707107 0.707107 -0.88018 -0.474641 480.069 55.8033)" fill="black"/>
<rect width="0.49546" height="617.74" transform="matrix(-0.707107 0.707107 -0.88018 -0.474641 490.079 45.7936)" fill="black"/>
<rect width="0.49546" height="617.74" transform="matrix(-0.707107 0.707107 -0.88018 -0.474641 478.068 57.8051)" fill="black"/>
<rect width="0.49546" height="617.74" transform="matrix(-0.707107 0.707107 -0.88018 -0.474641 488.077 47.7953)" fill="black"/>
<rect width="0.49546" height="617.74" transform="matrix(-0.707107 0.707107 -0.88018 -0.474641 476.065 59.808)" fill="black"/>
<rect width="0.49546" height="617.74" transform="matrix(-0.707107 0.707107 -0.88018 -0.474641 486.075 49.7982)" fill="black"/>
<rect width="0.49546" height="617.74" transform="matrix(-0.707107 0.707107 -0.88018 -0.474641 474.063 61.8097)" fill="black"/>
<rect width="0.49546" height="617.74" transform="matrix(-0.707107 0.707107 -0.88018 -0.474641 484.073 51.8)" fill="black"/>
<rect width="0.49546" height="617.74" transform="matrix(-0.707107 0.707107 -0.88018 -0.474641 472.061 63.8113)" fill="black"/>
<rect width="0.49546" height="617.74" transform="matrix(-0.707107 0.707107 -0.88018 -0.474641 470.059 65.8131)" fill="black"/>
<rect width="0.49546" height="617.74" transform="matrix(-0.707107 0.707107 -0.88018 -0.474641 458.047 77.8257)" fill="black"/>
<rect width="0.49546" height="617.74" transform="matrix(-0.707107 0.707107 -0.88018 -0.474641 468.057 67.816)" fill="black"/>
<rect width="0.49546" height="617.74" transform="matrix(-0.707107 0.707107 -0.88018 -0.474641 456.046 79.8275)" fill="black"/>
<rect width="0.49546" height="617.74" transform="matrix(-0.707107 0.707107 -0.88018 -0.474641 466.055 69.8177)" fill="black"/>
<rect width="0.49546" height="617.74" transform="matrix(-0.707107 0.707107 -0.88018 -0.474641 454.044 81.8291)" fill="black"/>
<rect width="0.49546" height="617.74" transform="matrix(-0.707107 0.707107 -0.88018 -0.474641 464.054 71.8194)" fill="black"/>
<rect width="0.49546" height="617.74" transform="matrix(-0.707107 0.707107 -0.88018 -0.474641 452.042 83.8308)" fill="black"/>
<rect width="0.49546" height="617.74" transform="matrix(-0.707107 0.707107 -0.88018 -0.474641 462.052 73.8212)" fill="black"/>
<rect width="0.49546" height="617.74" transform="matrix(-0.707107 0.707107 -0.88018 -0.474641 450.04 85.8325)" fill="black"/>
<rect width="0.49546" height="617.74" transform="matrix(-0.707107 0.707107 -0.88018 -0.474641 460.05 75.8228)" fill="black"/>
<rect width="0.49546" height="617.74" transform="matrix(-0.707107 0.707107 -0.88018 -0.474641 448.038 87.8354)" fill="black"/>
<rect width="0.49546" height="617.74" transform="matrix(-0.707107 0.707107 -0.88018 -0.474641 446.036 89.8372)" fill="black"/>
<rect width="0.49546" height="617.74" transform="matrix(-0.707107 0.707107 -0.88018 -0.474641 434.024 101.849)" fill="black"/>
<rect width="0.49546" height="617.74" transform="matrix(-0.707107 0.707107 -0.88018 -0.474641 444.034 91.8388)" fill="black"/>
<rect width="0.49546" height="617.74" transform="matrix(-0.707107 0.707107 -0.88018 -0.474641 432.022 103.85)" fill="black"/>
<rect width="0.49546" height="617.74" transform="matrix(-0.707107 0.707107 -0.88018 -0.474641 442.032 93.8405)" fill="black"/>
<rect width="0.49546" height="617.74" transform="matrix(-0.707107 0.707107 -0.88018 -0.474641 430.02 105.853)" fill="black"/>
<rect width="0.49546" height="617.74" transform="matrix(-0.707107 0.707107 -0.88018 -0.474641 440.03 95.8435)" fill="black"/>
<rect width="0.49546" height="617.74" transform="matrix(-0.707107 0.707107 -0.88018 -0.474641 428.018 107.855)" fill="black"/>
<rect width="0.49546" height="617.74" transform="matrix(-0.707107 0.707107 -0.88018 -0.474641 438.028 97.8451)" fill="black"/>
<rect width="0.49546" height="617.74" transform="matrix(-0.707107 0.707107 -0.88018 -0.474641 426.016 109.857)" fill="black"/>
<rect width="0.49546" height="617.74" transform="matrix(-0.707107 0.707107 -0.88018 -0.474641 436.026 99.8467)" fill="black"/>
<rect width="0.49546" height="617.74" transform="matrix(-0.707107 0.707107 -0.88018 -0.474641 424.014 111.858)" fill="black"/>
<rect width="0.49546" height="617.74" transform="matrix(-0.707107 0.707107 -0.88018 -0.474641 422.012 113.861)" fill="black"/>
<rect width="0.49546" height="617.74" transform="matrix(-0.707107 0.707107 -0.88018 -0.474641 410 125.873)" fill="black"/>
<rect width="0.49546" height="617.74" transform="matrix(-0.707107 0.707107 -0.88018 -0.474641 420.01 115.863)" fill="black"/>
<rect width="0.49546" height="617.74" transform="matrix(-0.707107 0.707107 -0.88018 -0.474641 407.998 127.874)" fill="black"/>
<rect width="0.49546" height="617.74" transform="matrix(-0.707107 0.707107 -0.88018 -0.474641 418.009 117.865)" fill="black"/>
<rect width="0.49546" height="617.74" transform="matrix(-0.707107 0.707107 -0.88018 -0.474641 405.997 129.876)" fill="black"/>
<rect width="0.49546" height="617.74" transform="matrix(-0.707107 0.707107 -0.88018 -0.474641 416.006 119.866)" fill="black"/>
<rect width="0.49546" height="617.74" transform="matrix(-0.707107 0.707107 -0.88018 -0.474641 403.995 131.878)" fill="black"/>
<rect width="0.49546" height="617.74" transform="matrix(-0.707107 0.707107 -0.88018 -0.474641 414.005 121.868)" fill="black"/>
<rect width="0.49546" height="617.74" transform="matrix(-0.707107 0.707107 -0.88018 -0.474641 401.993 133.881)" fill="black"/>
<rect width="0.49546" height="617.74" transform="matrix(-0.707107 0.707107 -0.88018 -0.474641 412.002 123.871)" fill="black"/>
<rect width="0.49546" height="617.74" transform="matrix(-0.707107 0.707107 -0.88018 -0.474641 399.991 135.882)" fill="black"/>
<rect width="0.49546" height="617.74" transform="matrix(-0.707107 0.707107 -0.88018 -0.474641 397.989 137.884)" fill="black"/>
<rect width="0.49546" height="617.74" transform="matrix(-0.707107 0.707107 -0.88018 -0.474641 385.977 149.895)" fill="black"/>
<rect width="0.49546" height="617.74" transform="matrix(-0.707107 0.707107 -0.88018 -0.474641 395.987 139.886)" fill="black"/>
<rect width="0.49546" height="617.74" transform="matrix(-0.707107 0.707107 -0.88018 -0.474641 383.975 151.898)" fill="black"/>
<rect width="0.49546" height="617.74" transform="matrix(-0.707107 0.707107 -0.88018 -0.474641 393.985 141.889)" fill="black"/>
<rect width="0.49546" height="617.74" transform="matrix(-0.707107 0.707107 -0.88018 -0.474641 381.973 153.9)" fill="black"/>
<rect width="0.49546" height="617.74" transform="matrix(-0.707107 0.707107 -0.88018 -0.474641 391.983 143.89)" fill="black"/>
<rect width="0.49546" height="617.74" transform="matrix(-0.707107 0.707107 -0.88018 -0.474641 379.971 155.902)" fill="black"/>
<rect width="0.49546" height="617.74" transform="matrix(-0.707107 0.707107 -0.88018 -0.474641 389.981 145.892)" fill="black"/>
<rect width="0.49546" height="617.74" transform="matrix(-0.707107 0.707107 -0.88018 -0.474641 377.969 157.903)" fill="black"/>
<rect width="0.49546" height="617.74" transform="matrix(-0.707107 0.707107 -0.88018 -0.474641 387.979 147.894)" fill="black"/>
<rect width="0.49546" height="617.74" transform="matrix(-0.707107 0.707107 -0.88018 -0.474641 375.967 159.905)" fill="black"/>
<rect width="0.49546" height="617.74" transform="matrix(-0.707107 0.707107 -0.88018 -0.474641 374.225 161.648)" fill="black"/>
<rect width="0.49546" height="617.74" transform="matrix(-0.707107 0.707107 -0.88018 -0.474641 362.213 173.659)" fill="black"/>
<rect width="0.49546" height="617.74" transform="matrix(-0.707107 0.707107 -0.88018 -0.474641 372.223 163.65)" fill="black"/>
<rect width="0.49546" height="617.74" transform="matrix(-0.707107 0.707107 -0.88018 -0.474641 360.211 175.662)" fill="black"/>
<rect width="0.49546" height="617.74" transform="matrix(-0.707107 0.707107 -0.88018 -0.474641 370.221 165.651)" fill="black"/>
<rect width="0.49546" height="617.74" transform="matrix(-0.707107 0.707107 -0.88018 -0.474641 358.209 177.664)" fill="black"/>
<rect width="0.49546" height="617.74" transform="matrix(-0.707107 0.707107 -0.88018 -0.474641 368.219 167.654)" fill="black"/>
<rect width="0.49546" height="617.74" transform="matrix(-0.707107 0.707107 -0.88018 -0.474641 356.207 179.666)" fill="black"/>
<rect width="0.49546" height="617.74" transform="matrix(-0.707107 0.707107 -0.88018 -0.474641 366.217 169.656)" fill="black"/>
<rect width="0.49546" height="617.74" transform="matrix(-0.707107 0.707107 -0.88018 -0.474641 354.206 181.667)" fill="black"/>
<rect width="0.49546" height="617.74" transform="matrix(-0.707107 0.707107 -0.88018 -0.474641 364.215 171.658)" fill="black"/>
<rect width="0.49546" height="617.74" transform="matrix(-0.707107 0.707107 -0.88018 -0.474641 352.204 183.669)" fill="black"/>
<rect width="0.49546" height="617.74" transform="matrix(-0.707107 0.707107 -0.88018 -0.474641 350.201 185.672)" fill="black"/>
<rect width="0.49546" height="617.74" transform="matrix(-0.707107 0.707107 -0.88018 -0.474641 338.19 197.683)" fill="black"/>
<rect width="0.49546" height="617.74" transform="matrix(-0.707107 0.707107 -0.88018 -0.474641 348.199 187.674)" fill="black"/>
<rect width="0.49546" height="617.74" transform="matrix(-0.707107 0.707107 -0.88018 -0.474641 336.188 199.685)" fill="black"/>
<rect width="0.49546" height="617.74" transform="matrix(-0.707107 0.707107 -0.88018 -0.474641 346.198 189.675)" fill="black"/>
<rect width="0.49546" height="617.74" transform="matrix(-0.707107 0.707107 -0.88018 -0.474641 334.186 201.687)" fill="black"/>
<rect width="0.49546" height="617.74" transform="matrix(-0.707107 0.707107 -0.88018 -0.474641 344.196 191.677)" fill="black"/>
<rect width="0.49546" height="617.74" transform="matrix(-0.707107 0.707107 -0.88018 -0.474641 332.184 203.69)" fill="black"/>
<rect width="0.49546" height="617.74" transform="matrix(-0.707107 0.707107 -0.88018 -0.474641 342.194 193.679)" fill="black"/>
<rect width="0.49546" height="617.74" transform="matrix(-0.707107 0.707107 -0.88018 -0.474641 330.182 205.691)" fill="black"/>
<rect width="0.49546" height="617.74" transform="matrix(-0.707107 0.707107 -0.88018 -0.474641 340.192 195.682)" fill="black"/>
<rect width="0.49546" height="617.74" transform="matrix(-0.707107 0.707107 -0.88018 -0.474641 328.18 207.693)" fill="black"/>
<rect width="0.49546" height="617.74" transform="matrix(-0.707107 0.707107 -0.88018 -0.474641 326.178 209.695)" fill="black"/>
<rect width="0.49546" height="617.74" transform="matrix(-0.707107 0.707107 -0.88018 -0.474641 314.166 221.706)" fill="black"/>
<rect width="0.49546" height="617.74" transform="matrix(-0.707107 0.707107 -0.88018 -0.474641 324.176 211.696)" fill="black"/>
<rect width="0.49546" height="617.74" transform="matrix(-0.707107 0.707107 -0.88018 -0.474641 312.164 223.709)" fill="black"/>
<rect width="0.49546" height="617.74" transform="matrix(-0.707107 0.707107 -0.88018 -0.474641 322.174 213.699)" fill="black"/>
<rect width="0.49546" height="617.74" transform="matrix(-0.707107 0.707107 -0.88018 -0.474641 310.162 225.711)" fill="black"/>
<rect width="0.49546" height="617.74" transform="matrix(-0.707107 0.707107 -0.88018 -0.474641 320.172 215.701)" fill="black"/>
<rect width="0.49546" height="617.74" transform="matrix(-0.707107 0.707107 -0.88018 -0.474641 308.16 227.713)" fill="black"/>
<rect width="0.49546" height="617.74" transform="matrix(-0.707107 0.707107 -0.88018 -0.474641 318.17 217.703)" fill="black"/>
<rect width="0.49546" height="617.74" transform="matrix(-0.707107 0.707107 -0.88018 -0.474641 306.159 229.714)" fill="black"/>
<rect width="0.49546" height="617.74" transform="matrix(-0.707107 0.707107 -0.88018 -0.474641 316.168 219.704)" fill="black"/>
<rect width="0.49546" height="617.74" transform="matrix(-0.707107 0.707107 -0.88018 -0.474641 304.156 231.717)" fill="black"/>
<rect width="0.49546" height="617.74" transform="matrix(-0.707107 0.707107 -0.88018 -0.474641 302.154 233.719)" fill="black"/>
<rect width="0.49546" height="617.74" transform="matrix(-0.707107 0.707107 -0.88018 -0.474641 290.143 245.73)" fill="black"/>
<rect width="0.49546" height="617.74" transform="matrix(-0.707107 0.707107 -0.88018 -0.474641 300.152 235.72)" fill="black"/>
<rect width="0.49546" height="617.74" transform="matrix(-0.707107 0.707107 -0.88018 -0.474641 288.141 247.732)" fill="black"/>
<rect width="0.49546" height="617.74" transform="matrix(-0.707107 0.707107 -0.88018 -0.474641 298.151 237.722)" fill="black"/>
<rect width="0.49546" height="617.74" transform="matrix(-0.707107 0.707107 -0.88018 -0.474641 286.139 249.735)" fill="black"/>
<rect width="0.49546" height="617.74" transform="matrix(-0.707107 0.707107 -0.88018 -0.474641 296.149 239.724)" fill="black"/>
<rect width="0.49546" height="617.74" transform="matrix(-0.707107 0.707107 -0.88018 -0.474641 284.137 251.736)" fill="black"/>
<rect width="0.49546" height="617.74" transform="matrix(-0.707107 0.707107 -0.88018 -0.474641 294.147 241.727)" fill="black"/>
<rect width="0.49546" height="617.74" transform="matrix(-0.707107 0.707107 -0.88018 -0.474641 282.135 253.738)" fill="black"/>
<rect width="0.49546" height="617.74" transform="matrix(-0.707107 0.707107 -0.88018 -0.474641 292.145 243.728)" fill="black"/>
<rect width="0.49546" height="617.74" transform="matrix(-0.707107 0.707107 -0.88018 -0.474641 280.133 255.74)" fill="black"/>
<rect width="0.49546" height="617.74" transform="matrix(-0.707107 0.707107 -0.88018 -0.474641 278.131 257.742)" fill="black"/>
<rect width="0.49546" height="617.74" transform="matrix(-0.707107 0.707107 -0.88018 -0.474641 266.119 269.754)" fill="black"/>
<rect width="0.49546" height="617.74" transform="matrix(-0.707107 0.707107 -0.88018 -0.474641 276.129 259.745)" fill="black"/>
<rect width="0.49546" height="617.74" transform="matrix(-0.707107 0.707107 -0.88018 -0.474641 264.117 271.756)" fill="black"/>
<rect width="0.49546" height="617.74" transform="matrix(-0.707107 0.707107 -0.88018 -0.474641 274.127 261.746)" fill="black"/>
<rect width="0.49546" height="617.74" transform="matrix(-0.707107 0.707107 -0.88018 -0.474641 262.115 273.758)" fill="black"/>
<rect width="0.49546" height="617.74" transform="matrix(-0.707107 0.707107 -0.88018 -0.474641 272.125 263.748)" fill="black"/>
<rect width="0.49546" height="617.74" transform="matrix(-0.707107 0.707107 -0.88018 -0.474641 260.113 275.759)" fill="black"/>
<rect width="0.49546" height="617.74" transform="matrix(-0.707107 0.707107 -0.88018 -0.474641 270.123 265.75)" fill="black"/>
<rect width="0.49546" height="617.74" transform="matrix(-0.707107 0.707107 -0.88018 -0.474641 258.111 277.762)" fill="black"/>
<rect width="0.49546" height="617.74" transform="matrix(-0.707107 0.707107 -0.88018 -0.474641 268.121 267.751)" fill="black"/>
<rect width="0.49546" height="617.74" transform="matrix(-0.707107 0.707107 -0.88018 -0.474641 256.109 279.764)" fill="black"/>
<rect width="0.49546" height="617.74" transform="matrix(-0.707107 0.707107 -0.88018 -0.474641 254.107 281.765)" fill="black"/>
<rect width="0.49546" height="617.74" transform="matrix(-0.707107 0.707107 -0.88018 -0.474641 242.096 293.777)" fill="black"/>
<rect width="0.49546" height="617.74" transform="matrix(-0.707107 0.707107 -0.88018 -0.474641 252.105 283.767)" fill="black"/>
<rect width="0.49546" height="617.74" transform="matrix(-0.707107 0.707107 -0.88018 -0.474641 240.094 295.779)" fill="black"/>
<rect width="0.49546" height="617.74" transform="matrix(-0.707107 0.707107 -0.88018 -0.474641 250.103 285.769)" fill="black"/>
<rect width="0.49546" height="617.74" transform="matrix(-0.707107 0.707107 -0.88018 -0.474641 238.092 297.782)" fill="black"/>
<rect width="0.49546" height="617.74" transform="matrix(-0.707107 0.707107 -0.88018 -0.474641 248.101 287.772)" fill="black"/>
<rect width="0.49546" height="617.74" transform="matrix(-0.707107 0.707107 -0.88018 -0.474641 236.09 299.783)" fill="black"/>
<rect width="0.49546" height="617.74" transform="matrix(-0.707107 0.707107 -0.88018 -0.474641 246.099 289.774)" fill="black"/>
<rect width="0.49546" height="617.74" transform="matrix(-0.707107 0.707107 -0.88018 -0.474641 234.088 301.785)" fill="black"/>
<rect width="0.49546" height="617.74" transform="matrix(-0.707107 0.707107 -0.88018 -0.474641 244.098 291.775)" fill="black"/>
<rect width="0.49546" height="617.74" transform="matrix(-0.707107 0.707107 -0.88018 -0.474641 232.086 303.787)" fill="black"/>
<rect width="0.49546" height="617.74" transform="matrix(-0.707107 0.707107 -0.88018 -0.474641 230.084 305.79)" fill="black"/>
<rect width="0.49546" height="617.74" transform="matrix(-0.707107 0.707107 -0.88018 -0.474641 218.072 317.801)" fill="black"/>
<rect width="0.49546" height="617.74" transform="matrix(-0.707107 0.707107 -0.88018 -0.474641 228.082 307.791)" fill="black"/>
<rect width="0.49546" height="617.74" transform="matrix(-0.707107 0.707107 -0.88018 -0.474641 216.07 319.803)" fill="black"/>
<rect width="0.49546" height="617.74" transform="matrix(-0.707107 0.707107 -0.88018 -0.474641 226.08 309.793)" fill="black"/>
<rect width="0.49546" height="617.74" transform="matrix(-0.707107 0.707107 -0.88018 -0.474641 214.068 321.805)" fill="black"/>
<rect width="0.49546" height="617.74" transform="matrix(-0.707107 0.707107 -0.88018 -0.474641 224.078 311.795)" fill="black"/>
<rect width="0.49546" height="617.74" transform="matrix(-0.707107 0.707107 -0.88018 -0.474641 212.066 323.807)" fill="black"/>
<rect width="0.49546" height="617.74" transform="matrix(-0.707107 0.707107 -0.88018 -0.474641 222.076 313.796)" fill="black"/>
<rect width="0.49546" height="617.74" transform="matrix(-0.707107 0.707107 -0.88018 -0.474641 210.064 325.809)" fill="black"/>
<rect width="0.49546" height="617.74" transform="matrix(-0.707107 0.707107 -0.88018 -0.474641 220.074 315.799)" fill="black"/>
<rect width="0.49546" height="617.74" transform="matrix(-0.707107 0.707107 -0.88018 -0.474641 208.062 327.811)" fill="black"/>
<rect width="0.49546" height="617.74" transform="matrix(-0.707107 0.707107 -0.88018 -0.474641 206.06 329.812)" fill="black"/>
<rect width="0.49546" height="617.74" transform="matrix(-0.707107 0.707107 -0.88018 -0.474641 204.058 331.814)" fill="black"/>
<rect width="0.49546" height="617.74" transform="matrix(-0.707107 0.707107 -0.88018 -0.474641 202.056 333.817)" fill="black"/>
<rect width="0.49546" height="617.74" transform="matrix(-0.707107 0.707107 -0.88018 -0.474641 200.054 335.819)" fill="black"/>
<rect width="0.49546" height="617.74" transform="matrix(-0.707107 0.707107 -0.88018 -0.474641 198.053 337.82)" fill="black"/>
<rect width="0.49546" height="617.74" transform="matrix(-0.707107 0.707107 -0.88018 -0.474641 196.051 339.822)" fill="black"/>
</g>
</g>
</svg>
