<svg width="1396" height="132" viewBox="0 0 1396 132" fill="none" xmlns="http://www.w3.org/2000/svg">
<g opacity="0.1">
<mask id="mask0_636_3915" style="mask-type:alpha" maskUnits="userSpaceOnUse" x="0" y="0" width="1396" height="132">
<rect width="1396" height="132" fill="#C4C4C4"/>
</mask>
<g mask="url(#mask0_636_3915)">
<rect width="0.830634" height="1035.64" transform="matrix(0.707107 0.707107 -0.474641 0.88018 1068.97 -901.586)" fill="white"/>
<rect width="0.830634" height="1035.64" transform="matrix(0.707107 0.707107 -0.474641 0.88018 1072.32 -898.23)" fill="white"/>
<rect width="0.830634" height="1035.64" transform="matrix(0.707107 0.707107 -0.474641 0.88018 1075.68 -894.874)" fill="white"/>
<rect width="0.830634" height="1035.64" transform="matrix(0.707107 0.707107 -0.474641 0.88018 1058.9 -911.655)" fill="white"/>
<rect width="0.830634" height="1035.64" transform="matrix(0.707107 0.707107 -0.474641 0.88018 1079.04 -891.518)" fill="white"/>
<rect width="0.830634" height="1035.64" transform="matrix(0.707107 0.707107 -0.474641 0.88018 1062.25 -908.299)" fill="white"/>
<rect width="0.830634" height="1035.64" transform="matrix(0.707107 0.707107 -0.474641 0.88018 1082.39 -888.161)" fill="white"/>
<rect width="0.830634" height="1035.64" transform="matrix(0.707107 0.707107 -0.474641 0.88018 1065.61 -904.942)" fill="white"/>
<rect width="0.830634" height="1035.64" transform="matrix(0.707107 0.707107 -0.474641 0.88018 1085.75 -884.805)" fill="white"/>
<rect width="0.830634" height="1035.64" transform="matrix(0.707107 0.707107 -0.474641 0.88018 1089.11 -881.449)" fill="white"/>
<rect width="0.830634" height="1035.64" transform="matrix(0.707107 0.707107 -0.474641 0.88018 1109.24 -861.312)" fill="white"/>
<rect width="0.830634" height="1035.64" transform="matrix(0.707107 0.707107 -0.474641 0.88018 1092.46 -878.093)" fill="white"/>
<rect width="0.830634" height="1035.64" transform="matrix(0.707107 0.707107 -0.474641 0.88018 1112.6 -857.955)" fill="white"/>
<rect width="0.830634" height="1035.64" transform="matrix(0.707107 0.707107 -0.474641 0.88018 1095.82 -874.736)" fill="white"/>
<rect width="0.830634" height="1035.64" transform="matrix(0.707107 0.707107 -0.474641 0.88018 1115.95 -854.599)" fill="white"/>
<rect width="0.830634" height="1035.64" transform="matrix(0.707107 0.707107 -0.474641 0.88018 1099.18 -871.38)" fill="white"/>
<rect width="0.830634" height="1035.64" transform="matrix(0.707107 0.707107 -0.474641 0.88018 1119.31 -851.242)" fill="white"/>
<rect width="0.830634" height="1035.64" transform="matrix(0.707107 0.707107 -0.474641 0.88018 1102.53 -868.024)" fill="white"/>
<rect width="0.830634" height="1035.64" transform="matrix(0.707107 0.707107 -0.474641 0.88018 1122.67 -847.886)" fill="white"/>
<rect width="0.830634" height="1035.64" transform="matrix(0.707107 0.707107 -0.474641 0.88018 1105.89 -864.668)" fill="white"/>
<rect width="0.830634" height="1035.64" transform="matrix(0.707107 0.707107 -0.474641 0.88018 1126.02 -844.53)" fill="white"/>
<rect width="0.830634" height="1035.64" transform="matrix(0.707107 0.707107 -0.474641 0.88018 1129.38 -841.173)" fill="white"/>
<rect width="0.830634" height="1035.64" transform="matrix(0.707107 0.707107 -0.474641 0.88018 1149.52 -821.036)" fill="white"/>
<rect width="0.830634" height="1035.64" transform="matrix(0.707107 0.707107 -0.474641 0.88018 1132.73 -837.817)" fill="white"/>
<rect width="0.830634" height="1035.64" transform="matrix(0.707107 0.707107 -0.474641 0.88018 1152.87 -817.68)" fill="white"/>
<rect width="0.830634" height="1035.64" transform="matrix(0.707107 0.707107 -0.474641 0.88018 1136.09 -834.461)" fill="white"/>
<rect width="0.830634" height="1035.64" transform="matrix(0.707107 0.707107 -0.474641 0.88018 1156.23 -814.324)" fill="white"/>
<rect width="0.830634" height="1035.64" transform="matrix(0.707107 0.707107 -0.474641 0.88018 1139.45 -831.105)" fill="white"/>
<rect width="0.830634" height="1035.64" transform="matrix(0.707107 0.707107 -0.474641 0.88018 1159.59 -810.967)" fill="white"/>
<rect width="0.830634" height="1035.64" transform="matrix(0.707107 0.707107 -0.474641 0.88018 1142.8 -827.748)" fill="white"/>
<rect width="0.830634" height="1035.64" transform="matrix(0.707107 0.707107 -0.474641 0.88018 1162.94 -807.611)" fill="white"/>
<rect width="0.830634" height="1035.64" transform="matrix(0.707107 0.707107 -0.474641 0.88018 1146.16 -824.392)" fill="white"/>
<rect width="0.830634" height="1035.64" transform="matrix(0.707107 0.707107 -0.474641 0.88018 1166.3 -804.255)" fill="white"/>
<rect width="0.830634" height="1035.64" transform="matrix(0.707107 0.707107 -0.474641 0.88018 1169.66 -800.898)" fill="white"/>
<rect width="0.830634" height="1035.64" transform="matrix(0.707107 0.707107 -0.474641 0.88018 1189.79 -780.76)" fill="white"/>
<rect width="0.830634" height="1035.64" transform="matrix(0.707107 0.707107 -0.474641 0.88018 1173.01 -797.542)" fill="white"/>
<rect width="0.830634" height="1035.64" transform="matrix(0.707107 0.707107 -0.474641 0.88018 1193.15 -777.404)" fill="white"/>
<rect width="0.830634" height="1035.64" transform="matrix(0.707107 0.707107 -0.474641 0.88018 1176.37 -794.186)" fill="white"/>
<rect width="0.830634" height="1035.64" transform="matrix(0.707107 0.707107 -0.474641 0.88018 1196.5 -774.048)" fill="white"/>
<rect width="0.830634" height="1035.64" transform="matrix(0.707107 0.707107 -0.474641 0.88018 1179.72 -790.83)" fill="white"/>
<rect width="0.830634" height="1035.64" transform="matrix(0.707107 0.707107 -0.474641 0.88018 1199.86 -770.692)" fill="white"/>
<rect width="0.830634" height="1035.64" transform="matrix(0.707107 0.707107 -0.474641 0.88018 1183.08 -787.474)" fill="white"/>
<rect width="0.830634" height="1035.64" transform="matrix(0.707107 0.707107 -0.474641 0.88018 1203.21 -767.336)" fill="white"/>
<rect width="0.830634" height="1035.64" transform="matrix(0.707107 0.707107 -0.474641 0.88018 1186.43 -784.117)" fill="white"/>
<rect width="0.830634" height="1035.64" transform="matrix(0.707107 0.707107 -0.474641 0.88018 1206.57 -763.979)" fill="white"/>
<rect width="0.830634" height="1035.64" transform="matrix(0.707107 0.707107 -0.474641 0.88018 1209.93 -760.623)" fill="white"/>
<rect width="0.830634" height="1035.64" transform="matrix(0.707107 0.707107 -0.474641 0.88018 1230.07 -740.486)" fill="white"/>
<rect width="0.830634" height="1035.64" transform="matrix(0.707107 0.707107 -0.474641 0.88018 1213.29 -757.267)" fill="white"/>
<rect width="0.830634" height="1035.64" transform="matrix(0.707107 0.707107 -0.474641 0.88018 1233.42 -737.13)" fill="white"/>
<rect width="0.830634" height="1035.64" transform="matrix(0.707107 0.707107 -0.474641 0.88018 1216.64 -753.911)" fill="white"/>
<rect width="0.830634" height="1035.64" transform="matrix(0.707107 0.707107 -0.474641 0.88018 1236.78 -733.773)" fill="white"/>
<rect width="0.830634" height="1035.64" transform="matrix(0.707107 0.707107 -0.474641 0.88018 1220 -750.554)" fill="white"/>
<rect width="0.830634" height="1035.64" transform="matrix(0.707107 0.707107 -0.474641 0.88018 1240.14 -730.417)" fill="white"/>
<rect width="0.830634" height="1035.64" transform="matrix(0.707107 0.707107 -0.474641 0.88018 1223.36 -747.198)" fill="white"/>
<rect width="0.830634" height="1035.64" transform="matrix(0.707107 0.707107 -0.474641 0.88018 1243.49 -727.061)" fill="white"/>
<rect width="0.830634" height="1035.64" transform="matrix(0.707107 0.707107 -0.474641 0.88018 1226.71 -743.842)" fill="white"/>
<rect width="0.830634" height="1035.64" transform="matrix(0.707107 0.707107 -0.474641 0.88018 1246.85 -723.704)" fill="white"/>
<rect width="0.830634" height="1035.64" transform="matrix(0.707107 0.707107 -0.474641 0.88018 1250.21 -720.348)" fill="white"/>
<rect width="0.830634" height="1035.64" transform="matrix(0.707107 0.707107 -0.474641 0.88018 1270.34 -700.21)" fill="white"/>
<rect width="0.830634" height="1035.64" transform="matrix(0.707107 0.707107 -0.474641 0.88018 1253.56 -716.991)" fill="white"/>
<rect width="0.830634" height="1035.64" transform="matrix(0.707107 0.707107 -0.474641 0.88018 1273.7 -696.854)" fill="white"/>
<rect width="0.830634" height="1035.64" transform="matrix(0.707107 0.707107 -0.474641 0.88018 1256.92 -713.636)" fill="white"/>
<rect width="0.830634" height="1035.64" transform="matrix(0.707107 0.707107 -0.474641 0.88018 1277.05 -693.498)" fill="white"/>
<rect width="0.830634" height="1035.64" transform="matrix(0.707107 0.707107 -0.474641 0.88018 1260.27 -710.279)" fill="white"/>
<rect width="0.830634" height="1035.64" transform="matrix(0.707107 0.707107 -0.474641 0.88018 1280.41 -690.142)" fill="white"/>
<rect width="0.830634" height="1035.64" transform="matrix(0.707107 0.707107 -0.474641 0.88018 1263.63 -706.923)" fill="white"/>
<rect width="0.830634" height="1035.64" transform="matrix(0.707107 0.707107 -0.474641 0.88018 1283.77 -686.785)" fill="white"/>
<rect width="0.830634" height="1035.64" transform="matrix(0.707107 0.707107 -0.474641 0.88018 1266.99 -703.566)" fill="white"/>
<rect width="0.830634" height="1035.64" transform="matrix(0.707107 0.707107 -0.474641 0.88018 1287.12 -683.429)" fill="white"/>
<rect width="0.830634" height="1035.64" transform="matrix(0.707107 0.707107 -0.474641 0.88018 1290.48 -680.073)" fill="white"/>
<rect width="0.830634" height="1035.64" transform="matrix(0.707107 0.707107 -0.474641 0.88018 1310.62 -659.936)" fill="white"/>
<rect width="0.830634" height="1035.64" transform="matrix(0.707107 0.707107 -0.474641 0.88018 1293.84 -676.717)" fill="white"/>
<rect width="0.830634" height="1035.64" transform="matrix(0.707107 0.707107 -0.474641 0.88018 1313.98 -656.579)" fill="white"/>
<rect width="0.830634" height="1035.64" transform="matrix(0.707107 0.707107 -0.474641 0.88018 1297.2 -673.36)" fill="white"/>
<rect width="0.830634" height="1035.64" transform="matrix(0.707107 0.707107 -0.474641 0.88018 1317.33 -653.223)" fill="white"/>
<rect width="0.830634" height="1035.64" transform="matrix(0.707107 0.707107 -0.474641 0.88018 1300.55 -670.004)" fill="white"/>
<rect width="0.830634" height="1035.64" transform="matrix(0.707107 0.707107 -0.474641 0.88018 1320.69 -649.866)" fill="white"/>
<rect width="0.830634" height="1035.64" transform="matrix(0.707107 0.707107 -0.474641 0.88018 1303.91 -666.648)" fill="white"/>
<rect width="0.830634" height="1035.64" transform="matrix(0.707107 0.707107 -0.474641 0.88018 1324.04 -646.51)" fill="white"/>
<rect width="0.830634" height="1035.64" transform="matrix(0.707107 0.707107 -0.474641 0.88018 1307.26 -663.292)" fill="white"/>
<rect width="0.830634" height="1035.64" transform="matrix(0.707107 0.707107 -0.474641 0.88018 1327.4 -643.154)" fill="white"/>
<rect width="0.830634" height="1035.64" transform="matrix(0.707107 0.707107 -0.474641 0.88018 1330.32 -640.234)" fill="white"/>
<rect width="0.830634" height="1035.64" transform="matrix(0.707107 0.707107 -0.474641 0.88018 1350.46 -620.096)" fill="white"/>
<rect width="0.830634" height="1035.64" transform="matrix(0.707107 0.707107 -0.474641 0.88018 1333.68 -636.877)" fill="white"/>
<rect width="0.830634" height="1035.64" transform="matrix(0.707107 0.707107 -0.474641 0.88018 1353.81 -616.739)" fill="white"/>
<rect width="0.830634" height="1035.64" transform="matrix(0.707107 0.707107 -0.474641 0.88018 1337.03 -633.521)" fill="white"/>
<rect width="0.830634" height="1035.64" transform="matrix(0.707107 0.707107 -0.474641 0.88018 1357.17 -613.383)" fill="white"/>
<rect width="0.830634" height="1035.64" transform="matrix(0.707107 0.707107 -0.474641 0.88018 1340.39 -630.164)" fill="white"/>
<rect width="0.830634" height="1035.64" transform="matrix(0.707107 0.707107 -0.474641 0.88018 1360.53 -610.027)" fill="white"/>
<rect width="0.830634" height="1035.64" transform="matrix(0.707107 0.707107 -0.474641 0.88018 1343.75 -626.808)" fill="white"/>
<rect width="0.830634" height="1035.64" transform="matrix(0.707107 0.707107 -0.474641 0.88018 1363.88 -606.671)" fill="white"/>
<rect width="0.830634" height="1035.64" transform="matrix(0.707107 0.707107 -0.474641 0.88018 1347.1 -623.452)" fill="white"/>
<rect width="0.830634" height="1035.64" transform="matrix(0.707107 0.707107 -0.474641 0.88018 1367.24 -603.315)" fill="white"/>
<rect width="0.830634" height="1035.64" transform="matrix(0.707107 0.707107 -0.474641 0.88018 1370.6 -599.958)" fill="white"/>
<rect width="0.830634" height="1035.64" transform="matrix(0.707107 0.707107 -0.474641 0.88018 1390.73 -579.82)" fill="white"/>
<rect width="0.830634" height="1035.64" transform="matrix(0.707107 0.707107 -0.474641 0.88018 1373.95 -596.602)" fill="white"/>
<rect width="0.830634" height="1035.64" transform="matrix(0.707107 0.707107 -0.474641 0.88018 1394.09 -576.464)" fill="white"/>
<rect width="0.830634" height="1035.64" transform="matrix(0.707107 0.707107 -0.474641 0.88018 1377.31 -593.246)" fill="white"/>
<rect width="0.830634" height="1035.64" transform="matrix(0.707107 0.707107 -0.474641 0.88018 1397.45 -573.108)" fill="white"/>
<rect width="0.830634" height="1035.64" transform="matrix(0.707107 0.707107 -0.474641 0.88018 1380.66 -589.89)" fill="white"/>
<rect width="0.830634" height="1035.64" transform="matrix(0.707107 0.707107 -0.474641 0.88018 1400.8 -569.751)" fill="white"/>
<rect width="0.830634" height="1035.64" transform="matrix(0.707107 0.707107 -0.474641 0.88018 1384.02 -586.534)" fill="white"/>
<rect width="0.830634" height="1035.64" transform="matrix(0.707107 0.707107 -0.474641 0.88018 1404.16 -566.395)" fill="white"/>
<rect width="0.830634" height="1035.64" transform="matrix(0.707107 0.707107 -0.474641 0.88018 1387.38 -583.177)" fill="white"/>
<rect width="0.830634" height="1035.64" transform="matrix(0.707107 0.707107 -0.474641 0.88018 1407.52 -563.039)" fill="white"/>
<rect width="0.830634" height="1035.64" transform="matrix(0.707107 0.707107 -0.474641 0.88018 1410.87 -559.683)" fill="white"/>
<rect width="0.830634" height="1035.64" transform="matrix(0.707107 0.707107 -0.474641 0.88018 1431.01 -539.546)" fill="white"/>
<rect width="0.830634" height="1035.64" transform="matrix(0.707107 0.707107 -0.474641 0.88018 1414.23 -556.327)" fill="white"/>
<rect width="0.830634" height="1035.64" transform="matrix(0.707107 0.707107 -0.474641 0.88018 1434.36 -536.189)" fill="white"/>
<rect width="0.830634" height="1035.64" transform="matrix(0.707107 0.707107 -0.474641 0.88018 1417.58 -552.97)" fill="white"/>
<rect width="0.830634" height="1035.64" transform="matrix(0.707107 0.707107 -0.474641 0.88018 1437.72 -532.833)" fill="white"/>
<rect width="0.830634" height="1035.64" transform="matrix(0.707107 0.707107 -0.474641 0.88018 1420.94 -549.614)" fill="white"/>
<rect width="0.830634" height="1035.64" transform="matrix(0.707107 0.707107 -0.474641 0.88018 1441.07 -529.477)" fill="white"/>
<rect width="0.830634" height="1035.64" transform="matrix(0.707107 0.707107 -0.474641 0.88018 1424.3 -546.258)" fill="white"/>
<rect width="0.830634" height="1035.64" transform="matrix(0.707107 0.707107 -0.474641 0.88018 1444.43 -526.12)" fill="white"/>
<rect width="0.830634" height="1035.64" transform="matrix(0.707107 0.707107 -0.474641 0.88018 1427.65 -542.902)" fill="white"/>
<rect width="0.830634" height="1035.64" transform="matrix(0.707107 0.707107 -0.474641 0.88018 1447.79 -522.764)" fill="white"/>
<rect width="0.830634" height="1035.64" transform="matrix(0.707107 0.707107 -0.474641 0.88018 1451.14 -519.408)" fill="white"/>
<rect width="0.830634" height="1035.64" transform="matrix(0.707107 0.707107 -0.474641 0.88018 1471.28 -499.27)" fill="white"/>
<rect width="0.830634" height="1035.64" transform="matrix(0.707107 0.707107 -0.474641 0.88018 1454.5 -516.051)" fill="white"/>
<rect width="0.830634" height="1035.64" transform="matrix(0.707107 0.707107 -0.474641 0.88018 1474.64 -495.914)" fill="white"/>
<rect width="0.830634" height="1035.64" transform="matrix(0.707107 0.707107 -0.474641 0.88018 1457.86 -512.695)" fill="white"/>
<rect width="0.830634" height="1035.64" transform="matrix(0.707107 0.707107 -0.474641 0.88018 1478 -492.557)" fill="white"/>
<rect width="0.830634" height="1035.64" transform="matrix(0.707107 0.707107 -0.474641 0.88018 1461.21 -509.339)" fill="white"/>
<rect width="0.830634" height="1035.64" transform="matrix(0.707107 0.707107 -0.474641 0.88018 1481.35 -489.201)" fill="white"/>
<rect width="0.830634" height="1035.64" transform="matrix(0.707107 0.707107 -0.474641 0.88018 1464.57 -505.983)" fill="white"/>
<rect width="0.830634" height="1035.64" transform="matrix(0.707107 0.707107 -0.474641 0.88018 1484.71 -485.845)" fill="white"/>
<rect width="0.830634" height="1035.64" transform="matrix(0.707107 0.707107 -0.474641 0.88018 1467.93 -502.626)" fill="white"/>
<rect width="0.830634" height="1035.64" transform="matrix(0.707107 0.707107 -0.474641 0.88018 1488.06 -482.489)" fill="white"/>
<rect width="0.830634" height="1035.64" transform="matrix(0.707107 0.707107 -0.474641 0.88018 1491.42 -479.133)" fill="white"/>
<rect width="0.830634" height="1035.64" transform="matrix(0.707107 0.707107 -0.474641 0.88018 1511.56 -458.995)" fill="white"/>
<rect width="0.830634" height="1035.64" transform="matrix(0.707107 0.707107 -0.474641 0.88018 1494.78 -475.776)" fill="white"/>
<rect width="0.830634" height="1035.64" transform="matrix(0.707107 0.707107 -0.474641 0.88018 1514.91 -455.639)" fill="white"/>
<rect width="0.830634" height="1035.64" transform="matrix(0.707107 0.707107 -0.474641 0.88018 1498.13 -472.42)" fill="white"/>
<rect width="0.830634" height="1035.64" transform="matrix(0.707107 0.707107 -0.474641 0.88018 1518.27 -452.282)" fill="white"/>
<rect width="0.830634" height="1035.64" transform="matrix(0.707107 0.707107 -0.474641 0.88018 1501.49 -469.064)" fill="white"/>
<rect width="0.830634" height="1035.64" transform="matrix(0.707107 0.707107 -0.474641 0.88018 1521.62 -448.927)" fill="white"/>
<rect width="0.830634" height="1035.64" transform="matrix(0.707107 0.707107 -0.474641 0.88018 1504.84 -465.708)" fill="white"/>
<rect width="0.830634" height="1035.64" transform="matrix(0.707107 0.707107 -0.474641 0.88018 1524.98 -445.57)" fill="white"/>
<rect width="0.830634" height="1035.64" transform="matrix(0.707107 0.707107 -0.474641 0.88018 1508.2 -462.351)" fill="white"/>
<rect width="0.830634" height="1035.64" transform="matrix(0.707107 0.707107 -0.474641 0.88018 1528.34 -442.213)" fill="white"/>
<rect width="0.830634" height="1035.64" transform="matrix(0.707107 0.707107 -0.474641 0.88018 1531.7 -438.857)" fill="white"/>
<rect width="0.830634" height="1035.64" transform="matrix(0.707107 0.707107 -0.474641 0.88018 1551.83 -418.72)" fill="white"/>
<rect width="0.830634" height="1035.64" transform="matrix(0.707107 0.707107 -0.474641 0.88018 1535.05 -435.501)" fill="white"/>
<rect width="0.830634" height="1035.64" transform="matrix(0.707107 0.707107 -0.474641 0.88018 1555.19 -415.364)" fill="white"/>
<rect width="0.830634" height="1035.64" transform="matrix(0.707107 0.707107 -0.474641 0.88018 1538.41 -432.145)" fill="white"/>
<rect width="0.830634" height="1035.64" transform="matrix(0.707107 0.707107 -0.474641 0.88018 1558.55 -412.007)" fill="white"/>
<rect width="0.830634" height="1035.64" transform="matrix(0.707107 0.707107 -0.474641 0.88018 1541.77 -428.788)" fill="white"/>
<rect width="0.830634" height="1035.64" transform="matrix(0.707107 0.707107 -0.474641 0.88018 1561.9 -408.651)" fill="white"/>
<rect width="0.830634" height="1035.64" transform="matrix(0.707107 0.707107 -0.474641 0.88018 1545.12 -425.432)" fill="white"/>
<rect width="0.830634" height="1035.64" transform="matrix(0.707107 0.707107 -0.474641 0.88018 1565.26 -405.295)" fill="white"/>
<rect width="0.830634" height="1035.64" transform="matrix(0.707107 0.707107 -0.474641 0.88018 1548.48 -422.076)" fill="white"/>
<rect width="0.830634" height="1035.64" transform="matrix(0.707107 0.707107 -0.474641 0.88018 1568.61 -401.938)" fill="white"/>
<rect width="0.830634" height="1035.64" transform="matrix(0.707107 0.707107 -0.474641 0.88018 1571.97 -398.582)" fill="white"/>
<rect width="0.830634" height="1035.64" transform="matrix(0.707107 0.707107 -0.474641 0.88018 1592.11 -378.445)" fill="white"/>
<rect width="0.830634" height="1035.64" transform="matrix(0.707107 0.707107 -0.474641 0.88018 1575.33 -395.226)" fill="white"/>
<rect width="0.830634" height="1035.64" transform="matrix(0.707107 0.707107 -0.474641 0.88018 1595.46 -375.088)" fill="white"/>
<rect width="0.830634" height="1035.64" transform="matrix(0.707107 0.707107 -0.474641 0.88018 1578.68 -391.87)" fill="white"/>
<rect width="0.830634" height="1035.64" transform="matrix(0.707107 0.707107 -0.474641 0.88018 1598.82 -371.732)" fill="white"/>
<rect width="0.830634" height="1035.64" transform="matrix(0.707107 0.707107 -0.474641 0.88018 1582.04 -388.513)" fill="white"/>
<rect width="0.830634" height="1035.64" transform="matrix(0.707107 0.707107 -0.474641 0.88018 1602.18 -368.375)" fill="white"/>
<rect width="0.830634" height="1035.64" transform="matrix(0.707107 0.707107 -0.474641 0.88018 1585.39 -385.157)" fill="white"/>
<rect width="0.830634" height="1035.64" transform="matrix(0.707107 0.707107 -0.474641 0.88018 1605.54 -365.019)" fill="white"/>
<rect width="0.830634" height="1035.64" transform="matrix(0.707107 0.707107 -0.474641 0.88018 1588.75 -381.801)" fill="white"/>
<rect width="0.830634" height="1035.64" transform="matrix(0.707107 0.707107 -0.474641 0.88018 1608.89 -361.663)" fill="white"/>
<rect width="0.830634" height="1035.64" transform="matrix(0.707107 0.707107 -0.474641 0.88018 1612.25 -358.307)" fill="white"/>
<rect width="0.830634" height="1035.64" transform="matrix(0.707107 0.707107 -0.474641 0.88018 1632.38 -338.169)" fill="white"/>
<rect width="0.830634" height="1035.64" transform="matrix(0.707107 0.707107 -0.474641 0.88018 1615.6 -354.951)" fill="white"/>
<rect width="0.830634" height="1035.64" transform="matrix(0.707107 0.707107 -0.474641 0.88018 1635.74 -334.813)" fill="white"/>
<rect width="0.830634" height="1035.64" transform="matrix(0.707107 0.707107 -0.474641 0.88018 1618.96 -351.594)" fill="white"/>
<rect width="0.830634" height="1035.64" transform="matrix(0.707107 0.707107 -0.474641 0.88018 1639.1 -331.456)" fill="white"/>
<rect width="0.830634" height="1035.64" transform="matrix(0.707107 0.707107 -0.474641 0.88018 1622.32 -348.238)" fill="white"/>
<rect width="0.830634" height="1035.64" transform="matrix(0.707107 0.707107 -0.474641 0.88018 1642.45 -328.1)" fill="white"/>
<rect width="0.830634" height="1035.64" transform="matrix(0.707107 0.707107 -0.474641 0.88018 1625.67 -344.882)" fill="white"/>
<rect width="0.830634" height="1035.64" transform="matrix(0.707107 0.707107 -0.474641 0.88018 1645.81 -324.744)" fill="white"/>
<rect width="0.830634" height="1035.64" transform="matrix(0.707107 0.707107 -0.474641 0.88018 1629.03 -341.526)" fill="white"/>
<rect width="0.830634" height="1035.64" transform="matrix(0.707107 0.707107 -0.474641 0.88018 1649.17 -321.388)" fill="white"/>
<rect width="0.830634" height="1035.64" transform="matrix(0.707107 0.707107 -0.474641 0.88018 81.5547 -485.998)" fill="white"/>
<rect width="0.830634" height="1035.64" transform="matrix(0.707107 0.707107 -0.474641 0.88018 101.691 -465.862)" fill="white"/>
<rect width="0.830634" height="1035.64" transform="matrix(0.707107 0.707107 -0.474641 0.88018 84.9102 -482.643)" fill="white"/>
<rect width="0.830634" height="1035.64" transform="matrix(0.707107 0.707107 -0.474641 0.88018 105.047 -462.506)" fill="white"/>
<rect width="0.830634" height="1035.64" transform="matrix(0.707107 0.707107 -0.474641 0.88018 88.2656 -479.287)" fill="white"/>
<rect width="0.830634" height="1035.64" transform="matrix(0.707107 0.707107 -0.474641 0.88018 108.406 -459.149)" fill="white"/>
<rect width="0.830634" height="1035.64" transform="matrix(0.707107 0.707107 -0.474641 0.88018 91.625 -475.93)" fill="white"/>
<rect width="0.830634" height="1035.64" transform="matrix(0.707107 0.707107 -0.474641 0.88018 111.762 -455.793)" fill="white"/>
<rect width="0.830634" height="1035.64" transform="matrix(0.707107 0.707107 -0.474641 0.88018 94.9805 -472.574)" fill="white"/>
<rect width="0.830634" height="1035.64" transform="matrix(0.707107 0.707107 -0.474641 0.88018 115.117 -452.437)" fill="white"/>
<rect width="0.830634" height="1035.64" transform="matrix(0.707107 0.707107 -0.474641 0.88018 98.3359 -469.218)" fill="white"/>
<rect width="0.830634" height="1035.64" transform="matrix(0.707107 0.707107 -0.474641 0.88018 118.473 -449.081)" fill="white"/>
<rect width="0.830634" height="1035.64" transform="matrix(0.707107 0.707107 -0.474641 0.88018 121.832 -445.724)" fill="white"/>
<rect width="0.830634" height="1035.64" transform="matrix(0.707107 0.707107 -0.474641 0.88018 141.969 -425.586)" fill="white"/>
<rect width="0.830634" height="1035.64" transform="matrix(0.707107 0.707107 -0.474641 0.88018 125.188 -442.368)" fill="white"/>
<rect width="0.830634" height="1035.64" transform="matrix(0.707107 0.707107 -0.474641 0.88018 145.324 -422.23)" fill="white"/>
<rect width="0.830634" height="1035.64" transform="matrix(0.707107 0.707107 -0.474641 0.88018 128.543 -439.011)" fill="white"/>
<rect width="0.830634" height="1035.64" transform="matrix(0.707107 0.707107 -0.474641 0.88018 148.68 -418.874)" fill="white"/>
<rect width="0.830634" height="1035.64" transform="matrix(0.707107 0.707107 -0.474641 0.88018 131.898 -435.655)" fill="white"/>
<rect width="0.830634" height="1035.64" transform="matrix(0.707107 0.707107 -0.474641 0.88018 152.035 -415.518)" fill="white"/>
<rect width="0.830634" height="1035.64" transform="matrix(0.707107 0.707107 -0.474641 0.88018 135.254 -432.299)" fill="white"/>
<rect width="0.830634" height="1035.64" transform="matrix(0.707107 0.707107 -0.474641 0.88018 155.395 -412.161)" fill="white"/>
<rect width="0.830634" height="1035.64" transform="matrix(0.707107 0.707107 -0.474641 0.88018 138.609 -428.943)" fill="white"/>
<rect width="0.830634" height="1035.64" transform="matrix(0.707107 0.707107 -0.474641 0.88018 158.746 -408.805)" fill="white"/>
<rect width="0.830634" height="1035.64" transform="matrix(0.707107 0.707107 -0.474641 0.88018 162.105 -405.449)" fill="white"/>
<rect width="0.830634" height="1035.64" transform="matrix(0.707107 0.707107 -0.474641 0.88018 182.242 -385.312)" fill="white"/>
<rect width="0.830634" height="1035.64" transform="matrix(0.707107 0.707107 -0.474641 0.88018 165.461 -402.093)" fill="white"/>
<rect width="0.830634" height="1035.64" transform="matrix(0.707107 0.707107 -0.474641 0.88018 185.598 -381.955)" fill="white"/>
<rect width="0.830634" height="1035.64" transform="matrix(0.707107 0.707107 -0.474641 0.88018 168.816 -398.736)" fill="white"/>
<rect width="0.830634" height="1035.64" transform="matrix(0.707107 0.707107 -0.474641 0.88018 188.953 -378.599)" fill="white"/>
<rect width="0.830634" height="1035.64" transform="matrix(0.707107 0.707107 -0.474641 0.88018 172.176 -395.38)" fill="white"/>
<rect width="0.830634" height="1035.64" transform="matrix(0.707107 0.707107 -0.474641 0.88018 192.312 -375.242)" fill="white"/>
<rect width="0.830634" height="1035.64" transform="matrix(0.707107 0.707107 -0.474641 0.88018 175.531 -392.024)" fill="white"/>
<rect width="0.830634" height="1035.64" transform="matrix(0.707107 0.707107 -0.474641 0.88018 195.668 -371.886)" fill="white"/>
<rect width="0.830634" height="1035.64" transform="matrix(0.707107 0.707107 -0.474641 0.88018 178.887 -388.668)" fill="white"/>
<rect width="0.830634" height="1035.64" transform="matrix(0.707107 0.707107 -0.474641 0.88018 199.023 -368.53)" fill="white"/>
<rect width="0.830634" height="1035.64" transform="matrix(0.707107 0.707107 -0.474641 0.88018 202.379 -365.173)" fill="white"/>
<rect width="0.830634" height="1035.64" transform="matrix(0.707107 0.707107 -0.474641 0.88018 222.516 -345.036)" fill="white"/>
<rect width="0.830634" height="1035.64" transform="matrix(0.707107 0.707107 -0.474641 0.88018 205.734 -361.817)" fill="white"/>
<rect width="0.830634" height="1035.64" transform="matrix(0.707107 0.707107 -0.474641 0.88018 225.871 -341.68)" fill="white"/>
<rect width="0.830634" height="1035.64" transform="matrix(0.707107 0.707107 -0.474641 0.88018 209.094 -358.461)" fill="white"/>
<rect width="0.830634" height="1035.64" transform="matrix(0.707107 0.707107 -0.474641 0.88018 229.23 -338.324)" fill="white"/>
<rect width="0.830634" height="1035.64" transform="matrix(0.707107 0.707107 -0.474641 0.88018 212.449 -355.105)" fill="white"/>
<rect width="0.830634" height="1035.64" transform="matrix(0.707107 0.707107 -0.474641 0.88018 232.586 -334.967)" fill="white"/>
<rect width="0.830634" height="1035.64" transform="matrix(0.707107 0.707107 -0.474641 0.88018 215.805 -351.748)" fill="white"/>
<rect width="0.830634" height="1035.64" transform="matrix(0.707107 0.707107 -0.474641 0.88018 235.941 -331.611)" fill="white"/>
<rect width="0.830634" height="1035.64" transform="matrix(0.707107 0.707107 -0.474641 0.88018 219.16 -348.392)" fill="white"/>
<rect width="0.830634" height="1035.64" transform="matrix(0.707107 0.707107 -0.474641 0.88018 239.297 -328.255)" fill="white"/>
<rect width="0.830634" height="1035.64" transform="matrix(0.707107 0.707107 -0.474641 0.88018 242.656 -324.898)" fill="white"/>
<rect width="0.830634" height="1035.64" transform="matrix(0.707107 0.707107 -0.474641 0.88018 262.793 -304.76)" fill="white"/>
<rect width="0.830634" height="1035.64" transform="matrix(0.707107 0.707107 -0.474641 0.88018 246.012 -321.542)" fill="white"/>
<rect width="0.830634" height="1035.64" transform="matrix(0.707107 0.707107 -0.474641 0.88018 266.148 -301.404)" fill="white"/>
<rect width="0.830634" height="1035.64" transform="matrix(0.707107 0.707107 -0.474641 0.88018 249.367 -318.186)" fill="white"/>
<rect width="0.830634" height="1035.64" transform="matrix(0.707107 0.707107 -0.474641 0.88018 269.504 -298.048)" fill="white"/>
<rect width="0.830634" height="1035.64" transform="matrix(0.707107 0.707107 -0.474641 0.88018 252.723 -314.83)" fill="white"/>
<rect width="0.830634" height="1035.64" transform="matrix(0.707107 0.707107 -0.474641 0.88018 272.859 -294.692)" fill="white"/>
<rect width="0.830634" height="1035.64" transform="matrix(0.707107 0.707107 -0.474641 0.88018 256.078 -311.474)" fill="white"/>
<rect width="0.830634" height="1035.64" transform="matrix(0.707107 0.707107 -0.474641 0.88018 276.215 -291.336)" fill="white"/>
<rect width="0.830634" height="1035.64" transform="matrix(0.707107 0.707107 -0.474641 0.88018 259.434 -308.117)" fill="white"/>
<rect width="0.830634" height="1035.64" transform="matrix(0.707107 0.707107 -0.474641 0.88018 279.574 -287.979)" fill="white"/>
<rect width="0.830634" height="1035.64" transform="matrix(0.707107 0.707107 -0.474641 0.88018 282.93 -284.623)" fill="white"/>
<rect width="0.830634" height="1035.64" transform="matrix(0.707107 0.707107 -0.474641 0.88018 303.066 -264.486)" fill="white"/>
<rect width="0.830634" height="1035.64" transform="matrix(0.707107 0.707107 -0.474641 0.88018 286.285 -281.267)" fill="white"/>
<rect width="0.830634" height="1035.64" transform="matrix(0.707107 0.707107 -0.474641 0.88018 306.422 -261.13)" fill="white"/>
<rect width="0.830634" height="1035.64" transform="matrix(0.707107 0.707107 -0.474641 0.88018 289.641 -277.911)" fill="white"/>
<rect width="0.830634" height="1035.64" transform="matrix(0.707107 0.707107 -0.474641 0.88018 309.781 -257.773)" fill="white"/>
<rect width="0.830634" height="1035.64" transform="matrix(0.707107 0.707107 -0.474641 0.88018 293 -274.554)" fill="white"/>
<rect width="0.830634" height="1035.64" transform="matrix(0.707107 0.707107 -0.474641 0.88018 313.137 -254.417)" fill="white"/>
<rect width="0.830634" height="1035.64" transform="matrix(0.707107 0.707107 -0.474641 0.88018 296.355 -271.198)" fill="white"/>
<rect width="0.830634" height="1035.64" transform="matrix(0.707107 0.707107 -0.474641 0.88018 316.492 -251.06)" fill="white"/>
<rect width="0.830634" height="1035.64" transform="matrix(0.707107 0.707107 -0.474641 0.88018 299.711 -267.842)" fill="white"/>
<rect width="0.830634" height="1035.64" transform="matrix(0.707107 0.707107 -0.474641 0.88018 319.848 -247.704)" fill="white"/>
<rect width="0.830634" height="1035.64" transform="matrix(0.707107 0.707107 -0.474641 0.88018 323.207 -244.348)" fill="white"/>
<rect width="0.830634" height="1035.64" transform="matrix(0.707107 0.707107 -0.474641 0.88018 343.344 -224.21)" fill="white"/>
<rect width="0.830634" height="1035.64" transform="matrix(0.707107 0.707107 -0.474641 0.88018 326.562 -240.991)" fill="white"/>
<rect width="0.830634" height="1035.64" transform="matrix(0.707107 0.707107 -0.474641 0.88018 346.699 -220.854)" fill="white"/>
<rect width="0.830634" height="1035.64" transform="matrix(0.707107 0.707107 -0.474641 0.88018 329.918 -237.636)" fill="white"/>
<rect width="0.830634" height="1035.64" transform="matrix(0.707107 0.707107 -0.474641 0.88018 350.055 -217.498)" fill="white"/>
<rect width="0.830634" height="1035.64" transform="matrix(0.707107 0.707107 -0.474641 0.88018 333.273 -234.279)" fill="white"/>
<rect width="0.830634" height="1035.64" transform="matrix(0.707107 0.707107 -0.474641 0.88018 353.41 -214.142)" fill="white"/>
<rect width="0.830634" height="1035.64" transform="matrix(0.707107 0.707107 -0.474641 0.88018 336.629 -230.923)" fill="white"/>
<rect width="0.830634" height="1035.64" transform="matrix(0.707107 0.707107 -0.474641 0.88018 356.77 -210.785)" fill="white"/>
<rect width="0.830634" height="1035.64" transform="matrix(0.707107 0.707107 -0.474641 0.88018 339.988 -227.566)" fill="white"/>
<rect width="0.830634" height="1035.64" transform="matrix(0.707107 0.707107 -0.474641 0.88018 360.125 -207.429)" fill="white"/>
<rect width="0.830634" height="1035.64" transform="matrix(0.707107 0.707107 -0.474641 0.88018 363.48 -204.073)" fill="white"/>
<rect width="0.830634" height="1035.64" transform="matrix(0.707107 0.707107 -0.474641 0.88018 383.617 -183.936)" fill="white"/>
<rect width="0.830634" height="1035.64" transform="matrix(0.707107 0.707107 -0.474641 0.88018 366.836 -200.717)" fill="white"/>
<rect width="0.830634" height="1035.64" transform="matrix(0.707107 0.707107 -0.474641 0.88018 386.977 -180.579)" fill="white"/>
<rect width="0.830634" height="1035.64" transform="matrix(0.707107 0.707107 -0.474641 0.88018 370.195 -197.36)" fill="white"/>
<rect width="0.830634" height="1035.64" transform="matrix(0.707107 0.707107 -0.474641 0.88018 390.332 -177.223)" fill="white"/>
<rect width="0.830634" height="1035.64" transform="matrix(0.707107 0.707107 -0.474641 0.88018 373.551 -194.004)" fill="white"/>
<rect width="0.830634" height="1035.64" transform="matrix(0.707107 0.707107 -0.474641 0.88018 393.688 -173.866)" fill="white"/>
<rect width="0.830634" height="1035.64" transform="matrix(0.707107 0.707107 -0.474641 0.88018 376.906 -190.648)" fill="white"/>
<rect width="0.830634" height="1035.64" transform="matrix(0.707107 0.707107 -0.474641 0.88018 397.043 -170.51)" fill="white"/>
<rect width="0.830634" height="1035.64" transform="matrix(0.707107 0.707107 -0.474641 0.88018 380.262 -187.292)" fill="white"/>
<rect width="0.830634" height="1035.64" transform="matrix(0.707107 0.707107 -0.474641 0.88018 400.398 -167.154)" fill="white"/>
<rect width="0.830634" height="1035.64" transform="matrix(0.707107 0.707107 -0.474641 0.88018 403.32 -164.234)" fill="white"/>
<rect width="0.830634" height="1035.64" transform="matrix(0.707107 0.707107 -0.474641 0.88018 423.457 -144.096)" fill="white"/>
<rect width="0.830634" height="1035.64" transform="matrix(0.707107 0.707107 -0.474641 0.88018 406.676 -160.877)" fill="white"/>
<rect width="0.830634" height="1035.64" transform="matrix(0.707107 0.707107 -0.474641 0.88018 426.812 -140.739)" fill="white"/>
<rect width="0.830634" height="1035.64" transform="matrix(0.707107 0.707107 -0.474641 0.88018 410.031 -157.521)" fill="white"/>
<rect width="0.830634" height="1035.64" transform="matrix(0.707107 0.707107 -0.474641 0.88018 430.172 -137.383)" fill="white"/>
<rect width="0.830634" height="1035.64" transform="matrix(0.707107 0.707107 -0.474641 0.88018 413.391 -154.164)" fill="white"/>
<rect width="0.830634" height="1035.64" transform="matrix(0.707107 0.707107 -0.474641 0.88018 433.527 -134.027)" fill="white"/>
<rect width="0.830634" height="1035.64" transform="matrix(0.707107 0.707107 -0.474641 0.88018 416.746 -150.808)" fill="white"/>
<rect width="0.830634" height="1035.64" transform="matrix(0.707107 0.707107 -0.474641 0.88018 436.883 -130.671)" fill="white"/>
<rect width="0.830634" height="1035.64" transform="matrix(0.707107 0.707107 -0.474641 0.88018 420.102 -147.452)" fill="white"/>
<rect width="0.830634" height="1035.64" transform="matrix(0.707107 0.707107 -0.474641 0.88018 440.238 -127.315)" fill="white"/>
<rect width="0.830634" height="1035.64" transform="matrix(0.707107 0.707107 -0.474641 0.88018 443.598 -123.958)" fill="white"/>
<rect width="0.830634" height="1035.64" transform="matrix(0.707107 0.707107 -0.474641 0.88018 463.734 -103.82)" fill="white"/>
<rect width="0.830634" height="1035.64" transform="matrix(0.707107 0.707107 -0.474641 0.88018 446.953 -120.602)" fill="white"/>
<rect width="0.830634" height="1035.64" transform="matrix(0.707107 0.707107 -0.474641 0.88018 467.09 -100.464)" fill="white"/>
<rect width="0.830634" height="1035.64" transform="matrix(0.707107 0.707107 -0.474641 0.88018 450.309 -117.246)" fill="white"/>
<rect width="0.830634" height="1035.64" transform="matrix(0.707107 0.707107 -0.474641 0.88018 470.445 -97.1082)" fill="white"/>
<rect width="0.830634" height="1035.64" transform="matrix(0.707107 0.707107 -0.474641 0.88018 453.664 -113.89)" fill="white"/>
<rect width="0.830634" height="1035.64" transform="matrix(0.707107 0.707107 -0.474641 0.88018 473.801 -93.7513)" fill="white"/>
<rect width="0.830634" height="1035.64" transform="matrix(0.707107 0.707107 -0.474641 0.88018 457.02 -110.534)" fill="white"/>
<rect width="0.830634" height="1035.64" transform="matrix(0.707107 0.707107 -0.474641 0.88018 477.16 -90.3953)" fill="white"/>
<rect width="0.830634" height="1035.64" transform="matrix(0.707107 0.707107 -0.474641 0.88018 460.379 -107.177)" fill="white"/>
<rect width="0.830634" height="1035.64" transform="matrix(0.707107 0.707107 -0.474641 0.88018 480.516 -87.0392)" fill="white"/>
<rect width="0.830634" height="1035.64" transform="matrix(0.707107 0.707107 -0.474641 0.88018 483.871 -83.6833)" fill="white"/>
<rect width="0.830634" height="1035.64" transform="matrix(0.707107 0.707107 -0.474641 0.88018 504.008 -63.5455)" fill="white"/>
<rect width="0.830634" height="1035.64" transform="matrix(0.707107 0.707107 -0.474641 0.88018 487.227 -80.3271)" fill="white"/>
<rect width="0.830634" height="1035.64" transform="matrix(0.707107 0.707107 -0.474641 0.88018 507.363 -60.189)" fill="white"/>
<rect width="0.830634" height="1035.64" transform="matrix(0.707107 0.707107 -0.474641 0.88018 490.582 -76.9702)" fill="white"/>
<rect width="0.830634" height="1035.64" transform="matrix(0.707107 0.707107 -0.474641 0.88018 510.723 -56.8329)" fill="white"/>
<rect width="0.830634" height="1035.64" transform="matrix(0.707107 0.707107 -0.474641 0.88018 493.941 -73.6141)" fill="white"/>
<rect width="0.830634" height="1035.64" transform="matrix(0.707107 0.707107 -0.474641 0.88018 514.074 -53.4768)" fill="white"/>
<rect width="0.830634" height="1035.64" transform="matrix(0.707107 0.707107 -0.474641 0.88018 497.297 -70.2578)" fill="white"/>
<rect width="0.830634" height="1035.64" transform="matrix(0.707107 0.707107 -0.474641 0.88018 517.434 -50.1205)" fill="white"/>
<rect width="0.830634" height="1035.64" transform="matrix(0.707107 0.707107 -0.474641 0.88018 500.652 -66.9017)" fill="white"/>
<rect width="0.830634" height="1035.64" transform="matrix(0.707107 0.707107 -0.474641 0.88018 520.789 -46.7635)" fill="white"/>
<rect width="0.830634" height="1035.64" transform="matrix(0.707107 0.707107 -0.474641 0.88018 524.145 -43.4076)" fill="white"/>
<rect width="0.830634" height="1035.64" transform="matrix(0.707107 0.707107 -0.474641 0.88018 544.281 -23.27)" fill="white"/>
<rect width="0.830634" height="1035.64" transform="matrix(0.707107 0.707107 -0.474641 0.88018 527.5 -40.0513)" fill="white"/>
<rect width="0.830634" height="1035.64" transform="matrix(0.707107 0.707107 -0.474641 0.88018 547.637 -19.9139)" fill="white"/>
<rect width="0.830634" height="1035.64" transform="matrix(0.707107 0.707107 -0.474641 0.88018 530.859 -36.6952)" fill="white"/>
<rect width="0.830634" height="1035.64" transform="matrix(0.707107 0.707107 -0.474641 0.88018 550.996 -16.5573)" fill="white"/>
<rect width="0.830634" height="1035.64" transform="matrix(0.707107 0.707107 -0.474641 0.88018 534.215 -33.3391)" fill="white"/>
<rect width="0.830634" height="1035.64" transform="matrix(0.707107 0.707107 -0.474641 0.88018 554.352 -13.2009)" fill="white"/>
<rect width="0.830634" height="1035.64" transform="matrix(0.707107 0.707107 -0.474641 0.88018 537.57 -29.9825)" fill="white"/>
<rect width="0.830634" height="1035.64" transform="matrix(0.707107 0.707107 -0.474641 0.88018 557.707 -9.84521)" fill="white"/>
<rect width="0.830634" height="1035.64" transform="matrix(0.707107 0.707107 -0.474641 0.88018 540.926 -26.6263)" fill="white"/>
<rect width="0.830634" height="1035.64" transform="matrix(0.707107 0.707107 -0.474641 0.88018 561.062 -6.48889)" fill="white"/>
<rect width="0.830634" height="1035.64" transform="matrix(0.707107 0.707107 -0.474641 0.88018 564.418 -3.13293)" fill="white"/>
<rect width="0.830634" height="1035.64" transform="matrix(0.707107 0.707107 -0.474641 0.88018 584.559 17.0052)" fill="white"/>
<rect width="0.830634" height="1035.64" transform="matrix(0.707107 0.707107 -0.474641 0.88018 567.777 0.223999)" fill="white"/>
<rect width="0.830634" height="1035.64" transform="matrix(0.707107 0.707107 -0.474641 0.88018 587.914 20.3612)" fill="white"/>
<rect width="0.830634" height="1035.64" transform="matrix(0.707107 0.707107 -0.474641 0.88018 571.133 3.58032)" fill="white"/>
<rect width="0.830634" height="1035.64" transform="matrix(0.707107 0.707107 -0.474641 0.88018 591.27 23.7175)" fill="white"/>
<rect width="0.830634" height="1035.64" transform="matrix(0.707107 0.707107 -0.474641 0.88018 574.488 6.9364)" fill="white"/>
<rect width="0.830634" height="1035.64" transform="matrix(0.707107 0.707107 -0.474641 0.88018 594.625 27.0735)" fill="white"/>
<rect width="0.830634" height="1035.64" transform="matrix(0.707107 0.707107 -0.474641 0.88018 577.844 10.2925)" fill="white"/>
<rect width="0.830634" height="1035.64" transform="matrix(0.707107 0.707107 -0.474641 0.88018 597.984 30.4304)" fill="white"/>
<rect width="0.830634" height="1035.64" transform="matrix(0.707107 0.707107 -0.474641 0.88018 581.203 13.6486)" fill="white"/>
<rect width="0.830634" height="1035.64" transform="matrix(0.707107 0.707107 -0.474641 0.88018 601.34 33.7866)" fill="white"/>
<rect width="0.830634" height="1035.64" transform="matrix(0.707107 0.707107 -0.474641 0.88018 604.695 37.1427)" fill="white"/>
<rect width="0.830634" height="1035.64" transform="matrix(0.707107 0.707107 -0.474641 0.88018 624.832 57.28)" fill="white"/>
<rect width="0.830634" height="1035.64" transform="matrix(0.707107 0.707107 -0.474641 0.88018 608.051 40.4989)" fill="white"/>
<rect width="0.830634" height="1035.64" transform="matrix(0.707107 0.707107 -0.474641 0.88018 628.188 60.6364)" fill="white"/>
<rect width="0.830634" height="1035.64" transform="matrix(0.707107 0.707107 -0.474641 0.88018 611.406 43.8551)" fill="white"/>
<rect width="0.830634" height="1035.64" transform="matrix(0.707107 0.707107 -0.474641 0.88018 631.547 63.9932)" fill="white"/>
<rect width="0.830634" height="1035.64" transform="matrix(0.707107 0.707107 -0.474641 0.88018 614.766 47.2117)" fill="white"/>
<rect width="0.830634" height="1035.64" transform="matrix(0.707107 0.707107 -0.474641 0.88018 634.902 67.3492)" fill="white"/>
<rect width="0.830634" height="1035.64" transform="matrix(0.707107 0.707107 -0.474641 0.88018 618.121 50.5679)" fill="white"/>
<rect width="0.830634" height="1035.64" transform="matrix(0.707107 0.707107 -0.474641 0.88018 638.258 70.7053)" fill="white"/>
<rect width="0.830634" height="1035.64" transform="matrix(0.707107 0.707107 -0.474641 0.88018 621.477 53.9238)" fill="white"/>
<rect width="0.830634" height="1035.64" transform="matrix(0.707107 0.707107 -0.474641 0.88018 641.613 74.0616)" fill="white"/>
<rect width="0.830634" height="1035.64" transform="matrix(0.707107 0.707107 -0.474641 0.88018 644.973 77.4182)" fill="white"/>
<rect width="0.830634" height="1035.64" transform="matrix(0.707107 0.707107 -0.474641 0.88018 665.109 97.5554)" fill="white"/>
<rect width="0.830634" height="1035.64" transform="matrix(0.707107 0.707107 -0.474641 0.88018 648.328 80.7743)" fill="white"/>
<rect width="0.830634" height="1035.64" transform="matrix(0.707107 0.707107 -0.474641 0.88018 668.465 100.912)" fill="white"/>
<rect width="0.830634" height="1035.64" transform="matrix(0.707107 0.707107 -0.474641 0.88018 651.684 84.1305)" fill="white"/>
<rect width="0.830634" height="1035.64" transform="matrix(0.707107 0.707107 -0.474641 0.88018 671.82 104.268)" fill="white"/>
<rect width="0.830634" height="1035.64" transform="matrix(0.707107 0.707107 -0.474641 0.88018 655.039 87.4867)" fill="white"/>
<rect width="0.830634" height="1035.64" transform="matrix(0.707107 0.707107 -0.474641 0.88018 675.18 107.625)" fill="white"/>
<rect width="0.830634" height="1035.64" transform="matrix(0.707107 0.707107 -0.474641 0.88018 658.395 90.8428)" fill="white"/>
<rect width="0.830634" height="1035.64" transform="matrix(0.707107 0.707107 -0.474641 0.88018 678.535 110.981)" fill="white"/>
<rect width="0.830634" height="1035.64" transform="matrix(0.707107 0.707107 -0.474641 0.88018 661.754 94.1991)" fill="white"/>
<rect width="0.830634" height="1035.64" transform="matrix(0.707107 0.707107 -0.474641 0.88018 681.891 114.337)" fill="white"/>
<rect width="0.830634" height="1035.64" transform="matrix(0.707107 0.707107 -0.474641 0.88018 685.246 117.693)" fill="white"/>
<rect width="0.830634" height="1035.64" transform="matrix(0.707107 0.707107 -0.474641 0.88018 688.602 121.049)" fill="white"/>
<rect width="0.830634" height="1035.64" transform="matrix(0.707107 0.707107 -0.474641 0.88018 691.961 124.406)" fill="white"/>
<rect width="0.830634" height="1035.64" transform="matrix(0.707107 0.707107 -0.474641 0.88018 695.316 127.762)" fill="white"/>
<rect width="0.830634" height="1035.64" transform="matrix(0.707107 0.707107 -0.474641 0.88018 698.672 131.118)" fill="white"/>
</g>
</g>
</svg>
