<svg width="527" height="482" viewBox="0 0 527 482" fill="none" xmlns="http://www.w3.org/2000/svg">
<path d="M513.018 259.648C504.523 238.484 496.028 217.32 487.503 196.156C485.076 190.147 482.737 184.079 480.221 178.1C479.896 177.301 478.949 176.738 478.09 176.798C477.439 176.59 476.729 176.768 476.196 177.478C463.261 195.12 450.325 212.762 437.42 230.433C433.838 235.317 430.227 240.201 426.764 245.174C426.172 245.914 424.81 248.548 426.912 248.785C448.786 251.36 470.601 254.616 492.269 258.582C498.455 259.707 504.641 260.891 510.828 262.164C512.249 262.46 513.581 261.01 513.018 259.648Z" fill="#FFEF00"/>
<path d="M320.025 274.33C319.965 274.537 319.936 274.714 319.877 274.922C319.048 274.596 318.041 274.744 317.657 275.662C316.236 278.977 315.673 282.795 314.815 286.288C314.341 288.242 313.838 290.166 313.365 292.119C310.671 298.394 307.504 304.462 303.301 309.82C297.558 317.131 290.099 322.607 281.16 325.33C276.009 326.899 270.415 327.817 264.85 327.876C264.525 327.373 264.051 326.988 263.459 326.899C250.465 324.738 238.861 316.243 233.297 304.255C232.912 303.426 232.261 303.042 231.55 303.042C230.721 300.555 229.981 298.039 229.419 295.464C228.62 291.971 227.998 288.449 227.613 284.897C227.229 281.256 227.317 277.556 226.962 273.915C226.844 272.702 225.985 272.139 225.127 272.139C225.186 269.712 225.571 267.285 225.541 264.858C225.512 262.815 222.552 262.401 221.989 264.384C221.309 266.722 221.309 269.416 221.249 271.843C221.19 274.448 221.309 277.053 221.575 279.658C221.723 281.138 221.93 282.618 222.197 284.098C222.463 293.037 224.002 302.006 227.85 310.146C228.649 311.862 229.567 313.52 230.603 315.089C230.958 315.681 231.313 316.273 231.698 316.835C232.586 319.351 233.681 321.778 235.132 324.028C238.417 329.09 243.153 332.819 248.689 335.128C250.05 335.69 251.293 334.654 251.678 333.411C256.148 335.276 260.884 336.43 265.738 336.786C284.209 338.206 302.057 328.468 312.121 313.194C317.657 304.788 320.824 294.99 321.623 284.986C322.6 281.641 323.369 278.237 323.606 274.862C323.754 272.731 320.557 272.376 320.025 274.33Z" fill="#FFEF00"/>
<path d="M514.762 319.825C491.94 336.549 472.168 357.772 456.125 381.008C451.714 387.402 447.422 393.973 443.722 400.84C433.036 397.702 423.772 390.214 418.71 380.15C416.076 374.91 414.744 369.346 414.448 363.603C418.681 356.203 423.209 349.04 428.034 342.173C433.48 334.418 439.46 326.84 445.735 319.677C448.902 316.066 452.188 312.514 455.503 309.11C457.249 307.304 458.877 305.676 460.505 304.107L460.683 303.93C462.193 302.45 463.939 300.792 466.011 300.259C467.195 299.963 468.438 300.141 469.297 300.703C469.918 301.118 470.303 301.71 470.421 302.45C470.747 304.433 469.8 306.712 468.941 308.695C468.793 309.08 468.645 309.435 468.497 309.761C466.189 315.562 463.081 320.861 460.653 324.827C460.032 325.834 460.446 326.781 461.127 327.225C461.897 327.758 463.14 327.758 463.88 326.751C466.869 322.696 469.474 317.99 471.812 312.366C471.931 312.099 472.02 311.833 472.138 311.566C473.825 307.57 476.164 302.094 472.819 298.365C469.652 294.842 464.294 295.819 460.624 298.631C457.249 301.206 454.23 304.462 451.3 307.6C450.678 308.251 450.086 308.902 449.494 309.554C443.722 315.681 438.217 322.104 433.007 328.764C431.675 318.197 423.801 309.465 416.224 302.361C411.725 298.128 406.959 294.043 403.259 289.07C400.033 284.719 397.753 279.835 396.303 274.626C390.294 253.254 396.48 230.196 389.051 209.062C385.44 198.761 378.543 190.887 369.87 184.434C361.523 178.218 352.199 173.453 343.97 167.059C339.974 163.951 336.185 160.399 333.255 156.255C329.881 151.49 327.572 146.073 325.618 140.597C321.711 129.497 318.929 117.686 311.736 108.096C304.928 99.0384 295.337 92.2008 284.474 88.9744C272.782 85.5112 259.906 86.3992 248.717 91.1648C246.29 92.2008 243.952 93.4144 241.702 94.8056C241.554 94.7464 241.406 94.6872 241.258 94.6576C231.993 92.9112 222.906 96.7888 216.246 103.153C208.965 110.109 205.146 119.847 202.66 129.438C200.055 139.502 198.782 149.891 195.408 159.748C192.507 168.243 187.682 175.466 181.436 181.83C170.011 193.522 155.684 202.165 145.68 215.248C140.411 222.145 137.451 229.87 135.379 238.247C133.366 246.328 131.916 255.415 126.44 262.016C119.987 269.83 109.627 271.518 100.51 274.537C91.4821 277.526 81.9213 282.825 79.5533 292.83C79.2573 294.102 79.1093 295.346 79.1389 296.618C77.2149 294.517 75.2613 292.445 73.3373 290.373C72.7749 289.781 72.2125 289.159 71.6205 288.478C68.3349 284.838 64.6053 280.694 59.6325 279.983C56.7613 279.569 53.9493 280.338 52.1141 282.026C50.0421 283.92 49.3317 286.969 50.1013 290.373C50.9005 293.806 52.8541 297.122 54.2453 299.312C56.1693 302.361 58.3893 304.995 60.7869 307.186C61.6749 307.985 62.7701 307.748 63.3917 307.097C63.9837 306.475 64.2205 305.439 63.3917 304.581C58.7741 299.786 55.7845 295.257 54.2453 290.728C53.2389 287.738 53.5645 285.637 55.1925 284.571C57.0277 283.358 59.4549 283.742 60.9645 284.453C63.2733 285.518 65.0789 287.413 66.8253 289.248L66.9733 289.396C68.9565 291.468 71.0581 293.688 73.3669 296.174C77.4517 300.555 81.5365 305.025 85.5325 309.524C99.8293 325.538 113.623 342.291 126.617 359.43C125.7 367.718 124.812 376.035 123.983 384.323C122.917 394.92 122.177 405.842 118.3 415.877C116.553 420.435 113.86 425.201 110.308 428.901C106.578 420.494 101.99 412.414 97.2837 404.51C92.4589 396.37 87.3085 388.438 81.8621 380.712C70.9989 365.32 58.9221 350.786 45.7797 337.289C38.3797 329.711 30.6837 322.252 22.4549 315.562C20.6197 314.082 18.0149 316.569 19.8205 318.197C26.7765 324.502 33.7325 330.747 40.3333 337.407C46.9341 344.067 53.2685 350.994 59.3069 358.157C66.7957 367.007 73.8405 376.242 80.4413 385.803C80.0565 386.01 79.7309 386.366 79.5533 386.898C75.9125 397.406 72.7749 408.95 75.2909 420.08C76.0901 423.573 77.5701 426.947 79.6125 429.878C84.1709 439.675 110.988 465.131 134.047 465.782C142.039 466.019 149.587 464.154 156.513 460.869C157.165 460.543 157.875 460.366 158.615 460.336C158.704 460.336 158.822 460.306 158.911 460.306C164.061 459.359 168.324 461.846 172.557 464.45C176.641 466.966 180.785 469.157 185.521 470.134C190.109 471.081 194.786 471.081 199.374 470.193C201.446 469.808 203.459 469.157 205.413 468.387C206.596 467.914 208.077 467.381 209.32 466.641C209.497 470.903 209.645 475.166 209.852 479.428C209.971 481.855 213.553 481.885 213.641 479.428C214.056 466.7 213.109 453.883 211.806 441.214C210.533 428.871 208.698 416.617 206.301 404.481C204.85 397.199 203.311 389.888 201.298 382.725C201.209 382.429 201.091 382.192 200.943 382.014C202.245 380.978 203.725 380.12 205.442 379.41C207.603 378.551 206.804 375.206 204.465 375.858C199.256 377.308 194.431 381.659 192.655 386.81C191.974 388.793 195.023 390.066 196.029 388.23C196.621 387.106 197.273 386.099 197.983 385.152C198.989 389.562 199.966 393.973 200.884 398.413C200.825 398.502 200.795 398.59 200.736 398.679C191.974 417.623 182.709 437.87 165.571 450.805C157.786 456.666 148.551 461.017 138.724 461.786C128.068 462.645 117.56 459.359 108.532 453.824C101.842 449.739 96.0405 444.47 90.8309 438.639C92.1037 439.054 93.4061 439.379 94.7677 439.557C105.276 440.859 114.126 432.749 119.01 424.283C124.693 414.456 126.292 403.06 127.446 391.93C128.393 382.725 129.311 373.519 130.169 364.284C130.613 364.876 131.087 365.498 131.531 366.09C135.26 371.092 138.812 376.124 143.016 382.074L145.502 385.596C148.729 390.184 152.044 394.92 155.388 399.508C155.803 400.07 156.365 400.307 156.928 400.307C157.342 400.307 157.727 400.189 158.052 399.952C158.733 399.508 159.148 398.59 158.526 397.584C155.418 392.552 151.837 387.224 147.633 381.274C150.357 373.134 152.221 364.639 154.027 356.41C155.27 350.698 156.573 344.807 158.141 339.094C162.315 323.969 167.791 313.194 175.428 305.262C182.561 297.832 192.004 293.866 201.12 290.018C204.229 288.715 207.425 287.354 210.504 285.903C222.166 280.338 230.987 272.139 236.759 261.483C242.709 250.472 244.928 237.862 243.005 225.845C245.58 227.532 248.303 228.923 251.145 229.989C259.018 232.919 267.425 233.008 274.795 230.285C280.123 228.302 285.096 225.016 289.388 220.635C289.121 234.518 289.595 248.962 296.018 261.572C298.978 267.374 303.241 272.317 308.539 276.135C313.6 279.746 319.461 282.174 325.322 284.216C331.331 286.288 337.488 287.946 343.496 290.047C349.565 292.149 353.087 294.694 358.533 298.098C369.515 304.966 374.577 315.533 381.325 326.574C388.933 339.065 402.075 371.21 404.029 374.555C404.029 374.585 399.44 384.205 399.44 384.205C398.493 386.277 397.605 388.378 396.717 390.48C396.303 391.486 396.954 392.374 397.812 392.73C398.079 392.848 398.405 392.907 398.671 392.907C399.293 392.907 399.914 392.611 400.181 391.93C403.466 384.294 407.077 376.864 410.955 369.642C412.997 381.245 419.717 391.99 429.425 398.798C436.145 403.504 444.255 406.286 452.424 406.79C457.545 407.115 463.288 406.523 467.935 404.096C454.526 422.004 440.022 440.978 418.177 448.674C407.61 452.403 396.007 453.232 385.41 449.177C375.376 445.358 367.117 437.544 361.108 428.812C353.146 417.209 348.647 403.741 344.118 390.539C344.059 390.391 344 390.273 343.94 390.154C344.681 386.662 345.48 383.198 346.338 379.706C346.871 380.357 347.374 381.067 347.848 381.807C349.121 383.79 352.051 382.074 350.985 379.972C349.121 376.242 345.243 372.542 341.099 371.566C339.175 371.122 337.843 373.845 339.708 374.851C340.862 375.502 342.046 376.035 343.141 376.746C339.56 388.793 337.547 401.462 336.393 413.923C335.297 425.852 335.238 437.81 336.156 449.739C336.659 456.488 337.31 463.385 338.82 469.986C339.293 472.087 342.934 471.673 342.668 469.453C342.431 467.47 342.164 465.486 341.898 463.503C348.055 458.057 356.313 458.53 364.098 459.004C372.238 459.507 381.592 459.892 388.311 454.386C388.37 454.327 388.429 454.298 388.488 454.238C396.984 456.458 405.982 456.192 414.596 453.913C426.347 450.805 436.825 444.293 445.764 436.182C456.302 426.592 473.885 398.975 474.565 397.791C477.022 393.558 477.022 388.23 475.483 383.672C473.885 378.995 470.895 375.177 467.639 371.566C468.468 370.5 469.297 369.434 470.155 368.369C478.917 357.417 488.536 347.175 498.897 337.733C504.698 332.464 510.737 327.462 516.893 322.607C518.669 321.482 516.479 318.582 514.762 319.825ZM159.621 217.971C155.685 221.494 152.813 225.845 150.889 230.729C147.041 240.408 146.42 250.975 143.341 260.891C140.766 269.238 135.971 278.148 127.772 282.144C125.611 283.18 123.805 280.19 125.877 278.918C130.14 276.313 133.455 272.731 135.912 268.38C140.914 259.47 141.891 249.081 144.17 239.313C146.242 230.581 149.676 221.138 156.987 215.396C158.822 213.946 161.427 216.373 159.621 217.971ZM178.388 197.666C175.457 200.951 172.29 204.03 169.241 207.197C167.525 208.973 164.86 206.279 166.548 204.503C169.596 201.336 172.557 198.05 175.724 195.002C177.5 193.314 179.986 195.86 178.388 197.666ZM188.984 186.27C188.245 187.128 187.445 187.898 186.676 188.667C185.936 189.407 184.752 189.348 184.012 188.667C183.272 187.986 183.301 186.684 184.012 186.003C184.811 185.204 185.581 184.405 186.409 183.694C187.179 183.014 188.215 182.984 188.984 183.694C189.725 184.375 189.606 185.53 188.984 186.27ZM272.042 91.3128C277.074 89.8328 282.935 91.4312 286.694 95.0128C288.44 96.7 285.895 99.0976 284.089 97.6176C280.893 95.0128 277.044 94.1544 273.049 94.8648C270.71 95.2496 269.733 91.9936 272.042 91.3128ZM284.859 130.799C284.385 131.687 283.201 131.924 282.343 131.45C281.337 130.888 280.389 130.237 279.442 129.586C278.613 128.994 278.288 128.017 278.791 127.099C279.264 126.241 280.449 125.974 281.277 126.448C282.284 127.04 283.26 127.602 284.178 128.313C285.007 128.875 285.362 129.822 284.859 130.799ZM256.265 112.95C258.101 114.963 259.936 116.858 262.185 118.367C264.435 119.877 266.862 120.972 269.408 121.89C271.657 122.689 270.769 126.093 268.431 125.471C262.6 123.932 256.887 120.084 253.335 115.2C252.092 113.483 254.874 111.441 256.265 112.95ZM213.286 118.042C214.973 113.75 217.549 109.902 220.805 106.616C223.942 103.478 227.938 100.489 232.201 99.0384C234.213 98.3576 235.457 101.436 233.621 102.442C229.951 104.426 226.547 106.35 223.557 109.369C220.657 112.299 218.407 115.733 216.661 119.462C215.743 121.327 212.546 119.966 213.286 118.042ZM315.702 182.096C315.081 185.441 314.193 189.17 311.499 190.976C309.101 192.545 306.674 191.805 304.809 190.887C304.928 190.354 305.017 189.822 305.105 189.318C305.313 187.986 304.454 187.039 303.507 186.802C302.619 186.566 301.494 186.921 301.08 188.223C300.547 189.792 300.073 191.39 299.6 192.959C298.889 195.298 298.179 197.695 297.291 200.004C295.811 203.763 294.035 207.315 291.992 210.512C287.878 216.906 282.491 221.908 276.364 224.927C261.682 232.179 245.994 225.164 236.966 214.952C231.845 209.18 227.938 201.78 225.067 192.397C224.801 191.568 224.12 191.065 223.291 191.065C222.462 191.065 221.752 191.538 221.456 192.219C221.041 192.367 220.716 192.663 220.449 193.018C220.331 193.166 220.242 193.314 220.153 193.462C219.65 194.262 219.265 194.824 218.259 194.913C216.838 195.061 215.506 194.084 214.648 193.255C212.842 191.509 211.362 188.815 210.267 185.234C209.172 181.563 208.846 178.603 209.32 176.176C209.497 175.288 209.971 173.66 211.333 173.009C211.865 172.742 212.428 172.713 212.901 172.92C213.109 174.134 213.375 175.17 213.76 176.058C214.233 177.182 215.565 177.626 216.512 177.419C217.43 177.212 217.933 176.472 217.844 175.466C217.756 174.341 217.578 173.216 217.4 172.15C217.223 171.026 217.016 169.871 216.956 168.746C216.809 166.526 216.868 164.247 217.105 161.998C217.578 157.558 218.881 153.088 220.864 149.092C223.646 143.527 228.057 139.265 232.348 135.15C234.953 132.634 237.647 130.059 239.956 127.188C242.561 123.962 244.337 120.854 245.402 117.686C246.527 119.433 247.889 121.061 249.398 122.6C254.845 127.987 261.83 130.918 267.306 132.901C269.615 133.73 271.983 134.47 274.469 135.269C285.362 138.702 296.64 142.284 302.471 152.378C304.158 155.308 305.312 158.623 305.757 161.998C306.171 165.165 305.816 168.125 305.431 171.292C305.372 171.766 305.313 172.269 305.253 172.772C305.194 173.394 305.431 173.956 305.934 174.37C306.526 174.844 307.414 175.022 308.095 174.785C308.805 174.814 309.427 174.489 309.723 173.867L309.753 173.778C310.433 172.387 311.233 170.848 312.653 170.226C313.305 169.93 313.926 169.901 314.459 170.138C314.992 170.374 315.436 170.848 315.702 171.558C316.264 172.95 316.264 174.548 316.264 176.087V176.235C316.205 178.278 316.028 180.231 315.702 182.096ZM381.296 248.37C378.632 230.758 383.131 209.298 368.183 196.008C366.377 194.38 368.982 191.894 370.817 193.374C377.655 198.938 381.118 207.7 382.657 216.166C384.552 226.614 384.019 237.33 384.966 247.867C385.173 249.998 381.621 250.472 381.296 248.37ZM385.351 273.294C384.256 268.824 383.279 264.177 382.716 259.618C382.45 257.517 385.765 257.221 386.298 259.145C387.452 263.407 388.281 267.936 388.932 272.317C389.258 274.596 385.943 275.662 385.351 273.294ZM403.703 300.822C402.075 299.016 404.473 296.766 406.308 298.217C409.712 300.881 412.583 304.581 415.099 308.074C417.674 311.655 419.865 315.503 421.463 319.618C422.233 321.601 419.006 322.903 418.089 321.038C416.224 317.309 414.27 313.668 411.872 310.264C409.445 306.801 406.515 303.93 403.703 300.822Z" fill="black"/>
<path d="M266.271 192.663C260.736 194.439 261.209 186.654 261.446 183.31C261.831 177.804 262.867 172.446 263.844 167.03C264.199 165.046 261.357 164.188 260.795 166.201C259.848 169.575 259.315 173.098 258.841 176.561C258.368 180.054 257.953 183.606 257.953 187.098C257.953 189.91 258.545 192.959 260.854 194.794C262.808 196.363 265.738 197.014 267.751 195.268C268.935 194.232 267.692 192.19 266.271 192.663Z" fill="black"/>
<path d="M280.188 198.228C277.199 198.287 274.268 199.59 271.93 201.425C269.769 203.112 267.401 205.894 266.987 208.706C266.75 210.305 268.911 211.607 269.828 209.89C271.012 207.641 271.9 205.658 273.943 204C275.926 202.431 278.176 201.75 280.632 201.395C282.438 201.158 281.964 198.198 280.188 198.228Z" fill="black"/>
<path d="M240.786 168.717C239.425 167.651 237.323 168.095 236.494 169.605C236.08 170.404 236.08 171.381 236.465 172.21L236.524 172.594C236.642 173.038 236.879 173.423 237.205 173.749C237.382 173.897 237.56 174.015 237.737 174.163C238.152 174.4 238.596 174.518 239.04 174.518C239.395 174.518 239.721 174.459 240.046 174.282C240.372 174.163 240.638 173.986 240.875 173.749C241.142 173.512 241.319 173.246 241.408 172.92C241.497 172.742 241.556 172.565 241.585 172.387C242.237 171.174 241.881 169.546 240.786 168.717Z" fill="black"/>
<path d="M288.027 166.941C286.547 166.497 285.067 167.385 284.623 168.806C284.416 169.457 284.445 170.167 284.682 170.818C284.712 171.085 284.771 171.351 284.889 171.588C284.949 171.825 285.067 172.002 285.215 172.18C285.393 172.476 285.659 172.683 285.955 172.861C286.162 172.95 286.369 173.038 286.577 173.127C286.813 173.157 287.05 173.186 287.287 173.216C287.642 173.216 287.997 173.157 288.293 172.979C288.619 172.861 288.915 172.683 289.152 172.446C289.241 172.358 289.3 172.269 289.389 172.15C289.477 172.062 289.566 171.973 289.596 171.854C289.773 171.588 289.862 171.322 289.892 171.026C290.04 170.7 290.129 170.345 290.158 169.99C290.277 168.628 289.3 167.326 288.027 166.941Z" fill="black"/>
<path d="M313.839 290.106C306.587 304.255 295.783 317.486 280.036 322.341C272.399 324.679 264.111 325.005 256.445 322.696C248.66 320.358 242.177 315.178 237.708 308.429C231.965 299.726 229.775 289.337 229.361 279.066C229.272 276.638 225.483 276.609 225.572 279.066C225.838 288.922 227.733 298.927 232.587 307.63C236.879 315.326 243.361 321.69 251.531 325.123C268.018 332.05 286.844 326.84 299.927 315.444C307.238 309.08 313.188 300.851 317.065 291.971C317.983 289.84 314.964 287.946 313.839 290.106Z" fill="black"/>
<path d="M259.113 333.026C252.453 333.056 245.911 331.221 240.524 327.225C235.433 323.436 232.266 318.226 230.075 312.366C229.246 310.146 225.931 310.974 226.494 313.342C228.092 320.062 232.769 326.189 238.186 330.303C244.106 334.773 251.713 337.2 259.113 336.697C261.481 336.578 261.51 332.997 259.113 333.026Z" fill="black"/>
<path d="M526.695 307.718C526.043 303.87 522.314 301.384 518.614 300.999C514.203 300.526 510.03 302.923 506.507 305.321C499.463 310.146 493.128 316.746 489.28 324.442C488.244 326.514 491.175 328.29 492.418 326.278C496.207 320.091 500.676 314.497 506.507 310.086C509.319 307.955 512.546 305.617 516.098 304.966C518.969 304.433 522.343 305.617 523.024 308.725C523.527 311.182 527.109 310.116 526.695 307.718Z" fill="black"/>
<path d="M514.649 296.204C512.873 292.356 508.108 291.32 504.348 292.386C500.175 293.57 496.386 296.618 493.189 299.401C489.933 302.213 487.062 305.439 484.576 308.962C482.119 312.454 479.751 316.421 478.537 320.565C477.945 322.518 480.964 323.88 481.882 321.986C483.51 318.67 484.96 315.385 487.003 312.277C489.016 309.228 491.384 306.416 494.048 303.9C496.652 301.414 499.524 299.105 502.691 297.358C505.355 295.878 509.647 294.783 511.393 298.158C512.518 300.318 515.656 298.394 514.649 296.204Z" fill="black"/>
<path d="M493.545 284.246C489.282 284.275 486.677 288.182 484.457 291.29C479.455 298.306 475.518 306.031 472.499 314.112C471.641 316.362 475.222 317.279 476.081 315.089C478.419 309.169 481.231 303.426 484.605 298.01C486.233 295.405 487.921 292.741 489.933 290.432C490.821 289.396 491.917 288.301 493.337 288.153C494.048 288.094 495.557 288.626 495.084 289.662C494.107 291.823 497.037 293.658 498.31 291.557C500.382 288.094 497.215 284.216 493.545 284.246Z" fill="black"/>
<path d="M482.001 331.458C472.795 330.777 462.82 336.342 458.291 344.304C457.107 346.406 460.156 348.122 461.488 346.169C466.254 339.124 473.535 335.394 482.001 335.246C484.487 335.217 484.428 331.635 482.001 331.458Z" fill="black"/>
<path d="M245.344 146.339C239.513 145.007 232.764 148.618 229.864 153.591C228.65 155.693 231.728 157.41 233.06 155.456C234.363 153.591 236.109 152.052 238.211 151.105C240.401 150.098 242.473 150.158 244.812 150.187C247.032 150.276 247.564 146.842 245.344 146.339Z" fill="black"/>
<path d="M293.712 153.591C291.226 154.154 288.798 154.213 286.519 152.91C284.418 151.697 283.47 149.921 282.375 147.849C281.339 145.895 278.646 147.316 279.001 149.27C279.563 152.289 282.257 155.13 284.921 156.522C288.088 158.179 291.877 158.446 295.162 156.995C297.175 156.137 295.666 153.147 293.712 153.591Z" fill="black"/>
<path d="M32.4634 305.676C26.425 299.963 18.285 296.559 10.0266 295.967C6.08976 295.671 1.64976 296.411 0.347358 300.762C-0.747842 304.374 1.70896 308.725 5.64576 308.991C7.39216 309.11 8.13216 306.416 6.56336 305.646C5.49776 305.114 4.43216 304.67 4.04736 303.456C3.69216 302.361 4.19536 301.088 5.11296 300.437C6.26736 299.608 7.95456 299.756 9.31616 299.815C10.8258 299.904 12.3354 300.082 13.8154 300.378C19.7946 301.591 25.2114 304.374 29.7698 308.37C31.605 309.968 34.2394 307.363 32.4634 305.676Z" fill="black"/>
<path d="M37.1973 297.447C35.5693 293.866 32.4613 290.817 29.3829 288.478C26.2157 286.081 22.5453 284.305 18.6677 283.358C14.7605 282.381 9.66932 281.789 6.70932 285.193C4.10452 288.212 5.34772 293.303 9.58052 293.747C11.7117 293.984 11.9781 290.698 10.0837 290.106C9.10692 289.81 8.87012 288.834 9.40292 288.005C10.1429 286.821 11.6821 286.495 12.9845 286.466C15.8853 286.406 18.9341 287.265 21.5685 288.39C24.0845 289.485 26.4821 290.965 28.5541 292.8C30.7445 294.724 32.3429 296.974 34.0005 299.342C35.3621 301.295 38.1741 299.608 37.1973 297.447Z" fill="black"/>
<path d="M47.5331 291.675C45.1059 284.66 40.5179 278.444 34.6275 273.945C31.7859 271.784 28.1451 270.156 24.6227 271.725C21.4259 273.116 19.7683 277.408 22.3139 280.19C23.7643 281.789 25.8955 279.746 25.0963 278.03C23.9715 275.514 27.1091 274.655 28.9739 275.188C31.4307 275.898 33.5619 277.941 35.3379 279.658C39.1267 283.328 41.9683 287.798 43.8923 292.682C44.7507 294.931 48.3323 294.043 47.5331 291.675Z" fill="black"/>
<path d="M63.4828 322.844C60.73 319.44 56.438 317.102 52.2052 316.095C48.6828 315.237 42.9996 314.586 40.9868 318.463C40.0988 320.18 42.4076 322.252 43.8284 320.654C45.8116 318.374 49.8076 319.381 52.3236 320.15C55.6684 321.186 58.362 323.14 60.878 325.508C62.6244 327.166 64.9628 324.679 63.4828 322.844Z" fill="black"/>
<path d="M182.743 116.887C174.988 87.3465 167.233 57.8057 159.507 28.2353C157.317 19.8585 155.127 11.4521 152.936 3.07529C152.699 2.18729 151.634 1.77289 150.835 1.83209C131.654 3.28249 112.503 5.56169 93.4995 8.64009C74.4963 11.7185 55.6411 15.6257 36.9635 20.3617C26.3963 23.0257 15.8883 25.9561 5.43947 29.1233C4.66987 29.3601 4.04827 30.4257 4.22587 31.2249C9.52427 55.4081 14.7339 79.6209 20.0027 103.804C21.5123 110.73 23.0219 117.627 24.5315 124.554C25.0643 126.892 28.7939 126.478 28.2907 124.08C23.1699 99.8673 17.8419 75.6841 12.6323 51.4713C12.5139 50.8793 12.3955 50.3169 12.2475 49.7249C48.5371 41.9697 84.7379 33.9185 120.998 25.9857C131.358 23.7065 141.747 21.4273 152.107 19.1777C152.403 19.1185 152.67 19.0001 152.907 18.8225C159.389 43.6569 165.842 68.4913 172.324 93.3257C174.278 100.785 176.202 108.274 178.155 115.733C159.833 116.917 141.54 118.634 123.336 120.854C104.333 123.192 85.3891 126.093 66.5339 129.556C55.9075 131.51 45.2811 133.611 34.7731 136.127C32.4347 136.69 32.7899 140.419 35.2467 139.946C54.0427 136.216 72.8091 132.486 91.7531 129.526C110.667 126.566 129.7 124.139 148.763 122.304C159.537 121.268 170.311 120.41 181.086 119.729C182.566 119.67 183.069 118.101 182.743 116.887ZM151.634 15.2705C114.959 23.3809 78.2851 31.3729 41.5811 39.4241C31.5467 41.6441 21.4827 43.8049 11.4483 46.0841C10.4715 41.5257 9.46508 36.9377 8.48828 32.3793C26.3371 27.0513 44.3635 22.4041 62.5971 18.5265C81.2451 14.5897 100.071 11.4225 118.985 9.08409C129.138 7.81129 139.35 6.80489 149.562 6.00569C150.361 9.08409 151.16 12.1625 151.989 15.2705C151.871 15.2113 151.752 15.2409 151.634 15.2705Z" fill="black"/>
<path d="M70.1774 76.1872C68.6086 76.1872 67.0398 76.2464 65.471 76.3944C65.323 75.5064 65.1454 74.5888 64.9974 73.7008C64.5238 71.0072 64.1982 68.2248 63.4582 65.62C62.807 63.2816 59.6694 64.0808 59.8766 66.3896C60.1134 69.1128 60.735 71.836 61.2086 74.5296C61.3566 75.2992 61.475 76.0984 61.623 76.868C59.8766 77.1344 58.1598 77.46 56.4726 77.8744C54.223 78.4072 52.0326 79.1176 49.8718 79.9168C47.7998 80.6864 45.8462 81.752 43.8038 82.5512C43.8926 82.344 43.9814 82.1664 44.0702 81.9592C44.5438 80.8936 45.0174 79.828 45.491 78.7624C46.527 76.4536 47.563 74.1448 48.599 71.836C50.5822 67.396 52.7726 63.0152 54.4894 58.4568C55.2294 56.5328 52.1806 54.9936 51.2038 56.888C48.599 61.8608 46.4974 67.1296 44.1886 72.2208C43.0638 74.7072 41.939 77.1936 40.8142 79.68C39.8966 81.752 38.5646 84.564 41.051 86.1624C42.9158 87.376 45.0174 86.2512 46.7638 85.4224C49.1318 84.2976 51.559 83.3504 54.0454 82.5808C56.739 81.752 59.4918 81.1304 62.2742 80.7456C62.363 81.308 62.4814 81.8408 62.5702 82.4032C63.4878 87.7016 64.139 93.1184 65.471 98.328C66.063 100.696 69.3486 99.8969 69.1118 97.5584C68.579 92.2304 67.3062 86.8728 66.359 81.604C66.2702 81.1896 66.211 80.7456 66.1222 80.3312C67.395 80.2424 68.6382 80.1832 69.911 80.1536C72.427 80.0352 72.6934 76.1872 70.1774 76.1872Z" fill="black"/>
<path d="M145.685 60.144C144.116 60.144 142.548 60.2032 140.979 60.3512C140.831 59.4632 140.653 58.5456 140.505 57.6576C140.032 54.964 139.706 52.1816 138.966 49.5768C138.315 47.2384 135.177 48.0376 135.384 50.3464C135.621 53.0696 136.243 55.7928 136.716 58.4864C136.864 59.256 136.983 60.0552 137.131 60.8248C135.384 61.0912 133.668 61.4168 131.98 61.8312C129.731 62.364 127.54 63.0744 125.38 63.8736C123.308 64.6432 121.354 65.7088 119.312 66.508C119.4 66.3008 119.489 66.1232 119.578 65.916C120.052 64.8504 120.525 63.7848 120.999 62.7192C122.035 60.4104 123.071 58.1016 124.107 55.7928C126.09 51.3528 128.28 46.972 129.997 42.4136C130.737 40.4896 127.688 38.9504 126.712 40.8448C124.107 45.8176 122.005 51.0864 119.696 56.1776C118.572 58.664 117.447 61.1504 116.322 63.6368C115.404 65.7088 114.072 68.5208 116.559 70.1192C118.424 71.3328 120.525 70.208 122.272 69.3792C124.64 68.2544 127.067 67.3072 129.553 66.5376C132.247 65.7088 135 65.0872 137.782 64.7024C137.871 65.2648 137.989 65.7976 138.078 66.36C138.996 71.6584 139.647 77.0752 140.979 82.2848C141.571 84.6528 144.856 83.8536 144.62 81.5152C144.087 76.1872 142.814 70.8296 141.867 65.5608C141.778 65.1464 141.719 64.7024 141.63 64.288C142.903 64.1992 144.146 64.14 145.419 64.1104C147.935 63.992 148.172 60.144 145.685 60.144Z" fill="black"/>
<path d="M95.2445 52.8625C87.6077 52.0633 79.7045 56.4441 76.5373 63.4593C74.0805 68.9057 74.8205 75.4473 77.9285 80.4793C80.8293 86.7249 92.2549 91.4017 101.372 86.6953C108.328 83.1137 112.383 75.3585 110.814 67.5737C109.275 60.0553 103.029 53.6913 95.2445 52.8625ZM101.135 82.1961C98.4413 84.1201 95.0669 85.1561 91.7517 84.8897C89.8573 84.7417 88.0221 84.3865 85.9205 83.0545C80.7701 79.7689 77.9581 72.9905 79.5269 67.0113C81.0661 61.1801 86.6901 57.1249 92.6101 56.7993C98.8853 56.4441 104.361 60.6769 106.345 66.5081C108.387 72.4281 106.167 78.6145 101.135 82.1961Z" fill="black"/>
<path d="M411.874 86.7249C409.387 85.8369 406.96 85.2449 404.651 83.8537C402.372 82.4625 400.685 80.6569 398.909 78.7033C397.843 77.5193 396.334 77.9633 395.801 78.9993C395.594 79.1177 395.386 79.3249 395.179 79.5617C389.822 87.1985 384.464 94.8353 379.106 102.472C376.442 106.261 373.808 110.02 371.174 113.809C368.48 117.657 365.55 121.209 363.093 125.442C362.856 125.826 362.945 126.862 363.004 127.484C363.685 132.901 370.434 136.808 374.933 136.098C376.058 135.92 376.591 134.914 377.153 134.262C377.715 133.611 382.658 127.366 385.382 123.902C388.371 120.114 391.361 116.354 394.35 112.566C400.27 105.077 406.161 97.5881 412.081 90.0993C412.081 90.0993 412.081 90.0697 412.11 90.0697C413.265 89.2409 413.59 87.3169 411.874 86.7249ZM387.454 103.478C383.813 108.658 379.728 113.572 375.791 118.515C374.4 120.262 371.47 118.367 372.861 116.591C376.739 111.559 380.498 106.409 384.642 101.614C386.033 100.045 388.756 101.673 387.454 103.478ZM395.475 92.2009C394.498 93.6217 393.522 95.0129 392.426 96.3449C391.864 97.0553 390.946 97.3513 390.118 96.8185C389.348 96.3153 389.17 95.2793 389.644 94.5097C390.562 93.0593 391.598 91.6977 392.663 90.3361C393.226 89.6257 394.202 89.3297 395.002 89.8625C395.742 90.3657 395.978 91.4609 395.475 92.2009Z" fill="black"/>
<path d="M462.138 16.3952C447.96 -0.535953 424.221 -3.02235 404.833 5.38405C390.092 11.7776 382.544 34.5401 385.208 50.1393C388.109 67.1889 401.281 80.5385 418.064 84.3865C426.411 86.3104 435.025 85.8665 443.076 82.8177C450.861 79.8577 457.639 74.4112 462.612 67.7808C473.889 52.7736 474.422 31.0472 462.138 16.3952ZM389.056 27.6136C391.187 22.0784 394.177 16.6912 398.261 12.34C399.564 10.9488 401.932 13.0208 400.777 14.5304C397.373 18.9704 394.384 23.4992 392.341 28.7384C391.572 30.84 388.257 29.7153 389.056 27.6136ZM456.1 57.5688C449.884 68.5208 438.044 75.4473 425.375 74.3521C412.795 73.2569 401.399 65.0576 397.107 53.04C392.223 39.3944 397.018 21.4272 410.634 14.7376C411.019 14.5601 411.226 14.4712 411.759 14.2344C414.66 12.932 425.079 11.0968 431.976 11.9848C438.517 12.8432 444.881 15.5072 449.913 19.7992C460.836 29.064 463.085 45.2848 456.1 57.5688Z" fill="black"/>
<path d="M498.636 241.888C494.077 230.877 488.986 220.102 484.457 209.062C479.929 198.021 475.666 186.891 471.7 175.673C471.226 174.341 469.391 173.926 468.444 175.051C455.361 190.798 442.307 206.575 429.283 222.352C425.613 226.822 421.913 231.262 418.242 235.731C417.354 236.797 417.798 238.75 419.337 238.958C441.389 241.562 463.234 245.736 484.753 251.301C486.973 251.863 487.625 248.4 485.434 247.808C465.129 242.243 444.409 238.158 423.511 235.524C435.795 220.665 448.049 205.835 460.333 190.976C463.323 187.365 466.283 183.754 469.243 180.142C472.943 190.384 476.821 200.566 480.935 210.63C485.464 221.671 489.993 232.89 495.469 243.486C496.416 245.233 499.405 243.723 498.636 241.888Z" fill="black"/>
<path d="M470.811 203.734C471.048 201.543 471.255 199.234 470.367 197.251C469.598 195.534 468.058 194.35 466.253 194.498C464.358 194.646 462.849 196.156 461.842 197.873C459.83 201.366 458.734 205.717 458.734 209.742C458.734 214.33 459.534 219.007 459.978 221.286C460.362 223.24 463.293 223.802 464.388 222.115C465.454 220.398 468.325 214.508 469.509 210.364C470.13 208.203 470.574 205.983 470.811 203.734Z" fill="black"/>
<path d="M462.341 228.006C461.512 227.621 460.594 227.591 459.766 227.887C459.618 227.887 459.44 227.917 459.292 227.946C456.954 228.598 456.154 231.735 457.516 233.6C458.966 235.583 461.926 235.79 463.554 233.896C465.212 232.061 464.62 229.101 462.341 228.006Z" fill="black"/>
<path d="M302.148 157.854C301.941 156.581 300.786 156.226 299.78 156.522C294.866 156.492 289.923 156.906 285.01 157.054C279.918 157.202 274.827 157.291 269.736 157.321C265.444 157.35 244.99 157.143 239.781 156.966C234.009 156.788 228.237 156.522 222.465 156.226C220.985 156.166 220.422 157.498 220.718 158.623C218.202 167.947 222.524 178.218 231.197 182.658C239.87 187.128 251.266 184.79 256.268 176.028C258.843 171.529 258.902 166.23 258.458 161.198C260.886 161.228 263.313 161.228 265.74 161.198C264.911 170.67 268.907 181.178 277.906 185.441C282.138 187.424 287.17 187.779 291.551 186.003C296.08 184.168 299.129 180.409 300.875 175.939C303.036 170.463 303.095 163.626 302.148 157.854ZM252.42 174.814C249.726 178.958 244.872 181.178 240.018 181.03C234.897 180.882 230.042 178.189 227.082 174.045C224.182 169.99 223.294 164.958 224.33 160.162C234.394 160.754 244.458 161.08 254.522 161.198C254.906 165.846 255.084 170.73 252.42 174.814ZM297.708 172.506C296.79 176.058 294.896 179.55 291.64 181.445C284.684 185.559 276.278 181.445 272.519 175.051C270.032 170.848 269.41 165.994 269.618 161.198C273.969 161.169 278.32 161.11 282.671 160.991C287.822 160.873 293.09 160.902 298.241 160.488C298.3 164.514 298.744 168.48 297.708 172.506Z" fill="#35FFC9"/>
<path d="M115.967 324.65C112.711 321.66 107.383 321.453 104.157 324.561C102.617 326.041 104.601 328.705 106.465 327.55C108.952 325.982 112.06 325.745 113.954 328.379C116.026 331.25 114.132 334.891 112.711 337.614C109.988 342.824 106.495 347.619 102.351 351.793C94.1814 360.081 83.703 365.971 72.3366 368.487C68.9918 369.227 64.9662 369.997 61.799 368.221C59.4902 366.918 58.1878 363.87 59.727 361.561C60.8814 359.844 58.1878 357.713 56.8262 359.341C54.5766 362.005 54.7542 365.705 56.619 368.546C58.7206 371.743 62.3022 373.075 66.0318 373.194C69.791 373.312 73.6686 372.365 77.2502 371.358C80.8022 370.322 84.295 368.961 87.6102 367.333C100.397 361.058 111.734 350.135 117.477 336.963C119.282 332.79 119.578 327.935 115.967 324.65Z" fill="#35FFC9"/>
<path d="M463.556 383.909C461.839 388.734 454.676 386.602 451.272 385.478C446.98 384.027 442.925 381.926 439.225 379.291C432.002 374.141 426.171 366.8 423.004 358.482C421.021 353.273 419.452 346.82 423.774 342.321C425.461 340.574 422.945 338.118 421.139 339.686C416.255 343.86 416.551 351.053 418.209 356.677C419.748 361.827 422.205 366.741 425.372 371.092C431.677 379.735 440.557 386.514 450.798 389.799C454.084 390.865 457.666 391.694 461.099 390.865C464.148 390.125 466.634 388.023 467.7 385.063C468.618 382.429 464.474 381.304 463.556 383.909Z" fill="#35FFC9"/>
<path d="M131.271 96.4928C121.444 98.18 111.647 100.222 101.849 102.117C97.0539 103.034 92.2291 103.982 87.4339 104.899C82.4611 105.846 77.3699 106.586 72.4563 107.889C70.5323 108.392 70.8579 111.707 72.9299 111.441C77.9323 110.819 82.9051 109.665 87.8483 108.718C92.7619 107.77 97.6459 106.853 102.56 105.906C112.476 104.011 122.392 102.265 132.278 100.163C134.676 99.6304 133.61 96.0784 131.271 96.4928Z" fill="#35FFC9"/>
<path d="M114.722 106.675C107.677 108.185 100.692 110.168 93.7357 112.003C91.3973 112.625 92.4037 116.177 94.7421 115.614C101.728 113.898 108.832 112.299 115.729 110.286C118.008 109.606 117.061 106.172 114.722 106.675Z" fill="#35FFC9"/>
<path d="M437.751 27.0512C435.975 26.992 434.584 28.6496 433.341 29.7152C432.009 30.84 430.707 31.9944 429.434 33.1784C427.717 34.7176 426.059 36.2864 424.402 37.9144C422.981 36.4344 421.56 34.984 420.139 33.5336C418.038 31.4024 415.788 29.0048 413.242 27.436C411.407 26.3112 409.868 28.768 410.726 30.3072C411.466 31.6392 412.591 32.7936 413.568 33.948C414.575 35.1616 415.64 36.316 416.735 37.4704C418.038 38.8912 419.37 40.2824 420.702 41.6736C418.896 43.568 417.12 45.492 415.403 47.4752C414.279 48.748 413.242 50.08 412.206 51.4416C411.2 52.8032 409.927 54.3424 409.572 56.0296C409.306 57.332 410.697 58.812 412.029 58.1608C413.568 57.4504 414.663 56.1184 415.788 54.9048C416.883 53.7208 417.949 52.5368 419.014 51.3232C420.761 49.34 422.537 47.3864 424.372 45.492C428.161 49.4288 431.92 53.3656 435.709 57.2728C436.715 58.3088 438.58 58.0424 439.468 57.0064C440.475 55.852 440.208 54.2832 439.202 53.2472C435.502 49.3992 431.802 45.5512 428.102 41.7032C429.73 40.1048 431.387 38.536 433.074 36.9968C434.229 35.9608 435.383 34.9248 436.567 33.9184C437.929 32.764 439.912 31.6688 440.208 29.7744C440.415 28.2056 439.291 27.1104 437.751 27.0512Z" fill="#35FFC9"/>
<path d="M244.047 190.887C242.952 189.171 240.732 188.697 238.867 188.46C236.173 188.135 229.129 188.401 229.188 192.397C229.217 193.759 230.283 195.505 231.911 196.156C233.805 196.926 235.966 197.163 238.009 197.044C239.785 196.955 241.975 196.778 243.396 195.594C244.817 194.41 245.083 192.456 244.047 190.887Z" fill="#FFEF00"/>
<path d="M295.078 190.887C293.983 189.171 291.763 188.697 289.898 188.46C287.205 188.135 280.16 188.401 280.219 192.397C280.249 193.759 281.314 195.505 282.942 196.156C284.837 196.926 286.997 197.163 289.04 197.044C290.816 196.955 293.006 196.778 294.427 195.594C295.818 194.41 296.085 192.456 295.078 190.887Z" fill="#FFEF00"/>
<path d="M227.142 218.356C226.58 222.026 223.827 225.134 219.801 224.572C215.805 224.01 214.059 220.221 213.348 216.669C211.632 208.292 213.615 199.294 217.966 192.012C219.209 189.91 215.983 188.016 214.71 190.088C210.27 197.281 208.228 205.983 209.145 214.419C209.56 218.208 210.448 222.115 213.023 225.075C215.539 227.946 219.683 229.13 223.353 228.154C227.527 227.058 230.664 223.122 230.783 218.83C230.812 216.817 227.468 216.254 227.142 218.356Z" fill="#FFEF00"/>
<path d="M309.672 187.986C308.725 186.122 305.41 187.454 306.239 189.437C309.524 197.251 311.004 205.598 309.613 214.034C309.08 217.231 308.37 221.819 305.291 223.654C301.71 225.756 298.01 222.737 298.039 218.978C298.069 216.462 294.458 216.58 294.221 218.978C293.718 223.921 297.891 228.213 302.775 228.272C308.103 228.331 311.241 223.832 312.543 219.214C315.444 209.091 314.349 197.399 309.672 187.986Z" fill="#FFEF00"/>
<path d="M22.817 32.4089C21.0114 31.4025 18.673 31.9057 17.5778 33.7113C16.6306 35.2801 16.8082 37.5889 18.2882 38.7729C18.4954 38.9209 18.7026 39.0689 18.9098 39.1577C18.9986 39.2465 19.0874 39.3057 19.1762 39.3945C20.9226 40.7265 23.557 39.3353 24.445 37.6481C25.481 35.7241 24.6522 33.4153 22.817 32.4089Z" fill="#FFEF00"/>
<path d="M35.4264 29.4489C33.6208 28.4425 31.2824 28.9457 30.1872 30.7513C29.24 32.3201 29.4176 34.6289 30.8976 35.8129C31.1048 35.9609 31.312 36.1089 31.5192 36.1977C31.608 36.2865 31.6968 36.3457 31.7856 36.4345C33.532 37.7665 36.1664 36.3753 37.0544 34.6881C38.0904 32.7641 37.2912 30.4849 35.4264 29.4489Z" fill="#FFEF00"/>
<path d="M47.8873 26.5185C46.0817 25.5121 43.7433 26.0153 42.6481 27.8209C41.7009 29.3897 41.8785 31.6985 43.3585 32.8825C43.5657 33.0305 43.7729 33.1785 43.9801 33.2673C44.0689 33.3561 44.1577 33.4153 44.2465 33.5041C45.9929 34.8361 48.6273 33.4449 49.5153 31.7577C50.5809 29.8337 49.7521 27.5545 47.8873 26.5185Z" fill="#FFEF00"/>
<path d="M46.0547 29.9817C46.0547 30.0121 46.0851 30.0121 46.0547 29.9817C46.0851 30.0121 46.0851 30.0121 46.0547 29.9817C46.0851 30.0121 46.0547 30.0121 46.0547 29.9817Z" fill="#FFEF00"/>
<path d="M294.191 39.5721C286.643 39.5721 280.516 33.4449 280.516 25.8969C280.516 18.3489 286.643 12.2217 294.191 12.2217C301.739 12.2217 307.866 18.3489 307.866 25.8969C307.866 33.4449 301.739 39.5721 294.191 39.5721ZM294.191 18.2897C290.017 18.2897 286.613 21.6937 286.613 25.8673C286.613 30.0409 290.017 33.4449 294.191 33.4449C298.364 33.4449 301.768 30.0409 301.768 25.8673C301.768 21.6937 298.364 18.2897 294.191 18.2897Z" fill="#FFEF00"/>
<path d="M80.2377 224.394C72.6897 224.394 66.5625 218.267 66.5625 210.719C66.5625 203.171 72.6897 197.044 80.2377 197.044C87.7857 197.044 93.9129 203.171 93.9129 210.719C93.9129 218.267 87.7857 224.394 80.2377 224.394ZM80.2377 203.142C76.0641 203.142 72.6601 206.546 72.6601 210.719C72.6601 214.893 76.0641 218.297 80.2377 218.297C84.4113 218.297 87.8153 214.893 87.8153 210.719C87.8153 206.546 84.4113 203.142 80.2377 203.142Z" fill="#FFEF00"/>
</svg>
