<svg width="203" height="177" viewBox="0 0 203 177" fill="none" xmlns="http://www.w3.org/2000/svg">
<path d="M132.7 96.9762C132.7 96.9762 177.79 93.9099 189.809 63.9882C201.827 34.0665 202.489 17.5706 202.489 17.5706C202.489 17.5706 179.282 27.3527 161.792 36.0549C144.303 44.757 132.7 96.9762 132.7 96.9762Z" fill="#2CC974"/>
<path d="M128.223 122.919H127.396C127.396 93.6614 143.559 79.9026 154.251 70.7846C155.826 69.4584 157.235 68.2977 158.478 67.137C166.849 59.5107 186.078 39.2884 186.244 39.1208L186.825 39.7022C186.66 39.8677 167.429 60.0921 159.057 67.7183L154.831 71.3639C144.221 80.3992 128.223 94.0752 128.223 122.919Z" fill="black"/>
<path d="M118.277 104.27C118.277 104.27 144.553 75.4262 126.151 44.5093C107.75 13.5924 93.8253 0.247498 93.8253 0.247498C93.8253 0.247498 87.5273 21.5498 83.8797 38.7078C80.232 55.8639 118.277 104.27 118.277 104.27Z" fill="#2CC974"/>
<path d="M0 114.879C0 114.879 15.5008 118.858 65.0655 103.028C88.1906 95.7328 117.698 109.657 117.698 109.657C117.698 109.657 97.8052 86.0354 82.5546 75.5912C50.3963 53.4613 0 114.879 0 114.879Z" fill="#2CC974"/>
<path d="M116.954 109.326C115.295 106.839 112.81 105.347 110.489 103.773C106.191 100.755 101.706 98.0138 97.0609 95.5673C86.0374 89.1845 73.4393 84.9575 60.5909 84.8748C53.7317 85.1109 47.038 87.0488 41.1134 90.5107C37.7141 92.4162 34.4824 94.6549 31.1658 96.6432L26.4423 99.2956C26.3676 99.3319 26.309 99.3945 26.2787 99.4712C26.2485 99.5479 26.2465 99.6327 26.2767 99.7115C26.4423 100.705 28.1823 99.1301 28.6809 98.9646C32.6595 96.8107 36.3879 94.241 40.201 91.9196C45.7542 88.5587 51.9796 86.4634 58.4371 85.7851C61.7879 85.6095 65.1469 85.7771 68.4654 86.2837C74.7271 87.176 80.8516 88.8474 86.6995 91.2555C93.0157 94.1078 99.134 97.3759 105.018 101.038C108.749 103.69 113.389 106.092 115.876 109.326C116.125 109.492 116.207 109.823 116.456 109.905C116.706 109.988 117.12 109.574 116.954 109.326Z" fill="black"/>
<path d="M160.717 176.214L172.403 108.912H80.068L92.7488 176.63L160.717 176.214Z" fill="#FFA451"/>
<path d="M174.889 108.912H77.5802V121.825H174.889V108.912Z" fill="#FF7245"/>
<path fill-rule="evenodd" clip-rule="evenodd" d="M174.081 109.719H78.3876V121.017H174.081V109.719ZM174.889 108.912V121.825H77.5802V108.912H174.889Z" fill="black"/>
</svg>
